<?xml version="1.0" encoding="UTF-8"?>
<svg width="77px" height="77px" viewBox="0 0 77 77" version="1.1" xmlns="http://www.w3.org/2000/svg" xmlns:xlink="http://www.w3.org/1999/xlink">
    <!-- Generator: sketchtool 52.5 (67469) - http://www.bohemiancoding.com/sketch -->
    <title>5F01C694-0ABF-4152-92C9-F1FE1862EE47</title>
    <desc>Created with sketchtool.</desc>
    <defs>
        <path d="M3.46153846,0 L31.5384615,8.8817842e-16 C33.4502164,5.36994741e-16 35,1.54978356 35,3.46153846 L35,31.5384615 C35,33.4502164 33.4502164,35 31.5384615,35 L3.46153846,35 C1.54978356,35 1.56639008e-15,33.4502164 1.33226763e-15,31.5384615 L8.8817842e-16,3.46153846 C6.54055967e-16,1.54978356 1.54978356,1.68345131e-15 3.46153846,1.33226763e-15 Z" id="path-1"></path>
        <filter x="-100.0%" y="-80.0%" width="300.0%" height="300.0%" filterUnits="objectBoundingBox" id="filter-2">
            <feOffset dx="0" dy="7" in="SourceAlpha" result="shadowOffsetOuter1"></feOffset>
            <feGaussianBlur stdDeviation="10.5" in="shadowOffsetOuter1" result="shadowBlurOuter1"></feGaussianBlur>
            <feColorMatrix values="0 0 0 0 0   0 0 0 0 0   0 0 0 0 0  0 0 0 0.1 0" type="matrix" in="shadowBlurOuter1"></feColorMatrix>
        </filter>
    </defs>
    <g id="DesignDashboardAgents-" stroke="none" stroke-width="1" fill="none" fill-rule="evenodd">
        <g id="1a2-Dashboard-map" transform="translate(-973.000000, -634.000000)">
            <g id="popup" transform="translate(268.000000, 80.000000)">
                <g id="btn-" transform="translate(726.000000, 568.000000)">
                    <g id="Rectangle-3">
                        <use fill="black" fill-opacity="1" filter="url(#filter-2)" xlink:href="#path-1"></use>
                        <use fill="#FFFFFF" fill-rule="evenodd" xlink:href="#path-1"></use>
                    </g>
                    <circle id="Oval-3" fill="#937BF3" opacity="0.1" cx="17.5" cy="17.5" r="8.5"></circle>
                    <g id="agrandir-map" transform="translate(14.000000, 17.000000)" fill="#937BF3">
                        <polygon id="-" points="0 0 7.18652344 0 7.18652344 1.17431641 0 1.17431641"></polygon>
                    </g>
                </g>
            </g>
        </g>
    </g>
</svg>