<?xml version="1.0" encoding="UTF-8"?>
<svg width="70px" height="70px" viewBox="0 0 70 70" version="1.1" xmlns="http://www.w3.org/2000/svg" xmlns:xlink="http://www.w3.org/1999/xlink">
    <!-- Generator: sketchtool 51.1 (57501) - http://www.bohemiancoding.com/sketch -->
    <title>A33892C5-3A76-4CD8-B66D-284617380AA9</title>
    <desc>Created with sketchtool.</desc>
    <defs></defs>
    <g id="DesignDashboardAgents-" stroke="none" stroke-width="1" fill="none" fill-rule="evenodd">
        <g id="7b-AjoutEvent" transform="translate(-632.000000, -140.000000)">
            <g id="event-picto" transform="translate(633.000000, 141.000000)">
                <circle id="Oval-2" stroke="#1C2D4F" stroke-width="1.69000019" cx="34" cy="34" r="34"></circle>
                <path d="M42,31 L42,29.0001062 C42,28.447512 41.5536934,28 41.0049107,28 L41,28 C41,28.5523709 40.5561352,29 40,29 C39.4477153,29 39,28.5562834 39,28.0001925 L37,28 C37,28.5523709 36.5561352,29 36,29 C35.4477153,29 35,28.5562834 35,28.0001925 L33,28 C33,28.5523709 32.5561352,29 32,29 C31.4477153,29 31,28.5562834 31,28.0001925 L29,28 C29,28.5523709 28.5561352,29 28,29 C27.4477153,29 27,28.5562834 27,28.0001925 L26.9950893,28 C26.4457283,28 26,28.4469433 26,29.0001062 L26,31 L42,31 Z M42,33 L26,33 L26,41.9998938 C26,42.552488 26.4463066,43 26.9950893,43 L41.0049107,43 C41.5542717,43 42,42.5530567 42,41.9998938 L42,33 Z M41,26 L41.0049107,26 C42.6594723,26 44,27.3441483 44,29.0001062 L44,41.9998938 C44,43.6564091 42.6600619,45 41.0049107,45 L26.9950893,45 C25.3405277,45 24,43.6558517 24,41.9998938 L24,29.0001062 C24,27.3435909 25.3399381,26 26.9950893,26 L27,26 L27,24.9998075 C27,24.4476291 27.4438648,24 28,24 C28.5522847,24 29,24.4437166 29,24.9998075 L29,26 L31,26 L31,24.9998075 C31,24.4476291 31.4438648,24 32,24 C32.5522847,24 33,24.4437166 33,24.9998075 L33,26 L35,26 L35,24.9998075 C35,24.4476291 35.4438648,24 36,24 C36.5522847,24 37,24.4437166 37,24.9998075 L37,26 L39,26 L39,24.9998075 C39,24.4476291 39.4438648,24 40,24 C40.5522847,24 41,24.4437166 41,24.9998075 L41,26 Z" id="Combined-Shape" fill="#1C2D4F"></path>
            </g>
        </g>
    </g>
</svg>