<?xml version="1.0" encoding="UTF-8"?>
<svg width="42px" height="42px" viewBox="0 0 42 42" version="1.1" xmlns="http://www.w3.org/2000/svg" xmlns:xlink="http://www.w3.org/1999/xlink">
    <!-- Generator: sketchtool 51.1 (57501) - http://www.bohemiancoding.com/sketch -->
    <title>8C28BECB-4CE5-44EE-9AE3-402C6D5FDD59-1185-00004F3757E4D7B5</title>
    <desc>Created with sketchtool.</desc>
    <defs></defs>
    <g id="Responsive-" stroke="none" stroke-width="1" fill="none" fill-rule="evenodd">
        <g id="2b-Dashboard-Produits-responsive" transform="translate(-28.000000, -1089.000000)">
            <g id="Tuile3" transform="translate(-7.000000, 953.000000)">
                <g id="Message" transform="translate(0.000000, 111.000000)">
                    <g id="Icons-/-Message" transform="translate(36.000000, 26.000000)">
                        <g id="Iconemessage-Black">
                            <circle id="Oval-2" stroke="#1C2D4F" cx="20" cy="20" r="20"></circle>
                            <path d="M19.5057498,27.9614997 C20.6037676,27.9614997 21.6680788,27.7240131 22.6736549,27.2681088 L25.8215673,27.9365039 C26.5970888,28.1011702 27.0841832,27.613639 26.9217612,26.8361154 L26.2668878,23.652488 C26.7223246,22.6756043 26.9614997,21.6076591 26.9614997,20.5057498 C26.9614997,16.3880529 23.6234468,13.05 19.5057498,13.05 C15.3880529,13.05 12.05,16.3880529 12.05,20.5057498 C12.05,24.6234468 15.3880529,27.9614997 19.5057498,27.9614997 Z M22.4911153,25.7969877 L22.0520989,26.0008474 C21.2573943,26.3698728 20.3938791,26.5603497 19.5057498,26.5603497 C16.1618867,26.5603497 13.45115,23.849613 13.45115,20.5057498 C13.45115,17.1618867 16.1618867,14.45115 19.5057498,14.45115 C22.849613,14.45115 25.5603497,17.1618867 25.5603497,20.5057498 C25.5603497,21.3970105 25.3685242,22.2634715 24.9969691,23.0604343 L24.7896211,23.4816099 L25.3282612,26.4035672 L22.4911153,25.7969877 Z M19.5057498,21.5816123 C20.0999323,21.5816123 20.5816123,21.0999323 20.5816123,20.5057498 C20.5816123,19.9115674 20.0999323,19.4298874 19.5057498,19.4298874 C18.9115674,19.4298874 18.4298874,19.9115674 18.4298874,20.5057498 C18.4298874,21.0999323 18.9115674,21.5816123 19.5057498,21.5816123 Z M16.5034499,21.5816123 C17.0976323,21.5816123 17.5793124,21.0999323 17.5793124,20.5057498 C17.5793124,19.9115674 17.0976323,19.4298874 16.5034499,19.4298874 C15.9092675,19.4298874 15.4275874,19.9115674 15.4275874,20.5057498 C15.4275874,21.0999323 15.9092675,21.5816123 16.5034499,21.5816123 Z M22.5080498,21.5816123 C23.1022322,21.5816123 23.5839123,21.0999323 23.5839123,20.5057498 C23.5839123,19.9115674 23.1022322,19.4298874 22.5080498,19.4298874 C21.9138673,19.4298874 21.4321873,19.9115674 21.4321873,20.5057498 C21.4321873,21.0999323 21.9138673,21.5816123 22.5080498,21.5816123 Z" id="Combined-Shape" stroke="#FBFBFD" stroke-width="0.1" fill="#1C2D4F"></path>
                        </g>
                    </g>
                </g>
            </g>
        </g>
    </g>
</svg>