<?xml version="1.0" encoding="UTF-8"?>
<svg width="306px" height="165px" viewBox="0 0 306 165" version="1.1" xmlns="http://www.w3.org/2000/svg" xmlns:xlink="http://www.w3.org/1999/xlink">
    <!-- Generator: sketchtool 52.2 (67145) - http://www.bohemiancoding.com/sketch -->
    <title>0D105B3C-9A46-4535-AF4F-5883136E127C</title>
    <desc>Created with sketchtool.</desc>
    <defs>
        <path d="M2.12267836,2.38738739 L5.3368655,3.58018018 L4.03552047,4.52252252 L1.72461988,4.36576577 L0.461099415,7.84234234 L1.08790643,11.3162162 L3.88242105,14.0225225 C10.1387836,15.8297297 12.5262339,13.872973 12.5262339,13.872973 C12.5262339,13.872973 11.114117,2.42972973 9.17695906,1.88288288 C7.24070175,1.33513514 3.67168421,0.578378378 3.67168421,0.578378378 L2.12267836,2.38738739 Z" id="path-1"></path>
        <linearGradient x1="100%" y1="100%" x2="17.2160046%" y2="17.9462613%" id="linearGradient-3">
            <stop stop-color="#6A7EB1" offset="0%"></stop>
            <stop stop-color="#07247A" offset="87%"></stop>
            <stop stop-color="#02247A" offset="100%"></stop>
        </linearGradient>
        <path d="M0.867263158,1.67477477 C0.494421053,2.38648649 0.477309942,3.1018018 0.699754386,3.33063063 C0.921298246,3.56126126 6.91018713,7.34774775 6.91018713,7.34774775 C6.91018713,7.34774775 8.02691228,8.05765766 8.15299415,6.81981982 C8.2565614,5.79279279 2.32891228,1.4963964 2.32891228,1.4963964 L2.77109942,0.578378378 C2.77109942,0.578378378 1.43643275,0.587387387 0.867263158,1.67477477" id="path-4"></path>
        <linearGradient x1="64.5648292%" y1="61.9808461%" x2="17.2160046%" y2="17.9462613%" id="linearGradient-6">
            <stop stop-color="#6A7EB1" offset="0%"></stop>
            <stop stop-color="#07247A" offset="87%"></stop>
            <stop stop-color="#02247A" offset="100%"></stop>
        </linearGradient>
        <path d="M0.618701754,1.71171171 C0.0657426901,2.64324324 0.919497076,4.00810811 1.36168421,4.23873874 C1.80297076,4.46846847 10.1775088,6.00810811 10.6719298,6.04594595 C11.1645497,6.08378378 12.3911462,5.26576577 10.4359766,4.16756757 C8.48080702,3.07027027 2.52884211,1.41531532 2.52884211,1.41531532 L2.62520468,0.762162162 C2.62520468,0.762162162 1.1725614,0.781981982 0.618701754,1.71171171" id="path-7"></path>
        <path d="M0.666432749,1.68828829 C-0.0153099415,3.44144144 3.06559064,4.56126126 3.66538012,4.75585586 C4.26516959,4.95045045 10.589076,5.91531532 11.0267602,5.35585586 C11.4644444,4.7963964 11.5671111,3.92522523 9.80106433,3.70720721 C4.80912281,3.09279279 2.71616374,1.11981982 2.71616374,1.11981982 L2.87916959,0.838738739 C2.87916959,0.838738739 2.48471345,0.605405405 2.00740351,0.605405405 C1.54360234,0.605405405 1.00235088,0.824324324 0.666432749,1.68828829" id="path-9"></path>
        <path d="M8.08454971,1.2045045 C8.08454971,1.2045045 5.9114386,3.11531532 3.20968421,5.05495495 C0.509730994,6.99369369 0.564666667,7.30990991 0.812327485,7.71351351 C1.13473684,8.23783784 3.62215205,7.48738739 5.3188538,6.3963964 C7.16505263,5.20990991 8.71676023,4.47117117 8.67443275,5.15315315 C8.49791813,8.02342342 9.97757895,9.54594595 12.2038246,10.4351351 L12.8585497,12.2765766 L12.9477076,12.5261261 L13.1224211,13.0162162 L13.4268187,13.872973 C13.7231111,13.7369369 13.9716725,13.4153153 13.9716725,13.4153153 C13.9716725,13.4153153 16.610386,14.6558559 17.3182456,14.9720721 C19.9803743,16.163964 21.7545263,16.7108108 21.7545263,16.7108108 L24.3004795,13.8900901 L23.0432632,8.04414414 L15.7116023,7.33783784 C15.7116023,7.33783784 14.087848,5.97837838 13.2818246,4.08738739 C12.6334035,2.56666667 10.3333099,0.88018018 8.9202924,0.88018018 C8.57716959,0.88018018 8.28718129,0.979279279 8.08454971,1.2045045" id="path-11"></path>
        <path d="M5.67368421,5.49369369 C5.80336842,7.39099099 5.03516959,9.1981982 5.03516959,9.1981982 L0.464701754,13.4783784 L0.701555556,18.2189189 L4.65332164,19.1036036 L9.0265614,13.4810811 C9.0265614,13.4810811 9.30574269,13.6810811 9.66867836,13.6297297 L9.5597076,12.7945946 L9.49756725,12.3171171 L9.46604678,12.072973 L9.23279532,10.2783784 C10.695345,8.60720721 11.2762222,6.72792793 9.92444444,4.43513514 C9.60203509,3.88918919 11.1933684,3.84684685 13.2160819,4.04864865 C15.0757895,4.23423423 17.4434269,3.80810811 17.4893567,3.23873874 C17.5244795,2.8027027 17.4362222,2.51801802 14.3922456,2.05315315 C11.3473684,1.58918919 8.75098246,0.927027027 8.75098246,0.927027027 C8.65281871,0.889189189 8.55105263,0.871171171 8.44838596,0.871171171 C7.14884211,0.871171171 5.55390643,3.73333333 5.67368421,5.49369369" id="path-13"></path>
        <path d="M7.65497076,0.957657658 C7.65497076,0.957657658 1.13203509,2.80810811 0.895181287,3.73603604 C0.610596491,4.85225225 1.80837427,4.58918919 1.80837427,4.58918919 C1.80837427,4.58918919 8.22233918,3.2018018 8.4880117,3.07207207 C8.7545848,2.94234234 8.96712281,2.31441441 8.86985965,1.57747748 C8.71946199,0.45045045 7.56130994,0.0171171171 7.56130994,0.0171171171 L7.65497076,0.957657658 Z" id="path-15"></path>
        <path d="M8.86625731,1.08018018 C8.86625731,1.08018018 3.32676023,2.51441441 1.49767251,3.4981982 C-0.33051462,4.48288288 0.79071345,5.25945946 1.24911111,5.23423423 C1.70660819,5.20720721 9.48766082,3.92072072 9.90102924,3.71441441 C10.3143977,3.50810811 11.1267251,2.25855856 10.6305029,1.38738739 C10.1333801,0.516216216 8.78790643,0.473873874 8.78790643,0.473873874 L8.86625731,1.08018018 Z" id="path-17"></path>
        <path d="M10.6115906,1.8981982 C9.19226901,2.30810811 7.95846784,2.8954955 6.89217544,3.6018018 C6.87326316,3.61351351 6.84444444,3.63153153 6.84444444,3.63153153 L6.84534503,3.63153153 C3.18266667,6.08198198 1.49497076,9.92072072 0.890678363,12.6297297 C0.603391813,13.9144144 0.85825731,16.1333333 1.59043275,18.6918919 C1.35538012,19.5162162 1.50487719,20.6846847 2.32350877,22.3387387 C2.94221053,23.5882883 3.58612865,24.4990991 4.22464327,25.154955 C4.76679532,26.1684685 5.3719883,27.1594595 6.0294152,28.1045045 L5.72321637,28.0396396 C5.72321637,28.0396396 10.8214269,33.4675676 9.65426901,36.2414414 C8.48621053,39.0144144 0.199929825,42.3243243 0.199929825,42.3243243 L19.9362456,51.7459459 L31.9104211,50.0711712 L37.2247719,43.6657658 L33.1991579,33.9657658 L30.1407719,33.2720721 C31.203462,32.5981982 31.9077193,31.8405405 32.196807,31.0990991 C33.1604327,28.6324324 31.3700702,24.8234234 30.9792164,20.8846847 L30.7369591,16.045045 C30.6018713,13.2783784 30.2020117,9.25855856 29.0375556,6.52702703 C27.1067018,1.9990991 21.6905848,1.04504505 21.6905848,1.04504505 C20.3316023,0.762162162 19.0167485,0.643243243 17.7676374,0.643243243 C14.964117,0.643243243 12.4929123,1.23873874 10.6115906,1.8981982" id="path-19"></path>
        <linearGradient x1="-42.3060706%" y1="0%" x2="47.6562005%" y2="78.8975091%" id="linearGradient-21">
            <stop stop-color="#98B6F7" offset="0%"></stop>
            <stop stop-color="#192C50" offset="87%"></stop>
            <stop stop-color="#192C50" offset="100%"></stop>
        </linearGradient>
        <path d="M64.2756374,1.89459459 C64.2756374,1.89459459 48.0119766,14.2675676 39.6824678,23.0189189 C31.3529591,31.7693694 28.0424094,33.7900901 28.0424094,33.7900901 C28.0424094,33.7900901 15.2613099,32.2558559 2.88907602,30.5504505 C2.88907602,30.5504505 3.99949708,34.5261261 0.649321637,38.7693694 C0.649321637,38.7693694 23.4980585,46.4900901 31.0656725,45.6315315 C36.6114737,45.0027027 59.3170175,32.5576577 61.1650175,31.6261261 C63.0130175,30.6954955 66.3568889,26.3054054 73.4354854,30.9630631 L81.7568889,30.0603604 L87.1018596,17.6018018 L80.8815205,8.05405405 L71.5181404,0.881081081 L64.2756374,1.89459459 Z" id="path-22"></path>
        <path d="M10.4738012,2.26756757 C16.6563158,7.37027027 14.9253918,13.4810811 14.9253918,13.4810811 C11.4446316,22.7234234 0.760994152,19.3126126 0.760994152,19.3126126 L2.51263158,24.2711712 L12.4100585,26.0693694 L23.0081404,16.5288288 L20.9079766,1.5036036 L18.6303977,0.530630631 L10.4738012,2.26756757 Z" id="path-24"></path>
        <path d="M34.8688421,16.3459459 C33.7431111,17.8369369 32.9902222,19.8693694 31.3079298,20.5486486 C29.6247368,21.2288288 21.1358246,21.972973 17.6478596,22.4603604 C14.1607953,22.9477477 0.68174269,26.1432432 0.68174269,26.1432432 C0.68174269,26.1432432 3.30694737,44.9198198 7.98278363,43.0621622 C12.6586199,41.2063063 41.0972865,29.109009 44.5096023,25.963964 C47.9219181,22.8189189 59.9870526,5.27207207 59.9870526,5.27207207 C59.316117,0.474774775 55.4165848,0.131531532 55.4165848,0.131531532 C49.6789591,3.6027027 35.9927719,14.8540541 34.8688421,16.3459459" id="path-26"></path>
        <path d="M172.425064,0.321621622 C170.796807,1.13063063 172.765485,8.98558559 172.093649,16.6297297 C171.420912,24.2738739 171.454234,26.5927928 169.804363,29.3306306 C168.156292,32.0675676 127.652491,48.8873874 117.128257,52.7990991 C106.605825,56.7117117 104.158035,57.9936937 101.735462,59.4585586 C99.3128889,60.9225225 94.4461287,71.3315315 94.4452281,71.3324324 C92.7944561,71.4657658 91.7245614,71.5603604 91.4453801,71.5990991 C90.4763509,71.7342342 88.9921871,72.0801802 87.3774386,72.7009009 C87.0694386,72.809009 86.9199415,72.8810811 86.9199415,72.8810811 L86.9190409,72.8810811 C85.1268772,73.6189189 83.2176374,74.6990991 81.6947485,76.2135135 C78.6525731,79.2378378 68.2283041,91.7477477 68.2283041,91.7477477 C60.6237661,84.145045 54.8185965,69.3621622 53.9126082,65.5846847 C53.0066199,61.809009 48.5640351,49.8405405 48.3208772,48.9936937 C48.0759181,48.1459459 46.6340819,46.8369369 45.2588889,46.9036036 C43.8836959,46.9702703 40.04,47.381982 39.2105614,47.7504505 C38.3811228,48.118018 36.1710877,50.3162162 36.1710877,50.3162162 L37.7588187,49.9675676 C45.9973684,41.3864865 45.6128187,64.7333333 45.6128187,64.7333333 C37.4967485,73.2963964 28.3720234,71.0477477 28.3720234,71.0477477 C15.4711462,57.9972973 4.88837427,58.818018 4.88837427,58.818018 C4.88837427,58.818018 3.18176608,59.2126126 1.66247953,60.054955 C0.144093567,60.8972973 0.334116959,62.254955 0.334116959,62.254955 C14.8344327,62.3684685 20.5603509,75.2747748 20.5603509,75.2747748 C20.5603509,75.2747748 22.1660936,80.0198198 19.4499298,85.7117117 C16.7346667,91.4045045 8.17821053,90.536036 8.17821053,90.536036 C7.68739181,91.8054054 8.14759064,92.354955 8.14759064,92.354955 L9.35887719,93.2684685 C10.5683626,94.181982 16.8310292,100.238739 23.9375439,107.694595 C31.0449591,115.14955 41.744807,128.169369 54.8591228,135.216216 C67.9734386,142.264865 75.2438596,135.397297 75.2438596,135.397297 C75.2438596,135.397297 83.8543509,136.576577 92.373883,127.8 C98.6869825,121.298198 107.021895,104.64955 110.919626,96.454955 C145.989298,103.666667 171.132725,101.89009 175.723006,102.378378 C180.440269,102.88018 185.524971,109.897297 190.452971,107.754955 C195.38007,105.613514 195.118901,103.645045 196.685018,97.1126126 C198.252035,90.5792793 201.628327,90.6117117 203.77352,82.481982 C205.919614,74.3513514 197.872889,67.3693694 195.715088,67.8027027 C193.269099,68.2927928 191.687673,75.8657658 189.630737,82.7720721 C186.384129,93.6756757 183.078082,92.6531532 183.078082,92.6531532 C183.078082,92.6531532 167.249404,87.7954955 132.268889,77.7882883 C127.285953,76.3621622 122.817251,75.2522523 118.792538,74.381982 L119.056409,73.5756757 C119.056409,73.5756757 118.942035,71.1477477 129.211404,68.6585586 C146.276585,61.7792793 151.692702,56.6081081 162.641111,49.3189189 C162.641111,49.3189189 169.595427,42.6468468 172.644807,43.3783784 C175.117813,42.8990991 177.726807,43.1009009 180.347509,42.8423423 C182.503509,42.6306306 186.089637,39.3774775 184.621684,35.2981982 C182.825918,30.3081081 184.170491,21.9477477 184.421754,19.5891892 C184.672117,17.2315315 184.427158,11.4198198 181.432713,6.61171171 C178.834526,2.43963964 175.188959,0.162162162 173.205871,0.162162162 C172.904175,0.162162162 172.640304,0.215315315 172.425064,0.321621622" id="path-28"></path>
        <linearGradient x1="19.6136193%" y1="49.6517143%" x2="93.0773922%" y2="23.4967727%" id="linearGradient-30">
            <stop stop-color="#F8CC6A" stop-opacity="0.9" offset="0%"></stop>
            <stop stop-color="#937BF3" stop-opacity="0.8" offset="76.0631066%"></stop>
            <stop stop-color="#F37BF0" stop-opacity="0.2" offset="100%"></stop>
        </linearGradient>
        <filter x="1.4%" y="-4.5%" width="101.3%" height="109.1%" filterUnits="objectBoundingBox" id="filter-31">
            <feGaussianBlur stdDeviation="1" in="SourceGraphic"></feGaussianBlur>
        </filter>
        <path d="M46.5863509,2.45945946 C46.7043275,5.68378378 46.9555906,16.1342342 46.6980234,19.1378378 C46.4404561,22.1414414 46.2495322,27.0477477 44.623076,29.3306306 C44.623076,29.3306306 42.5184094,31.0369369 38.441462,32.9855856 C34.3645146,34.9333333 1.50127485,49.0414414 1.50127485,49.0414414 C1.50127485,49.0414414 -4.64701754,61.2603604 8.52223392,66.772973 C19.0689825,63.2990991 41.5484795,46.0468468 43.7594152,44.8603604 C47.0969825,43.0684685 49.3412398,43.0927928 50.2643392,43.1162162 C50.4930877,43.1234234 50.6407836,43.1288288 50.7047251,43.1072072 C50.8082924,43.1081081 51.0064211,43.1072072 51.245076,43.1063063 C51.6557427,43.1045045 52.1888889,43.1027027 52.5896491,43.109009 C53.9180117,43.1297297 55.5588772,43.0342342 59.3395322,41.6099099 C59.9735439,41.3711712 58.6929123,41.627027 59.2395673,41.0675676 C61.9134035,38.3315315 59.8231462,35.0657658 58.9756959,28.5459459 C58.4659649,24.6315315 60.2446199,17.8954955 58.7568538,12.4828829 C55.7489006,1.53873874 48.5109006,0.143243243 48.5109006,0.143243243 C48.5109006,0.143243243 48.2461287,0.0252252252 47.9120117,0.0252252252 C47.3203275,0.0252252252 46.5116023,0.396396396 46.5863509,2.45945946" id="path-32"></path>
        <linearGradient x1="-24.1227612%" y1="0%" x2="64.5648292%" y2="61.9808461%" id="linearGradient-34">
            <stop stop-color="#937BF3" offset="0%"></stop>
            <stop stop-color="#1A2D51" offset="87%"></stop>
            <stop stop-color="#1A2D51" offset="100%"></stop>
        </linearGradient>
        <path d="M81.3318129,0.135135135 C78.5219883,0.352252252 76.7298246,9.2981982 76.7298246,9.2981982 C76.7298246,9.2981982 72.5574152,26.1621622 68.7038129,25.0855856 C68.7038129,25.0855856 45.5020468,18.1963964 44.7383509,17.9738739 C43.9764561,17.7513514 18.6727251,10.4387387 17.4434269,10.0927928 C16.2141287,9.74594595 7.82338012,7.58108108 7.82338012,7.58108108 C7.82338012,7.58108108 -3.25291228,17.0144144 2.19562573,29.9891892 C2.19562573,29.9891892 21.1889591,33.3774775 30.2380351,33.8279279 C33.1172047,33.9702703 38.0695205,34.3324324 43.1587251,34.5126126 C49.9590409,34.7540541 56.9926082,34.8045045 59.5484678,34.8486486 C64.4818713,34.9324324 66.9809942,38.1351351 69.8565614,39.5306306 C70.4590526,39.8234234 71.7036608,40.4216216 73.0950643,40.6351351 C74.5278947,40.854955 74.8899298,40.8 75.6671345,40.8 C75.969731,40.8 79.5837778,40.9018018 79.5837778,40.9018018 C82.0045497,37.4675676 82.3278596,34.245045 82.6628772,31.1036036 C82.7061053,30.7045045 82.7736491,29.7567568 82.8402924,29.372973 C82.9987953,28.4603604 83.8111228,26.1468468 84.2235906,25.3486486 C86.0850994,21.7522523 86.5966316,22.418018 88.964269,16.7774775 C90.9500585,12.045045 89.3407135,8.06666667 87.7295673,5.4990991 C85.6636257,2.20720721 83.4634971,0.127927928 81.5344444,0.127927928 C81.4669006,0.127927928 81.3993567,0.12972973 81.3318129,0.135135135" id="path-35"></path>
        <linearGradient x1="-100.202541%" y1="-7.16576472%" x2="64.5648292%" y2="61.9808461%" id="linearGradient-37">
            <stop stop-color="#937BF3" offset="0%"></stop>
            <stop stop-color="#1A2D51" offset="87%"></stop>
            <stop stop-color="#1A2D51" offset="100%"></stop>
        </linearGradient>
        <path d="M15.2261871,74.3765766 L0.385450292,71.9657658 C0.385450292,71.9657658 2.17671345,63.1711712 5.81867836,63.1711712 C9.46064327,63.1711712 37.2553918,67.0225225 58.0643041,43.4234234 C58.0643041,43.4234234 62.3105614,38.3756757 64.5638246,38.7864865 C66.8170877,39.1954955 70.5040819,41.6540541 71.1191813,40.2198198 C71.7333801,38.7864865 71.9378129,35.9171171 75.0106082,34.8918919 C78.0834035,33.8675676 78.6985029,25.5801802 77.8789708,22.6540541 C77.0594386,19.7279279 70.913848,7.43333333 70.2996491,4.76936937 C69.6845497,2.10540541 68.3399766,-0.132432432 69.7277778,0.17027027 C71.1155789,0.473873874 74.8277895,0.663963964 78.6066433,7.94144144 C82.3854971,15.2198198 80.6797895,21.0684685 80.6203509,22.6540541 C80.5600117,24.2405405 80.0989123,29.2342342 81.5497544,34.0099099 C82.7628421,38.0063063 81.2759766,41.509009 81.2759766,41.509009 C81.2759766,41.509009 78.5868304,42.3846847 77.902386,42.5765766 C73.7110643,43.754955 71.3875556,42.4099099 67.6483275,43.7990991 C63.9090994,45.1891892 60.3905146,48.3585586 56.5900468,50.9981982 C52.7904795,53.6378378 39.5482807,64.1063063 24.3770292,69.0234234" id="path-38"></path>
        <path d="M1.20047953,0.462162162 C0.99154386,0.498198198 0.783508772,0.532432432 0.579076023,0.558558559" id="path-40"></path>
        <linearGradient x1="77.08641%" y1="-10261.9552%" x2="42.24927%" y2="-1866.20478%" id="linearGradient-42">
            <stop stop-color="#604BD8" offset="0%"></stop>
            <stop stop-color="#FFFFFF" offset="100%"></stop>
        </linearGradient>
        <path d="M274.393778,5.86936937 C276.971251,9.87657658 276.325532,16.3108108 273.068117,21.3603604 C270.535673,25.2855856 270.102491,26.1594595 269.261345,29.372973 C269.170386,29.7198198 269.172187,30.6990991 269.08393,31.1036036 C268.938936,31.7720721 268.106795,32.0738739 267.956398,32.945045 C267.146772,37.6558559 266.506456,40.9018018 266.00483,40.9018018 C265.469883,40.9018018 262.943743,40.8126126 262.624936,40.7918919 C261.524421,40.7225225 257.871649,41.6162162 251.747673,36.3855856 C251.747673,36.3855856 248.729813,34.7279279 243.373135,34.7018018 C238.016456,34.6756757 219.074456,34.8036036 203.421392,32.318018 C187.768327,29.8333333 182.965509,28.8900901 182.965509,28.8900901 C182.965509,28.8900901 171.535287,54.0783784 163.891123,60.7657658 C159.122526,64.9369369 155.898433,66.4621622 153.211988,67.1153153 C152.768901,67.3144144 152.369041,67.4009009 151.795368,67.5216216 C150.305801,67.836036 148.219146,67.781982 148.219146,67.781982 C148.219146,67.781982 145.585836,69.736036 140.961333,70.5126126 C140.602901,70.5972973 140.245368,70.6702703 139.890538,70.7324324 C140.111181,70.6918919 140.387661,70.6333333 140.70917,70.5576577 C139.619462,70.7279279 138.425287,70.8315315 137.130246,70.8288288 C130.148912,70.8171171 119.061813,64.6486486 107.52262,52.3873874 C95.9843275,40.127027 87.1342807,31.0864865 85.8500468,29.8405405 C84.5658129,28.5954955 80.3816959,25.6432432 80.1943743,24.7873874 C80.0070526,23.9306306 79.819731,24.0189189 80.2249942,22.9684685 C80.2249942,22.9684685 76.8297895,21.1891892 73.7957193,21.8882883 C73.7957193,21.8882883 68.9757895,24.5693694 67.914,25.1216216 C66.8531111,25.6720721 53.1435088,32.6324324 50.1940936,33.9936937 C47.2437778,35.354955 40.9000585,38.8927928 37.363462,38.5036036 C33.8259649,38.1153153 29.3284444,37.5081081 22.0138947,35.5252252 C14.699345,33.5432432 11.337462,32.5468468 8.35832749,31.4126126 C5.16575439,30.1972973 2.26407018,28.7297297 2.26407018,28.7297297 C2.26407018,28.7297297 1.97948538,29.0378378 1.71921637,29.1882883 L0.489918129,25.7504505 C0.489918129,25.7504505 1.30224561,25.8774775 2.50272515,25.5117117 C2.50272515,25.5117117 18.9293918,30.1594595 23.6052281,31.1495495 C28.2810643,32.1405405 36.4637778,35.4144144 38.2559415,34.4783784 C40.0481053,33.5432432 45.4254971,32.2189189 53.6082105,27.0738739 C61.7900234,21.9288288 72.2881404,10.6045045 78.5165848,15.0558559 C84.7450292,19.5063063 84.2659181,20.4279279 85.7852047,22.4702703 C87.3035906,24.5135135 89.1948187,24.2846847 90.4178129,24.3423423 C91.6417076,24.4018018 103.737462,20.9261261 113.77448,38.518018 C123.810596,56.109009 127.596655,59.5810811 132.48593,56.581982 C137.376105,53.5837838 138.480222,48.2198198 143.528,45.3792793 C148.574877,42.5396396 158.354327,41.7504505 158.51283,34.6495495 C158.670433,27.5495495 158.670433,16.3459459 167.187263,18.081982 C175.704994,19.818018 190.059415,31.3405405 206.62207,28.5774775 C223.183825,25.8135135 238.011053,27.0801802 241.481006,28.5774775 C244.950959,30.0738739 249.525029,34.8081081 251.418058,34.1756757 C253.311088,33.545045 255.996632,32.1252252 257.807708,33.545045 C259.620585,34.9648649 264.037053,38.4369369 264.50986,30.8630631 C264.983567,23.2882883 265.776082,-0.412612613 267.761871,0.235135135" id="path-43"></path>
        <linearGradient x1="42.1551768%" y1="82.6644581%" x2="46.8409417%" y2="62.8407259%" id="linearGradient-45">
            <stop stop-color="#665EB7" offset="0%"></stop>
            <stop stop-color="#000000" offset="87%"></stop>
            <stop stop-color="#000000" offset="100%"></stop>
        </linearGradient>
        <path d="M0.237754386,0.995495495 C0.237754386,0.995495495 4.76499415,6.73333333 4.68484211,16.4972973 C4.68484211,16.4972973 5.08380117,16.3279279 5.08650292,16.0846847 C5.08830409,15.8396396 5.09190643,10.5072072 4.34261988,5.98918919 C3.59423392,1.47297297 2.41987135,0.530630631 2.41987135,0.530630631 L0.237754386,0.995495495 Z" id="path-46"></path>
        <path d="M1.18697076,0.881081081 C0.855555556,0.9 0.334116959,1.89459459 0.334116959,1.89459459 C12.0038947,1.73423423 20.137076,14.081982 20.137076,14.081982 C13.328655,1.66396396 1.78766082,0.881081081 1.20318129,0.881081081 C1.19597661,0.881081081 1.1905731,0.881081081 1.18697076,0.881081081" id="path-48"></path>
        <path d="M10.9132865,4.67027027 C10.9132865,4.67027027 15.6071345,5.22522523 16.7265614,5.14234234 C17.8450877,5.05945946 18.2269357,5.14324324 19.4436257,4.87927928 C19.6651696,5.03423423 20.2019181,5.83513514 20.2019181,5.83513514 C23.0243509,9.49009009 22.2876725,13.4936937 22.2876725,13.4936937 C21.9346433,8.77477477 15.4198129,10.9387387 13.7285146,10.1630631 C12.0363158,9.38738739 13.7285146,7.86036036 13.7285146,7.86036036 C5.50797661,8.21351351 0.679040936,0.65045045 0.679040936,0.65045045" id="path-50"></path>
        <linearGradient x1="42.1551768%" y1="82.6644581%" x2="46.8409417%" y2="62.8407259%" id="linearGradient-52">
            <stop stop-color="#E3667A" offset="0%"></stop>
            <stop stop-color="#000000" offset="87%"></stop>
            <stop stop-color="#000000" offset="100%"></stop>
        </linearGradient>
        <path d="M17.1759532,2.51441441 L16.4689942,3.24504505 C16.4689942,3.24504505 6.25366082,7.05945946 2.91339181,1.22432432 C3.00525146,1.39369369 2.85575439,1.59459459 2.5585614,1.88378378 C2.20012865,2.23063063 2.01550877,2.39189189 1.45624561,2.91801802 C1.45624561,2.91801802 -0.791614035,8.19279279 3.24030409,10.054955 C3.24030409,10.054955 5.77094737,12.1072072 11.8138713,12.7783784 C11.8138713,12.7783784 22.1408772,14.5216216 22.5704561,11.3162162 C22.7109474,10.2666667 22.4650877,6.55855856 20.1667953,3.93873874 C20.1667953,3.93873874 20.4036491,2.94234234 20.4351696,2.01261261 C20.4531813,1.47297297 20.5909708,0.527027027 19.983076,0.527027027 C19.5435906,0.527027027 18.7168538,1.01981982 17.1759532,2.51441441" id="path-53"></path>
        <linearGradient x1="132.546579%" y1="149.971814%" x2="51.0918293%" y2="32.4778159%" id="linearGradient-55">
            <stop stop-color="#3D437F" offset="0%"></stop>
            <stop stop-color="#1A2D51" offset="87%"></stop>
            <stop stop-color="#1A2D51" offset="100%"></stop>
        </linearGradient>
        <path d="M0.201730994,0.272072072 C0.172011696,0.217117117 0.147695906,0.182882883 0.147695906,0.182882883 C0.165707602,0.213513514 0.183719298,0.241441441 0.201730994,0.272072072" id="path-56"></path>
        <linearGradient x1="8.44283%" y1="9.17845%" x2="-1.91337%" y2="1.04755%" id="linearGradient-58">
            <stop stop-color="#604BD8" offset="0%"></stop>
            <stop stop-color="#FFFFFF" offset="100%"></stop>
        </linearGradient>
        <path d="M10.4566901,0.406306306 C10.2180351,0.406306306 1.55530994,5.96486486 0.777204678,6.62342342 C0.000900584795,7.28108108 0.24045614,7.75945946 0.24045614,7.75945946 L5.49626901,18.7477477 C9.35437427,16.3594595 20.7413684,6.68648649 20.7413684,6.68648649 C20.7413684,6.68648649 12.3695322,0.705405405 11.8913216,0.406306306 C11.7319181,0.306306306 11.5463977,0.272972973 11.3599766,0.272972973 C10.9880351,0.272972973 10.6160936,0.406306306 10.4566901,0.406306306" id="path-59"></path>
        <linearGradient x1="24.6450089%" y1="15.4029015%" x2="83.8917387%" y2="71.5592185%" id="linearGradient-61">
            <stop stop-color="#5C64A8" offset="0%"></stop>
            <stop stop-color="#203660" offset="87%"></stop>
            <stop stop-color="#1A2D51" offset="100%"></stop>
        </linearGradient>
        <path d="M0.652023392,1.23693694 C0.652023392,1.23693694 0.389052632,10.8927928 3.04307602,10.9747748 C5.60433918,11.0531532 5.65026901,8.11891892 3.99319298,1.62162162 L3.82568421,0.624324324 L0.652023392,1.23693694 Z" id="path-62"></path>
        <path d="M1.55260819,0.336036036 C1.48956725,5.02072072 2.13438596,9.27207207 3.26101754,9.8036036 C4.47950877,10.3783784 5.33146199,9.62882883 5.33146199,9.62882883 C4.97663158,10.1207207 4.10936842,10.6522523 3.20067836,10.5306306 C2.2919883,10.4099099 1.43553216,8.74684685 1.19597661,7.16756757 C0.644818713,3.53693694 0.838444444,0.835135135 0.838444444,0.835135135" id="path-64"></path>
        <path d="M1.50847953,0.610810811 C1.50847953,0.610810811 -0.541251462,10.0423423 1.53549708,10.2099099 C4.03011696,10.4099099 4.87576608,0.472972973 4.87576608,0.472972973 L1.50847953,0.610810811 Z" id="path-66"></path>
        <path d="M2.40996491,0.610810811 C2.40996491,0.610810811 1.46615205,5.73783784 1.53189474,8.07207207 C1.59583626,10.3252252 2.81702924,10.1522523 2.81702924,10.1522523 C2.81702924,10.1522523 1.46345029,10.8720721 0.891578947,8.76576577 C0.319707602,6.65855856 1.39050292,1.08468468 1.39050292,1.08468468" id="path-68"></path>
    </defs>
    <g id="DesignDashboardAgents-" stroke="none" stroke-width="1" fill="none" fill-rule="evenodd">
        <g id="1a-Dashboard-Overview" transform="translate(-141.000000, -123.000000)">
            <g id="Mancover" transform="translate(59.000000, 74.000000)">
                <g id="Group-3" transform="translate(100.713450, 139.727928)">
                    <mask id="mask-2" fill="white">
                        <use xlink:href="#path-1"></use>
                    </mask>
                    <g id="Clip-2"></g>
                    <path d="M2.12267836,2.38738739 L5.3368655,3.58018018 L4.03552047,4.52252252 L1.72461988,4.36576577 L0.461099415,7.84234234 L1.08790643,11.3162162 L3.88242105,14.0225225 C10.1387836,15.8297297 12.5262339,13.872973 12.5262339,13.872973 C12.5262339,13.872973 11.114117,2.42972973 9.17695906,1.88288288 C7.24070175,1.33513514 3.67168421,0.578378378 3.67168421,0.578378378 L2.12267836,2.38738739 Z" id="Fill-1" fill="url(#linearGradient-3)" mask="url(#mask-2)"></path>
                </g>
                <g id="Pelle" transform="translate(82.000000, 49.000000)">
                    <path d="M0.167,161.166 C-0.334,162.667 0.329,164.24 1.648,164.68 C1.868,164.753 2.093,164.791 2.317,164.795 C3.486,164.776 4.536,163.98 4.943,162.761 L47.59,38.156 C48.092,36.657 47.428,35.085 46.11,34.644 C45.876,34.566 45.637,34.528 45.4,34.528 C44.299,34.528 43.228,35.328 42.816,36.562 L0.167,161.166 Z" id="Fill-4" fill="#FFFFFF"></path>
                    <path d="M42.878,33.44 L38.626,46.168 C38.105,47.734 38.957,49.441 40.522,49.964 L41.297,50.223 C42.862,50.746 44.57,49.893 45.093,48.328 L49.345,35.6 C49.867,34.035 49.014,32.326 47.449,31.804 L46.674,31.545 C46.362,31.441 46.044,31.391 45.731,31.391 C44.475,31.391 43.297,32.187 42.878,33.44" id="Fill-27" fill="#FFFFFF"></path>
                    <path d="M25.465,28.224 C24.693,30.51 26.219,31.418 26.219,31.418 L44.621,37.637 L57.34,0 C32.253,4.063 26.238,25.938 25.465,28.224" id="Fill-30" fill="#FFFFFF"></path>
                    <path d="M44.5,37.693 L62.903,43.912 C62.903,43.912 64.667,44.115 65.44,41.828 C66.212,39.542 74.699,18.504 57.219,0.056 L44.5,37.693 Z" id="Fill-33" fill="#FFFFFF"></path>
                    <path d="M44.5,37.693 L62.903,43.912 C62.903,43.912 64.667,44.115 65.44,41.828 C66.212,39.542 74.699,18.504 57.219,0.056 L44.5,37.693 Z" id="Fill-33-Copy" fill="#000000" opacity="0.049999997"></path>
                </g>
                <g id="Group-9" transform="translate(101.614035, 139.727928)">
                    <mask id="mask-5" fill="white">
                        <use xlink:href="#path-4"></use>
                    </mask>
                    <g id="Clip-8"></g>
                    <path d="M0.867263158,1.67477477 C0.494421053,2.38648649 0.477309942,3.1018018 0.699754386,3.33063063 C0.921298246,3.56126126 6.91018713,7.34774775 6.91018713,7.34774775 C6.91018713,7.34774775 8.02691228,8.05765766 8.15299415,6.81981982 C8.2565614,5.79279279 2.32891228,1.4963964 2.32891228,1.4963964 L2.77109942,0.578378378 C2.77109942,0.578378378 1.43643275,0.587387387 0.867263158,1.67477477" id="Fill-7" fill="url(#linearGradient-6)" mask="url(#mask-5)"></path>
                </g>
                <g id="Group-12" transform="translate(99.812865, 143.331532)">
                    <mask id="mask-8" fill="white">
                        <use xlink:href="#path-7"></use>
                    </mask>
                    <g id="Clip-11"></g>
                    <path d="M0.618701754,1.71171171 C0.0657426901,2.64324324 0.919497076,4.00810811 1.36168421,4.23873874 C1.80297076,4.46846847 10.1775088,6.00810811 10.6719298,6.04594595 C11.1645497,6.08378378 12.3911462,5.26576577 10.4359766,4.16756757 C8.48080702,3.07027027 2.52884211,1.41531532 2.52884211,1.41531532 L2.62520468,0.762162162 C2.62520468,0.762162162 1.1725614,0.781981982 0.618701754,1.71171171" id="Fill-10" fill="url(#linearGradient-6)" mask="url(#mask-8)"></path>
                </g>
                <g id="Group-15" transform="translate(99.812865, 146.935135)">
                    <mask id="mask-10" fill="white">
                        <use xlink:href="#path-9"></use>
                    </mask>
                    <g id="Clip-14"></g>
                    <path d="M0.666432749,1.68828829 C-0.0153099415,3.44144144 3.06559064,4.56126126 3.66538012,4.75585586 C4.26516959,4.95045045 10.589076,5.91531532 11.0267602,5.35585586 C11.4644444,4.7963964 11.5671111,3.92522523 9.80106433,3.70720721 C4.80912281,3.09279279 2.71616374,1.11981982 2.71616374,1.11981982 L2.87916959,0.838738739 C2.87916959,0.838738739 2.48471345,0.605405405 2.00740351,0.605405405 C1.54360234,0.605405405 1.00235088,0.824324324 0.666432749,1.68828829" id="Fill-13" fill="url(#linearGradient-6)" mask="url(#mask-10)"></path>
                </g>
                <path d="M101.978412,150.890541 C101.978412,150.890541 100.707687,150.234685 100.240283,151.674324 C99.7728795,153.113063 102.298119,153.871622 102.788037,154.00045 C103.278856,154.13018 108.400482,154.614865 108.726494,154.145495 C109.052505,153.677027 109.094833,152.973423 107.667406,152.878829 C103.630985,152.612162 101.859535,151.124775 101.859535,151.124775 L101.978412,150.890541 Z" id="Fill-16" fill="url(#linearGradient-6)"></path>
                <g id="Group-20" transform="translate(99.812865, 139.727928)">
                    <mask id="mask-12" fill="white">
                        <use xlink:href="#path-11"></use>
                    </mask>
                    <g id="Clip-19"></g>
                    <path d="M8.08454971,1.2045045 C8.08454971,1.2045045 5.9114386,3.11531532 3.20968421,5.05495495 C0.509730994,6.99369369 0.564666667,7.30990991 0.812327485,7.71351351 C1.13473684,8.23783784 3.62215205,7.48738739 5.3188538,6.3963964 C7.16505263,5.20990991 8.71676023,4.47117117 8.67443275,5.15315315 C8.49791813,8.02342342 9.97757895,9.54594595 12.2038246,10.4351351 L12.8585497,12.2765766 L12.9477076,12.5261261 L13.1224211,13.0162162 L13.4268187,13.872973 C13.7231111,13.7369369 13.9716725,13.4153153 13.9716725,13.4153153 C13.9716725,13.4153153 16.610386,14.6558559 17.3182456,14.9720721 C19.9803743,16.163964 21.7545263,16.7108108 21.7545263,16.7108108 L24.3004795,13.8900901 L23.0432632,8.04414414 L15.7116023,7.33783784 C15.7116023,7.33783784 14.087848,5.97837838 13.2818246,4.08738739 C12.6334035,2.56666667 10.3333099,0.88018018 8.9202924,0.88018018 C8.57716959,0.88018018 8.28718129,0.979279279 8.08454971,1.2045045" id="Fill-18" fill="url(#linearGradient-6)" mask="url(#mask-12)"></path>
                </g>
                <g id="Group-23" transform="translate(286.637427, 55.043243)" fill="#0F1B30">
                    <path d="M14.9208421,1.07387387 L7.48111111,3.63963964 C5.56736842,4.24324324 5.09546199,6.24234234 5.28638596,7.71711712 L7.75669006,26.6873874 C7.94851462,28.1603604 8.58522807,29.2990991 10.463848,29.4099099 L19.9280936,29.4054054 C21.5770643,29.2216216 22.4119064,28.1918919 22.009345,25.8396396 L19.0869474,3.72522523 C18.8978246,1.82612613 18.0449708,0.822522523 16.465345,0.822522523 C16.0114503,0.822522523 15.4972164,0.905405405 14.9208421,1.07387387" id="Fill-21"></path>
                </g>
                <g id="Group-29" transform="translate(284.432749, 65.854054)">
                    <mask id="mask-14" fill="white">
                        <use xlink:href="#path-13"></use>
                    </mask>
                    <g id="Clip-28"></g>
                    <path d="M5.67368421,5.49369369 C5.80336842,7.39099099 5.03516959,9.1981982 5.03516959,9.1981982 L0.464701754,13.4783784 L0.701555556,18.2189189 L4.65332164,19.1036036 L9.0265614,13.4810811 C9.0265614,13.4810811 9.30574269,13.6810811 9.66867836,13.6297297 L9.5597076,12.7945946 L9.49756725,12.3171171 L9.46604678,12.072973 L9.23279532,10.2783784 C10.695345,8.60720721 11.2762222,6.72792793 9.92444444,4.43513514 C9.60203509,3.88918919 11.1933684,3.84684685 13.2160819,4.04864865 C15.0757895,4.23423423 17.4434269,3.80810811 17.4893567,3.23873874 C17.5244795,2.8027027 17.4362222,2.51801802 14.3922456,2.05315315 C11.3473684,1.58918919 8.75098246,0.927027027 8.75098246,0.927027027 C8.65281871,0.889189189 8.55105263,0.871171171 8.44838596,0.871171171 C7.14884211,0.871171171 5.55390643,3.73333333 5.67368421,5.49369369" id="Fill-27" fill="url(#linearGradient-6)" mask="url(#mask-14)"></path>
                </g>
                <g id="Group-32" transform="translate(298.842105, 64.052252)">
                    <mask id="mask-16" fill="white">
                        <use xlink:href="#path-15"></use>
                    </mask>
                    <g id="Clip-31"></g>
                </g>
                <g id="Group-35" transform="translate(297.941520, 66.754955)">
                    <mask id="mask-18" fill="white">
                        <use xlink:href="#path-17"></use>
                    </mask>
                    <g id="Clip-34"></g>
                </g>
                <g id="Group-43" transform="translate(188.070175, 74.863063)">
                    <mask id="mask-20" fill="white">
                        <use xlink:href="#path-19"></use>
                    </mask>
                    <g id="Clip-42"></g>
                    <path d="M10.6115906,1.8981982 C9.19226901,2.30810811 7.95846784,2.8954955 6.89217544,3.6018018 C6.87326316,3.61351351 6.84444444,3.63153153 6.84444444,3.63153153 L6.84534503,3.63153153 C3.18266667,6.08198198 1.49497076,9.92072072 0.890678363,12.6297297 C0.603391813,13.9144144 0.85825731,16.1333333 1.59043275,18.6918919 C1.35538012,19.5162162 1.50487719,20.6846847 2.32350877,22.3387387 C2.94221053,23.5882883 3.58612865,24.4990991 4.22464327,25.154955 C4.76679532,26.1684685 5.3719883,27.1594595 6.0294152,28.1045045 L5.72321637,28.0396396 C5.72321637,28.0396396 10.8214269,33.4675676 9.65426901,36.2414414 C8.48621053,39.0144144 0.199929825,42.3243243 0.199929825,42.3243243 L19.9362456,51.7459459 L31.9104211,50.0711712 L37.2247719,43.6657658 L33.1991579,33.9657658 L30.1407719,33.2720721 C31.203462,32.5981982 31.9077193,31.8405405 32.196807,31.0990991 C33.1604327,28.6324324 31.3700702,24.8234234 30.9792164,20.8846847 L30.7369591,16.045045 C30.6018713,13.2783784 30.2020117,9.25855856 29.0375556,6.52702703 C27.1067018,1.9990991 21.6905848,1.04504505 21.6905848,1.04504505 C20.3316023,0.762162162 19.0167485,0.643243243 17.7676374,0.643243243 C14.964117,0.643243243 12.4929123,1.23873874 10.6115906,1.8981982" id="Fill-41" fill="url(#linearGradient-21)" mask="url(#mask-20)"></path>
                </g>
                <g id="Group-46" transform="translate(119.625731, 117.205405)">
                    <mask id="mask-23" fill="white">
                        <use xlink:href="#path-22"></use>
                    </mask>
                    <g id="Clip-45"></g>
                    <path d="M64.2756374,1.89459459 C64.2756374,1.89459459 48.0119766,14.2675676 39.6824678,23.0189189 C31.3529591,31.7693694 28.0424094,33.7900901 28.0424094,33.7900901 C28.0424094,33.7900901 15.2613099,32.2558559 2.88907602,30.5504505 C2.88907602,30.5504505 3.99949708,34.5261261 0.649321637,38.7693694 C0.649321637,38.7693694 23.4980585,46.4900901 31.0656725,45.6315315 C36.6114737,45.0027027 59.3170175,32.5576577 61.1650175,31.6261261 C63.0130175,30.6954955 66.3568889,26.3054054 73.4354854,30.9630631 L81.7568889,30.0603604 L87.1018596,17.6018018 L80.8815205,8.05405405 L71.5181404,0.881081081 L64.2756374,1.89459459 Z" id="Fill-44" fill="#FFFFFF" mask="url(#mask-23)"></path>
                </g>
                <g id="Group-49" transform="translate(207.883041, 105.493694)">
                    <mask id="mask-25" fill="white">
                        <use xlink:href="#path-24"></use>
                    </mask>
                    <g id="Clip-48"></g>
                    <path d="M10.4738012,2.26756757 C16.6563158,7.37027027 14.9253918,13.4810811 14.9253918,13.4810811 C11.4446316,22.7234234 0.760994152,19.3126126 0.760994152,19.3126126 L2.51263158,24.2711712 L12.4100585,26.0693694 L23.0081404,16.5288288 L20.9079766,1.5036036 L18.6303977,0.530630631 L10.4738012,2.26756757 Z" id="Fill-47" fill="#FFFFFF" mask="url(#mask-25)"></path>
                </g>
                <g id="Group-52" transform="translate(229.497076, 79.367568)">
                    <mask id="mask-27" fill="white">
                        <use xlink:href="#path-26"></use>
                    </mask>
                    <g id="Clip-51"></g>
                    <path d="M34.8688421,16.3459459 C33.7431111,17.8369369 32.9902222,19.8693694 31.3079298,20.5486486 C29.6247368,21.2288288 21.1358246,21.972973 17.6478596,22.4603604 C14.1607953,22.9477477 0.68174269,26.1432432 0.68174269,26.1432432 C0.68174269,26.1432432 3.30694737,44.9198198 7.98278363,43.0621622 C12.6586199,41.2063063 41.0972865,29.109009 44.5096023,25.963964 C47.9219181,22.8189189 59.9870526,5.27207207 59.9870526,5.27207207 C59.316117,0.474774775 55.4165848,0.131531532 55.4165848,0.131531532 C49.6789591,3.6027027 35.9927719,14.8540541 34.8688421,16.3459459" id="Fill-50" fill="#FFFFFF" mask="url(#mask-27)"></path>
                </g>
                <g id="Group-55" transform="translate(183.567251, 56.845045)">
                    <mask id="mask-29" fill="white">
                        <use xlink:href="#path-28"></use>
                    </mask>
                    <g id="Clip-54"></g>
                    <path d="M172.425064,0.321621622 C170.796807,1.13063063 172.765485,8.98558559 172.093649,16.6297297 C171.420912,24.2738739 171.454234,26.5927928 169.804363,29.3306306 C168.156292,32.0675676 127.652491,48.8873874 117.128257,52.7990991 C106.605825,56.7117117 104.158035,57.9936937 101.735462,59.4585586 C99.3128889,60.9225225 94.4461287,71.3315315 94.4452281,71.3324324 C92.7944561,71.4657658 91.7245614,71.5603604 91.4453801,71.5990991 C90.4763509,71.7342342 88.9921871,72.0801802 87.3774386,72.7009009 C87.0694386,72.809009 86.9199415,72.8810811 86.9199415,72.8810811 L86.9190409,72.8810811 C85.1268772,73.6189189 83.2176374,74.6990991 81.6947485,76.2135135 C78.6525731,79.2378378 68.2283041,91.7477477 68.2283041,91.7477477 C60.6237661,84.145045 54.8185965,69.3621622 53.9126082,65.5846847 C53.0066199,61.809009 48.5640351,49.8405405 48.3208772,48.9936937 C48.0759181,48.1459459 46.6340819,46.8369369 45.2588889,46.9036036 C43.8836959,46.9702703 40.04,47.381982 39.2105614,47.7504505 C38.3811228,48.118018 36.1710877,50.3162162 36.1710877,50.3162162 L37.7588187,49.9675676 C45.9973684,41.3864865 45.6128187,64.7333333 45.6128187,64.7333333 C37.4967485,73.2963964 28.3720234,71.0477477 28.3720234,71.0477477 C15.4711462,57.9972973 4.88837427,58.818018 4.88837427,58.818018 C4.88837427,58.818018 3.18176608,59.2126126 1.66247953,60.054955 C0.144093567,60.8972973 0.334116959,62.254955 0.334116959,62.254955 C14.8344327,62.3684685 20.5603509,75.2747748 20.5603509,75.2747748 C20.5603509,75.2747748 22.1660936,80.0198198 19.4499298,85.7117117 C16.7346667,91.4045045 8.17821053,90.536036 8.17821053,90.536036 C7.68739181,91.8054054 8.14759064,92.354955 8.14759064,92.354955 L9.35887719,93.2684685 C10.5683626,94.181982 16.8310292,100.238739 23.9375439,107.694595 C31.0449591,115.14955 41.744807,128.169369 54.8591228,135.216216 C67.9734386,142.264865 75.2438596,135.397297 75.2438596,135.397297 C75.2438596,135.397297 83.8543509,136.576577 92.373883,127.8 C98.6869825,121.298198 107.021895,104.64955 110.919626,96.454955 C145.989298,103.666667 171.132725,101.89009 175.723006,102.378378 C180.440269,102.88018 185.524971,109.897297 190.452971,107.754955 C195.38007,105.613514 195.118901,103.645045 196.685018,97.1126126 C198.252035,90.5792793 201.628327,90.6117117 203.77352,82.481982 C205.919614,74.3513514 197.872889,67.3693694 195.715088,67.8027027 C193.269099,68.2927928 191.687673,75.8657658 189.630737,82.7720721 C186.384129,93.6756757 183.078082,92.6531532 183.078082,92.6531532 C183.078082,92.6531532 167.249404,87.7954955 132.268889,77.7882883 C127.285953,76.3621622 122.817251,75.2522523 118.792538,74.381982 L119.056409,73.5756757 C119.056409,73.5756757 118.942035,71.1477477 129.211404,68.6585586 C146.276585,61.7792793 151.692702,56.6081081 162.641111,49.3189189 C162.641111,49.3189189 169.595427,42.6468468 172.644807,43.3783784 C175.117813,42.8990991 177.726807,43.1009009 180.347509,42.8423423 C182.503509,42.6306306 186.089637,39.3774775 184.621684,35.2981982 C182.825918,30.3081081 184.170491,21.9477477 184.421754,19.5891892 C184.672117,17.2315315 184.427158,11.4198198 181.432713,6.61171171 C178.834526,2.43963964 175.188959,0.162162162 173.205871,0.162162162 C172.904175,0.162162162 172.640304,0.215315315 172.425064,0.321621622" id="Fill-53" fill="url(#linearGradient-21)" mask="url(#mask-29)"></path>
                </g>
                <path d="M304.365052,56.123063 L308.344453,83.2314584 L221.251127,122.283485 L206.039315,114.342413 C204.080966,113.320091 203.322166,110.903779 204.344488,108.945429 C204.692958,108.277904 205.222774,107.722298 205.872996,107.342518 C211.676376,103.952893 214.451255,101.231915 214.197633,99.1795844 C213.862213,96.4653246 210.533233,89.7195016 204.210694,78.9421154 C204.583147,75.9137885 205.99557,73.426861 208.447964,71.4813329 C210.900358,69.5358047 210.900358,68.711042 208.447964,69.0070446 L304.365052,56.123063 Z" id="Path-3" fill="url(#linearGradient-30)" filter="url(#filter-31)"></path>
                <path d="M217.53695,82.7756757 C216.963277,81.5117117 218.348377,80.3432432 217.427078,79.190991 C216.780458,75.9927928 211.356236,73.6648649 207.754798,73.0792793 C207.754798,73.0792793 209.446096,73.5009009 210.624961,74.6396396 C210.624961,74.6396396 206.040084,73.2171171 200.248423,74.8432432 C194.457663,76.4711712 190.814798,81.0630631 190.268143,82.2612613 C190.268143,82.2612613 186.218213,84.6657658 187.840166,91.8873874 C189.462119,99.1099099 196.298458,106.418919 196.43895,107.41982 C196.579441,108.421622 196.976599,109.806306 195.324026,110.388288 C195.324026,110.388288 197.670049,111.324324 198.739944,109.908108 C199.793628,108.510811 199.84226,107.274775 199.527055,104.274775 C199.245172,101.592793 198.984903,101.554054 197.65654,101.535135 C196.327277,101.517117 194.907055,98.6540541 195.085371,96.281982 C195.263687,93.9099099 197.863675,94.2648649 197.863675,94.2648649 C197.863675,94.2648649 198.729137,94.7891892 199.998061,97.1261261 L201.234564,99.4018018 L202.767359,97.9621622 C202.641277,97.0612613 199.82785,93.7234234 199.910704,91.3936937 C199.992657,89.063964 202.649382,88.7864865 202.70702,86.236036 C202.73764,84.8612613 204.791874,84.7189189 204.791874,84.7189189 C204.791874,84.7189189 215.363839,87.027027 217.53695,82.7756757" id="Fill-56" fill="#122240"></path>
                <g id="Group-60" transform="translate(308.748538, 56.845045)">
                    <mask id="mask-33" fill="white">
                        <use xlink:href="#path-32"></use>
                    </mask>
                    <g id="Clip-59"></g>
                    <path d="M46.5863509,2.45945946 C46.7043275,5.68378378 46.9555906,16.1342342 46.6980234,19.1378378 C46.4404561,22.1414414 46.2495322,27.0477477 44.623076,29.3306306 C44.623076,29.3306306 42.5184094,31.0369369 38.441462,32.9855856 C34.3645146,34.9333333 1.50127485,49.0414414 1.50127485,49.0414414 C1.50127485,49.0414414 -4.64701754,61.2603604 8.52223392,66.772973 C19.0689825,63.2990991 41.5484795,46.0468468 43.7594152,44.8603604 C47.0969825,43.0684685 49.3412398,43.0927928 50.2643392,43.1162162 C50.4930877,43.1234234 50.6407836,43.1288288 50.7047251,43.1072072 C50.8082924,43.1081081 51.0064211,43.1072072 51.245076,43.1063063 C51.6557427,43.1045045 52.1888889,43.1027027 52.5896491,43.109009 C53.9180117,43.1297297 55.5588772,43.0342342 59.3395322,41.6099099 C59.9735439,41.3711712 58.6929123,41.627027 59.2395673,41.0675676 C61.9134035,38.3315315 59.8231462,35.0657658 58.9756959,28.5459459 C58.4659649,24.6315315 60.2446199,17.8954955 58.7568538,12.4828829 C55.7489006,1.53873874 48.5109006,0.143243243 48.5109006,0.143243243 C48.5109006,0.143243243 48.2461287,0.0252252252 47.9120117,0.0252252252 C47.3203275,0.0252252252 46.5116023,0.396396396 46.5863509,2.45945946" id="Fill-58" fill="url(#linearGradient-34)" mask="url(#mask-33)"></path>
                </g>
                <g id="Group-63" transform="translate(297.941520, 124.412613)">
                    <mask id="mask-36" fill="white">
                        <use xlink:href="#path-35"></use>
                    </mask>
                    <g id="Clip-62"></g>
                    <path d="M81.3318129,0.135135135 C78.5219883,0.352252252 76.7298246,9.2981982 76.7298246,9.2981982 C76.7298246,9.2981982 72.5574152,26.1621622 68.7038129,25.0855856 C68.7038129,25.0855856 45.5020468,18.1963964 44.7383509,17.9738739 C43.9764561,17.7513514 18.6727251,10.4387387 17.4434269,10.0927928 C16.2141287,9.74594595 7.82338012,7.58108108 7.82338012,7.58108108 C7.82338012,7.58108108 -3.25291228,17.0144144 2.19562573,29.9891892 C2.19562573,29.9891892 21.1889591,33.3774775 30.2380351,33.8279279 C33.1172047,33.9702703 38.0695205,34.3324324 43.1587251,34.5126126 C49.9590409,34.7540541 56.9926082,34.8045045 59.5484678,34.8486486 C64.4818713,34.9324324 66.9809942,38.1351351 69.8565614,39.5306306 C70.4590526,39.8234234 71.7036608,40.4216216 73.0950643,40.6351351 C74.5278947,40.854955 74.8899298,40.8 75.6671345,40.8 C75.969731,40.8 79.5837778,40.9018018 79.5837778,40.9018018 C82.0045497,37.4675676 82.3278596,34.245045 82.6628772,31.1036036 C82.7061053,30.7045045 82.7736491,29.7567568 82.8402924,29.372973 C82.9987953,28.4603604 83.8111228,26.1468468 84.2235906,25.3486486 C86.0850994,21.7522523 86.5966316,22.418018 88.964269,16.7774775 C90.9500585,12.045045 89.3407135,8.06666667 87.7295673,5.4990991 C85.6636257,2.20720721 83.4634971,0.127927928 81.5344444,0.127927928 C81.4669006,0.127927928 81.3993567,0.12972973 81.3318129,0.135135135" id="Fill-61" fill="url(#linearGradient-37)" mask="url(#mask-36)"></path>
                </g>
                <g id="Group-74" transform="translate(111.520468, 56.845045)">
                    <g id="Group-66" transform="translate(175.614035, 0.000000)">
                        <mask id="mask-39" fill="white">
                            <use xlink:href="#path-38"></use>
                        </mask>
                        <g id="Clip-65"></g>
                        <path d="M15.2261871,74.3765766 L0.385450292,71.9657658 C0.385450292,71.9657658 2.17671345,63.1711712 5.81867836,63.1711712 C9.46064327,63.1711712 37.2553918,67.0225225 58.0643041,43.4234234 C58.0643041,43.4234234 62.3105614,38.3756757 64.5638246,38.7864865 C66.8170877,39.1954955 70.5040819,41.6540541 71.1191813,40.2198198 C71.7333801,38.7864865 71.9378129,35.9171171 75.0106082,34.8918919 C78.0834035,33.8675676 78.6985029,25.5801802 77.8789708,22.6540541 C77.0594386,19.7279279 70.913848,7.43333333 70.2996491,4.76936937 C69.6845497,2.10540541 68.3399766,-0.132432432 69.7277778,0.17027027 C71.1155789,0.473873874 74.8277895,0.663963964 78.6066433,7.94144144 C82.3854971,15.2198198 80.6797895,21.0684685 80.6203509,22.6540541 C80.5600117,24.2405405 80.0989123,29.2342342 81.5497544,34.0099099 C82.7628421,38.0063063 81.2759766,41.509009 81.2759766,41.509009 C81.2759766,41.509009 78.5868304,42.3846847 77.902386,42.5765766 C73.7110643,43.754955 71.3875556,42.4099099 67.6483275,43.7990991 C63.9090994,45.1891892 60.3905146,48.3585586 56.5900468,50.9981982 C52.7904795,53.6378378 39.5482807,64.1063063 24.3770292,69.0234234 C24.3770292,69.0234234 15.9367485,70.6261261 15.2261871,74.3765766" id="Fill-64" fill="#000000" opacity="0.400000006" mask="url(#mask-39)"></path>
                    </g>
                    <g id="Group-73" transform="translate(0.000000, 67.567568)">
                        <g id="Group-69" transform="translate(138.690058, 70.270270)">
                            <mask id="mask-41" fill="white">
                                <use xlink:href="#path-40"></use>
                            </mask>
                            <g id="Clip-68"></g>
                            <path d="M1.20047953,0.462162162 C0.99154386,0.498198198 0.783508772,0.532432432 0.579076023,0.558558559 C0.579076023,0.558558559 0.804222222,0.535135135 1.20047953,0.462162162" id="Fill-67" fill="url(#linearGradient-42)" mask="url(#mask-41)"></path>
                        </g>
                        <g id="Group-72">
                            <mask id="mask-44" fill="white">
                                <use xlink:href="#path-43"></use>
                            </mask>
                            <g id="Clip-71"></g>
                            <path d="M274.393778,5.86936937 C271.816304,1.86306306 269.747661,0.882882883 267.761871,0.235135135 C265.776082,-0.412612613 264.983567,23.2882883 264.50986,30.8630631 C264.037053,38.4369369 259.620585,34.9648649 257.807708,33.545045 C255.996632,32.1252252 253.311088,33.545045 251.418058,34.1756757 C249.525029,34.8081081 244.950959,30.0738739 241.481006,28.5774775 C238.011053,27.0801802 223.183825,25.8135135 206.62207,28.5774775 C190.059415,31.3405405 175.704994,19.818018 167.187263,18.081982 C158.670433,16.3459459 158.670433,27.5495495 158.51283,34.6495495 C158.354327,41.7504505 148.574877,42.5396396 143.528,45.3792793 C138.480222,48.2198198 137.376105,53.5837838 132.48593,56.581982 C127.596655,59.5810811 123.810596,56.109009 113.77448,38.518018 C103.737462,20.9261261 91.6417076,24.4018018 90.4178129,24.3423423 C89.1948187,24.2846847 87.3035906,24.5135135 85.7852047,22.4702703 C84.2659181,20.4279279 84.7450292,19.5063063 78.5165848,15.0558559 C72.2881404,10.6045045 61.7900234,21.9288288 53.6082105,27.0738739 C45.4254971,32.2189189 40.0481053,33.5432432 38.2559415,34.4783784 C36.4637778,35.4144144 28.2810643,32.1405405 23.6052281,31.1495495 C18.9293918,30.1594595 2.50272515,25.5117117 2.50272515,25.5117117 C1.30224561,25.8774775 0.489918129,25.7504505 0.489918129,25.7504505 L1.71921637,29.1882883 C1.97948538,29.0378378 2.26407018,28.7297297 2.26407018,28.7297297 C2.26407018,28.7297297 5.16575439,30.1972973 8.35832749,31.4126126 C11.337462,32.5468468 14.699345,33.5432432 22.0138947,35.5252252 C29.3284444,37.5081081 33.8259649,38.1153153 37.363462,38.5036036 C40.9000585,38.8927928 47.2437778,35.354955 50.1940936,33.9936937 C53.1435088,32.6324324 66.8531111,25.6720721 67.914,25.1216216 C68.9757895,24.5693694 73.7957193,21.8882883 73.7957193,21.8882883 C76.8297895,21.1891892 80.2249942,22.9684685 80.2249942,22.9684685 C79.819731,24.0189189 80.0070526,23.9306306 80.1943743,24.7873874 C80.3816959,25.6432432 84.5658129,28.5954955 85.8500468,29.8405405 C87.1342807,31.0864865 95.9843275,40.127027 107.52262,52.3873874 C119.061813,64.6486486 130.148912,70.8171171 137.130246,70.8288288 C138.425287,70.8315315 139.619462,70.7279279 140.70917,70.5576577 C140.387661,70.6333333 140.111181,70.6918919 139.890538,70.7324324 C140.245368,70.6702703 140.602901,70.5972973 140.961333,70.5126126 C145.585836,69.736036 148.219146,67.781982 148.219146,67.781982 C148.219146,67.781982 150.305801,67.836036 151.795368,67.5216216 C152.369041,67.4009009 152.768901,67.3144144 153.211988,67.1153153 C155.898433,66.4621622 159.122526,64.9369369 163.891123,60.7657658 C171.535287,54.0783784 182.965509,28.8900901 182.965509,28.8900901 C182.965509,28.8900901 187.768327,29.8333333 203.421392,32.318018 C219.074456,34.8036036 238.016456,34.6756757 243.373135,34.7018018 C248.729813,34.7279279 251.747673,36.3855856 251.747673,36.3855856 C257.871649,41.6162162 261.524421,40.7225225 262.624936,40.7918919 C262.943743,40.8126126 265.469883,40.9018018 266.00483,40.9018018 C266.506456,40.9018018 267.146772,37.6558559 267.956398,32.945045 C268.106795,32.0738739 268.938936,31.7720721 269.08393,31.1036036 C269.172187,30.6990991 269.170386,29.7198198 269.261345,29.372973 C270.102491,26.1594595 270.535673,25.2855856 273.068117,21.3603604 C276.325532,16.3108108 276.971251,9.87657658 274.393778,5.86936937" id="Fill-70" fill="url(#linearGradient-45)" opacity="0.400000006" mask="url(#mask-44)"></path>
                        </g>
                    </g>
                </g>
                <g id="Group-77" transform="translate(224.093567, 105.493694)">
                    <mask id="mask-47" fill="white">
                        <use xlink:href="#path-46"></use>
                    </mask>
                    <g id="Clip-76"></g>
                    <path d="M0.237754386,0.995495495 C0.237754386,0.995495495 4.76499415,6.73333333 4.68484211,16.4972973 C4.68484211,16.4972973 5.08380117,16.3279279 5.08650292,16.0846847 C5.08830409,15.8396396 5.09190643,10.5072072 4.34261988,5.98918919 C3.59423392,1.47297297 2.41987135,0.530630631 2.41987135,0.530630631 L0.237754386,0.995495495 Z" id="Fill-75" fill="#000000" opacity="0.300000012" mask="url(#mask-47)"></path>
                </g>
                <g id="Group-80" transform="translate(183.567251, 117.205405)">
                    <mask id="mask-49" fill="white">
                        <use xlink:href="#path-48"></use>
                    </mask>
                    <g id="Clip-79"></g>
                    <path d="M1.18697076,0.881081081 C0.855555556,0.9 0.334116959,1.89459459 0.334116959,1.89459459 C12.0038947,1.73423423 20.137076,14.081982 20.137076,14.081982 C13.328655,1.66396396 1.78766082,0.881081081 1.20318129,0.881081081 C1.19597661,0.881081081 1.1905731,0.881081081 1.18697076,0.881081081" id="Fill-78" fill="#000000" opacity="0.300000012" mask="url(#mask-49)"></path>
                </g>
                <g id="Group-86" transform="translate(200.678363, 104.592793)">
                    <g id="Group-85">
                        <mask id="mask-51" fill="white">
                            <use xlink:href="#path-50"></use>
                        </mask>
                        <g id="Clip-84"></g>
                        <path d="M10.9132865,4.67027027 C10.9132865,4.67027027 4.71636257,4.42882883 0.679040936,0.65045045 C0.679040936,0.65045045 5.50797661,8.21351351 13.7285146,7.86036036 C13.7285146,7.86036036 12.0363158,9.38738739 13.7285146,10.1630631 C15.4198129,10.9387387 21.9346433,8.77477477 22.2876725,13.4936937 C22.2876725,13.4936937 23.0243509,9.49009009 20.2019181,5.83513514 C20.2019181,5.83513514 19.6651696,5.03423423 19.4436257,4.87927928 C18.2269357,5.14324324 17.8450877,5.05945946 16.7265614,5.14234234 C15.6071345,5.22522523 10.9132865,4.67027027 10.9132865,4.67027027" id="Fill-83" fill="url(#linearGradient-52)" opacity="0.400000006" mask="url(#mask-51)"></path>
                    </g>
                </g>
                <g id="Group-89" transform="translate(199.777778, 96.484685)">
                    <mask id="mask-54" fill="white">
                        <use xlink:href="#path-53"></use>
                    </mask>
                    <g id="Clip-88"></g>
                    <path d="M17.1759532,2.51441441 L16.4689942,3.24504505 C16.4689942,3.24504505 6.25366082,7.05945946 2.91339181,1.22432432 C3.00525146,1.39369369 2.85575439,1.59459459 2.5585614,1.88378378 C2.20012865,2.23063063 2.01550877,2.39189189 1.45624561,2.91801802 C1.45624561,2.91801802 -0.791614035,8.19279279 3.24030409,10.054955 C3.24030409,10.054955 5.77094737,12.1072072 11.8138713,12.7783784 C11.8138713,12.7783784 22.1408772,14.5216216 22.5704561,11.3162162 C22.7109474,10.2666667 22.4650877,6.55855856 20.1667953,3.93873874 C20.1667953,3.93873874 20.4036491,2.94234234 20.4351696,2.01261261 C20.4531813,1.47297297 20.5909708,0.527027027 19.983076,0.527027027 C19.5435906,0.527027027 18.7168538,1.01981982 17.1759532,2.51441441" id="Fill-87" fill="url(#linearGradient-55)" mask="url(#mask-54)"></path>
                </g>
                <g id="Group-92" transform="translate(202.479532, 97.385586)">
                    <mask id="mask-57" fill="white">
                        <use xlink:href="#path-56"></use>
                    </mask>
                    <g id="Clip-91"></g>
                    <path d="M0.201730994,0.272072072 C0.172011696,0.217117117 0.147695906,0.182882883 0.147695906,0.182882883 C0.165707602,0.213513514 0.183719298,0.241441441 0.201730994,0.272072072" id="Fill-90" fill="url(#linearGradient-58)" mask="url(#mask-57)"></path>
                </g>
                <g id="Group-95" transform="translate(230.397661, 142.430631)">
                    <mask id="mask-60" fill="white">
                        <use xlink:href="#path-59"></use>
                    </mask>
                    <g id="Clip-94"></g>
                    <path d="M10.4566901,0.406306306 C10.2180351,0.406306306 1.55530994,5.96486486 0.777204678,6.62342342 C0.000900584795,7.28108108 0.24045614,7.75945946 0.24045614,7.75945946 L5.49626901,18.7477477 C9.35437427,16.3594595 20.7413684,6.68648649 20.7413684,6.68648649 C20.7413684,6.68648649 12.3695322,0.705405405 11.8913216,0.406306306 C11.7319181,0.306306306 11.5463977,0.272972973 11.3599766,0.272972973 C10.9880351,0.272972973 10.6160936,0.406306306 10.4566901,0.406306306" id="Fill-93" fill="url(#linearGradient-61)" mask="url(#mask-60)"></path>
                </g>
                <path d="M216.812699,83.7223423 C216.812699,83.7223423 220.693319,80.5034234 219.364957,75.507027 C218.371612,71.7691892 211.882898,68.4745946 207.702384,68.6745946 C207.702384,68.6745946 209.345951,70.8646847 206.782887,71.361982 C204.218922,71.8601802 191.843986,72.8502703 190.267963,82.2610811 C190.267963,82.2610811 180.938805,86.7466667 192.08174,101.057477 L193.802758,89.5827027 L203.704688,77.434955 L216.812699,83.7223423 Z" id="Fill-96" fill="#122240"></path>
                <g id="Group-103" transform="translate(116.725146, 16.709910)"></g>
                <g id="Group-106" transform="translate(364.584795, 87.475676)">
                    <mask id="mask-63" fill="white">
                        <use xlink:href="#path-62"></use>
                    </mask>
                    <g id="Clip-105"></g>
                    <path d="M0.652023392,1.23693694 C0.652023392,1.23693694 0.389052632,10.8927928 3.04307602,10.9747748 C5.60433918,11.0531532 5.65026901,8.11891892 3.99319298,1.62162162 L3.82568421,0.624324324 L0.652023392,1.23693694 Z" id="Fill-104" fill="#0C1627" mask="url(#mask-63)"></path>
                </g>
                <g id="Group-109" transform="translate(363.684211, 88.376577)">
                    <mask id="mask-65" fill="white">
                        <use xlink:href="#path-64"></use>
                    </mask>
                    <g id="Clip-108"></g>
                    <path d="M1.55260819,0.336036036 L0.838444444,0.835135135 C0.838444444,0.835135135 0.644818713,3.53693694 1.19597661,7.16756757 C1.43553216,8.74684685 2.2919883,10.4099099 3.20067836,10.5306306 C4.10936842,10.6522523 4.97663158,10.1207207 5.33146199,9.62882883 C5.33146199,9.62882883 4.47950877,10.3783784 3.26101754,9.8036036 C2.13438596,9.27207207 1.48956725,5.02072072 1.55260819,0.336036036" id="Fill-107" fill="#000000" mask="url(#mask-65)"></path>
                </g>
                <g id="Group-112" transform="translate(376.292398, 155.043243)">
                    <mask id="mask-67" fill="white">
                        <use xlink:href="#path-66"></use>
                    </mask>
                    <g id="Clip-111"></g>
                    <path d="M1.50847953,0.610810811 C1.50847953,0.610810811 -0.541251462,10.0423423 1.53549708,10.2099099 C4.03011696,10.4099099 4.87576608,0.472972973 4.87576608,0.472972973 L1.50847953,0.610810811 Z" id="Fill-110" fill="#0C1627" mask="url(#mask-67)"></path>
                </g>
                <g id="Group-121" transform="translate(375.134503, 154.646847)">
                    <g id="Group-115" transform="translate(0.257310, 0.396396)">
                        <mask id="mask-69" fill="white">
                            <use xlink:href="#path-68"></use>
                        </mask>
                        <g id="Clip-114"></g>
                        <path d="M2.40996491,0.610810811 L1.39050292,1.08468468 C1.39050292,1.08468468 0.319707602,6.65855856 0.891578947,8.76576577 C1.46345029,10.8720721 2.81702924,10.1522523 2.81702924,10.1522523 C2.81702924,10.1522523 1.59583626,10.3252252 1.53189474,8.07207207 C1.46615205,5.73783784 2.40996491,0.610810811 2.40996491,0.610810811" id="Fill-113" fill="#000000" mask="url(#mask-69)"></path>
                    </g>
                </g>
            </g>
        </g>
    </g>
</svg>