<?xml version="1.0" encoding="UTF-8"?>
<svg width="11px" height="6px" viewBox="0 0 11 6" version="1.1" xmlns="http://www.w3.org/2000/svg" xmlns:xlink="http://www.w3.org/1999/xlink">
    <!-- Generator: sketchtool 52.4 (67378) - http://www.bohemiancoding.com/sketch -->
    <title>0AA9C1B9-3D94-4712-BEE8-3B56454B29EB</title>
    <desc>Created with sketchtool.</desc>
    <g id="Marketing" stroke="none" stroke-width="1" fill="none" fill-rule="evenodd">
        <g id="1a-Home" transform="translate(-557.000000, -925.000000)" fill="#FFFFFF" fill-rule="nonzero">
            <g id="CTA" transform="translate(122.000000, 722.000000)">
                <path d="M441.1,202.586464 L441.1,210.922924 C441.1,211.241634 440.833681,211.5 440.5,211.5 C440.168629,211.5 439.9,211.243195 439.9,210.922924 L439.9,202.586464 L438.524264,203.987676 C438.289949,204.22633 437.910051,204.22633 437.675736,203.987676 C437.441421,203.749023 437.441421,203.362088 437.675736,203.123435 L440.075736,200.67899 C440.310051,200.440337 440.689949,200.440337 440.924264,200.67899 L443.324264,203.123435 C443.558579,203.362088 443.558579,203.749023 443.324264,203.987676 C443.089949,204.22633 442.710051,204.22633 442.475736,203.987676 L441.1,202.586464 Z" id="flechenext" transform="translate(440.500000, 206.000000) rotate(-270.000000) translate(-440.500000, -206.000000) "></path>
            </g>
        </g>
    </g>
</svg>