<?xml version="1.0" encoding="UTF-8"?>
<svg width="444px" height="309px" viewBox="0 0 444 309" version="1.1" xmlns="http://www.w3.org/2000/svg" xmlns:xlink="http://www.w3.org/1999/xlink">
    <!-- Generator: sketchtool 52.4 (67378) - http://www.bohemiancoding.com/sketch -->
    <title>66E328C8-B70A-48BD-A052-EAC8BB0DE704</title>
    <desc>Created with sketchtool.</desc>
    <defs>
        <linearGradient x1="60.4506993%" y1="10.3934607%" x2="50%" y2="100%" id="linearGradient-1">
            <stop stop-color="#FFFFFF" offset="0%"></stop>
            <stop stop-color="#EBEAF5" offset="100%"></stop>
        </linearGradient>
        <path d="M38,273 L327,273 C370.333333,260.333333 392,210.666667 392,124 C392,-6 245,-31 192,36 C139,103 110,120 78,115 C46,110 12,115 2,159 C-4.66666667,188.333333 7.33333333,226.333333 38,273 Z" id="path-2"></path>
        <linearGradient x1="64.2374826%" y1="100%" x2="72.3881394%" y2="44.0429046%" id="linearGradient-4">
            <stop stop-color="#465C8B" offset="0%"></stop>
            <stop stop-color="#1A2D51" offset="100%"></stop>
        </linearGradient>
        <linearGradient x1="50%" y1="0%" x2="50%" y2="100%" id="linearGradient-5">
            <stop stop-color="#4D6494" offset="0%"></stop>
            <stop stop-color="#192C50" offset="100%"></stop>
        </linearGradient>
        <linearGradient x1="100%" y1="50%" x2="0%" y2="50%" id="linearGradient-6">
            <stop stop-color="#465C8B" offset="0%"></stop>
            <stop stop-color="#192C51" offset="100%"></stop>
        </linearGradient>
        <linearGradient x1="50%" y1="0%" x2="50%" y2="100%" id="linearGradient-7">
            <stop stop-color="#465C8B" offset="0%"></stop>
            <stop stop-color="#1A2D51" offset="100%"></stop>
        </linearGradient>
        <linearGradient x1="0%" y1="8.23305088%" x2="78.2037061%" y2="14.2215523%" id="linearGradient-8">
            <stop stop-color="#455C8A" offset="0%"></stop>
            <stop stop-color="#1A2D51" offset="100%"></stop>
        </linearGradient>
        <linearGradient x1="50%" y1="0%" x2="50%" y2="100%" id="linearGradient-9">
            <stop stop-color="#8B86CE" offset="0%"></stop>
            <stop stop-color="#1F3057" offset="100%"></stop>
        </linearGradient>
        <linearGradient x1="50%" y1="0%" x2="50%" y2="100%" id="linearGradient-10">
            <stop stop-color="#806FDA" offset="0%"></stop>
            <stop stop-color="#1A2D50" offset="100%"></stop>
        </linearGradient>
        <linearGradient x1="50%" y1="0%" x2="50%" y2="89.7274233%" id="linearGradient-11">
            <stop stop-color="#7F6ED8" offset="0%"></stop>
            <stop stop-color="#1A2D51" offset="100%"></stop>
        </linearGradient>
        <linearGradient x1="100%" y1="21.7090185%" x2="81.0307136%" y2="80.7094408%" id="linearGradient-12">
            <stop stop-color="#4D6494" offset="0%"></stop>
            <stop stop-color="#192C50" offset="100%"></stop>
        </linearGradient>
        <linearGradient x1="50%" y1="0%" x2="50%" y2="85.1244238%" id="linearGradient-13">
            <stop stop-color="#6882B8" offset="0%"></stop>
            <stop stop-color="#192C50" offset="100%"></stop>
        </linearGradient>
        <filter x="-20.9%" y="-6.3%" width="141.8%" height="112.6%" filterUnits="objectBoundingBox" id="filter-14">
            <feGaussianBlur stdDeviation="1.29743304" in="SourceGraphic"></feGaussianBlur>
        </filter>
        <filter x="-32.7%" y="-6.2%" width="165.3%" height="112.4%" filterUnits="objectBoundingBox" id="filter-15">
            <feGaussianBlur stdDeviation="1.29743304" in="SourceGraphic"></feGaussianBlur>
        </filter>
        <filter x="-26.1%" y="-13.1%" width="152.2%" height="126.1%" filterUnits="objectBoundingBox" id="filter-16">
            <feGaussianBlur stdDeviation="1.29743304" in="SourceGraphic"></feGaussianBlur>
        </filter>
        <filter x="-17.4%" y="-15.4%" width="134.8%" height="130.7%" filterUnits="objectBoundingBox" id="filter-17">
            <feGaussianBlur stdDeviation="1.29743304" in="SourceGraphic"></feGaussianBlur>
        </filter>
        <filter x="-24.9%" y="-11.1%" width="149.8%" height="122.2%" filterUnits="objectBoundingBox" id="filter-18">
            <feGaussianBlur stdDeviation="1.29743304" in="SourceGraphic"></feGaussianBlur>
        </filter>
        <filter x="-19.4%" y="-40.2%" width="138.7%" height="180.4%" filterUnits="objectBoundingBox" id="filter-19">
            <feGaussianBlur stdDeviation="1.29743304" in="SourceGraphic"></feGaussianBlur>
        </filter>
        <filter x="-29.0%" y="-17.4%" width="158.1%" height="134.8%" filterUnits="objectBoundingBox" id="filter-20">
            <feGaussianBlur stdDeviation="1.29743304" in="SourceGraphic"></feGaussianBlur>
        </filter>
        <filter x="-58.1%" y="-58.1%" width="216.1%" height="216.1%" filterUnits="objectBoundingBox" id="filter-21">
            <feGaussianBlur stdDeviation="1.29743304" in="SourceGraphic"></feGaussianBlur>
        </filter>
        <filter x="-20.9%" y="-14.5%" width="141.8%" height="129.0%" filterUnits="objectBoundingBox" id="filter-22">
            <feGaussianBlur stdDeviation="1.29743304" in="SourceGraphic"></feGaussianBlur>
        </filter>
        <filter x="-21.8%" y="-21.8%" width="143.5%" height="143.5%" filterUnits="objectBoundingBox" id="filter-23">
            <feGaussianBlur stdDeviation="1.29743304" in="SourceGraphic"></feGaussianBlur>
        </filter>
        <filter x="-14.9%" y="-20.1%" width="129.9%" height="140.2%" filterUnits="objectBoundingBox" id="filter-24">
            <feGaussianBlur stdDeviation="1.29743304" in="SourceGraphic"></feGaussianBlur>
        </filter>
        <filter x="-40.2%" y="-17.4%" width="180.4%" height="134.8%" filterUnits="objectBoundingBox" id="filter-25">
            <feGaussianBlur stdDeviation="1.29743304" in="SourceGraphic"></feGaussianBlur>
        </filter>
        <filter x="-19.4%" y="-29.0%" width="138.7%" height="158.1%" filterUnits="objectBoundingBox" id="filter-26">
            <feGaussianBlur stdDeviation="1.29743304" in="SourceGraphic"></feGaussianBlur>
        </filter>
        <filter x="-21.8%" y="-21.8%" width="143.5%" height="143.5%" filterUnits="objectBoundingBox" id="filter-27">
            <feGaussianBlur stdDeviation="1.29743304" in="SourceGraphic"></feGaussianBlur>
        </filter>
        <filter x="-21.8%" y="-23.7%" width="143.5%" height="147.5%" filterUnits="objectBoundingBox" id="filter-28">
            <feGaussianBlur stdDeviation="1.29743304" in="SourceGraphic"></feGaussianBlur>
        </filter>
        <filter x="-30.7%" y="-20.1%" width="161.5%" height="140.2%" filterUnits="objectBoundingBox" id="filter-29">
            <feGaussianBlur stdDeviation="1.29743304" in="SourceGraphic"></feGaussianBlur>
        </filter>
        <filter x="-24.9%" y="-21.8%" width="149.8%" height="143.5%" filterUnits="objectBoundingBox" id="filter-30">
            <feGaussianBlur stdDeviation="1.29743304" in="SourceGraphic"></feGaussianBlur>
        </filter>
        <filter x="-11.6%" y="-5.9%" width="123.2%" height="111.9%" filterUnits="objectBoundingBox" id="filter-31">
            <feGaussianBlur stdDeviation="1.29743304" in="SourceGraphic"></feGaussianBlur>
        </filter>
        <filter x="-21.8%" y="-21.8%" width="143.5%" height="143.5%" filterUnits="objectBoundingBox" id="filter-32">
            <feGaussianBlur stdDeviation="1.29743304" in="SourceGraphic"></feGaussianBlur>
        </filter>
        <filter x="-16.9%" y="-20.1%" width="133.7%" height="140.2%" filterUnits="objectBoundingBox" id="filter-33">
            <feGaussianBlur stdDeviation="1.29743304" in="SourceGraphic"></feGaussianBlur>
        </filter>
        <filter x="-34.8%" y="-16.3%" width="169.7%" height="132.7%" filterUnits="objectBoundingBox" id="filter-34">
            <feGaussianBlur stdDeviation="1.29743304" in="SourceGraphic"></feGaussianBlur>
        </filter>
        <filter x="-52.2%" y="-20.1%" width="204.5%" height="140.2%" filterUnits="objectBoundingBox" id="filter-35">
            <feGaussianBlur stdDeviation="1.29743304" in="SourceGraphic"></feGaussianBlur>
        </filter>
        <filter x="-26.1%" y="-24.9%" width="152.2%" height="149.8%" filterUnits="objectBoundingBox" id="filter-36">
            <feGaussianBlur stdDeviation="1.29743304" in="SourceGraphic"></feGaussianBlur>
        </filter>
        <filter x="-40.2%" y="-32.7%" width="180.4%" height="165.3%" filterUnits="objectBoundingBox" id="filter-37">
            <feGaussianBlur stdDeviation="1.29743304" in="SourceGraphic"></feGaussianBlur>
        </filter>
        <filter x="-10.6%" y="-10.3%" width="121.2%" height="120.6%" filterUnits="objectBoundingBox" id="filter-38">
            <feGaussianBlur stdDeviation="1.29743304" in="SourceGraphic"></feGaussianBlur>
        </filter>
        <filter x="-389.2%" y="-389.2%" width="811.0%" height="788.4%" filterUnits="objectBoundingBox" id="filter-39">
            <feGaussianBlur stdDeviation="1.29743304" in="SourceGraphic"></feGaussianBlur>
        </filter>
    </defs>
    <g id="Marketing" stroke="none" stroke-width="1" fill="none" fill-rule="evenodd">
        <g id="1a-Home" transform="translate(-682.000000, -2705.000000)">
            <g id="Section-1" transform="translate(0.000000, 708.000000)">
                <g id="5" transform="translate(322.000000, 1997.000000)">
                    <g id="illu5-Home" transform="translate(360.000000, 0.000000)">
                        <g id="illu4" transform="translate(48.000000, 0.000000)">
                            <mask id="mask-3" fill="white">
                                <use xlink:href="#path-2"></use>
                            </mask>
                            <use id="Mask" fill="url(#linearGradient-1)" xlink:href="#path-2"></use>
                            <g mask="url(#mask-3)">
                                <g transform="translate(42.000000, 20.944828)">
                                    <path d="M153.063172,88.8492414 C153.063172,88.8492414 153.677655,91.6121379 148.534207,92.5953103 C143.390759,93.5784828 147.16869,86.9011034 147.16869,86.9011034 L153.063172,88.8492414 Z" id="Shape" fill="#6E6F72" fill-rule="nonzero"></path>
                                    <g id="_1" stroke-width="1" fill="none" fill-rule="evenodd" transform="translate(0.006897, 0.055172)">
                                        <path d="M97.0992716,144.627741 C108.099272,50.6277407 172.302168,-14.0679835 246.099272,2.62774067 C325.576927,20.607051 362.099272,113.627741 345.099272,181.627741 C328.099272,249.627741 308.735961,263.900706 227.273754,263.900706 C145.811547,263.900706 82.518888,269.223746 97.0992716,144.627741 Z" id="Shape" fill="#DAD9E9" fill-rule="nonzero"></path>
                                        <path d="M5.39834483,196.892966 C5.39834483,196.892966 38.4347586,204.048276 94.2935172,189.482759 C159.87931,172.372828 315.616552,136.814759 344.979724,190.748138 C371.616414,239.670069 272.334207,258.282069 272.334207,258.282069 L0.227586207,254.64069 L5.39834483,196.924828" id="Shape" fill="#EBEAF5" fill-rule="nonzero"></path>
                                        <polygon id="Shape" fill="#C35365" fill-rule="nonzero" points="114.908414 89.3628966 131.526759 81.4110345 140.429931 107.74731 124.00731 116.208966"></polygon>
                                        <g id="poule" transform="translate(235.000000, 166.000000)" fill-rule="nonzero">
                                            <path d="M12.086069,34.3524138 C12.086069,34.3524138 13.3286897,42.0129655 13.1784828,42.418069 C13.0282759,42.8231724 9.29586207,44.348 9.29586207,44.348 C9.29586207,44.348 13.3924138,42.8914483 12.9372414,43.4376552 C12.482069,43.9838621 10.269931,46.0093793 10.269931,46.0093793 C10.269931,46.0093793 13.5289655,43.3784828 13.9886897,43.3284138 C14.4484138,43.2783448 17.3205517,44.6393103 17.3205517,44.6393103 C17.3205517,44.6393103 14.5895172,42.9142069 14.28,42.5091034 C13.9704828,42.104 13.670069,35.2263448 13.670069,35.2263448 L12.086069,34.3524138 Z" id="Shape" fill="#9B99BE"></path>
                                            <path d="M23.2377931,35.4266207 C23.2377931,35.4266207 22.7416552,42.9369655 22.4457931,43.1645517 C22.149931,43.3921379 18.3492414,44.0748966 18.3492414,44.0748966 C18.3492414,44.0748966 21.5627586,43.9793103 21.854069,44.0748966 C22.1453793,44.1704828 20.1790345,46.8787586 20.1790345,46.8787586 C20.1790345,46.8787586 22.4958621,44.1750345 22.9874483,44.2251034 C23.4790345,44.2751724 26.1417931,45.454069 26.1417931,45.454069 C26.1417931,45.454069 23.3333793,43.4786207 23.2833103,43.1782069 C23.2332414,42.8777931 24.8126897,34.5572414 24.8126897,34.5572414 L23.2377931,35.4266207 Z" id="Shape" fill="#9B99BE"></path>
                                            <path d="M5.91393103,19.0677241 C5.91393103,19.0677241 5.91393103,23.2052414 9.78744828,22.1082759 C13.6609655,21.0113103 11.6081379,24.3841379 12.7961379,26.5507586 C13.1830345,27.2653793 14.5303448,28.0846897 16.9382069,26.1502069 C19.346069,24.2157241 17.7393103,19.8551724 17.7393103,19.8551724 L5.91393103,19.0677241 Z" id="Shape" fill="#6031A6"></path>
                                            <path d="M37.4983448,14.7390345 C36.3695172,15.0804138 36.72,13.2870345 34.2028966,13.7513103 C31.8268966,14.2064828 33.5565517,11.6575172 29.7194483,11.6757241 C29.3143448,10.0097931 30.3748966,9.14041379 30.3202759,7.99337931 C30.2565517,6.71889655 29.1686897,5.8222069 28.9137931,5.56731034 C28.6588966,5.31241379 30.2793103,2.56317241 27.7622069,2.69062069 C25.2451034,2.81806897 26.1645517,1.28413793 23.9023448,0.774344828 C21.6401379,0.264551724 22.7143448,1.73475862 22.7143448,1.73475862 C24.1117241,5.35337931 21.4990345,6.88731034 21.4671724,6.90551724 C21.1166897,7.06482759 20.7798621,7.20593103 20.4885517,7.32882759 C19.8504435,7.51371579 19.2032427,7.66564087 18.5495172,7.784 C16.7742416,7.78213967 15.0142953,8.11251554 13.3605517,8.75806897 C12.6133301,8.7862813 11.8721827,8.90394799 11.1529655,9.10855172 C10.6113103,8.77172414 10.0104828,8.73986207 8.42193103,8.83089655 C5.98675862,8.96744828 6.39186207,6.39572414 4.78055172,5.58551724 C3.16924138,4.77531034 2.928,4.98013793 3.02813793,8.4257931 C3.12827586,11.8714483 0.024,14.2337931 0.834206897,19.4364138 C1.64441379,24.6390345 4.78055172,26.0955862 4.78055172,26.0955862 C5.86143806,29.8010553 8.38541171,32.9170722 11.7856552,34.7438621 L11.2849655,35.422069 C11.2849655,35.422069 11.3441379,36.2823448 12.8052414,36.032 C14.2663448,35.7816552 14.1343448,36.7102069 14.7033103,36.7102069 C15.1104423,36.7145912 15.4867892,36.4940345 15.681931,36.1366897 C17.3992467,36.4959493 19.168882,36.5283771 20.8982069,36.2322759 C20.9550215,36.3162983 21.0316117,36.3850732 21.1212414,36.4325517 C21.4671724,36.6055172 22.4048276,36.1685517 23.1695172,36.2504828 C23.9342069,36.3324138 25.0448276,37.1608276 25.8095172,35.6815172 C26.5742069,34.2022069 27.6848276,34.5663448 28.1991724,34.3478621 C28.3766897,34.2750345 28.4586207,34.0474483 28.4904828,33.7743448 C30.4477241,33.2190345 33.4427586,32.0765517 35.1496552,29.9827586 C37.8351724,26.6918621 36.3604138,18.8537931 38.4405517,16.6598621 C40.5206897,14.465931 38.6226207,14.3931034 37.4983448,14.7390345 Z" id="Shape" fill="#DAD9E9"></path>
                                            <path d="M37.4983448,14.7390345 C36.3695172,15.0804138 36.72,13.2870345 34.2028966,13.7513103 C31.8268966,14.2064828 33.5565517,11.6575172 29.7194483,11.6757241 C29.3143448,10.0097931 30.3748966,9.14041379 30.3202759,7.99337931 C30.2565517,6.71889655 29.1686897,5.8222069 28.9137931,5.56731034 C28.6588966,5.31241379 30.2793103,2.56317241 27.7622069,2.69062069 C25.2451034,2.81806897 26.1645517,1.28413793 23.9023448,0.774344828 C21.6401379,0.264551724 22.7143448,1.73475862 22.7143448,1.73475862 C22.8039098,1.96219247 22.8799054,2.19473878 22.941931,2.43117241 C23.2901862,2.84841902 23.6109981,3.28782502 23.9023448,3.74662069 C24.9082759,5.23048276 26.6333793,4.14262069 27.2251034,6.20455172 C27.8168276,8.26648276 24.5668966,9.46813793 27.825931,11.794069 C31.0849655,14.12 31.3489655,19.0768276 31.3489655,19.0768276 C31.5445218,17.2453088 31.1979047,15.3966846 30.3521379,13.7604138 C32.018069,14.384 31.4172414,15.3990345 32.0817931,17.1924138 C32.7463448,18.9857931 36.6744828,17.0604138 34.8765517,18.6990345 C33.0786207,20.3376552 33.8114483,22.517931 32.8146207,26.8921379 C31.8177931,31.2663448 27.5573793,31.5531034 27.5573793,31.5531034 C24.1663448,34.4798621 18.0306207,32.3496552 18.0306207,32.3496552 L16.9154483,22.172 L7.59351724,19.4409655 C6.81397363,15.9431366 7.91264569,12.2918199 10.4929655,9.80496552 C2.67310345,15.7904828 3.92027586,23.8288276 3.92027586,23.8288276 C1.78551724,21.2343448 3.74731034,13.5692414 4.08868966,11.8623448 C4.33448276,10.6424828 3.51062069,8.53048276 3.01903448,7.42441379 C3.01903448,7.72482759 3.01903448,8.05255172 3.01903448,8.43034483 C3.11462069,11.876 0.0148965517,14.2383448 0.825103448,19.4409655 C1.63531034,24.6435862 4.77144828,26.1001379 4.77144828,26.1001379 C5.85233461,29.8056071 8.37630826,32.9216239 11.7765517,34.7484138 L11.2758621,35.4266207 C11.2758621,35.4266207 11.3350345,36.2868966 12.7961379,36.0365517 C14.2572414,35.7862069 14.1252414,36.7147586 14.6942069,36.7147586 C15.1013389,36.7191429 15.4776857,36.4985862 15.6728276,36.1412414 C17.3901432,36.500501 19.1597786,36.5329289 20.8891034,36.2368276 C20.9459181,36.3208501 21.0225083,36.389625 21.1121379,36.4371034 C21.458069,36.610069 22.3957241,36.1731034 23.1604138,36.2550345 C23.9251034,36.3369655 25.0357241,37.1653793 25.8004138,35.686069 C26.5651034,34.2067586 27.6757241,34.5708966 28.190069,34.3524138 C28.3675862,34.2795862 28.4495172,34.052 28.4813793,33.7788966 C30.4386207,33.2235862 33.4336552,32.0811034 35.1405517,29.9873103 C37.826069,26.6964138 36.3513103,18.8583448 38.4314483,16.6644138 C40.5115862,14.4704828 38.6226207,14.3931034 37.4983448,14.7390345 Z" id="Shape" fill="#9B99BE"></path>
                                            <path d="M23.388,23.8242759 C22.7188966,23.2143448 23.6292414,22.4314483 23.5382069,21.1615172 C23.4471724,19.8915862 21.6583448,20.0691034 20.6296552,20.009931 C20.2863123,19.9960879 19.9672609,19.8290453 19.7602759,19.5547586 C19.3051034,18.8310345 19.3551724,16.3048276 17.7211034,15.4582069 C15.4452414,14.2702069 13.9067586,14.4886897 7.59351724,16.8692414 C4.80331034,17.9252414 6.80606897,20.110069 5.31765517,20.7973793 C3.82924138,21.4846897 4.48013793,23.1733793 4.82606897,24.4387586 C5.172,25.7041379 4.00675862,26.3777931 4.60758621,28.9267586 C5.20841379,31.4757241 6.77875862,31.9308966 6.77875862,31.9308966 C6.77875862,31.9308966 8.53117241,34.265931 10.6613793,34.3797241 C10.3878075,34.8436503 10.156265,35.3311083 9.96951724,35.8362759 C10.9505779,36.1163234 11.996259,35.6920434 12.5048276,34.8075862 C14.1070345,35.3765517 15.7547586,36.2686897 17.3387586,35.8317241 C19.5417931,35.2263448 17.5982069,32.3769655 21.4853793,30.092 C23.4790345,28.9176552 24.0115862,27.1151724 23.7157241,25.6131034 C24.0771852,25.020231 23.9361657,24.2504992 23.388,23.8242759 Z" id="Shape" fill="#9B99BE"></path>
                                            <path d="M10.401931,39.2091034 C9.16841379,36.9013793 10.188,35.2673103 10.188,35.2673103 L16.6241379,23.0413793 C13.8931034,19.8233103 8.94082759,20.4742069 8.94082759,20.4742069 C8.94082759,20.4742069 6.66496552,32.7001379 6.31448276,34.2067586 C5.85931034,36.296 4.46193103,36.7784828 4.46193103,36.7784828 C2.32410905,37.7784888 1.36993491,40.2978975 2.30896267,42.463197 C3.24799043,44.6284964 5.73935029,45.6536767 7.93038834,44.7763813 C10.1214264,43.899086 11.2167895,41.4377757 10.401931,39.2227586 L10.401931,39.2091034 Z" id="Shape" fill="#9B99BE"></path>
                                            <path d="M4.22524138,41.5031724 C4.22524138,41.5031724 2.88703448,41.2755862 3.05089655,40.0375172 C3.21475862,38.7994483 4.12510345,38.9268966 3.86565517,37.4566897 C3.6062069,35.9864828 4.42096552,35.4812414 4.94441379,35.4948966 C5.80013793,35.5222069 6.28262069,36.5417931 6.47834483,36.0866207 C6.67406897,35.6314483 7.08372414,35.2673103 7.42510345,35.4948966 C7.67544828,35.6633103 7.62082759,36.245931 7.42510345,36.8012414 C5.80354262,37.9087868 4.66054388,39.5883283 4.22524138,41.5031724 Z" id="Shape" fill="#DAD9E9"></path>
                                            <path d="M3.03724138,43.5514483 C3.03724138,43.5514483 3.00082759,45.5268966 4.22524138,46.8468966 C4.22524138,46.8468966 4.40275862,46.9788966 4.54386207,46.7148966 C4.95347899,45.9944543 5.57044275,45.4139691 6.31448276,45.0489655 C6.31448276,45.0489655 5.92758621,44.084 4.0977931,43.1873103 C3.71477093,43.1940944 3.3436471,43.3215189 3.03724138,43.5514483 Z" id="Shape" fill="#DAD9E9"></path>
                                            <path d="M7.59351724,20.7655172 C7.59351724,20.7655172 6.68317241,23.3463448 8.13062069,23.7787586 C9.57806897,24.2111724 11.3168276,23.4646897 12.086069,23.9335172 C12.8553103,24.4023448 11.5762759,28.0027586 14.4711724,28.1984828 C17.366069,28.3942069 18.0306207,22.2812414 18.0306207,22.2812414 L13.934069,19.4227586 L7.59351724,20.7655172 Z" id="Shape" fill="#9B99BE"></path>
                                        </g>
                                    </g>
                                    <path d="M194.201793,43.8689655 C197.807864,42.637518 201.799567,43.5148154 204.556966,46.1448276 C209.413655,50.6328276 221.899034,61.2975172 230.287862,70.0095172 C230.624497,71.1999696 230.624497,72.4604442 230.287862,73.6508966 C229.705241,75.4078621 223.460276,88.8673103 210.192,99.0131034 C210.192,99.0131034 210.387724,96.0863448 208.826483,94.333931 C208.826483,94.333931 214.875724,79.8958621 219.559448,75.4078621 C219.559448,75.4078621 220.924966,73.4551724 219.559448,72.6768276 C218.193931,71.8984828 205.73131,65.262069 205.73131,65.262069 L192.827172,45.5257931 L194.201793,43.8689655 Z" id="Shape" fill="#FFFFFF" fill-rule="nonzero"></path>
                                    <path d="M143,99.0551724 C142.333333,101.055172 141,102.388506 139,103.055172 C139,103.055172 138.333333,101.388506 137,98.0551724 L140,97.0551724 L143,99.0551724 Z" id="Path-2" fill="url(#linearGradient-4)" fill-rule="evenodd"></path>
                                    <path d="M180.146069,46.8731034 C180.146069,46.8731034 170.710345,53.6597241 174.488276,84.2609655 C174.488276,84.2609655 175.111862,94.2747586 173.577931,102.240276 C172.044,110.205793 171.229241,131.070897 171.229241,144.475724 C171.229241,150.693379 170.145931,155.012966 169.954759,160.156414 C169.740828,165.918897 170.018483,173.756966 170.824138,186.101241 C170.824138,186.101241 174.010345,191.080828 178.694069,187.298345 C178.694069,187.298345 183.386897,165.381793 182.399172,145.691034 L189.923172,113.965517 C189.923172,113.965517 195.093931,135.445103 199.099448,145.918621 C199.099448,145.918621 199.13131,176.820276 203.651172,187.33931 C203.651172,187.33931 207.44731,191.048966 211.22069,186.929655 C211.22069,186.929655 213.196138,169.478345 209.991724,145.181241 C209.991724,145.181241 210.319448,125.217379 209.117793,113.068828 C207.916138,100.920276 203.801379,94.2747586 204.566069,88.8263448 C205.330759,83.377931 211.22069,51.3246897 193.264138,47.3191724 L180.146069,46.8731034 Z" id="Shape" fill="#FFFFFF" fill-rule="nonzero"></path>
                                    <path d="M191.912276,36.9321379 L191.912276,36.7273103 C191.743862,34.3831724 191.875862,31.6384828 192.9,29.4126897 L194.479448,27.5464828 L195.681103,23.3862069 L194.534069,22.4758621 C194.893655,20.4457931 195.285103,14.7834483 188.94,13.2722759 C181.17931,11.4197241 176.336276,15.1931034 174.71131,17.0365517 C173.696276,18.1972414 173.86469,22.2391724 175.31669,24.2601379 C175.876552,26.3721379 175.403172,29.8268966 174.984414,30.8146207 L173.86469,33.450069 L184.989103,37.4692414 L182.376414,39.5721379 C182.376414,39.5721379 183.796552,42.9085517 181.507034,45.7078621 C181.507034,45.7078621 177.492414,53.8326897 185.808414,53.8691034 C192.180828,53.9009655 195.681103,46.0583448 194.201793,43.8553103 C192.905661,41.7593437 192.12132,39.3876084 191.912276,36.9321379 Z" id="Shape" fill="url(#linearGradient-5)" fill-rule="nonzero"></path>
                                    <path d="M181.106483,30.5005517 C177.519724,27.906069 175.011724,29.0531034 174.57931,30.150069 C174.353119,30.8192374 174.175146,31.5037473 174.046759,32.1983448 C171.288414,35.9307586 171.861931,39.025931 172.112276,39.8998621 C172.872414,42.5853793 181.493379,39.817931 181.493379,39.817931 C186.577655,38.497931 188.489379,36.4314483 188.489379,36.4314483 C191.707448,34.3376552 189.131172,30.1091034 189.131172,30.1091034 C188.589517,29.7267586 188.412,29.6129655 188.061517,29.358069 C187.711034,29.1031724 187.606345,28.993931 187.674621,28.8391724 C185.539862,34.242069 181.798345,31.0376552 181.798345,31.0376552 L181.106483,30.5005517 Z" id="Shape" fill="#122240" fill-rule="nonzero"></path>
                                    <path d="M187.679172,28.8017241 L187.714172,28.7117241 L187.679172,28.8017241 Z" id="Shape" fill="#58595B" fill-rule="nonzero"></path>
                                    <path d="M191.962345,10.5321379 C188.917241,5.6617931 180.819724,6.74510345 177.993103,8.82068966 C175.166483,10.8962759 171.397655,8.60675862 171.397655,8.60675862 C169.77269,11.6564138 170.450897,14.8244138 172.608414,16.7315862 C172.608414,16.7315862 172.153241,21.3561379 175.303034,24.2828966 C175.303034,24.2828966 173.755448,20.6415172 174.816,18.0242759 C176.043043,18.4553633 177.352415,18.6001571 178.644,18.4475862 C182.326345,18.0697931 184.452,19.0393103 185.580828,19.9041379 C186.632276,20.7462069 188.96731,23.317931 187.665517,28.8164138 C187.665517,28.8164138 187.665517,29.8678621 189.117517,30.1318621 C189.117517,30.1318621 190.514897,29.4491034 191.393379,26.1354483 C192.271862,22.8217931 193.605517,22.8172414 194.338345,23.236 C195.071172,23.6547586 195.24869,26.0489655 193.428,28.3566897 C191.60731,30.6644138 191.925931,32.7718621 191.925931,32.7718621 C191.925931,32.7718621 195.398897,27.1823448 195.808552,25.0885517 C200.091724,13.2085517 191.962345,10.5321379 191.962345,10.5321379 Z" id="Shape" fill="#122240" fill-rule="nonzero"></path>
                                    <path d="M208.826483,94.3202759 C208.826483,94.3202759 206.618897,96.9056552 205.881517,97.2197241 L206.76,100.492414 C207.934982,100.069249 209.081374,99.5705535 210.192,98.9994483 C210.192,98.9994483 210.469655,96.0908966 208.826483,94.3202759 Z" id="Shape" fill="url(#linearGradient-6)" fill-rule="nonzero"></path>
                                    <path d="M205.694897,96.5870345 C205.694897,96.5870345 207.474621,96.2638621 208.043586,97.633931 C208.612552,99.004 209.864276,102.640828 209.864276,102.640828 L207.756828,105.704138 L201.839586,107.788828 C201.839586,107.788828 200.205517,107.333655 201.206897,104.852966 C202.208276,102.372276 206.33669,98.9903448 206.33669,98.9903448 L205.694897,96.5870345 Z" id="Shape" fill="url(#linearGradient-7)" fill-rule="nonzero"></path>
                                    <path d="M140.769103,95.6903448 C139.939878,95.8461381 139.087296,95.8275363 138.265655,95.6357241 C137.045793,95.3034483 134.724414,96.1182069 134.892828,97.0558621 C134.892828,97.0558621 134.992966,98.8401379 134.892828,100.888414 C134.79269,102.93669 134.97931,103.027724 135.270621,103.059586 C135.648414,103.105103 136.231034,101.612138 136.349379,100.374069 C136.476828,99.0085517 136.708966,97.9935172 137.023034,98.2757241 C138.347586,99.450069 139.649379,99.3135172 140.928414,98.5715862 L142.066345,98.953931 L142.221103,99.0085517 L142.526069,99.1086897 L143.058621,99.2862069 C143.090045,99.1361099 143.090045,98.9811315 143.058621,98.8310345 C143.058621,98.8310345 144.665379,98.0208276 145.08869,97.7977931 C145.958418,97.3475075 146.80323,96.8506482 147.619448,96.3093793 L147.218897,94.0016552 L143.905241,92.3857931 L140.769103,95.6903448 Z" id="Shape" fill="url(#linearGradient-8)" fill-rule="nonzero"></path>
                                    <path d="M181.962207,45.2891034 C181.962207,45.2891034 176.272552,40.8921379 170.865103,53.9737931 C165.275586,67.506069 161.925517,75.6582069 160.318759,77.0601379 C158.712,78.462069 147.865241,85.2896552 143.445517,92.9274483 C143.445517,92.9274483 146.458759,93.8377931 145.857931,97.4063448 C145.857931,97.4063448 155.653241,91.5209655 162.69931,85.4990345 C162.69931,85.4990345 165.535034,84.4931034 174.988966,73.6645517 L181.962207,45.2891034 Z" id="Shape" fill="#FFFFFF" fill-rule="nonzero"></path>
                                    <path d="M182.089655,162.668966 C182.089655,162.668966 175.262069,167.079586 169.918345,161.230621 C169.918345,161.230621 169.485931,169.350897 170.928828,190.971586 C170.928828,190.971586 171.27931,195.277517 167.797241,198.095034 C164.661103,200.634897 161.611448,202.692276 160.969655,203.643586 C160.327862,204.594897 159.849931,207.740138 162.335172,208.3 C164.661103,208.841655 167.141793,209.101103 169.95931,206.74331 C172.458207,204.654069 171.78,205.086483 174.165103,202.710483 C176.550207,200.334483 178.134207,201.181103 178.589379,197.953931 C178.999034,195.022621 177.656276,195.12731 178.27531,189.992966 C178.530207,187.921931 181.634483,174.244 182.089655,162.668966 Z" id="Shape" fill="url(#linearGradient-9)" fill-rule="nonzero"></path>
                                    <path d="M211.603034,162.796414 C211.603034,162.796414 207.802345,166.69269 199.768552,164.061793 C199.768552,164.061793 199.768552,174.935862 202.954759,185.514069 C202.954759,185.514069 205.030345,191.50869 204.912,193.952966 C204.793655,196.397241 203.956138,196.151448 203.956138,199.574345 C203.956138,202.997241 207.078621,202.460138 210.178345,204.089655 C213.278069,205.719172 213.364552,208.154345 216.550759,208.673241 C219.736966,209.192138 222.89131,208.759724 224.256828,206.948138 C225.622345,205.136552 222.199448,203.015448 220.615448,201.854759 C217.652469,199.633139 215.043502,196.975062 212.877517,193.971172 C211.694069,192.250621 212.04,178.085655 211.780552,167.712276 C211.675862,164.312138 211.703172,164.394069 211.603034,162.796414 Z" id="Shape" fill="url(#linearGradient-9)" fill-rule="nonzero"></path>
                                    <path d="M199.513655,43.5093793 C199.513655,43.5093793 199.272414,42.9631724 198.844552,42.9631724 C197.772986,42.8937262 196.698048,42.8937262 195.626483,42.9631724 C195.626483,42.9631724 195.330621,42.8584828 194.957379,44.0737931 C193.877637,47.6720489 193.415919,51.4273566 193.591862,55.18 C193.591862,55.18 185.284966,59.2128276 180.33269,55.0206897 C179.715968,51.6856004 180.294557,48.2398506 181.966759,45.2891034 L182.517517,44.305931 C181.800875,44.1707672 181.06616,44.1615255 180.346345,44.2786207 C179.008138,44.4606897 176.90069,48.712 176.413655,50.2914483 C175.926621,51.8708966 171.693517,58.5437241 172.740414,78.7488276 C173.78731,98.953931 173.527862,94.9802759 173.527862,94.9802759 C173.527862,94.9802759 172.617517,106.514345 172.084966,117.160828 C171.552414,127.80731 171.48869,130.228828 171.461379,131.157379 C171.434069,132.085931 171.211034,146.747034 171.156414,147.620966 C171.101793,148.494897 169.991172,156.269241 169.932,161.235172 C169.932,161.235172 173.99669,167.002207 182.10331,162.673517 C182.10331,162.673517 182.490207,157.366207 182.522069,154.220966 C182.553931,151.075724 182.617655,149.214069 182.417379,145.677379 C182.417379,145.677379 185.061931,137.074621 185.803862,133.943034 C186.545793,130.811448 188.225379,123.542345 188.671448,121.653379 C189.117517,119.764414 189.923172,113.965517 189.923172,113.965517 C189.923172,113.965517 192.253655,123.269241 193.173103,126.628414 C194.092552,129.987586 195.940552,136.733241 197.237793,140.55669 C198.535034,144.380138 199.099448,145.918621 199.099448,145.918621 C199.099448,145.918621 199.163172,152.049793 199.331586,155.709379 C199.5,159.368966 199.786759,164.057241 199.786759,164.057241 C199.786759,164.057241 206.837379,166.984 211.621241,162.791862 C211.621241,162.791862 211.116,154.248276 210.61531,150.047034 C210.114621,145.845793 210.037241,145.090207 210.050897,143.488 C210.064552,141.885793 209.909793,126.983448 209.855172,125.8 C209.800552,124.616552 209.550207,114.707448 208.803724,110.428828 C208.803724,110.428828 208.225655,106.468828 207.893379,105.467448 L207.720414,105.722345 L201.803172,107.807034 C201.112141,107.5199 200.712992,106.791595 200.842759,106.054621 C200.961103,104.657241 202.235586,102.895724 203.500966,101.630345 C204.766345,100.364966 206.300276,99.0085517 206.300276,99.0085517 L205.389931,95.9361379 C205.389931,95.9361379 204.593379,92.6634483 204.520552,91.6211034 C204.461856,90.1951429 204.541121,88.7668472 204.757241,87.3561379 C204.998483,85.7357241 205.576552,81.844 205.772276,78.94 C206.016204,76.2633373 206.111937,73.5752339 206.059034,70.888 C205.945241,68.0841379 205.685793,65.2438621 205.685793,65.2438621 C205.685793,65.2438621 203.632966,67.3285517 201.862345,64.5884138 C200.091724,61.8482759 198.535034,55.7671724 199.513655,43.5093793 Z" id="Shape" fill="url(#linearGradient-10)" fill-rule="nonzero"></path>
                                    <polygon id="Shape" fill="#E3667A" fill-rule="nonzero" points="131.533655 81.4662069 125.457103 81.4662069 109.908414 88.4576552 119.87669 116.264138 124.014207 116.264138 114.91531 89.418069"></polygon>
                                </g>
                            </g>
                        </g>
                        <g id="Group" transform="translate(0.000000, 122.000000)" fill-rule="nonzero">
                            <path d="M65.8970333,96 C65.8970333,96 75.9674266,96.6028612 84.0681286,102.276145 C92.1688307,107.949428 104.371405,142.496172 104.371405,142.496172 C104.371405,142.496172 108.132445,150.928244 112.456254,157.000774 C112.456254,157.000774 117.913528,146.133301 122.875406,136.583341 C122.875406,136.583341 127.234883,134.311632 134,137.948762 C134,137.948762 131.594361,177.821445 127.016909,186.656755 C127.016909,186.656755 120.957236,188.553173 110.240847,183.430849 C97.0752246,177.142727 73.6806824,149.858265 73.6806824,149.858265 L29,149.786401 L65.8970333,96 Z" id="Shape" fill="url(#linearGradient-11)"></path>
                            <path d="M80.4509904,25.5028329 C80.4509904,25.5028329 84.3132839,37.2200229 82.7056288,42.8464961 C81.0979736,48.4729693 80.541176,52.5440281 83.0977398,57.3055005 C85.6543036,62.0669729 82.7056288,76.8315052 75.1692551,82.7000199 C67.6328815,88.5685346 47,72.6652169 47,72.6652169 C47,72.6652169 68.9582167,13 71.2403028,13 C73.5223889,13 80.4509904,25.5028329 80.4509904,25.5028329 Z" id="Shape" fill="url(#linearGradient-12)"></path>
                            <path d="M78.506382,29.4783594 C78.506382,29.4783594 86.7787487,18.175276 73.1892797,5.68532896 C59.5998108,-6.80461806 46.5998122,5.09189716 33.0142994,5.68532896 C19.4287866,6.27876075 7.60772892,15.797566 11.1524638,26.5032349 C14.6971986,37.2089038 9.96561058,49.105419 4.06299407,54.4582534 C-1.83962244,59.8110879 -2.43700521,76.0846604 9.96956675,85.1972238 C22.3761387,94.3097872 0,100.992865 0,117.903679 C0,141.800262 13.7160666,152.804638 40.4993868,149.391409 C58.8085753,147.061493 69.9926885,133.51213 72.5998093,118.696249 C74.2534914,109.30091 65.5063835,86.3323114 69.6445449,76.0448328 C73.7827063,65.7573541 85.5958517,66.3547686 78.506382,29.4783594 Z" id="Shape" fill="#DAD9E9"></path>
                            <path d="M61.9879383,0.105851056 C52.4225135,-0.873932407 42.9925989,5.25967138 33.2597792,5.6818545 C19.5692649,6.27928344 7.66429662,15.794335 11.2353885,26.5002616 C14.8064805,37.2061883 10.0397104,49.1029899 4.0932047,54.4559532 C-1.85330106,59.8089165 -2.4551257,76.0828808 10.043696,85.1956636 C22.5425178,94.3084464 0,100.991685 0,117.902907 C0,141.800064 13.8180532,152.804705 40.8005224,149.391395 C44.2388122,148.969399 47.6064256,148.096268 50.8163193,146.79457 C64.6343725,133.846294 50.5452989,116.879312 46.6633307,107.25274 C42.4505581,96.8017165 58.3769904,89.8516265 53.5544221,74.9915773 C48.7318538,60.1315281 48.1937986,48.6051324 60.5212398,31.4668876 C70.0587655,18.2159137 64.8376378,5.28356854 61.9879383,0.105851056 Z" id="Shape" fill="#9B99BE" opacity="0.4"></path>
                            <polygon id="Shape" fill="#C35365" points="98 109.04372 145.327211 119 156 56.2655008 107.287891 49"></polygon>
                            <polygon id="Shape" fill="#E3667A" points="107 49 126.554254 49 164 54.6796502 152.917544 114.445151 145.077675 119 155.761225 56.2655008"></polygon>
                            <path d="M134.114753,138 L134.134551,126.436653 C134.134551,126.436653 140.992675,122.822365 141.982589,119.006183 C142.972502,115.190002 143.051696,111.520292 142.980422,108.571064 C142.909148,105.621837 140.838248,105.09533 140.723418,107.589308 C140.220542,118.673653 137.611129,117.486044 137.611129,117.486044 L123.91864,114.572445 C123.91864,114.572445 124.314606,121.302226 126.852745,124.211867 C129.390884,127.121507 123,136.618416 123,136.618416 C126.7588,135.922809 130.640775,136.405345 134.114753,138 Z" id="Shape" fill="url(#linearGradient-13)"></path>
                            <path d="M112,156.95277 C112,156.95277 115.338978,161.116602 118.887384,163.82934 C122.435789,166.542078 126,136.016721 126,136.016721 C124.791465,135.955487 123.580387,136.062618 122.400226,136.335155 L112,156.95277 Z" id="Shape" fill="#1A2D51"></path>
                        </g>
                        <g id="Fleur" transform="translate(383.006897, 155.000000)" fill-rule="nonzero">
                            <polygon id="Shape" fill="#9B99BE" filter="url(#filter-14)" points="34.9165379 99.8255034 19.3691275 39.1616745 22.1551464 37.9932886 37.9932886 99.8255034"></polygon>
                            <polygon id="Shape" fill="#9B99BE" filter="url(#filter-15)" points="33.5234899 91.9698951 42.3522841 30.5721591 45.442953 30.5436242 36.434904 93.1208054"></polygon>
                            <path d="M15.6300138,40.5150304 C15.6300138,40.5150304 21.2180278,44.161055 24.9414928,38.7587602 C28.9597555,32.931223 21.0546685,18.6655798 20.2472606,17.0637698 C19.4398527,15.4619598 14.2893411,7.68174002 12.3365405,15.0195552 C10.4738692,21.99887 10.3762292,35.3301241 15.6300138,40.5150304 Z" id="Shape" fill="#9B99BE" filter="url(#filter-16)"></path>
                            <path d="M29.0536913,94.2939115 C29.0536913,94.2939115 29.7473589,100.96716 36.307744,100.55186 C43.3812531,100.100529 49.489329,85.0018066 50.2229062,83.369051 C50.9564835,81.7362955 53.7596608,72.84432 46.8134824,75.8614096 C40.2036853,78.7286876 29.7682639,86.9303924 29.0536913,94.2939115 Z" id="Shape" fill="#9B99BE" filter="url(#filter-17)"></path>
                            <path d="M37.6033037,31.7425851 C37.6033037,31.7425851 41.2145566,37.8662264 47.0090956,33.3557819 C53.2583294,28.4951416 52.0821357,9.8601357 52.0220107,7.7953204 C51.9618858,5.7305051 50.5451924,-4.74857607 45.5604609,2.5500389 C40.8143501,9.49463086 33.7703401,26.4379809 37.6033037,31.7425851 Z" id="Shape" fill="#9B99BE" filter="url(#filter-18)"></path>
                            <path d="M20.8590604,41.2783476 C20.8590604,41.2783476 19.9114446,42.4630872 16.3275614,42.4630872 C12.7436783,42.4630872 5.10968503,33.0868244 0.744966443,32.8668805 C0.744966443,32.8668805 17.5443002,31.3087907 20.8590604,41.2783476 Z" id="Shape" fill="#9B99BE" filter="url(#filter-19)"></path>
                            <path d="M20.7768572,41.4845611 C23.0518583,42.0302221 25.4598805,41.6096426 27.3929299,40.3290134 C30.7009662,38.1667809 30.7876649,34.3745004 30.8743636,32.4095111 C30.9918885,29.8044116 31.7721766,22.7520352 33.5234899,19.3691275 C33.5234899,19.3691275 28.1712914,21.8123386 25.7379484,26.5126824 C23.3046054,31.2130261 23.0560692,39.3651266 20.114094,39.8954504 L20.7768572,41.4845611 Z" id="Shape" fill="#9B99BE" filter="url(#filter-20)"></path>
                            <path d="M11.9194631,30.5436242 C11.9194631,30.5436242 9.23717407,26.0459986 5.2147651,23.8475592 C5.2147651,23.8475592 8.38884126,23.6676542 11.3272694,24.950377 C11.4170133,26.8223732 11.6146643,28.689179 11.9194631,30.5436242 Z" id="Shape" fill="#9B99BE" filter="url(#filter-21)"></path>
                            <path d="M23.0939597,52.8023083 C23.0939597,52.8023083 19.2345487,51.8143289 17.3048432,50.8282943 C15.3751377,49.8422598 11.1126749,53.1309865 6.44906144,60.698364 C6.44906144,60.698364 7.57456455,60.6147358 9.50427007,62.917428 C9.50427007,62.917428 7.4129636,62.3495343 5.72661011,62.4292728 C5.72661011,62.4292728 6.20951179,69.1700928 5.72661011,70.8154286 C5.24370844,72.4607643 3.87675448,75.5024961 4.76080676,77.4765101 C4.76080676,77.4765101 4.96423384,74.5981449 8.44150614,71.9667746 C11.9187784,69.3354043 18.8238922,62.3417549 18.5463188,54.852171 L23.0939597,53.7825083 L23.0939597,52.8023083 Z" id="Shape" fill="#9B99BE" filter="url(#filter-22)"></path>
                            <path d="M26.0738255,59.976526 C26.0738255,59.976526 28.6662619,57.7073707 29.3181173,56.2504909 C29.9699727,54.7936112 40.5570034,57.7893434 42.3570983,61.1129667 C44.1571932,64.4365901 41.9487521,69.2990659 42.3570983,70.4280545 C42.7654445,71.5570432 43.9530201,73.7516779 43.9530201,73.7516779 C43.9530201,73.7516779 40.1561498,71.8066875 38.9329843,70.4280545 C37.7098189,69.0494215 38.903014,65.3494687 37.0036422,64.8091936 C35.1042705,64.2689185 31.0283011,61.1073777 30.2959004,59.8107175 C29.5634996,58.5140573 26.0738255,61.038446 26.0738255,61.038446 L26.0738255,59.976526 Z" id="Shape" fill="#9B99BE" filter="url(#filter-23)"></path>
                            <path d="M54.1251023,20.5141176 C52.5704089,20.9389047 46.4401448,24.1507566 43.3211373,29.6210921 C42.7438996,20.4122456 33.5292623,16.3892617 33.5292623,16.3892617 C33.5292623,16.3892617 36.2730654,19.4973195 36.2730654,20.9177615 C36.2730654,21.3406265 36.1980245,22.3036054 36.0941217,23.4491852 L33.5234899,21.7769463 C34.6664205,22.7072493 35.424526,24.427541 35.868999,25.7441889 C35.6534969,27.8681244 35.4322225,29.85559 35.4322225,29.85559 C35.4322225,29.85559 35.0839558,32.2851416 37.6488151,33.9727574 C38.6430076,34.6274005 39.8212508,34.946076 41.0102625,34.8819171 C42.0762281,35.53928 43.6944177,36.1562785 45.4184342,35.4335638 C46.6710399,35.6353857 48.9434322,36.0890045 50.8444683,33.7171163 C52.8648001,31.193381 55.7259748,23.0378528 56.3994188,21.8595972 C57.0728627,20.6813415 59.5973154,18.947595 59.5973154,18.947595 C59.5973154,18.947595 55.9761111,20.0105239 54.1251023,20.5141176 Z" id="Shape" fill="#9B99BE" filter="url(#filter-24)"></path>
                            <path d="M35.0134228,84.1188111 C35.0134228,84.1188111 34.8790216,76.6090264 26.3706746,73.0067114 C26.3706746,73.0067114 28.0506905,78.6409107 27.5952195,81.8375931 C27.1397486,85.0342755 24.9725281,91.1410925 25.3794653,92.4100899 C25.7864025,93.6790872 27.6530867,96.1854499 30.7424492,95.0820549 C33.8318117,93.9786599 35.0134228,84.1188111 35.0134228,84.1188111 Z" id="Shape" fill="#9B99BE" filter="url(#filter-25)"></path>
                            <path d="M34.2684564,99.9887051 C34.2684564,99.9887051 27.2542114,103.302147 21.2965621,99.4563567 C15.3389129,95.6105663 14.1543624,96.5426495 14.1543624,96.5426495 C14.1543624,96.5426495 20.2923115,95.027067 21.6978747,91.4711317 C23.1034379,87.9151964 28.5453908,86.9243844 31.1626464,88.9287422 L34.2684564,99.9887051 Z" id="Shape" fill="#9B99BE" filter="url(#filter-26)"></path>
                            <path d="M47.7770876,87.4958427 C47.7770876,87.4958427 51.3645352,84.5164598 53.6375839,84.9739392 C53.6375839,84.9739392 51.0162756,85.2507335 49.1776151,91.1768223 C47.3389546,97.1029111 46.1144292,103.39037 41.4784583,102.761816 C36.8424875,102.133263 35.7583893,98.9001518 35.7583893,98.9001518 L47.7770876,87.4958427 Z" id="Shape" fill="#9B99BE" filter="url(#filter-27)"></path>
                            <path d="M32.033557,99.4344191 C32.033557,99.4344191 32.5587781,96.9625596 34.804147,95.9023814 C37.0495159,94.8422031 41.5109663,93.8935231 44.8048249,95.3732371 C48.0986834,96.8529512 49.912551,103.142208 49.912551,104.289317 C49.912551,105.436426 50.0043182,107.20339 46.2633384,111 C46.2633384,111 47.138056,106.056281 45.3339509,105.614068 C43.5298458,105.171854 32.8555573,104.907282 32.033557,99.4344191 Z" id="Shape" fill="#9B99BE" filter="url(#filter-28)"></path>
                            <path d="M40.9731544,40.5673507 C40.9731544,40.5673507 39.5899073,37.6867764 38.7625975,36.2483843 C37.9352876,34.8099923 34.5261679,36.9514719 33.0600014,37.4081945 C31.593835,37.8649172 28.604966,47.116867 28.3486696,47.8313253 C28.0923731,48.5457835 29.1740949,53.8956922 28.6388876,55.1275168 C28.6388876,55.1275168 29.3531255,54.2083862 29.7997598,52.4118174 C30.2463941,50.6152487 34.6373553,46.3038628 34.6373553,46.3038628 L33.0260798,45.4415856 L35.4627807,45.0474018 C35.4627807,45.0474018 37.5357667,43.5199394 37.4641544,41.9924769 C37.3925422,40.4650145 38.0634358,37.6829862 38.7531748,38.5812705 C39.4429138,39.4795549 40.9731544,40.5673507 40.9731544,40.5673507 Z" id="Shape" fill="#9B99BE" filter="url(#filter-29)"></path>
                            <path d="M40.9731544,55.8724832 C40.9731544,55.8724832 43.5986902,53.578318 46.577737,52.6797699 C49.5567838,51.7812218 51.0950344,51.2287104 51.5459998,49.7795626 C51.9969652,48.3304149 53.4568702,44.4666582 54.7161337,43.0003043 C55.9753972,41.5339503 56.6174497,41.1573249 56.6174497,37.9932886 C56.6174497,37.9932886 55.6964102,40.4480454 54.3454249,40.5379002 C52.6653251,40.67249 51.0912716,41.4130236 49.9160275,42.621767 C48.6491204,43.9810599 46.4764609,47.7836389 44.7566776,49.0549888 C43.0368943,50.3263387 40.9731544,55.8724832 40.9731544,55.8724832 Z" id="Shape" fill="#9B99BE" filter="url(#filter-30)"></path>
                            <path d="M25.7252137,26.0665039 C25.5699502,26.3704447 25.4243907,26.687683 25.2846536,27.016319 C23.6621505,21.9538043 20.9392177,17.1819329 20.4734273,16.2967052 C19.8213208,15.0562466 16.4715118,10.1134086 14.0688098,11.380462 C14.2900602,11.7052988 14.5093698,12.0814256 14.5093698,12.2979834 C14.5093698,12.7348984 14.2861786,13.1718134 14.8800613,13.5346428 C15.4739441,13.8974722 15.1032526,14.6991161 15.1789435,15.4342731 C15.2546344,16.16943 15.4758849,16.1618315 16.731578,17.9797777 C17.9872712,19.7977239 15.3924307,20.5974682 15.8388132,23.5798878 C16.2851956,26.5623074 18.2939166,27.6469963 18.2939166,29.7555859 C18.2939166,31.265792 16.0115438,32.7702992 15.0683183,35.2265212 C8.81314185,31.9363615 0,32.7570018 0,32.7570018 C0,32.7570018 6.33668975,33.0894371 9.67679482,35.3063056 C12.8596956,37.4186945 15.887333,41.5902827 19.988229,41.4478104 L22.8722477,52.4808632 C21.0521854,52.0097634 19.2681046,51.4143527 17.5331256,50.69901 C16.2289126,50.1519165 14.6937452,51.2100105 14.6937452,51.2100105 C12.3376223,52.7297148 11.8174897,53.499065 10.2299209,55.1992342 C8.64235205,56.8994033 6.45507813,60.343433 6.45507813,60.343433 C7.9747192,60.533396 9.57587357,62.5109112 9.57587357,62.5109112 C8.32065035,62.1675054 7.02061298,62.0068472 5.71757672,62.034104 C6.05333394,67.0472283 5.91165604,68.7568956 5.85731383,69.4274651 C5.80297162,70.0980346 5.60306992,70.5672433 4.79958155,72.9892719 C3.99609317,75.4113006 4.73165378,76.7315436 4.73165378,76.7315436 C4.5841535,73.369198 7.02373053,67.6817049 8.31047642,66.663503 C9.5972223,65.6453012 10.3929475,62.887038 10.7616982,61.3863301 C11.1304489,59.8856221 12.292984,59.6481683 12.9664393,59.5284916 C13.6398945,59.4088149 12.7820639,57.1900467 14.0649282,54.5514602 C15.3477925,51.9128737 17.1934868,51.9128737 17.8067775,51.8520856 C18.4200681,51.7912974 23.1769522,53.6491358 23.1769522,53.6491358 L28.6208771,74.4728832 L30.0784128,75.5309773 L20.8460596,40.8000365 C21.12485,40.762548 21.4005121,40.7054106 21.6708967,40.6290698 C22.5091638,40.4573645 23.3020889,40.1178174 23.9998485,39.6317638 C24.7062211,39.115894 25.2393689,38.4055564 25.5311343,37.5915609 C26.5539324,35.9141873 26.6723207,33.6308317 26.2919253,31.1765094 C26.6519672,30.5652636 27.0895283,30.0010309 27.5941975,29.4972362 C28.0910406,28.9520423 27.3477168,25.67518 28.4636728,24.0357991 C29.2768652,22.8409316 32.0716074,20.1909473 33.5233207,18.8460091 C33.558255,18.7738231 28.1764355,21.2680377 25.7252137,26.0665039 Z" id="Shape" fill="#D4D3E3" filter="url(#filter-31)"></path>
                            <path d="M43.7731555,61.1118047 C41.8953692,57.7893451 30.7973968,54.7927993 30.1145653,56.2510314 C29.678966,57.182214 28.4192598,58.4374482 27.5637584,59.2308158 L27.5873043,59.3723556 C27.5873043,59.3723556 29.5494635,58.3350181 30.4108514,57.2827817 C31.2722393,56.2305453 40.3884309,59.767177 40.7180737,60.1508242 C41.0477164,60.5344715 40.7533925,61.4358563 41.449959,61.7152111 C42.1465256,61.9945659 43.2159023,62.8326302 43.1707727,63.9388752 C43.125643,65.0451202 43.137416,69.3639453 43.1707727,70.1629 C43.1982429,70.7663063 44.703219,72.7925597 45.442953,73.7516779 C45.442953,73.7516779 44.1969819,71.5633987 43.7711934,70.4292182 C43.3454048,69.2950377 45.6509419,64.4342644 43.7731555,61.1118047 Z" id="Shape" fill="#B2AFCD" filter="url(#filter-32)"></path>
                            <path d="M54.3354609,20.5141176 C53.2333419,20.8120452 49.8531218,22.4862062 46.8461059,25.3482334 C46.7528048,27.5317546 47.2523543,31.9410833 46.0005649,32.5888356 C44.5699484,33.3326935 43.3512031,33.4384098 41.7087155,32.6599538 C40.0662278,31.8814977 41.4229809,28.9483523 41.319961,28.06418 C41.319961,28.06418 41.0692143,29.1251868 40.6765723,29.61917 C40.2839303,30.1131532 39.5491843,31.7834699 40.3189182,33.3326935 C40.3189182,33.3326935 37.2477578,32.52925 37.8172831,30.4898875 C38.3868084,28.4505249 37.3507778,27.8873456 37.4946169,26.8263388 C37.6384561,25.7653321 39.1390484,24.952278 38.5306476,22.9359808 C38.0291543,21.2695083 35.3778488,18.2767773 33.6245661,16.4296261 L33.5332088,16.3892617 C33.5332088,16.3892617 36.3011407,19.4973195 36.3011407,20.9177615 C36.3011407,21.3406265 36.2253336,22.3036054 36.1203698,23.4491852 L33.5234899,21.7769463 C34.6780907,22.7072493 35.4439371,24.427541 35.8929485,25.7441889 C35.675246,27.8681244 35.4517121,29.85559 35.4517121,29.85559 C35.4517121,29.85559 35.0998893,32.2851416 37.6909379,33.9727574 C38.6952819,34.6274005 39.8855558,34.946076 41.0867083,34.8819171 C42.1635582,35.53928 43.7982708,36.1562785 45.5398908,35.4335638 C46.2823553,35.5852081 47.0428377,35.6318042 47.7985543,35.5719559 C47.7985543,35.5719559 45.5010154,35.0645179 46.1793919,33.8631969 C46.8577685,32.6618759 49.4701986,32.6253557 49.5401744,30.6455787 C49.6101502,28.6658016 48.1464896,26.0824809 50.2924143,24.3506565 C52.438339,22.6188321 54.5687136,21.2425987 56.6174497,19.8798201 C55.7932902,20.1123959 54.9613556,20.3449716 54.3354609,20.5141176 Z" id="Shape" fill="#D4D3E3" filter="url(#filter-33)"></path>
                            <path d="M43.1640068,23.0300898 C43.1640068,23.0300898 44.8760891,22.4921373 44.4490261,19.8386198 C44.021963,17.1851022 43.476165,15.9279721 44.4490261,13.9039735 C45.4218871,11.8799749 46.5939166,10.6609974 46.5939166,8.24021108 C46.5939166,5.81942479 46.5039078,6.1723369 47.3159021,5.27384175 C48.1278963,4.37534661 47.407826,3.52072702 47.407826,3.11440119 C47.4208611,1.84498883 48.0848539,0.670427378 49.1677852,0.00114412348 C49.1677852,0.00114412348 47.7065786,-0.13429782 46.0098169,2.54211129 C44.2249616,5.14793798 43.2789117,6.7389039 40.9482583,11.8589909 C38.832094,16.5117078 37.9932886,19.920648 37.9932886,19.920648 C37.9932886,19.920648 39.6191922,21.1873163 41.0976346,23.8389262 L43.1640068,23.0300898 Z" id="Shape" fill="#D4D3E3" filter="url(#filter-34)"></path>
                            <path d="M29.3810421,50.5273283 C29.3810421,49.4344301 29.9838855,49.6768619 29.943179,48.3395769 C29.9024726,47.0022918 32.0754228,43.4361983 32.7170343,41.6492413 C33.2210192,40.2474381 35.0082271,38.108564 35.7583893,37.2483221 C34.7891876,37.6530268 33.8199859,38.1437557 33.19582,38.3373101 C31.6896805,38.8084881 28.6134343,48.3532625 28.3498114,49.0903334 C28.0861886,49.8274043 29.1988321,55.3466378 28.6483256,56.6174497 C29.3403356,55.2195566 29.3810421,51.6221816 29.3810421,50.5273283 Z" id="Shape" fill="#D4D3E3" filter="url(#filter-35)"></path>
                            <path d="M51.544293,42.2769584 C52.9643055,41.7789013 56.206962,41.8073076 56.6174497,37.9932886 C56.4210441,38.4610456 55.5391829,40.3301801 54.3253963,40.4078239 C52.5985339,40.5411429 50.9806695,41.2746845 49.7727145,42.4720149 C48.4705454,43.8184735 46.2374137,47.5851486 44.4697633,48.8444945 C43.5741537,49.4826893 42.5862336,51.2097923 41.830072,52.7569886 L41.7181208,53.6375839 C41.7181208,53.6375839 43.6487879,51.0942733 45.0118427,50.4333535 C46.3748976,49.7724336 46.8541273,49.6758522 47.299968,48.6835255 C47.7458087,47.6911988 48.600173,47.2632106 49.3209816,46.89961 C50.0417902,46.5360093 50.0300058,42.8053155 51.544293,42.2769584 Z" id="Shape" fill="#D4D3E3" filter="url(#filter-36)"></path>
                            <path d="M49.2745211,86.6945957 C48.0046139,89.3642585 45.8644349,93.8400439 44.6979866,96.1797039 L45.5459438,96.8456376 C45.5459438,96.8456376 48.0269286,89.6685723 49.455067,87.7261012 C50.8832055,85.7836301 52.5994059,85.1572177 54.3825503,84.979372 C52.7961807,84.6632017 50.6235439,85.8231514 49.2745211,86.6945957 Z" id="Shape" fill="#B2AFCD" filter="url(#filter-37)"></path>
                            <g id="Group" opacity="0.4" transform="translate(13.409396, 73.006711)">
                                <path d="M24.9322034,14.4668975 C26.7805924,13.9872157 27.6244222,11.5754291 27.8349013,9.57261424 C28.0453803,7.56979937 30.9978278,8.40876476 32.216693,8.40876476 C33.4355582,8.40876476 31.8473979,5.03379236 34.2219845,3.24884093 C35.5250414,2.26654432 36.5544754,2.09263578 37.2184412,2.13659068 C36.5315141,1.56326581 35.3547447,1.50211116 33.443212,2.32769897 C28.2596863,4.58086571 20.7321891,10.098162 17.3224281,15.9365203 C17.2171885,13.6126435 17.0334977,10.4306905 16.7483942,8.17943481 C16.2604655,4.22922646 14.0695696,2.86280218 13.0841448,1.49064466 C12.7334566,0.989889321 12.3383287,0.521694166 11.9035486,0.0917319792 C12.0853259,0.71856717 13.5873812,6.01608897 13.1396348,9.09866568 C12.9157616,10.627532 12.3187664,12.8023443 11.7849149,14.8319144 C9.9365259,15.2752856 8.23738571,16.4238464 7.54280476,18.2202644 C6.34690091,21.3028411 1.69339985,22.868018 0.422871601,23.2445013 C0.606120574,23.2301708 0.790417524,23.2372257 0.972030648,23.2655232 C1.71168598,23.2183551 2.44779895,23.1264546 3.17632062,22.9903273 C3.80393096,22.8087744 5.97951925,23.5808519 7.23665337,22.6081107 C8.4937875,21.6353695 9.37588618,21.3123965 10.2924269,21.5952368 C11.176439,21.8742549 13.4764013,24.1197773 16.0748612,22.8603736 C16.4561893,23.8916334 17.063532,24.824702 17.8524527,25.5913111 C17.9710863,25.9314839 18.0437973,26.164636 18.0437973,26.164636 C18.8493581,31.7067764 29.3082548,31.9666837 31.0781925,32.4138771 C32.8481302,32.8610705 31.9889929,37.8604633 31.9889929,37.8604633 C34.773057,34.0841635 34.1263122,33.3445744 34.524309,32.0049053 C34.9223058,30.6652362 33.8297281,30.3671073 32.7849865,29.5740079 C31.7402449,28.7809085 33.1332337,28.5286455 31.7421583,26.5927185 C30.351083,24.6567916 25.5062373,22.5106455 25.5062373,22.5106455 C24.3007662,21.8188335 22.691558,21.0735111 22.352878,19.5885997 C21.838161,17.3564549 23.0857279,14.9484904 24.9322034,14.4668975 Z" id="Shape" fill="#D4D3E3" filter="url(#filter-38)"></path>
                                <path d="M0.430525386,23.2445013 C0.315950635,23.2464232 0.203825188,23.2806207 0.105239539,23.3437114 C0.105239539,23.3437114 0.225786647,23.3209758 0.430525386,23.2445013 Z" id="Shape" fill="#D1D3D4" filter="url(#filter-39)"></path>
                            </g>
                        </g>
                        <path d="M326,273 C338,272.333333 346,269.333333 350,264 C356,256 370,250.7 381,258 C392,265.3 391,237 418,237 C436,237 444.333333,249 443,273 L326,273 Z" id="Path-3" fill="#FFFFFF"></path>
                    </g>
                </g>
            </g>
        </g>
    </g>
</svg>