<?xml version="1.0" encoding="UTF-8"?>
<svg width="630px" height="359px" viewBox="0 0 630 359" version="1.1" xmlns="http://www.w3.org/2000/svg" xmlns:xlink="http://www.w3.org/1999/xlink">
    <!-- Generator: sketchtool 52.4 (67378) - http://www.bohemiancoding.com/sketch -->
    <title>6E13DFB2-4372-4EAF-B8CB-0EF6CA2208C1</title>
    <desc>Created with sketchtool.</desc>
    <g id="Marketing" stroke="none" stroke-width="1" fill="none" fill-rule="evenodd">
        <g id="1a-Home" transform="translate(0.000000, -4506.000000)" fill-rule="nonzero">
            <g id="Section-2" transform="translate(-3.000000, 4271.000000)">
                <g id="plan1-footer-" transform="translate(0.000000, 234.000000)">
                    <g id="House" transform="translate(40.000000, 123.000000)">
                        <polygon id="Shape" fill="#D75678" points="155.954338 0.651552743 114.610351 54.2936273 114.610351 188.953496 197.292634 164.336967 197.292634 54.481366"></polygon>
                        <polygon id="Shape" fill="#BD4369" points="39.4560187 2.59720865 0.376676338 51.7904443 0.376676338 154.546108 114.610351 188.953496 114.610351 54.2936273 155.954338 0.651552743"></polygon>
                        <polygon id="Rectangle-path" fill="#BD4369" points="64.4809091 68.6471064 91.8557949 68.6471064 91.8557949 100.818697 64.4809091 100.818697"></polygon>
                        <polygon id="Rectangle-path" fill="#D75678" points="132.12436 68.6471064 155.24877 68.6471064 155.24877 100.818697 132.12436 100.818697"></polygon>
                        <path d="M136.960912,68.6471064 C136.960912,68.6471064 135.435976,75.4170787 140.374949,78.4664107 C145.313923,81.5157428 148.568638,83.0176526 148.568638,88.9399561 C148.568638,94.8622596 155.24877,97.513358 155.24877,97.513358 L155.24877,100.818697 L132.12436,100.818697 L132.12436,68.6471064 L136.960912,68.6471064 Z" id="Shape" fill="#BD4369"></path>
                        <polygon id="Rectangle-path" fill="#D75678" points="166.748384 68.6471064 186.839991 68.6471064 186.839991 100.818697 166.748384 100.818697"></polygon>
                        <path d="M169.536514,68.6471064 C169.536514,68.6471064 168.739906,73.1073234 172.296194,75.5706831 C175.852483,78.0340428 181.303562,80.4917134 179.124268,88.9740904 C176.944974,97.4564675 186.839991,97.735231 186.839991,97.735231 L186.839991,100.830076 L166.748384,100.830076 L166.748384,68.6471064 L169.536514,68.6471064 Z" id="Shape" fill="#BD4369"></path>
                        <path d="M87.4972078,68.6471064 C87.4972078,68.6471064 87.0078625,74.5750989 82.1144097,77.9999084 C77.2209568,81.424718 79.9123559,85.0884677 76.2479563,88.0240187 C72.5835567,90.9595697 64.4809091,91.3691815 64.4809091,96.096784 L64.4809091,100.818697 L91.8501049,100.818697 L91.8501049,68.6471064 L87.4972078,68.6471064 Z" id="Shape" fill="#A23759"></path>
                        <polygon id="Rectangle-path" fill="#BD4369" points="17.2078782 68.6471064 44.5827641 68.6471064 44.5827641 100.818697 17.2078782 100.818697"></polygon>
                        <path d="M39.8486329,68.6471064 C39.8486329,68.6471064 40.0364049,76.7426279 37.6636493,78.5631246 C35.2908936,80.3836214 31.1655991,78.8874006 28.4969602,84.7357464 C28.4969602,84.7357464 30.8014351,89.7534906 29.3163291,100.818697 L44.5827641,100.818697 L44.5827641,68.6471064 L39.8486329,68.6471064 Z" id="Shape" fill="#A23759"></path>
                    </g>
                    <path d="M237.275564,276.93169 C206.771145,272.801438 160.06712,289.231421 160.06712,289.231421 L165.62631,359.303479 L632.780358,359.701713 C368.084388,292.013368 278.51713,282.51265 237.275564,276.93169 Z" id="Shape" fill="#DC6181"></path>
                    <path d="M165.011783,243.667801 C161.449805,236.061538 163.230794,231.720791 167.50403,222.328166 C171.777266,212.93554 158.968938,209.977233 154.610351,202.501818 C150.251764,195.026403 154.610351,188.620531 148.635786,188.620531 C142.661222,188.620531 145.096568,199.298882 139.463407,208.407055 C133.830246,217.515227 145.785065,226.708736 141.870303,233.83143 C137.955541,240.954123 144.715334,242.729107 139.025272,254.477 C133.335211,266.224894 141.870303,271.544158 141.870303,271.544158 C144.178257,273.697872 147.192758,274.935823 150.348495,275.025858 L150.348495,285.33442 L157.32451,285.33442 L157.32451,274.212323 C162.792659,272.653523 167.862504,269.274226 170.354751,265.894929 C175.339245,259.1022 168.573762,251.274064 165.011783,243.667801 Z" id="Shape" fill="#C64B72"></path>
                    <path d="M170.354751,265.866483 C175.339245,259.1022 168.573762,251.274064 165.011783,243.679179 C161.449805,236.084294 163.230794,231.732169 167.50403,222.339544 C171.777266,212.946918 158.968938,209.988611 154.610351,202.513196 C150.251764,195.037782 154.610351,188.631909 148.635786,188.631909 C146.541844,188.631909 145.483492,189.940391 144.743784,192.04534 C143.924415,196.317818 143.543181,201.802065 146.2232,204.1744 C150.917501,208.327408 155.975966,208.867868 155.617492,213.202926 C155.259018,217.537984 147.850558,217.185262 151.099583,225.30354 C154.348608,233.421818 154.894854,233.791606 151.281665,241.375113 C147.668476,248.95862 142.610011,254.562336 148.209032,263.408813 C150.727917,267.437823 153.81965,271.07902 157.387101,274.218012 C162.83249,272.602321 167.856814,269.234402 170.354751,265.866483 Z" id="Shape" fill="#DC6181"></path>
                    <path d="M235.568546,252.269648 C235.568546,252.269648 242.316959,248.469361 246.567435,252.269648 C250.817911,256.069935 249.679898,261.628139 254.49938,261.508669 C259.318862,261.389199 264.980474,265.690123 264.69597,269.740728 C264.411467,273.791333 269.24802,271.515712 269.24802,274.047341 C269.24802,276.578969 269.930827,280.259786 275.029122,281.01643 C280.127417,281.773074 283.12608,283.906468 283.12608,286.961489 C283.12608,286.961489 279.143037,283.923535 271.797167,284.173854 C264.451298,284.424172 263.580718,284.173854 260.747068,283.667528 C257.913417,283.161202 255.933276,280.885581 252.246116,281.391907 C248.558956,281.898233 241.304128,284.594844 235.585616,280.208584 L235.568546,252.269648 Z" id="Shape" fill="#DC6181"></path>
                    <path d="M319.912327,359.661889 L300.73113,359.661889 L300.73113,345.217385 C300.73113,341.388653 303.877734,337.167376 303.877734,337.167376 C303.877734,337.167376 307.126759,331.165426 308.549274,329.037721 C309.97179,326.910015 312.099873,329.037721 312.099873,329.037721 C312.099873,329.037721 314.444178,332.849386 316.720203,337.167376 C319.314871,342.156675 319.912327,345.644064 319.912327,345.644064 L319.912327,359.661889 Z M287.348105,359.576554 L268.166908,359.576554 L268.166908,342.42975 C268.166908,338.601018 271.319202,334.379741 271.319202,334.379741 C271.319202,334.379741 274.562537,328.389169 275.985052,326.255774 C277.407568,324.122379 279.541341,326.255774 279.541341,326.255774 C279.541341,326.255774 281.908406,330.06175 284.155981,334.379741 C286.750649,339.36904 287.348105,342.856429 287.348105,342.856429 L287.348105,359.576554 Z M256.473832,359.388815 L237.292634,359.388815 L237.292634,339.539711 C237.292634,335.710979 240.444928,331.489702 240.444928,331.489702 C240.444928,331.489702 243.688263,325.487752 245.110779,323.360046 C246.533294,321.232341 248.667067,323.360046 248.667067,323.360046 C248.667067,323.360046 251.039823,327.171711 253.281707,331.489702 C255.904825,336.479001 256.473832,339.96639 256.473832,339.96639 L256.473832,359.388815 Z M228.740472,359.388815 L209.559275,359.388815 L209.559275,339.539711 C209.559275,335.710979 212.705879,331.489702 212.705879,331.489702 C212.705879,331.489702 215.954904,325.487752 217.377419,323.360046 C218.799935,321.232341 220.928017,323.360046 220.928017,323.360046 C220.928017,323.360046 223.272323,327.171711 225.548347,331.489702 C228.171466,336.479001 228.740472,339.96639 228.740472,339.96639 L228.740472,359.388815 Z M352.214806,359.576554 L333.033609,359.576554 L333.033609,345.13205 C333.033609,341.303317 336.180213,337.082041 336.180213,337.082041 C336.180213,337.082041 339.429238,331.08009 340.851753,328.952385 C342.274269,326.824679 344.408042,328.952385 344.408042,328.952385 C344.408042,328.952385 346.775107,332.76405 349.022682,337.082041 C351.6458,342.071339 352.214806,345.558729 352.214806,345.558729 L352.214806,359.576554 Z" id="Shape" fill="#1C2D4F"></path>
                    <path d="M203.243306,322.449798 C203.243306,311.81127 193.262939,303.10702 180.539961,302.179704 C169.074487,301.093095 165.64338,291.740293 165.64338,291.740293 C163.435636,286.085375 158.075598,281.579646 151.253215,279.605545 L151.224764,279.605545 C150.8606,279.503142 150.496436,279.406428 150.126582,279.315403 C132.976737,274.838119 117.693232,280.072047 110.768427,282.808481 C103.695681,285.607495 104.350038,278.041055 98.1023502,270.474616 C91.8546626,262.908176 84.9412379,268.198995 78.5228486,266.196448 C75.5753967,265.2862 73.3392026,263.101604 71.7858158,261.002344 C70.9090944,259.681527 70.1147682,258.307852 69.4073701,256.889159 C69.310639,256.667286 69.2025278,256.445413 69.0944167,256.22354 L69.0944167,256.195094 C67.1149452,252.362977 64.0359277,249.209228 60.2520611,247.138123 C78.7959715,217.788302 67.3248076,194.429053 49.4409443,174.705108 C29.793162,153.035508 27.8813013,138.955104 45.2302988,108.165952 C62.5792963,77.376801 20.3192096,83.7030272 24.6550364,44.7500858 C28.9908633,5.79714434 0,0.352721245 0,0.352721245 L0,359.388815 L228.740472,359.388815 C202.384107,356.862876 203.243306,322.449798 203.243306,322.449798 Z" id="Shape" fill="#1C2D4F"></path>
                    <path d="M235.568546,252.269648 C235.568546,252.269648 237.366605,251.763323 237.702319,255.586366 C238.038032,259.409409 241.053765,260.052272 242.789234,260.279834 C244.524702,260.507396 246.362592,262.350649 245.509083,263.818424 C244.655574,265.2862 245.600124,270.423414 249.531957,269.808997 C253.463789,269.194579 256.883516,275.315999 255.904825,279.480386 C255.904825,279.480386 255.819475,281.926678 260.143921,282.535407 L235.568546,276.778086 L235.568546,252.269648 Z" id="Shape" fill="#C64B72"></path>
                </g>
            </g>
        </g>
    </g>
</svg>