<?xml version="1.0" encoding="UTF-8"?>
<svg width="471px" height="303px" viewBox="0 0 471 303" version="1.1" xmlns="http://www.w3.org/2000/svg" xmlns:xlink="http://www.w3.org/1999/xlink">
    <!-- Generator: sketchtool 52.4 (67378) - http://www.bohemiancoding.com/sketch -->
    <title>33688281-5770-443C-AD0D-9DD757B60862</title>
    <desc>Created with sketchtool.</desc>
    <defs>
        <linearGradient x1="50%" y1="6.19177969%" x2="50%" y2="52.4228346%" id="linearGradient-1">
            <stop stop-color="#FFFFFF" stop-opacity="0" offset="0%"></stop>
            <stop stop-color="#EBEAF5" offset="100%"></stop>
        </linearGradient>
        <path d="M390,266 C423.333333,210 425.333333,173.666667 396,157 C352,132 326,211 263,86 C200,-39 53,-11 18,69 C-17,149 9,221 30,266 C30,266 150,266 390,266 Z" id="path-2"></path>
        <linearGradient x1="-42.3060706%" y1="0%" x2="47.6562005%" y2="78.8975091%" id="linearGradient-4">
            <stop stop-color="#98B6F7" offset="0%"></stop>
            <stop stop-color="#192C50" offset="87%"></stop>
            <stop stop-color="#192C50" offset="100%"></stop>
        </linearGradient>
        <linearGradient x1="-24.1227612%" y1="0%" x2="64.5648292%" y2="61.9808461%" id="linearGradient-5">
            <stop stop-color="#937BF3" offset="0%"></stop>
            <stop stop-color="#1A2D51" offset="87%"></stop>
            <stop stop-color="#1A2D51" offset="100%"></stop>
        </linearGradient>
        <filter x="-73.1%" y="-53.6%" width="246.2%" height="207.1%" filterUnits="objectBoundingBox" id="filter-6">
            <feGaussianBlur stdDeviation="1" in="SourceGraphic"></feGaussianBlur>
        </filter>
        <filter x="-71.0%" y="-71.4%" width="241.9%" height="242.9%" filterUnits="objectBoundingBox" id="filter-7">
            <feGaussianBlur stdDeviation="1" in="SourceGraphic"></feGaussianBlur>
        </filter>
        <filter x="-106.5%" y="-107.1%" width="312.9%" height="314.3%" filterUnits="objectBoundingBox" id="filter-8">
            <feGaussianBlur stdDeviation="1" in="SourceGraphic"></feGaussianBlur>
        </filter>
        <filter x="-212.9%" y="-214.3%" width="525.8%" height="528.6%" filterUnits="objectBoundingBox" id="filter-9">
            <feGaussianBlur stdDeviation="3" in="SourceGraphic"></feGaussianBlur>
        </filter>
        <filter x="0.0%" y="0.0%" width="100.0%" height="100.0%" filterUnits="objectBoundingBox" id="filter-10">
            <feGaussianBlur stdDeviation="0" in="SourceGraphic"></feGaussianBlur>
        </filter>
        <filter x="0.0%" y="0.0%" width="100.0%" height="100.0%" filterUnits="objectBoundingBox" id="filter-11">
            <feGaussianBlur stdDeviation="0" in="SourceGraphic"></feGaussianBlur>
        </filter>
        <filter x="0.0%" y="0.0%" width="100.0%" height="100.0%" filterUnits="objectBoundingBox" id="filter-12">
            <feGaussianBlur stdDeviation="0" in="SourceGraphic"></feGaussianBlur>
        </filter>
        <filter x="0.0%" y="0.0%" width="100.0%" height="2.8%" filterUnits="objectBoundingBox" id="filter-13">
            <feGaussianBlur stdDeviation="0" in="SourceGraphic"></feGaussianBlur>
        </filter>
        <filter x="0.0%" y="0.0%" width="100.0%" height="100.0%" filterUnits="objectBoundingBox" id="filter-14">
            <feGaussianBlur stdDeviation="0" in="SourceGraphic"></feGaussianBlur>
        </filter>
        <filter x="0.0%" y="0.0%" width="100.0%" height="100.0%" filterUnits="objectBoundingBox" id="filter-15">
            <feGaussianBlur stdDeviation="0" in="SourceGraphic"></feGaussianBlur>
        </filter>
    </defs>
    <g id="Marketing" stroke="none" stroke-width="1" fill="none" fill-rule="evenodd">
        <g id="1a-Home" transform="translate(-306.000000, -2308.000000)">
            <g id="Section-1" transform="translate(0.000000, 708.000000)">
                <g id="4" transform="translate(306.000000, 1585.000000)">
                    <g id="illu4-Home">
                        <g id="Group-16" transform="translate(34.000000, 15.000000)">
                            <mask id="mask-3" fill="white">
                                <use xlink:href="#path-2"></use>
                            </mask>
                            <use id="Mask" fill="url(#linearGradient-1)" xlink:href="#path-2"></use>
                            <g mask="url(#mask-3)">
                                <g transform="translate(-89.000000, 48.000000)">
                                    <path d="M365.836393,271.255821 C365.836393,271.255821 378.081806,109.062985 190.692733,101.210235 C3.3036595,93.357484 0.919061834,268.303625 0.919061834,268.303625 L365.836393,271.255821 Z" id="Shape" fill="#DAD9E9" fill-rule="nonzero"></path>
                                    <path d="M151.478678,199.202516 C151.478678,199.202516 318.325672,162.754072 358.830533,142.654499 C399.335394,122.554925 487.61838,133.692964 467.518806,200.425373 L459.629552,221.063369 L121.304222,221.67936 L151.478678,199.202516" id="Shape" fill="#EBEAF5" fill-rule="nonzero"></path>
                                    <g id="man" stroke-width="1" fill="none" fill-rule="evenodd" transform="translate(247.000000, 0.000000)">
                                        <path d="M36.5065245,37.3518977 C32.8915999,36.1174266 28.890096,36.996878 26.1259275,39.6333475 C21.2573134,44.1323667 8.74127932,54.8232409 0.331855011,63.5566311 C-0.00229997877,64.7504627 -0.00229997877,66.0131194 0.331855011,67.206951 C0.920469083,68.9636674 7.17620469,82.4607249 20.4770576,92.6268657 C20.4770576,92.6268657 20.2808529,89.6929211 21.8459275,87.9362047 C21.8459275,87.9362047 15.7818337,73.4626866 11.0866098,68.9636674 C11.0866098,68.9636674 9.71773987,67.0107463 11.0866098,66.2259275 C12.4554797,65.4411087 24.9486994,58.783838 24.9486994,58.783838 L37.8845203,38.9991045 L36.5065245,37.3518977 Z" id="Shape" fill="#FFFFFF" fill-rule="nonzero"></path>
                                        <path d="M50.5967591,40.3634115 C50.5967591,40.3634115 60.0647761,47.1666951 56.2684435,77.8430704 C56.2684435,77.8430704 55.6433262,87.8814499 57.1810235,95.8665245 C58.7187207,103.851599 59.5309168,124.767932 59.5309168,138.205672 C59.5309168,144.438593 60.616887,148.773348 60.8085288,153.924861 C61.0229851,159.706055 60.7446482,167.558806 59.9415778,179.93339 C59.9415778,179.93339 56.747548,184.92064 52.0477612,181.12887 C52.0477612,181.12887 47.3434115,159.158507 48.3381237,139.423966 L40.8047761,107.634243 C40.8047761,107.634243 35.621322,129.166567 31.6059701,139.6658 C31.6059701,139.6658 31.5740299,170.643326 27.0430704,181.188188 C27.0430704,181.188188 23.2376119,184.902388 19.4504051,180.772964 C19.4504051,180.772964 17.4701066,163.278806 20.686951,138.922047 C20.686951,138.922047 20.3538593,118.909168 21.5584648,106.730789 C22.7630704,94.5524094 26.8924947,87.8905757 26.1213646,82.4287846 C25.3502345,76.9669936 19.4504051,44.8350533 37.4510448,40.8197015 L50.5967591,40.3634115 Z" id="Shape" fill="#FFFFFF" fill-rule="nonzero"></path>
                                        <path d="M46.4034542,30.3980384 C46.4034542,30.3295949 46.4034542,30.2611514 46.4034542,30.1927079 C46.2391898,27.8428145 46.366951,25.0913859 47.3981663,22.8601279 L48.9814925,20.989339 L50.1997868,16.8051599 L49.049936,15.89258 C49.4104051,13.8575267 49.7982516,8.18584222 43.4421322,6.66639659 C35.6486994,4.80473348 30.8074627,8.5736887 29.1785075,10.4353518 C28.1609808,11.5988913 28.3252452,15.6507463 29.7853731,17.6766738 C30.3283582,19.8121109 29.8720682,23.2707889 29.4157783,24.2655011 L28.3069936,26.9211087 L39.4541578,30.9364606 L36.8350533,33.0445203 C36.8350533,33.0445203 36.8350533,37.1511301 35.9589765,39.1998721 C35.9589765,39.1998721 34.7908742,44.6753518 43.0771002,45.533177 C48.4385075,46.121791 50.3777399,42.663113 48.7670362,38.7755224 C46.9327505,35.9100213 46.4810235,31.3973134 46.4034542,30.3980384 Z" id="Shape" fill="url(#linearGradient-4)" fill-rule="nonzero"></path>
                                        <path d="M35.5665672,23.950661 C31.975565,21.3498081 29.4568443,22.4996588 29.0279318,23.5993177 C28.7982519,24.269594 28.6182903,24.9558883 28.4895096,25.6526226 C25.7289552,29.3942004 26.2993177,32.4969723 26.5502772,33.373049 C27.3168443,36.0469083 35.9544136,33.3091684 35.9544136,33.3091684 C41.0557356,31.9859275 42.9675906,29.914371 42.9675906,29.914371 C46.1935608,27.82 43.6155224,23.5765032 43.6155224,23.5765032 C43.0679744,23.1932196 42.8900213,23.0791471 42.5432409,22.8236247 C42.1964606,22.5681023 42.086951,22.4631557 42.1553945,22.3034542 C40.0153945,27.7013646 36.2601279,24.4890832 36.2601279,24.4890832 L35.5665672,23.950661 Z" id="Shape" fill="#122240" fill-rule="nonzero"></path>
                                        <path d="M42.1553945,22.2474414 L42.1953945,22.1574414 C42.1841604,22.1883311 42.170795,22.2184034 42.1553945,22.2474414 Z" id="Shape" fill="#58595B" fill-rule="nonzero"></path>
                                        <path d="M46.4536461,3.93321962 C43.4147548,-0.949083156 35.2836674,0.136886994 32.4637953,2.1947548 C29.6439232,4.2526226 25.8521535,1.98029851 25.8521535,1.98029851 C24.2231983,5.03744136 24.9030704,8.21321962 27.0658849,10.1250746 C27.0658849,10.1250746 26.6095949,14.7609808 29.7671215,17.6949254 C29.7671215,17.6949254 28.2111727,14.0446055 29.2788913,11.4209382 C30.5090215,11.8527377 31.8211814,11.9994 33.11629,11.8498507 C36.803113,11.4665672 38.9339872,12.4384648 40.0701493,13.3054158 C41.1241791,14.1541151 43.4649467,16.7275906 42.1553945,22.2395736 C42.1553945,22.2395736 42.1553945,23.2936034 43.6155224,23.5582516 C43.6155224,23.5582516 45.0117697,22.8738166 45.8969723,19.5520256 C46.7821748,16.2302345 48.1191045,16.2256716 48.8537313,16.6454584 C49.5883582,17.0652452 49.7663113,19.4653305 47.9411514,21.7787207 C46.1159915,24.0921109 46.4353945,26.2092964 46.4353945,26.2092964 C46.4353945,26.2092964 49.9214499,20.6014925 50.3321109,18.5025586 C54.6029851,6.61620469 46.4536461,3.93321962 46.4536461,3.93321962 Z" id="Shape" fill="#122240" fill-rule="nonzero"></path>
                                        <path d="M21.8459275,87.9270789 C21.8459275,87.9270789 24.0589339,90.518806 24.7981237,90.8336461 L23.9402985,94.114371 C22.7624313,93.6901672 21.6132252,93.1902473 20.4998721,92.6177399 C20.4998721,92.6177399 20.1987207,89.7020469 21.8459275,87.9270789 Z" id="Shape" fill="url(#linearGradient-4)" fill-rule="nonzero"></path>
                                        <path d="M24.9852026,90.199403 C24.9852026,90.199403 23.2011087,89.8754371 22.6307463,91.2488699 C22.0603838,92.6223028 20.8055864,96.2680597 20.8055864,96.2680597 L22.918209,99.3388913 L28.8499787,101.428699 C28.8499787,101.428699 30.4880597,100.972409 29.4887846,98.4901919 C28.4895096,96.0079744 24.3372708,92.6268657 24.3372708,92.6268657 L24.9852026,90.199403 Z" id="Shape" fill="url(#linearGradient-4)" fill-rule="nonzero"></path>
                                        <path d="M87.5973134,92.7637527 C87.5973134,92.7637527 87.4695522,95.2049041 91.7039232,97.7601279 L93.2233689,97.4954797 L95.1489126,96.4733902 L96.358081,94.5295949 L95.3998721,93.4710021 L95.358806,92.47629 L97.1839659,93.5850746 L97.4714286,92.1386354 C97.4714286,92.1386354 95.7420896,90.6921962 94.7336887,89.9621322 C93.7252878,89.2320682 87.5973134,92.7637527 87.5973134,92.7637527 Z" id="Shape" fill="url(#linearGradient-4)" fill-rule="nonzero"></path>
                                        <path d="M83.3720682,181.147122 C82.5584261,180.994738 82.0203681,180.214146 82.1674627,179.399531 L93.9762473,78.7967164 C93.9657711,78.2451932 94.2768695,77.7378926 94.7731912,77.4971595 C95.2695129,77.2564264 95.8605037,77.3261827 96.2871382,77.6758549 C96.7137728,78.0255271 96.8982113,78.5913172 96.7596162,79.1252452 L84.9508316,179.746311 C84.8899648,180.563346 84.1905395,181.183934 83.3720682,181.147122 Z" id="Shape" fill="#9B99BE" fill-rule="nonzero"></path>
                                        <path d="M97.453177,92.1386354 C97.7425739,92.5250317 97.8164361,93.0317609 97.6493817,93.4846908 C97.4440512,93.9409808 97.1018337,94.2193177 96.905629,94.1965032 C96.7094243,94.1736887 92.5845629,92.7089979 92.5845629,92.7089979 C92.5845629,92.7089979 91.8134328,92.4397868 92.3655437,91.9059275 C92.8218337,91.4496375 97.179403,92.704435 97.179403,92.704435 L97.453177,92.1386354 Z" id="Shape" fill="url(#linearGradient-4)" fill-rule="nonzero"></path>
                                        <path d="M96.358081,94.5295949 C96.358081,94.5295949 96.9010661,95.2459701 96.6592324,95.8710874 C96.4173987,96.4962047 95.4318124,96.6011514 95.1489126,96.4733902 C94.8660128,96.345629 90.9236674,92.8595736 90.7183369,92.6359915 C90.5130064,92.4124094 90.44,91.4998294 91.7221748,92.0336887 C93.0043497,92.567548 96.0751812,94.8261834 96.0751812,94.8261834 L96.358081,94.5295949 Z" id="Shape" fill="url(#linearGradient-4)" fill-rule="nonzero"></path>
                                        <path d="M94.9253305,95.8208955 C95.1980756,95.9166706 95.409315,96.1360059 95.4947694,96.4121586 C95.5802238,96.6883113 95.5297868,96.9886214 95.358806,97.2217058 C94.765629,98.2209808 93.0454158,97.1486994 92.7214499,96.9342431 C92.397484,96.7197868 89.52742,94.0094243 89.6232409,93.5805117 C89.7190618,93.1515991 90.1114712,92.7728785 90.8917271,93.5485714 C93.0956077,95.7433262 94.8523241,96.0079744 94.8523241,96.0079744 L94.9253305,95.8208955 Z" id="Shape" fill="url(#linearGradient-4)" fill-rule="nonzero"></path>
                                        <path d="M89.9198294,89.3050746 C90.7499706,89.4585816 91.6029165,89.4383843 92.4248614,89.2457569 C93.6522814,88.9172281 95.9747974,89.7294243 95.810533,90.6739446 C95.810533,90.6739446 95.7101493,92.4580384 95.810533,94.5113433 C95.9109168,96.5646482 95.723838,96.6559062 95.4363753,96.6924094 C95.0576546,96.7334755 94.4736034,95.2368443 94.354968,93.9957356 C94.2272068,92.6268657 93.9944989,91.609339 93.6796588,91.8922388 C92.351855,93.0740299 91.0468657,92.93258 89.7646908,92.1888273 L88.619403,92.5721109 L88.4642644,92.6268657 L88.1585501,92.7272495 L87.6292537,92.9052026 C87.5948698,92.7550492 87.5948698,92.599066 87.6292537,92.4489126 C87.6292537,92.4489126 86.0185501,91.6367164 85.5942004,91.4131343 C84.7215974,90.9630834 83.8746382,90.4649618 83.0572281,89.9210661 L83.4542004,87.6076759 L86.7759915,85.9878465 L89.9198294,89.3050746 Z" id="Shape" fill="url(#linearGradient-4)" fill-rule="nonzero"></path>
                                        <path d="M83.7598613,172.133402 L83.7598613,172.133402 C84.8081896,172.133402 85.6580276,172.98324 85.6580276,174.031568 L85.6580276,181.044745 C85.6580276,182.093073 84.8081896,182.942911 83.7598613,182.942911 L83.7598613,182.942911 C82.711533,182.942911 81.861695,182.093073 81.861695,181.044745 L81.861695,174.031568 C81.861695,172.98324 82.711533,172.133402 83.7598613,172.133402 Z" id="Rectangle-path" fill="#9B99BE" fill-rule="nonzero" transform="translate(83.759861, 177.538156) rotate(6.700000) translate(-83.759861, -177.538156) "></path>
                                        <path d="M94.0401279,180.535693 L83.3264392,179.321962 L72.5808102,178.099104 C72.5808102,178.099104 71.5997868,178.194925 71.4492111,179.531855 C71.2986354,180.868785 69.1677612,193.288998 80.7985928,201.274072 L80.7985928,201.306013 L80.8259701,201.306013 C93.9671215,196.14081 94.6698081,183.55177 94.8203838,182.219403 C94.9709595,180.887036 94.0401279,180.535693 94.0401279,180.535693 Z" id="Shape" fill="#9B99BE" fill-rule="nonzero"></path>
                                        <path d="M48.776162,38.7846482 C48.776162,38.7846482 54.4797868,34.376887 59.9005117,47.4952239 C65.5037527,61.056162 68.8666098,69.2283156 70.4773134,70.6382516 C72.0880171,72.0481876 82.9568443,78.8925373 87.38742,86.5399574 C87.38742,86.5399574 84.3667804,87.4525373 84.9690832,91.0298507 C84.9690832,91.0298507 75.1497228,85.1300213 68.0863539,79.0933049 C68.0863539,79.0933049 65.2436674,78.0849041 55.7665245,67.2297655 L48.776162,38.7846482 Z" id="Shape" fill="#FFFFFF" fill-rule="nonzero"></path>
                                        <path d="M94.5648614,97.6049893 C94.7793266,97.6947638 94.9386361,97.8807615 94.9943899,98.1064744 C95.0501437,98.3321873 94.99576,98.5709698 94.8477612,98.7502772 C94.3230277,99.5259701 92.990661,98.5860128 92.7442644,98.3989339 C92.4978678,98.211855 90.303113,95.9030277 90.4080597,95.5653731 C90.5130064,95.2277186 90.8369723,94.9402559 91.4255864,95.5973134 C93.0956077,97.4589765 94.4964179,97.755565 94.4964179,97.755565 L94.5648614,97.6049893 Z" id="Shape" fill="url(#linearGradient-4)" fill-rule="nonzero"></path>
                                        <path d="M48.6392751,156.452708 C48.6392751,156.452708 55.4836247,160.869595 60.8404691,155.006269 C60.8404691,155.006269 61.2967591,163.146482 59.8320682,184.824819 C59.8320682,184.824819 59.4807249,189.136759 62.9667804,191.961194 C66.1106183,194.507292 69.1677612,196.569723 69.8111301,197.523369 C70.4544989,198.477015 70.9336034,201.629979 68.4422601,202.195778 C66.1106183,202.7342 63.6284009,202.994286 60.799403,200.630704 C58.2989339,198.536333 58.9742431,198.969808 56.5832836,196.587974 C54.1923241,194.206141 52.6089979,195.05484 52.1527079,191.819744 C51.737484,188.881237 53.0652878,188.986183 52.4629851,183.839232 C52.2302772,181.75855 49.0910021,168.047036 48.6392751,156.452708 Z" id="Shape" fill="url(#linearGradient-5)" fill-rule="nonzero"></path>
                                        <path d="M19.0671215,156.571343 C19.0671215,156.571343 22.87258,160.477186 30.9078465,157.844392 C30.9078465,157.844392 30.9078465,168.740597 27.7138166,179.344776 C27.7138166,179.344776 25.6331343,185.354115 25.7517697,187.804392 C25.8704051,190.25467 26.7099787,190.008273 26.7099787,193.439574 C26.7099787,196.870874 23.5798294,196.337015 20.4724947,197.970533 C17.3651599,199.604051 16.224435,203.231557 13.034968,203.751727 C9.84550107,204.271898 6.55108742,204.477228 5.18678038,202.661194 C3.82247335,200.84516 7.0575693,196.843497 8.65458422,195.679957 C12.4326652,192.942217 16.7446055,189.360341 17.7803838,187.822644 C18.9667377,186.097868 18.6199574,171.898124 18.8800426,161.499275 C18.9713006,158.090789 18.9621748,158.177484 19.0671215,156.571343 Z" id="Shape" fill="url(#linearGradient-5)" fill-rule="nonzero"></path>
                                        <path d="M31.1816205,36.9914286 C31.1816205,36.9914286 31.4280171,36.4438806 31.8523667,36.4438806 C32.928087,36.3742962 34.0071796,36.3742962 35.0828998,36.4438806 C35.0828998,36.4438806 35.3749254,36.3389339 35.7536461,37.5572281 C36.8325967,41.1650405 37.2953761,44.9289801 37.122516,48.6907036 C37.122516,48.6907036 45.4498081,52.7334328 50.4142431,48.5310021 C51.0302633,45.1906625 50.4503191,41.740075 48.776162,38.7846482 L48.2240512,37.7990618 C48.9424807,37.6638445 49.678951,37.6545807 50.4005544,37.7716844 C51.7420469,37.9542004 53.8546695,42.2159488 54.3428998,43.7992751 C54.8311301,45.3826013 59.0746269,52.0763753 58.0251599,72.3265245 C56.975693,92.5766738 57.249467,88.5932623 57.249467,88.5932623 C57.249467,88.5932623 58.1620469,100.151087 58.6913433,110.828273 C59.2206397,121.505458 59.2890832,123.923795 59.3164606,124.854627 C59.343838,125.785458 59.56742,140.482559 59.6221748,141.358635 C59.6769296,142.234712 60.7902772,150.028145 60.8495949,155.006269 C60.8495949,155.006269 56.7749254,160.787463 48.6484009,156.452708 C48.6484009,156.452708 48.2605544,151.127804 48.2286141,147.97484 C48.1966738,144.821876 48.1327932,142.95565 48.3381237,139.41484 C48.3381237,139.41484 45.682516,130.786397 44.9387633,127.647122 C44.1950107,124.507846 42.5158635,117.220896 42.0641365,115.327292 C41.6124094,113.433689 40.8047761,107.625117 40.8047761,107.625117 C40.8047761,107.625117 38.4685714,116.951684 37.5468657,120.319104 C36.6251599,123.686525 34.7726226,130.448742 33.4767591,134.281578 C32.1808955,138.114414 31.6059701,139.656674 31.6059701,139.656674 C31.6059701,139.656674 31.5420896,145.8029 31.3778252,149.471471 C31.2135608,153.140043 30.9215352,157.844392 30.9215352,157.844392 C30.9215352,157.844392 23.8536034,160.773774 19.0808102,156.571343 C19.0808102,156.571343 19.5827292,148.00678 20.0846482,143.795224 C20.5865672,139.583667 20.6641365,138.826226 20.6504478,137.220085 C20.6367591,135.613945 20.7736461,120.675011 20.8101493,119.484094 C20.8466525,118.293177 21.1158635,108.364307 21.8641791,104.079744 C21.8641791,104.079744 22.4436674,100.105458 22.7767591,99.1061834 L22.9501493,99.3571429 L28.881919,101.446951 C29.5746468,101.159112 29.9747759,100.429018 29.8446908,99.6902345 C29.7306183,98.2939872 28.4484435,96.5235821 27.1845203,95.2596588 C25.920597,93.9957356 24.373774,92.6268657 24.373774,92.6268657 L25.2863539,89.5469083 C25.2863539,89.5469083 26.0848614,86.2661834 26.1578678,85.2212793 C26.2166985,83.7933341 26.137238,82.3630464 25.920597,80.9504051 C25.6787633,79.3214499 25.0992751,75.4201706 24.9030704,72.5136034 C24.657755,69.8289048 24.5633066,67.1325542 24.6201706,64.4372708 C24.7296802,61.6265245 24.9897655,58.7792751 24.9897655,58.7792751 C24.9897655,58.7792751 27.0521962,60.8690832 28.8226013,58.1222175 C30.5930064,55.3753518 32.1535181,49.2793177 31.1816205,36.9914286 Z" id="Shape" fill="url(#linearGradient-5)" fill-rule="nonzero"></path>
                                    </g>
                                    <g id="woman" stroke-width="1" fill="none" fill-rule="evenodd" transform="translate(180.000000, 5.000000)">
                                        <path d="M51.3480171,94.5898507 C51.3480171,94.5898507 55.5276333,107.032878 49.2627719,139.005117 C49.2627719,139.005117 49.8970149,159.830192 47.4376119,176.420896 C47.4376119,176.420896 45.2428571,179.989083 40.2191045,176.420896 C40.2191045,176.420896 37.4813646,153.606397 38.1247335,144.389339 C38.7681023,135.172281 37.4950533,114.2742 35.8432836,114.2742 C34.1915139,114.2742 26.4254584,134.574542 24.7508742,141.058422 C23.07629,147.542303 20.7765885,159.264392 14.2835821,174.102942 C14.2835821,174.102942 11.0895522,177.871898 7.43923241,173.683156 C7.43923241,173.683156 8.80810235,153.177484 11.965629,143.568017 C15.1231557,133.95855 13.9322388,106.120299 18.1209808,93.1114712 L51.3480171,94.5898507 Z" id="Shape" fill="url(#linearGradient-5)" fill-rule="nonzero"></path>
                                        <path d="M107.061023,67.942516 C106.81919,67.7965032 105.181109,67.942516 105.181109,67.942516 C105.181109,67.942516 101.841066,67.9790192 101.211386,68.2208529 C99.7601448,68.5453611 98.2868606,68.7619308 96.8036247,68.8687846 C94.9784648,68.2847335 93.2993177,67.8375693 93.2993177,67.8375693 L91.7433689,67.1075053 C89.3387207,65.9576546 87.4496802,64.9948827 87.4496802,64.9948827 C84.2830277,66.84742 85.8207249,70.2285288 85.8207249,70.2285288 C85.8207249,70.2285288 90.9448614,71.6202132 91.7524947,71.7753518 C92.5601279,71.9304904 92.2544136,72.6879318 92.9297228,73.9746695 C93.605032,75.2614072 95.5397015,76.2013646 95.973177,76.6348401 C96.4066525,77.0683156 96.2150107,78.8615352 96.5070362,78.91629 C96.7990618,78.9710448 97.4196162,78.5330064 97.291855,76.7899787 C97.200597,75.6629424 96.4157783,74.5997868 96.0142431,73.7373987 C96.3364358,73.9147848 96.6868456,74.0351899 97.0500213,74.0933049 C98.5649041,74.3214499 100.303369,74.4309595 100.526951,74.6545416 C100.810488,75.2090797 101.035291,75.7917329 101.197697,76.3930064 C101.197697,76.3930064 103.328571,78.1314712 104.619872,78.1314712 C104.744136,78.1515582 104.87095,78.1160449 104.966709,78.0343427 C105.062467,77.9526405 105.117502,77.832998 105.117228,77.7071215 C105.171983,77.1002559 104.624435,73.0757783 104.624435,73.0757783 C104.624435,73.0757783 101.886695,70.9768443 100.568017,70.1783369 C101.228734,69.941702 101.874768,69.6659186 102.502687,69.352452 C102.840341,69.0649893 106.153006,68.9509168 106.609296,68.8049041 C107.065586,68.6588913 107.302857,68.0885288 107.061023,67.942516 Z" id="Shape" fill="url(#linearGradient-4)" fill-rule="nonzero"></path>
                                        <path d="M100.581706,70.1828998 L96.60742,71.9761194 C96.60742,71.9761194 95.7587207,72.7928785 96.0279318,73.7510874 C96.0279318,73.7510874 96.9405117,74.3077612 99.4683582,74.4127079 C99.4683582,74.4127079 100.558891,74.5632836 100.732281,75.0195736 C100.905672,75.4758635 101.188571,76.3884435 101.188571,76.3884435 C101.93166,77.0108095 102.761764,77.5211695 103.652537,77.9033262 C104.907335,78.3824307 105.121791,78.1725373 105.108102,77.6934328 C105.094414,77.2143284 104.628998,73.0803412 104.628998,73.0803412 L100.581706,70.1828998 Z" id="Shape" fill="url(#linearGradient-4)" fill-rule="nonzero"></path>
                                        <path d="M87.458806,65.0176972 C84.7210661,62.6404264 70.6034542,56.9185501 67.0717697,56.375565 C63.5400853,55.83258 53.8393603,49.4947122 48.7060981,47.3227719 C45.4095408,46.0196406 41.8321636,45.5905439 38.3209382,46.0771002 L39.3612793,47.3318977 L27.8399574,47.4322814 C27.8399574,47.4322814 22.7295096,46.1546695 18.5909595,51.1327932 C14.4524094,56.1109168 9.46515991,68.9281023 7.87270789,74.8598721 C6.28025586,80.7916418 9.8301919,102.410661 9.8301919,102.410661 C10.4862766,101.600921 11.4415796,101.09047 12.4793816,100.995109 C13.5171836,100.899748 14.5495124,101.22756 15.3421748,101.904179 C15.3421748,101.904179 16.4098934,84.9119403 16.4098934,79.5779104 C16.4098934,75.9275906 20.5165032,69.5030277 23.0717271,65.8298934 C23.8337313,66.984307 24.1075053,72.0126226 24.0481876,73.2491684 C23.7470362,80.0159488 21.6846055,84.1179957 21.6846055,84.1179957 C17.6738166,92.7464392 18.1437953,93.0795309 18.1437953,93.0795309 C41.0723667,106.521834 51.3480171,94.576162 51.3480171,94.576162 C51.3480171,94.576162 48.2954371,85.6283156 46.6892964,80.1345842 C45.0831557,74.6408529 46.8398721,72.9160768 48.5418337,69.5486567 C49.7966311,67.075565 49.9107036,65.8298934 49.7646908,63.8222175 C49.4964806,61.8334801 48.8390718,59.9170714 47.8300213,58.1824733 L49.8787633,58.9672921 C49.8787633,58.9672921 62.6092537,63.571258 65.465629,65.0040085 C68.3220043,66.4367591 85.8207249,70.2376546 85.8207249,70.2376546 C84.4655437,66.441322 87.458806,65.0176972 87.458806,65.0176972 Z" id="Shape" fill="#E3667A" fill-rule="nonzero"></path>
                                        <path d="M44.8915139,26.6847761 C44.8915139,25.8771429 44.1705757,22.1218763 44.1705757,22.1218763 C43.2661774,16.8288821 38.678297,12.9584283 33.3085928,12.9584283 C27.9388885,12.9584283 23.3510081,16.8288821 22.4466098,22.1218763 C22.4350073,22.168513 22.4258689,22.2157284 22.4192324,22.2633262 C22.4166971,22.2845443 22.4166971,22.3059888 22.4192324,22.3272068 C22.1253807,24.2896213 22.1515769,26.2866935 22.4968017,28.2407249 L21.0001706,28.3456716 L21.0001706,32.7260554 L25.1889126,34.478209 C25.3577399,34.6972281 25.5311301,34.9344989 25.7227719,35.1307036 C26.6353518,36.4539446 28.3373134,39.9901919 27.8308316,47.450533 C27.8308316,47.450533 30.4773134,55.3489126 37.1163326,56.3253731 C43.7553518,57.3018337 40.241919,47.3410235 40.241919,47.3410235 C40.241919,47.3410235 35.3413646,44.995693 35.5421322,41.0624733 C36.795605,41.3989139 38.0863418,41.5767352 39.3840938,41.5917697 C40.0548401,41.5917697 40.8579104,39.9810661 42.4686141,37.2935181 C43.7212341,35.3917642 44.3158756,33.1318061 44.1614499,30.8598294 C44.1158209,28.829339 44.8915139,27.4878465 44.8915139,26.6847761 Z" id="Shape" fill="url(#linearGradient-4)" fill-rule="nonzero"></path>
                                        <path d="M27.8308316,41.6875906 C27.8308316,41.943113 27.8308316,42.2031983 27.8308316,42.4678465 C27.8466155,42.2079606 27.8466155,41.9474765 27.8308316,41.6875906 Z" id="Shape" fill="#292758" fill-rule="nonzero"></path>
                                        <path d="M45.9957356,25.5714286 C44.567548,25.0421322 48.2178678,19.8404264 44.1705757,12.9732623 C42.251115,9.65819001 38.7797875,7.54446086 34.9535181,7.36089552 C34.9535181,7.36089552 36.4866525,1.3196162 29.3411514,0.931769723 C22.1956503,0.543923241 24.1166311,5.99658849 16.1863113,6.65820896 C8.25599147,7.31982942 4.36840085,13.894968 6.88255864,17.358209 C9.39671642,20.8214499 9.8119403,25.1151386 6.12055437,28.874968 C2.42916844,32.6347974 1.07855011,42.2123241 13.2706183,42.4541578 C25.4626866,42.6959915 21.1279318,34.0584222 21.1279318,34.0584222 C22.1135181,34.7063539 23.5097655,35.5094243 25.4581237,36.8691684 C27.4064819,38.2289126 27.7852026,40.5194883 27.8445203,41.6921535 C27.7639929,39.068632 26.8408415,36.5407651 25.2117271,34.4827719 C25.2117271,34.4827719 24.7098081,33.7846482 23.121919,33.1139019 C21.5340299,32.4431557 20.3066098,28.7563326 22.5880597,28.5875053 C24.8695096,28.418678 26.6444776,36.0660981 26.6444776,36.0660981 C32.0880171,35.0257569 28.1046055,29.4727079 28.8301066,26.2011087 C29.5556077,22.9295096 34.278209,25.2109595 38.9232409,24.2025586 C43.5682729,23.1941578 43.1804264,19.0784222 43.1804264,19.0784222 C43.1804264,19.0784222 45.1150959,26.0049041 44.9006397,26.6756503 C43.9561194,29.6324094 44.1797015,30.832452 44.1797015,30.832452 C44.1797015,30.832452 48.2863113,26.4246908 45.9957356,25.5714286 Z" id="Shape" fill="#122240" fill-rule="nonzero"></path>
                                        <rect id="Rectangle-path" fill="#E8778A" fill-rule="nonzero" transform="translate(16.127371, 119.728730) rotate(-23.870000) translate(-16.127371, -119.728730) " x="7.6289699" y="107.780777" width="16.9968017" height="23.8959062" rx="3"></rect>
                                        <path d="M11.5751492,109.398767 L20.3224414,109.398767 C21.9792956,109.398767 23.3224414,110.741912 23.3224414,112.398767 L23.3224414,126.242818 C23.3224414,127.899672 21.9792956,129.242818 20.3224414,129.242818 L11.5751492,129.242818 C9.91829499,129.242818 8.57514924,127.899672 8.57514924,126.242818 L8.57514924,112.398767 C8.57514924,110.741912 9.91829499,109.398767 11.5751492,109.398767 Z" id="Rectangle-path" fill="#FFFFFF" fill-rule="nonzero" transform="translate(15.948795, 119.320792) rotate(-23.870000) translate(-15.948795, -119.320792) "></path>
                                        <path d="M13.4805117,111.47258 L12.9831557,108.064094 L16.2684435,106.635906 L15.7756503,105.810021 C15.5371103,105.672809 15.2847526,105.56116 15.0227719,105.47693 L15.3421748,101.917868 C11.9793177,99.4265245 9.8301919,102.42435 9.8301919,102.42435 L10.5876333,107.105885 L10.2864819,107.206269 C9.91688699,107.329467 7.46204691,109.031429 7.46204691,109.031429 C7.31761888,109.214931 7.24903246,109.446818 7.27040512,109.67936 C7.27040512,110.13565 7.46204691,112.143326 7.46204691,112.357783 C7.46204691,112.572239 9.58835821,115.036205 9.8301919,114.926695 C9.8301919,114.926695 10.1632836,115.647633 10.4279318,115.647633 C10.4279318,115.647633 10.5967591,116.236247 11.0256716,116.140426 C11.0256716,116.140426 11.281194,116.113049 11.1853731,115.15484 C11.1853731,115.15484 10.5328785,111.864989 10.4279318,111.372196 C10.3229851,110.879403 11.0484861,109.807122 11.4408955,109.286951 L12.5861834,112.074883 L14.0371855,114.926695 C14.0371855,114.926695 14.7809382,114.986013 14.2835821,113.685586 C13.786226,112.38516 13.4805117,111.47258 13.4805117,111.47258 Z" id="Shape" fill="url(#linearGradient-4)" fill-rule="nonzero"></path>
                                        <circle id="Oval" fill="#FFFFFF" fill-rule="nonzero" cx="20.6670789" cy="129.427591" r="1"></circle>
                                        <path d="M38.330064,155.481748 C38.330064,155.481748 44.0473774,159.045373 49.166951,155.481748 C49.166951,155.481748 48.8201706,166.701919 47.0086994,183.192239 C47.0086994,183.192239 46.1371855,188.380256 47.5334328,190.492878 C48.9296802,192.605501 53.583838,196.620853 54.6333049,197.21403 C57.3117271,198.72435 57.3117271,198.72435 55.6280171,199.878763 C54.1313859,200.909979 49.6551812,201.594414 47.9440938,200.617953 C46.2330064,199.641493 43.6595309,196.999574 41.8434968,196.30145 C40.0274627,195.603326 38.0243497,195.028401 38.3072495,192.514243 C38.5901493,190.000085 40.9628571,188.334627 40.6845203,186.518593 C40.4061834,184.702559 38.51258,166.565032 38.330064,155.481748 Z" id="Shape" fill="#FFFFFF" fill-rule="nonzero"></path>
                                        <path d="M10.4461834,149.682303 C10.4461834,149.682303 11.7785501,155.536503 21.255693,154.669552 C21.255693,154.669552 19.4898507,163.188486 14.0463113,177.990533 C14.0463113,177.990533 10.9663539,187.832708 12.1527079,192.322601 C13.2979957,196.675608 13.010533,197.300725 10.7153945,198.852111 C8.85829424,200.111471 7.46204691,200.887164 5.23991471,200.522132 C3.01778252,200.1571 2.15539446,199.208017 0.836716418,197.18209 C-1.011258,194.339403 1.46183369,193.472452 3.74784648,190.926354 C4.95701493,189.584861 5.91978678,184.150448 6.02929638,181.827932 C6.11142857,179.665117 7.5350533,156.362388 10.4461834,149.682303 Z" id="Shape" fill="#FFFFFF" fill-rule="nonzero"></path>
                                    </g>
                                </g>
                            </g>
                        </g>
                        <g id="premier-plan">
                            <g id="tablette" transform="translate(349.000000, 115.500000) rotate(60.000000) translate(-349.000000, -115.500000) translate(304.000000, 64.000000)">
                                <path d="M17.3784349,9.01834146 L72.118786,9.01834146 C73.6099548,9.01834146 74.8187859,10.2271726 74.8187859,11.7183414 L74.8187859,91.1996603 C74.8187859,92.6908291 73.6099548,93.8996602 72.118786,93.8996602 L17.3784349,93.8996602 C15.8872662,93.8996602 14.678435,92.6908291 14.678435,91.1996603 L14.678435,11.7183414 C14.678435,10.2271726 15.8872662,9.01834146 17.3784349,9.01834146 Z" id="Rectangle-path" fill="#E8778A" fill-rule="nonzero" transform="translate(44.748610, 51.459001) rotate(-23.870000) translate(-44.748610, -51.459001) "></path>
                                <path d="M31.0874269,11.3313515 C35.5275963,16.9960849 37.0810143,20.9876539 35.747681,23.3060585 C33.747681,26.7836654 29.1137064,36.8490336 37.5060112,46.3500323 C45.898316,55.851031 61.6207479,62.645366 56.1207479,72.2087849 C52.4540812,78.5843975 51.430149,85.7189405 53.0489511,93.6124139 L53.9149765,94.1143632 L82.0034338,81.4144079 L86.60151,79.4426489 C88.7562106,78.3731112 89.3008688,76.7567919 88.2354846,74.593691 C87.1701005,72.4305901 76.7722421,49.015945 57.0419096,4.34975586 C55.7325085,1.2724209 53.3784492,0.680806973 49.9797318,2.57491407 C49.9797318,2.57491407 43.6822968,5.49372656 31.0874269,11.3313515 Z" id="Path-5" fill="#C35365"></path>
                                <path d="M19.9505281,13.8468473 L66.7313642,13.8468473 C68.222533,13.8468473 69.4313642,15.0556785 69.4313642,16.5468473 L69.4313642,81.6354583 C69.4313642,83.1266271 68.222533,84.3354582 66.7313642,84.3354582 L19.9505281,84.3354582 C18.4593593,84.3354582 17.2505282,83.1266271 17.2505282,81.6354583 L17.2505282,16.5468473 C17.2505282,15.0556785 18.4593593,13.8468473 19.9505281,13.8468473 Z" id="Rectangle-path" fill="#FFFFFF" fill-rule="nonzero" transform="translate(43.340946, 49.091153) rotate(-23.870000) translate(-43.340946, -49.091153) "></path>
                                <ellipse id="Oval" fill="#FFFFFF" fill-rule="nonzero" cx="60.2343804" cy="85.3341086" rx="2.08271282" ry="2.09083256"></ellipse>
                            </g>
                            <g id="Colors-dots" transform="translate(275.209929, 56.094800) rotate(-200.000000) translate(-275.209929, -56.094800) translate(236.209929, 10.594800)">
                                <path d="M57.87303,27.1377163 C57.8768326,27.0908371 57.8883962,27.0449659 57.9072241,27.0020732 C58.0983377,26.5384305 58.1460812,26.0257671 58.0440004,25.5333864 C58.0440004,25.5333864 58.0440004,25.5193543 58.0440004,25.514677 C58.0440004,25.5099996 58.0440004,25.4819355 58.0440004,25.4819355 C58.0266018,25.4052354 58.0174289,25.3268138 58.0166451,25.2480682 C58.0188723,24.6981061 58.4334851,24.2426389 58.9681532,24.2028021 C59.5028212,24.1629653 59.9772312,24.5521936 60.0568916,25.0960544 C60.168289,25.4089335 60.3986023,25.6620918 60.6951811,25.7976564 L60.8000429,25.8491073 L60.8387962,25.865478 C61.7057334,26.3714084 62.0924133,27.4436728 61.7551909,28.4066427 C61.4179684,29.3696127 60.4545536,29.9442684 59.4719892,29.7685223 C58.4894247,29.5927762 57.7724079,28.7175506 57.7727274,27.6943205 C57.7802348,27.5048414 57.8140081,27.3174249 57.87303,27.1377163 Z" id="Shape-Copy-2" fill="#35C850" fill-rule="nonzero" filter="url(#filter-6)"></path>
                                <path d="M2.89703283,42.3696841 C2.93534351,42.359881 2.9744833,42.3534137 3.01398449,42.3503593 L3.14519855,42.3365558 L3.18228079,42.3365558 C4.25196062,42.2344105 4.32327261,41.8561966 4.32327261,41.8561966 C4.4305084,41.3207649 4.94094919,40.9521244 5.50182203,41.0050479 C6.06269488,41.0579714 6.48994971,41.5150921 6.48830459,42.0604873 C6.49125803,42.1027696 6.49125803,42.1451966 6.48830459,42.1874788 C6.49003432,43.0476622 6.61091523,43.9037384 6.84771702,44.7328307 C6.84678406,44.7456981 6.84678406,44.7586129 6.84771702,44.7714803 L6.8648319,44.834976 C7.23683265,46.1831345 6.71432525,47.61394 5.54962809,48.4364576 C4.38493093,49.2589753 2.817622,49.3040134 1.60455349,48.5498231 C0.39148499,47.7956328 -0.21781512,46.3973509 0.07088369,45.0302066 C0.3595825,43.6630623 1.48689494,42.6082769 2.90844275,42.3752054 L2.89703283,42.3696841 Z" id="Shape-Copy" fill="#937BF3" fill-rule="nonzero"></path>
                                <path d="M37.0903369,42.978094 C37.1269513,42.968725 37.1643581,42.962544 37.2021103,42.9596249 L37.3275146,42.9464326 L37.362955,42.9464326 C38.3852726,42.8488099 38.4534272,42.4873422 38.4534272,42.4873422 C38.5559149,41.9756178 39.0437549,41.6232996 39.579794,41.6738798 C40.1158331,41.7244601 40.5241704,42.1613408 40.5225981,42.6825876 C40.5254208,42.7229977 40.5254208,42.7635462 40.5225981,42.8039563 C40.5242512,43.6260533 40.6397799,44.4442251 40.8660968,45.2366077 C40.8652052,45.2489053 40.8652052,45.2612483 40.8660968,45.273546 L40.8824539,45.3342304 C41.2379836,46.6226965 40.7386112,47.9901502 39.6254833,48.7762493 C38.5123554,49.5623483 37.0144422,49.6053923 35.8550847,48.8845953 C34.6957272,48.1637982 34.113405,46.827428 34.3893211,45.5208167 C34.6652372,44.2142054 35.7426357,43.2061227 37.1012417,42.9833709 L37.0903369,42.978094 Z" id="Shape-Copy-3" fill="#E3667A" fill-rule="nonzero" transform="translate(37.658595, 45.532995) rotate(64.000000) translate(-37.658595, -45.532995) "></path>
                                <path d="M44.0948314,1.7971846 C44.1193518,1.79091025 44.144403,1.78677086 44.1696854,1.78481591 L44.253668,1.77598113 L44.2774022,1.77598113 C44.9620428,1.71060375 45.0076855,1.46853076 45.0076855,1.46853076 C45.076321,1.12583166 45.4030249,0.889886074 45.7620074,0.92375938 C46.1209899,0.957632686 46.3944511,1.25020938 46.3933982,1.59928551 C46.3952885,1.62634796 46.3952885,1.65350305 46.3933982,1.6805655 C46.3945053,2.23111945 46.4718742,2.77904468 46.6234374,3.30969905 C46.6228403,3.31793472 46.6228403,3.32620077 46.6234374,3.33443644 L46.6343917,3.37507643 C46.872488,4.23795525 46.538061,5.15373166 45.7926053,5.68017797 C45.0471495,6.20662429 44.0440051,6.2354506 43.2675896,5.75273671 C42.4911741,5.27002282 42.1011961,4.37506288 42.2859756,3.50003231 C42.4707551,2.62500175 43.1922831,1.94989419 44.1021342,1.80071851 L44.0948314,1.7971846 Z" id="Shape-Copy-4" fill="#F8CC6A" fill-rule="nonzero" transform="translate(44.475391, 3.508188) rotate(64.000000) translate(-44.475391, -3.508188) "></path>
                                <ellipse id="Oval-7" fill="#15BBDF" filter="url(#filter-7)" cx="12.4318182" cy="17.9" rx="2.11363636" ry="2.1"></ellipse>
                                <ellipse id="Oval-7-Copy-2" fill="#937BF3" cx="75.8863636" cy="88.9" rx="2.11363636" ry="2.1"></ellipse>
                                <ellipse id="Oval-7-Copy-3" fill="#F8CC6A" filter="url(#filter-8)" cx="67.1818182" cy="54.6" rx="1.40909091" ry="1.4"></ellipse>
                                <ellipse id="Oval-7-Copy" fill="#35C850" filter="url(#filter-9)" cx="22.2954545" cy="72.1" rx="2.11363636" ry="2.1"></ellipse>
                            </g>
                            <path d="M344.535011,284.852751 C344.535011,284.852751 362.062115,283.396204 362.062115,275.014995 C362.062115,266.633786 375.777925,251.904464 392.540343,262.3127 C409.302761,272.720935 426.829866,268.345228 427.588483,258.725955 C428.347101,249.106682 415.395979,238.795549 427.588483,227.568006 C439.780988,216.340463 429.876475,197.223296 448.920815,198.024396 C467.965155,198.825496 471.017833,246.060073 471.017833,246.060073 L453.490728,284.852751 L344.535011,284.852751 Z" id="Shape" fill="#FBFBFE" fill-rule="nonzero"></path>
                            <g id="pots" transform="translate(0.000000, 237.000000)" fill-rule="nonzero">
                                <g id="Group-19">
                                    <path d="M444.627448,59.2195183 C429.496178,58.9140505 420.616095,58.9860948 416.032083,59.0869568 L407.915042,59.1215381 C402.36355,59.0293214 393.255994,59.1013657 394.957722,60.6200593 C397.38506,62.7813879 381.467713,64.6689483 377.151485,65.4787261 C372.835258,66.2885039 380.926385,66.6833066 396.843732,66.6833066 C412.76108,66.6833066 386.593052,73.0779576 402.5104,72.8762336 C418.427747,72.6745096 456.467559,74.6600502 447.564441,67.9109413 C438.661322,61.1618323 454.57867,63.184836 458.085784,63.38656 C461.592899,63.588284 469.18013,59.7180648 444.627448,59.2195183 Z" id="Shape" fill="#E6E5F2" filter="url(#filter-10)"></path>
                                    <path d="M68.6274482,67.2195183 C53.496178,66.9140505 44.6160948,66.9860948 40.032083,67.0869568 L31.915042,67.1215381 C26.3635503,67.0293214 17.2559942,67.1013657 18.9577222,68.6200593 C21.3850601,70.7813879 5.46771255,72.6689483 1.15148534,73.4787261 C-3.16474186,74.2885039 4.92638452,74.6833066 20.8437321,74.6833066 C36.7610796,74.6833066 10.5930524,81.0779576 26.5103999,80.8762336 C42.4277475,80.6745096 80.4675591,82.6600502 71.5644407,75.9109413 C62.6613223,69.1618323 78.5786698,71.184836 82.0857844,71.38656 C85.5928989,71.588284 93.1801296,67.7180648 68.6274482,67.2195183 Z" id="Shape-Copy-5" fill="#E6E5F2" filter="url(#filter-11)"></path>
                                    <path d="M422.164504,0.681091233 C405.934481,0.681091233 392.792121,1.90032223 392.792121,3.40060972 L392.792121,11.8441802 C392.792121,12.2400345 393.722379,13.3325921 395.381008,13.6730267 L395.381008,14.3855643 L399.636441,63.4714876 C399.636441,64.358201 408.345234,66.1039182 421.725106,66.1039182 C435.104979,66.1039182 443.809813,64.358201 443.809813,63.4714876 L448.955918,13.6611511 C450.614547,13.3207165 451.544805,12.2281588 451.544805,11.8323046 L451.544805,3.40060972 C451.532929,1.90032223 438.382652,0.681091233 422.164504,0.681091233 Z" id="Shape" fill="#9B99BE" filter="url(#filter-12)"></path>
                                    <path d="M416.856099,15.8763195 C417.172783,15.8763195 417.489466,15.8763195 417.806149,15.8763195 C417.806149,15.8613195 417.449881,15.8613195 416.856099,15.8763195 Z" id="Shape" fill="#9B99BE" opacity="0.4" filter="url(#filter-13)"></path>
                                    <path d="M395.381008,13.6769853 L395.381008,14.3895229 L399.636441,63.4754461 C399.636441,64.3621596 408.345234,66.1078767 421.725106,66.1078767 C424.682137,66.1078767 427.409573,66.0247473 429.867828,65.8822398 C428.866316,48.9871817 412.450242,50.8397794 407.933545,46.7743566 C403.416849,42.7089338 407.787079,34.7245541 409.82177,28.050452 C411.856461,21.3763498 400.238139,21.0794592 401.255485,18.4668213 C402.118447,16.2460792 413.479463,15.9096031 416.856099,15.8621006 C407.48623,15.9096031 396.806083,14.6745379 398.330122,13.6769853 C399.854161,12.6794326 398.207407,10.1934681 396.030209,9.17612279 C393.853011,8.15877745 403.868122,7.29185671 403.868122,7.29185671 C393.128597,6.42097742 392.784204,3.3887341 392.784204,3.3887341 L392.784204,11.8441802 C392.792121,12.2400345 393.722379,13.3365506 395.381008,13.6769853 Z" id="Shape" fill="#D4D3E3" filter="url(#filter-14)"></path>
                                    <ellipse id="Oval" fill="#9B99BE" filter="url(#filter-15)" cx="421.725106" cy="3.28185346" rx="24.2302368" ry="1.60716813"></ellipse>
                                </g>
                                <g id="Group-8" transform="translate(25.000000, 12.000000)">
                                    <path d="M65.6286711,5.33863681 L42.6691264,2.50827913 C40.3425116,0.919241165 37.5970771,0.0555244492 34.7797518,0.0262731753 L28.2758669,0.0262731753 C16.697131,0.0262731753 7.29559327,13.2517627 7.29559327,29.5609565 C7.29559327,45.8701504 16.6812968,59.0956399 28.2758669,59.0956399 L34.7837103,59.0956399 C37.600625,59.0675567 40.3460247,58.2052284 42.6730849,56.6175925 L65.6326297,53.7793177 C76.3206936,53.7793177 84.9661498,42.9329121 84.9661498,29.5530394 C84.9661498,16.1731668 76.3048594,5.33863681 65.6286711,5.33863681 Z" id="Shape" fill="#B2AFCD"></path>
                                    <path d="M65.6286711,5.33863681 L42.6691264,2.50827913 C40.3425116,0.919241165 37.5970771,0.0555244492 34.7797518,0.0262731753 L28.2758669,0.0262731753 C16.697131,0.0262731753 7.29559327,13.2517627 7.29559327,29.5609565 C7.29559327,45.8701504 16.6812968,59.0956399 28.2758669,59.0956399 L34.7837103,59.0956399 C37.600625,59.0675567 40.3460247,58.2052284 42.6730849,56.6175925 L65.6326297,53.7793177 C76.3206936,53.7793177 84.9661498,42.9329121 84.9661498,29.5530394 C84.9661498,16.1731668 76.3048594,5.33863681 65.6286711,5.33863681 Z" id="Shape" fill="#D4D3E3"></path>
                                    <path d="M84.9621912,29.5609565 C84.9621912,29.0621802 84.9621912,28.5673624 84.9226058,28.0765032 C85.3738796,35.748158 79.6933716,37.6561753 78.8224923,34.4101707 C77.951613,31.1641661 74.7016498,28.6702845 73.2053209,34.4101707 C71.7089919,40.1500569 66.3412087,43.5148178 63.7048196,32.6644536 C61.0684305,21.8140894 54.7189288,18.0613914 55.7164815,24.6761154 C56.7140341,31.2908395 54.968317,41.8997326 51.9717005,48.1383951 C48.9750841,54.3770576 42.6730849,56.6255095 45.1273811,54.3889332 C47.5816772,52.1523569 50.1191028,44.2629823 50.1191028,44.2629823 C45.6261574,55.7427546 36.5175518,56.7601 39.5102097,53.1380339 C42.5028676,49.5159677 42.3564015,47.8890069 42.3564015,47.8890069 L11.6697824,41.9511936 C10.6049346,41.3019927 9.11652268,38.9585357 7.95271128,36.9080108 C10.2684585,49.6743094 18.4824335,59.111474 28.2639913,59.111474 L34.7837103,59.111474 C37.600625,59.0833908 40.3460247,58.2210626 42.6730849,56.6334266 L65.6326297,53.7951519 C76.3048594,53.7872348 84.9621912,42.9408292 84.9621912,29.5609565 Z" id="Shape" fill="#9B99BE"></path>
                                    <ellipse id="Oval" fill="#9B99BE" cx="28.2758669" cy="29.5609565" rx="18.7753657" ry="26.4470204"></ellipse>
                                    <path d="M46.9364349,26.6712207 C46.9364349,26.6712207 42.3009819,23.9873291 40.1079496,26.6712207 C37.9149172,29.3551123 35.40916,29.4422003 34.3126438,29.5609565 C33.2161276,29.6797128 31.6485449,30.922695 30.7064118,33.7411771 C29.7642788,36.5596591 27.575205,35.4631429 26.3203471,36.872384 C25.0654892,38.281625 27.1120555,39.6948246 26.3203471,42.0422401 C25.5286386,44.3896556 22.8962081,39.4454364 19.1158003,44.0808893 C15.3353925,48.7163422 17.8649009,51.1270944 10.1853291,52.2236106 C2.50575721,53.3201268 1.25881642,55.4696152 0.16230023,59.0956399 C0.16230023,59.0956399 -0.696703427,62.2189297 1.54779,62.7889597 C3.13120688,63.184814 4.56024061,60.5959274 7.31142744,60.140695 C17.0058973,58.5335269 23.1455962,68.1765357 28.2917011,59.0956399 C29.6692738,56.7878098 32.9786151,55.2202271 34.1305508,54.7412435 L34.5264051,54.5749847 C40.2227473,52.0613104 47.6727237,45.2447007 46.9364349,26.6712207 Z" id="Shape" fill="#B2AFCD"></path>
                                    <path d="M46.9364349,26.6712207 C46.9364349,26.6712207 42.3009819,23.9873291 40.1079496,26.6712207 C37.9149172,29.3551123 35.40916,29.4422003 34.3126438,29.5609565 C33.2161276,29.6797128 31.6485449,30.922695 30.7064118,33.7411771 C29.7642788,36.5596591 27.575205,35.4631429 26.3203471,36.872384 C25.0654892,38.281625 27.1120555,39.6948246 26.3203471,42.0422401 C25.5286386,44.3896556 22.8962081,39.4454364 19.1158003,44.0808893 C15.3353925,48.7163422 17.8649009,51.1270944 10.1853291,52.2236106 C2.50575721,53.3201268 1.25881642,55.4696152 0.16230023,59.0956399 C0.16230023,59.0956399 -0.696703427,62.2189297 1.54779,62.7889597 C3.13120688,63.184814 4.56024061,60.5959274 7.31142744,60.140695 C17.0058973,58.5335269 23.1455962,68.1765357 28.2917011,59.0956399 C29.6692738,56.7878098 32.9786151,55.2202271 34.1305508,54.7412435 L34.5264051,54.5749847 C40.2227473,52.0613104 47.6727237,45.2447007 46.9364349,26.6712207 Z" id="Shape" fill="#D4D3E3"></path>
                                </g>
                            </g>
                        </g>
                    </g>
                </g>
            </g>
        </g>
    </g>
</svg>