<?xml version="1.0" encoding="UTF-8"?>
<svg width="477px" height="294px" viewBox="0 0 477 294" version="1.1" xmlns="http://www.w3.org/2000/svg" xmlns:xlink="http://www.w3.org/1999/xlink">
    <!-- Generator: sketchtool 52.4 (67378) - http://www.bohemiancoding.com/sketch -->
    <title>FED4612B-A147-4A2D-8C38-4A6CA2FF5DDA</title>
    <desc>Created with sketchtool.</desc>
    <defs>
        <path d="M343.064777,266 L267.331622,266 C158.41792,266 97.2968091,266 45.5813192,266 C-5.19099037,266 -6.90194282,159.003021 9.11766128,91.9453058 C25.1372654,24.887591 45.4437812,0.719472033 93.6322115,0.719472033 C159.772506,0.719472033 171.875331,91.9453058 316.360807,91.9453058 C393.753574,98.2723625 408.624777,122.908405 408.139077,218.601545 C402.898275,218.366341 397.940274,218.146445 397.922174,225.657826 C397.896609,236.267391 396.166696,237.767217 388.39487,237.451913 C380.623043,237.136609 369.826,236.966174 364.644783,250.004435 C359.463565,263.042696 353.847739,259.156783 348.236174,259.591391 C344.972488,259.84416 343.021804,262.708518 343.064777,266 Z" id="path-1"></path>
        <filter x="0.0%" y="-0.0%" width="100.0%" height="100.0%" filterUnits="objectBoundingBox" id="filter-3">
            <feGaussianBlur stdDeviation="0" in="SourceGraphic"></feGaussianBlur>
        </filter>
        <filter x="-7.0%" y="-42.9%" width="114.0%" height="185.7%" filterUnits="objectBoundingBox" id="filter-4">
            <feGaussianBlur stdDeviation="2" in="SourceGraphic"></feGaussianBlur>
        </filter>
        <filter x="-11.5%" y="-4.1%" width="123.1%" height="108.1%" filterUnits="objectBoundingBox" id="filter-5">
            <feGaussianBlur stdDeviation="2" in="SourceGraphic"></feGaussianBlur>
        </filter>
        <filter x="-14.3%" y="-4.6%" width="128.6%" height="109.2%" filterUnits="objectBoundingBox" id="filter-6">
            <feGaussianBlur stdDeviation="2" in="SourceGraphic"></feGaussianBlur>
        </filter>
        <linearGradient x1="-122.859026%" y1="117.258345%" x2="150.952371%" y2="-30.9073625%" id="linearGradient-7">
            <stop stop-color="#937BF3" offset="0%"></stop>
            <stop stop-color="#4E3D93" offset="86.5652095%"></stop>
            <stop stop-color="#322662" offset="100%"></stop>
        </linearGradient>
        <filter x="-73.1%" y="-53.6%" width="246.2%" height="207.1%" filterUnits="objectBoundingBox" id="filter-8">
            <feGaussianBlur stdDeviation="1" in="SourceGraphic"></feGaussianBlur>
        </filter>
        <filter x="-71.0%" y="-71.4%" width="241.9%" height="242.9%" filterUnits="objectBoundingBox" id="filter-9">
            <feGaussianBlur stdDeviation="1" in="SourceGraphic"></feGaussianBlur>
        </filter>
        <filter x="-106.5%" y="-107.1%" width="312.9%" height="314.3%" filterUnits="objectBoundingBox" id="filter-10">
            <feGaussianBlur stdDeviation="1" in="SourceGraphic"></feGaussianBlur>
        </filter>
        <filter x="-212.9%" y="-214.3%" width="525.8%" height="528.6%" filterUnits="objectBoundingBox" id="filter-11">
            <feGaussianBlur stdDeviation="3" in="SourceGraphic"></feGaussianBlur>
        </filter>
        <path d="M3.172,0.638 C0.617,1.975 -0.371,5.13 0.966,7.686 C2.303,10.241 5.458,11.229 8.014,9.892 C10.57,8.556 11.557,5.4 10.22,2.844 C9.288,1.062 7.471,0.042 5.589,0.042 C4.773,0.042 3.946,0.234 3.172,0.638" id="path-12"></path>
        <path d="M15,37 C39,38.3333333 51,39 51,39 C51,39 55,31 63,15 L46,0 L0,0 L15,37 Z" id="path-14"></path>
    </defs>
    <g id="Marketing" stroke="none" stroke-width="1" fill="none" fill-rule="evenodd">
        <g id="1a-Home" transform="translate(-666.000000, -1055.000000)">
            <g id="Section-1" transform="translate(0.000000, 708.000000)">
                <g id="1" transform="translate(323.000000, 346.000000)">
                    <g id="illu1-Home" transform="translate(343.000000, 0.000000)">
                        <g id="Background" transform="translate(28.000000, 1.000000)">
                            <mask id="mask-2" fill="white">
                                <use xlink:href="#path-1"></use>
                            </mask>
                            <use id="Mask" fill="#F0EFF8" fill-rule="nonzero" xlink:href="#path-1"></use>
                            <path d="M428.732087,196.428696 C428.732087,193.846609 423.572174,195.150435 423.572174,192.406435 C423.572174,189.662435 425.51513,184.472696 422.016957,179.83687 C418.518783,175.201043 420.02287,171.592087 421.633478,167.906435 C423.244087,164.220783 419.379478,160.961217 417.121217,158.702957 C414.862957,156.444696 414.215304,149.993739 414.368696,144.02 C414.522087,138.046261 411.249739,139.034783 411.249739,139.034783 C407.964609,144.198957 411.637478,147.411652 410.214348,155.652174 C408.791217,163.892696 413.571913,165.452174 409.703043,170.952957 C405.834174,176.453739 411.957043,174.502261 409.703043,179.845391 C407.449043,185.188522 398.735565,178.694957 403.252087,190.953478 C406.234696,199.04913 401.726696,200.250696 398.718522,198.917043 C348.930261,179.129565 323.586609,179.913565 323.586609,179.913565 C279.230957,178.784435 178.756,192.525739 145.508435,196.283826 C147.093478,192.981652 147.110522,189.432348 145.695913,187.404174 C141.86113,181.920435 141.141043,178.375391 145.014174,174.502261 C148.887304,170.62913 135.013913,158.690174 136.624522,155.652174 C138.23513,152.614174 137.272174,150.965217 133.906087,147.087826 C130.54,143.210435 132.755652,141.923652 130.275826,137.087565 C127.796,132.251478 118.886522,128.054522 124.101826,137.087565 C129.31713,146.120609 126.304696,147.407391 124.101826,157.731478 C121.898957,168.055565 133.070957,166.440696 123.100522,179.845391 C122.255278,180.970033 121.500177,182.159674 120.842261,183.403217 C118.758696,180.241652 116.658087,177.663826 117.859652,175.62287 C120.088087,171.907391 117.889478,165.473478 114.527652,162.248 C111.165826,159.022522 113.696783,153.214957 112.303478,151.280522 C110.910174,149.346087 108.213043,153.837043 108.596522,161.600348 C108.98,169.363652 104.335652,170.309565 106.598174,176.436696 C108.860696,182.563826 106.598174,186.11313 104.016087,191.277304 C102.46513,194.374957 103.709304,197.050783 104.953478,198.691217 C76.7337391,198.963913 17.3851304,196.339217 17.3851304,196.339217 L3.36686957,272.983739 L398.411739,272.983739 C398.411739,272.983739 411.036696,262.246348 416.422435,247.418522 C416.874087,246.174348 417.274609,244.900348 417.611217,243.583739 C420.504348,234.154435 427.543304,210.302087 425.498087,207.72 C422.96713,204.486 428.732087,199.006522 428.732087,196.428696 Z" id="Shape" fill="#E6E5F2" fill-rule="nonzero" filter="url(#filter-3)" mask="url(#mask-2)"></path>
                        </g>
                        <g id="Arbre-Copy-3" transform="translate(387.000000, 111.000000)" fill-rule="nonzero">
                            <path d="M68.6274482,142.219518 C53.496178,141.914051 44.6160948,141.986095 40.032083,142.086957 L31.915042,142.121538 C26.3635503,142.029321 17.2559942,142.101366 18.9577222,143.620059 C21.3850601,145.781388 5.46771255,147.668948 1.15148534,148.478726 C-3.16474186,149.288504 4.92638452,149.683307 20.8437321,149.683307 C36.7610796,149.683307 10.5930524,156.077958 26.5103999,155.876234 C42.4277475,155.67451 80.4675591,157.66005 71.5644407,150.910941 C62.6613223,144.161832 78.5786698,146.184836 82.0857844,146.38656 C85.5928989,146.588284 93.1801296,142.718065 68.6274482,142.219518 Z" id="Shape" fill="#E6E5F2" filter="url(#filter-4)"></path>
                            <path d="M61.4499619,84.2381176 C56.1661099,72.5983529 58.8080359,65.9557647 65.1469702,51.5823529 C71.4859044,37.2089412 52.485983,32.6818824 46.0204388,21.2423529 C39.5548947,9.80282353 46.0204388,0 37.1577478,0 C28.2950568,0 31.9076585,16.3409412 23.5514069,30.2790588 C15.1951554,44.2171765 32.9289781,58.2858824 27.1218053,69.1856471 C21.3146325,80.0854118 31.3421344,82.8016471 22.9014762,100.779294 C14.4608181,118.756941 27.1218053,126.896941 27.1218053,126.896941 C30.5454325,130.192742 35.0171546,132.087163 39.6983859,132.224941 L39.6983859,148 L50.0466328,148 L50.0466328,130.98 C58.1581052,128.594588 65.6787316,123.423294 69.3757399,118.252 C76.7697564,107.857176 66.7338139,95.8778824 61.4499619,84.2381176 Z" id="Shape" fill="#D4D3E3" filter="url(#filter-5)"></path>
                            <path d="M70.3450818,118.216964 C77.8254793,107.863401 67.6722914,95.881481 62.3267105,84.2565807 C56.9811297,72.6316804 59.6539201,65.9702207 66.0669093,51.5936586 C72.4798985,37.2170965 53.2580094,32.6890455 46.7169312,21.2470088 C40.1758531,9.80497208 46.7169312,0 37.7507013,0 C34.6082513,0 33.0199477,2.00279181 31.909843,5.22467429 C30.6801886,11.7642249 30.1080578,20.158535 34.1300523,23.7896836 C41.1749472,30.1463706 48.7663552,30.9736107 48.2283814,37.6089471 C47.6904076,44.2442834 36.5722826,43.7044004 41.4482038,56.1304174 C46.324125,68.5564345 47.1438946,69.1224408 41.7214603,80.7299256 C36.299026,92.3374103 28.7076181,100.914584 37.1102564,114.455198 C40.8904326,120.622091 45.5303004,126.195389 50.8840933,131 C59.0561714,128.526988 66.5963438,123.371976 70.3450818,118.216964 Z" id="Shape" fill="#9B99BE" filter="url(#filter-6)"></path>
                        </g>
                        <g id="Mouton" transform="translate(152.000000, 107.000000)">
                            <path d="M135.096291,158.075965 C132.171655,157.398762 130.13237,154.73931 130.228061,151.727257 C130.516758,142.360497 128.218501,135.289957 123.395557,130.697516 C115.527139,123.246167 102.988616,124.144194 102.858419,124.155562 C99.3975653,124.469465 96.338549,121.906966 96.0259154,118.432062 C95.7132818,114.957157 98.2654188,111.885722 101.726273,111.571819 C102.462168,111.503615 119.948171,110.077003 132.011192,121.512635 C139.56827,128.674114 143.191138,138.961636 142.766583,152.096699 C142.71283,153.98315 141.821547,155.74658 140.336883,156.903928 C138.85222,158.061276 136.92982,158.491213 135.096291,158.075965 Z" id="Shape" fill="#FFFFFF" fill-rule="nonzero"></path>
                            <path d="M124.203188,123.132118 C124.728186,122.159566 125.22108,121.177627 125.681869,120.186301 C126.814958,120.14124 128.656228,119.555457 129.879964,116.485724 C131.483285,112.480989 129.523041,110.053366 130.684457,107.304688 C130.950733,106.820289 131.251002,106.347156 131.528609,105.902186 C131.545661,105.881006 131.560826,105.85839 131.573932,105.834595 C133.505982,102.976413 136.013949,100.548227 138.939011,98.7038028 C140.627039,97.8808151 142.013758,96.5533586 142.904823,94.9074725 C144.462326,92.0406335 144.352008,88.5632211 142.615885,85.7996594 L142.570562,85.6982737 L142.394933,85.4335444 C140.727228,82.6287983 139.857744,79.4261115 139.879475,76.1680202 C139.879475,75.9652489 139.879475,75.756845 139.879475,75.5484411 L139.879475,75.4921157 C139.755063,73.0565367 138.535702,70.8056569 136.558666,69.362068 C134.581631,67.9184791 132.056482,67.4351985 129.681674,68.0459011 C129.681674,68.0459011 124.543115,69.7074997 120.741601,64.418547 C109.666371,48.7922783 91.3169508,39.8890242 72.1122778,40.8232931 C52.9076047,41.7575621 35.5201545,52.3993435 26.0323506,69.0259627 C24.4731639,71.3164321 22.2898293,73.1178198 19.7380408,74.2191622 C19.4445948,74.3306332 19.1753524,74.4969762 18.9448785,74.709193 C17.2677072,75.8477844 16.1188769,77.606572 15.7548321,79.5929551 C15.3907874,81.5793381 15.8418368,83.6279396 17.0072962,85.2814659 C17.0072962,85.2814659 19.2734743,88.1765902 18.8202387,93.1670184 C18.8079308,93.3545703 18.8079308,93.5427203 18.8202387,93.7302722 C18.7484764,95.1083663 18.7295915,96.488338 18.7635842,97.8701872 L18.7635842,97.8420245 C18.7635842,97.8420245 19.0978455,102.635314 11.9650498,106.544295 C11.9125089,106.568385 11.8630567,106.598641 11.8177482,106.634416 C8.23919493,108.829505 6.48567433,113.063068 7.47180311,117.126925 C8.4579319,121.190783 11.9601799,124.163763 16.1518139,124.495192 C16.2574571,124.50203 16.3634357,124.50203 16.4690788,124.495192 C17.3985936,124.531598 18.313956,124.733831 19.1714963,125.092241 C19.4944267,125.255585 19.8003607,125.430193 20.0779675,125.604802 L20.9844388,126.230014 L21.2903728,126.472213 C21.5724332,126.698779 21.8738455,126.900438 22.1911787,127.074894 L22.3044876,127.119954 C24.1967463,128.392908 25.9586998,129.502518 27.4770392,130.431887 C27.4770392,130.431887 36.3717884,135.872918 35.4596517,142.496782 C35.4596517,142.530577 35.4596517,142.553107 35.4596517,142.58127 C35.4596517,142.609433 35.4596517,142.738981 35.4596517,142.817836 C35.4596517,142.896692 35.4596517,143.054403 35.4596517,143.155789 C35.2379738,148.189218 39.1353689,152.460999 44.1957684,152.731102 L44.3147428,152.731102 L44.6433386,152.731102 C45.7764277,152.804325 48.4675143,153.294356 47.8556462,156.223276 C46.6715681,160.166052 44.3374046,164.187684 40.8078321,168.271273 C38.8461445,170.535319 38.7701824,173.862958 40.6265379,176.213151 C40.8815263,176.533559 41.1660319,176.829612 41.4763547,177.09746 C44.1133582,179.348568 48.085931,179.051159 50.3541076,176.43282 C54.9374529,171.132603 58.0704441,165.730999 59.8040704,160.2956 C60.8918359,159.090237 63.5602607,156.820325 69.1463898,155.3446 C77.0440207,153.260561 87.0322008,151.897487 93.6721028,149.069953 L93.751419,149.024893 C98.7752967,147.242379 103.519263,144.759958 107.841382,141.651901 C107.841382,141.651901 111.688219,138.458252 118.163823,139.398886 L118.197816,139.398886 C122.37948,140.000801 126.415548,137.615561 127.881752,133.675864 C129.347957,129.736167 127.845502,125.313578 124.276839,123.064527 L124.203188,123.132118 Z" id="Shape" fill="#FFFFFF" fill-rule="nonzero"></path>
                            <path d="M129.399706,78.7206105 C129.399706,78.7206105 130.665055,81.5035596 126.834961,85.2387193 C123.004868,88.9738791 122.9538,91.6774772 123.748189,95.9510894 C124.542579,100.224702 123.368017,109.990529 113.965846,114.026088 C104.563676,118.061648 100.081048,110.058544 93.9699203,119.864047 C87.858793,129.66955 80.0170308,123.831591 78.2183053,122.357932 C76.4195798,120.884273 69.0033836,121.728793 69.6786149,130.990175 C70.3538463,140.251558 62.3021382,145.919478 59.3231764,146.100852 C56.3442147,146.282225 60.458019,155.316891 48.0598639,172.615385 C46.3519146,170.100409 43.3191321,168.829075 40.3259117,169.373334 C40.3259117,169.373334 40.6720387,168.880225 41.1543468,168.307765 C41.6366549,167.735305 43.3389187,165.609835 44.1049375,164.408235 C45.1507418,162.828569 46.0690784,161.168299 46.8512565,159.443137 C47.4697457,157.90713 48.037167,156.535494 48.0144702,155.906354 C48.0985009,155.064768 47.734524,154.240812 47.0555282,153.735541 C46.0625409,152.908024 44.6553361,153.095066 43.6510005,152.91936 C41.1924816,152.640362 38.9544745,151.371108 37.45476,149.405249 C35.961097,147.490655 35.2822887,145.065537 35.5652471,142.654756 C35.7347292,141.049905 35.4434553,139.430016 34.7254636,137.984389 C33.3867497,135.513074 31.5191243,133.366912 29.2555224,131.698665 C29.2555224,131.698665 27.7121365,130.565081 25.5729582,129.261459 C23.43378,127.957838 22.4975348,127.226676 22.3897248,127.175664 C21.8684228,126.980792 21.401451,126.663992 21.0279137,126.251793 C20.0487665,125.431134 18.8775208,124.87151 17.623386,124.6251 C16.7098377,124.511742 14.7862795,124.51741 12.959183,123.650218 C11.101286,122.839224 9.55782606,121.446677 8.561668,119.682673 C6.91832657,116.952871 6.75217992,113.582557 8.11907939,110.704687 C9.73055585,107.20758 11.9605215,106.578441 13.2769389,105.643234 C14.5933563,104.708027 16.7552314,103.211696 18.1000198,100.542105 C18.5333923,99.6575229 18.7769145,98.6922364 18.8149707,97.7081448 C18.8149707,96.3081684 18.7865996,95.406969 18.8433417,94.1826982 C18.9000839,92.9584273 19.115704,90.7819458 18.7412059,89.2459393 C18.47239,87.7449991 17.9093162,86.3119088 17.0843357,85.0290063 C15.5806324,82.9341211 15.2673284,80.211828 16.2559007,77.830747 C16.7665629,76.5057896 17.6566264,75.3604382 18.8149707,74.5376851 L19.0249165,74.3903191 C19.0249165,74.3903191 19.0703103,74.2882966 19.3767177,74.1239269 C19.6831252,73.9595572 21.0052168,73.3360859 21.5499413,72.9903427 C22.632298,72.3288134 23.6306345,71.5390229 24.5232288,70.6381556 C25.4947078,69.5750519 26.3400864,68.4034849 27.0425794,67.1467165 C27.3773579,66.5912603 129.399706,78.7206105 129.399706,78.7206105 Z" id="Shape" fill="#FFFFFF" fill-rule="nonzero"></path>
                            <path d="M7.74084903,29.3926012 C11.2739671,28.7528256 14.6535778,31.117892 15.2925675,34.6773269 C16.7500154,42.8482387 19.5636214,48.4164797 23.6208413,51.3140064 C24.6562483,51.8300043 29.9233187,54.2285439 31.4426659,50.3727355 C31.4426659,50.3727355 31.4426659,50.3727355 31.4426659,50.3387136 C31.7971803,49.2953772 32.1967124,48.2633814 32.6243805,47.2483966 C32.663771,47.1406607 32.7031614,47.0329249 32.7594336,46.9081782 C35.319815,40.9260047 32.6412621,36.4464626 32.6412621,36.4464626 C31.8032387,35.1273354 31.3669917,33.5897636 31.3863938,32.0236234 C31.2132998,30.4122812 30.5008009,28.9083745 29.3662247,27.7595529 L29.321207,27.7085201 C27.7781727,25.9313236 27.9570493,23.2301652 29.7207391,21.675314 C31.4844288,20.1204627 34.1650583,20.3007092 35.7080926,22.0779057 C35.7242995,22.0852657 35.739443,22.0948029 35.7531103,22.1062573 C37.0713608,23.1492782 38.6328713,23.8344986 40.2886432,24.0965349 L40.3561697,24.0965349 L40.4236963,24.0965349 C42.1177258,24.32302 43.6953083,25.0900329 44.9254659,26.2852732 L44.9761108,26.2852732 C46.8274635,27.6404765 49.2471647,26.2852732 49.8267675,24.8847075 C50.2825717,23.7506462 49.866158,22.4975084 49.3822178,21.5619078 C49.0431443,21.1448546 48.7524005,20.6901798 48.5156271,20.2067046 C47.4859955,18.1147888 47.544929,15.6460779 48.6731891,13.6064677 C48.7299724,13.4348643 48.817729,13.2753083 48.9320408,13.1358323 L48.9320408,13.1074807 C50.0871669,11.6526009 50.6683157,9.81906913 50.5639323,7.95884238 C50.5581195,7.87956613 50.5581195,7.79996575 50.5639323,7.7206895 C50.5757889,6.76622296 50.9638672,5.85569293 51.6426125,5.18983209 C52.3213579,4.52397124 53.2350394,4.15745255 54.1822296,4.17107759 C54.6640898,4.17945784 55.1390992,4.28753945 55.5777782,4.48861476 C55.5777782,4.48861476 55.6171687,4.48861476 55.6453047,4.48861476 L55.7015769,4.51696629 C57.4628942,5.44689657 58.093142,4.51696629 58.9259693,4.13138545 C59.7587967,3.7458046 60.7266772,4.15973698 62.5555211,4.18241821 C64.384365,4.20509943 67.6200119,3.04835689 67.6200119,3.04835689 L67.5918758,3.04835689 C73.7129982,0.473733925 80.5741197,0.327884548 86.7975503,2.64009482 L86.9157218,2.64009482 C88.033512,3.04341849 89.2116758,3.25055281 90.398966,3.25248793 C90.9522512,3.12239954 91.5190115,3.05957847 92.0871296,3.06536781 C93.3912566,2.84192555 94.6161625,2.28337185 95.6435276,1.44366014 C97.8191339,-0.205011468 100.736121,-0.462671202 103.163206,0.779441132 C105.590291,2.02155347 107.104537,4.54699081 107.066768,7.2897462 C107.053052,8.04749234 106.918142,8.79804981 106.667236,9.51250638 L106.667236,9.48415484 C106.667236,9.48415484 106.622218,9.59756098 106.560319,9.76767017 L106.509674,9.90942784 C106.509674,9.90942784 106.329603,24.3233471 119.969965,28.2925617 C123.922591,29.3001445 126.93199,32.5333235 127.676862,36.5725459 C128.421734,40.6117683 126.765885,44.7184922 123.436328,47.089628 C123.436328,47.089628 119.058357,50.2026263 119.767385,54.8692886 L119.767385,54.8182558 C119.767385,54.8182558 119.767385,54.857948 119.767385,54.8806292 C119.767385,54.8806292 125.585923,62.1669731 126.171153,66.4197031 L126.143017,66.4197031 C126.276147,67.0593568 126.344027,67.7110505 126.345596,68.3646182 C126.345596,68.5971008 126.345596,68.823913 126.306206,69.0563956 C126.306206,69.0563956 126.306206,71.4889571 127.431648,73.1220054 C127.445032,73.1415522 127.456348,73.1624573 127.465411,73.1843788 C128.087421,74.0812274 128.41417,75.1522859 128.399529,76.2463443 C128.359396,79.162895 125.98186,81.4951922 123.08744,81.4573561 C123.08744,81.4573561 118.54628,81.4573561 116.396685,85.3868785 C116.346041,85.488944 116.295396,85.5683283 116.250378,85.6477126 C110.583033,97.3832639 100.250552,106.152996 87.8104485,109.786208 C86.7412782,110.098075 85.6721079,110.353238 84.5973105,110.591391 C84.5973105,110.591391 74.552737,112.859514 68.9649155,116.86275 C61.9534094,121.897982 45.1786904,121.455699 42.5732913,108.998035 C42.5732913,108.998035 42.5732913,108.958343 42.5732913,108.90164 C42.5732913,108.844937 42.5339008,108.669157 42.5113919,108.550081 C42.2975579,107.347976 41.6560557,104.110231 40.9864175,103.616914 C40.1535901,103.015862 36.3102043,102.290062 35.3592055,98.5590007 C34.4082067,94.827939 36.1920329,92.5087836 34.9709279,89.8664207 C33.5886944,86.7976496 32.4374956,83.6284585 31.5270741,80.3856681 C31.285104,79.6712095 31.0543883,78.9510806 30.8405543,78.219611 C30.4072589,76.7056392 30.0696262,75.1916673 29.7938928,73.6833658 L29.7938928,73.7627501 C29.7938928,73.7627501 27.9988122,67.3156115 24.065391,65.864013 L24.0147461,65.864013 C21.7713891,65.2420452 19.624019,64.3108796 17.6334877,63.0969034 C9.84542631,58.3395162 4.75842667,49.5788926 2.51316908,37.0588557 C2.19136554,35.3430005 2.56230907,33.5686835 3.54371962,32.1294709 C4.52513018,30.6902582 6.03587411,29.7051303 7.74084903,29.3926012 Z" id="Shape" fill="#FFFFFF" fill-rule="nonzero"></path>
                            <path d="M97.9526315,20.3782051 C96.4212643,17.7786575 94.0365744,15.7834677 91.2,14.7285056 L96.1406754,5.39446278 C96.1406754,5.39446278 99.1399692,-1.20151947 104.305732,2.14686541 C110.495645,6.16156768 107.271263,10.3274512 106.224605,11.8336645 C105.177947,13.3398777 97.9526315,20.3782051 97.9526315,20.3782051 Z" id="Shape" fill="#7965BE" fill-rule="nonzero"></path>
                            <path d="M59.3258744,25.1730769 C59.8567425,22.2740596 61.3658024,19.6461588 63.6,17.730047 L56.0380854,10.7429369 C56.0380854,10.7429369 51.106402,5.65091568 47.4788749,10.4518073 C43.1389935,16.2084829 47.4788749,18.9879465 48.9364613,20.0316186 C50.3940477,21.0752907 59.3258744,25.1730769 59.3258744,25.1730769 Z" id="Shape" fill="#7965BE" fill-rule="nonzero"></path>
                            <path d="M104.606014,5.33572776 C105.817453,6.27000787 105.939709,8.1330398 104.872753,9.49299783 L101.143963,14.2694358 C100.585349,15.1710996 99.5579383,15.6759283 98.4986794,15.5692234 C97.4394204,15.4625185 96.5345924,14.7630449 96.1690093,13.7682816 C95.8034263,12.7735183 96.041379,11.6584027 96.7816688,10.8971821 L100.516015,6.12074418 C101.555186,4.72208817 103.400131,4.37933452 104.606014,5.33572776 Z" id="Shape" fill="#292758" fill-rule="nonzero"></path>
                            <path d="M59.5133101,20.5227698 C58.6117886,21.7672635 56.7647689,21.9361993 55.3904983,20.8887974 L50.5530658,17.2285218 C49.6483163,16.6823091 49.126482,15.6557081 49.2084078,14.5831855 C49.2903337,13.5106628 49.9616981,12.5797071 50.9383737,12.1843071 C51.9150494,11.788907 53.0263028,11.9981828 53.8018415,12.7235671 L58.639274,16.3838428 C60.0300359,17.4143511 60.4148316,19.2726449 59.5133101,20.5227698 Z" id="Shape" fill="#292758" fill-rule="nonzero"></path>
                            <path d="M108.014062,52.7435897 C108.014062,52.7435897 109.413945,62.3043082 104.951119,69.5403505 C104.951119,69.5403505 102.537722,72.3667553 100.521891,75.1151134 C98.5060604,77.8634716 72.7426227,76.631449 72.7426227,76.631449 C72.7426227,76.631449 57.1255334,77.9582425 51.0276452,64.4115686 C49.9898724,64.5415779 48.9445716,64.2356827 48.1425277,63.5672725 C47.3404839,62.8988623 46.8540755,61.9282561 46.8,60.8883184 C46.8,60.8883184 47.085576,72.327732 56.7895616,82.4459267 C65.9615918,92.0066452 81.5282853,92.4805 91.2154723,89.4366795 C108.221245,84.1183556 112.258506,67.483263 109.693921,56.0271251 L108.014062,52.7435897 Z" id="Shape" fill="#E3667A" fill-rule="nonzero"></path>
                            <ellipse id="Oval" fill="#FFFFFF" fill-rule="nonzero" cx="68.4" cy="82.7115385" rx="4.8" ry="4.79487179"></ellipse>
                            <path d="M141.513415,35.9972233 C143.741552,35.7656885 145.93591,36.6715673 147.340904,38.402938 C148.745899,40.1343087 149.169619,42.4546808 148.466165,44.5650793 C137.28701,77.9536861 111.500805,77.9536861 110.4,77.9140725 L110.622442,64.8415841 L110.536888,64.8415841 C111.238437,64.8415841 127.938726,64.4114936 135.958059,40.4396057 C136.777506,38.0101067 138.946592,36.275581 141.513415,35.9972233 Z" id="Path" fill="#FFFFFF"></path>
                            <ellipse id="Oval" fill="#FFFFFF" fill-rule="nonzero" cx="69" cy="83.3108974" rx="4.2" ry="4.19551282"></ellipse>
                            <path d="M1.43465156,87.2313214 C1.44354743,87.1209386 1.47059975,87.012929 1.51464632,86.911933 C1.96174391,85.8202285 2.07343658,84.6130986 1.83462537,83.4537268 C1.83462537,83.4537268 1.83462537,83.4206866 1.83462537,83.4096732 C1.83462537,83.3986598 1.83462537,83.3325795 1.83462537,83.3325795 C1.7939225,83.1519795 1.77246307,82.9673259 1.77062956,82.7819097 C1.77583999,81.4869554 2.74579903,80.4145012 3.99661933,80.3207004 C5.24743963,80.2268997 6.35729013,81.1433862 6.54365046,82.4239743 C6.80425722,83.160687 7.3430599,83.7567798 8.03688605,84.0759836 L8.28220333,84.197131 L8.37286406,84.2356779 C10.401006,85.4269542 11.3056178,87.951734 10.5167084,90.2191667 C9.72779894,92.4865994 7.47395419,93.8396979 5.17531003,93.4258818 C2.87666586,93.0120657 1.19925285,90.951238 1.20000025,88.5419155 C1.21756341,88.0957633 1.29657381,87.6544678 1.43465156,87.2313214 Z" id="Shape" fill="#FFFFFF" fill-rule="nonzero"></path>
                            <path d="M61.2,67.7122972 C62.0219815,76.828729 69.6752858,83.8366941 78.8889455,83.9096816 C88.1026052,83.9826691 95.867444,77.0968415 96.8356788,67.9945911 L97.1994242,33.5095681 C97.2778972,23.6874512 89.3260248,15.6618587 79.43842,15.5839054 C69.5508152,15.5059521 61.4717128,23.4051573 61.3932397,33.2272742 L61.2,67.7122972 Z" id="Shape" fill="url(#linearGradient-7)" fill-rule="nonzero"></path>
                            <path d="M91.2,73.2563563 C91.2,73.2563563 85.5526164,76.1213931 82.8365727,77.0857499 C79.0978436,76.1529193 75.4657774,74.8243307 72,73.1217949 C75.2103567,75.4887702 78.6620646,77.4981896 82.2955722,79.1153846 C85.4584288,77.4860254 88.4431077,75.5221353 91.2,73.2563563 Z" id="Shape" fill="#252822" fill-rule="nonzero" opacity="0.5" style="mix-blend-mode: multiply;"></path>
                            <path d="M133.953883,37.4644667 C134.429655,41.5264147 138.093665,44.5357232 142.329978,44.3438829 C146.566291,44.1520425 149.921439,40.8248732 150,36.7378224 L150,36.6595683 C150,36.6036726 150,36.5421873 150,36.4862916 C149.909837,34.1892341 149.665766,31.9001931 149.269313,29.6334767 C149.269313,29.6334767 148.196479,28.4428979 141.73048,28.8565262 C135.409458,29.2589754 133.2,30.790518 133.2,30.790518 C133.2,30.790518 133.808906,36.5589561 133.953883,37.4644667 Z" id="Shape" fill="#1C2D4F" fill-rule="nonzero"></path>
                            <path d="M34.1309895,172.127218 C36.6353517,168.779642 41.228448,168.025741 44.6130615,170.406712 C47.997675,172.787683 49.0037864,177.480454 46.9091449,181.116255 L46.8644855,181.18549 C46.8365734,181.237417 46.8030789,181.283573 46.7695844,181.3355 C45.5005007,183.31015 44.1055282,185.195215 42.5939356,186.978169 C42.5939356,186.978169 41.092265,187.474355 35.9899348,183.735654 C31.0104177,180.089266 30,177.591029 30,177.591029 C30,177.591029 33.5225059,172.842648 34.1309895,172.127218 Z" id="Shape" fill="#1C2D4F" fill-rule="nonzero"></path>
                            <path d="M15.5782022,31.2762572 C15.8801649,35.3403071 13.011674,38.9396023 9.03448296,39.487117 C5.05729191,40.0346318 1.34863177,37.3407714 0.574135215,33.3417722 L0.574135215,33.2640377 C0.574135215,33.2085132 0.574135215,33.1529886 0.546795443,33.097464 C0.214890983,30.8395946 0.0322173792,28.5616944 0,26.2790434 C0,26.2790434 0.781917484,24.9297957 6.86775077,24.2079759 C12.8004813,23.5028136 15.118894,24.618858 15.118894,24.618858 C15.118894,24.618858 15.5672663,30.3601013 15.5782022,31.2762572 Z" id="Shape" fill="#1C2D4F" fill-rule="nonzero"></path>
                            <path d="M124.773918,8.83633024 C124.852918,8.81598434 124.933627,8.80256152 125.015082,8.79622217 L125.285656,8.76757355 L125.362123,8.76757355 C127.56789,8.55557375 127.714941,7.77060153 127.714941,7.77060153 C127.93607,6.65932813 128.98864,5.8942253 130.145206,6.00406657 C131.301771,6.11390784 132.182806,7.06264886 132.179413,8.19460112 C132.185503,8.28235675 132.185503,8.37041282 132.179413,8.45816844 C132.18298,10.2434546 132.432246,12.0202166 132.920551,13.7409742 C132.918627,13.7676801 132.918627,13.7944845 132.920551,13.8211903 L132.955843,13.952974 C133.722939,16.7510388 132.645486,19.720635 130.243786,21.4277471 C127.842085,23.1348592 124.610166,23.2283345 122.10872,21.6630339 C119.607274,20.0977333 118.350847,17.1956389 118.946168,14.3581695 C119.541488,11.5207002 121.866099,9.33152296 124.797446,8.84778969 L124.773918,8.83633024 Z" id="Shape" fill="#FFFFFF" fill-rule="nonzero"></path>
                            <path d="M64.8,75.5192308 C63.1118352,73.1792383 62.0590722,70.4798607 61.7352538,67.6609503 C61.7352538,67.6609503 61.6879218,66.9873834 61.6938383,65.5953452 L61.8713333,34.7628205 L53.1385816,51.8882588 C53.1385816,51.8882588 51.4701291,55.5648115 55.54068,57.0129803 C59.6112309,58.4611491 51.6121251,72.3983708 64.8,75.5192308 Z" id="Shape" fill="#292758" fill-rule="nonzero"></path>
                            <path d="M127.983121,156.131868 C128.443416,152.386949 131.867842,149.634099 135.795242,149.85181 C139.722641,150.069521 142.793162,153.182412 142.8,156.953226 L142.8,157.023939 C142.8,157.078334 142.8,157.132728 142.8,157.187123 C142.694838,159.296636 142.444604,161.397201 142.050928,163.475135 C142.050928,163.475135 141.052164,164.563027 135.059585,164.116991 C129.220226,163.687274 127.2,162.262136 127.2,162.262136 C127.2,162.262136 127.824227,156.964105 127.983121,156.131868 Z" id="Shape" fill="#1C2D4F" fill-rule="nonzero"></path>
                        </g>
                        <g id="Colors-dots" transform="translate(392.000000, 30.000000)">
                            <path d="M57.87303,27.1377163 C57.8768326,27.0908371 57.8883962,27.0449659 57.9072241,27.0020732 C58.0983377,26.5384305 58.1460812,26.0257671 58.0440004,25.5333864 C58.0440004,25.5333864 58.0440004,25.5193543 58.0440004,25.514677 C58.0440004,25.5099996 58.0440004,25.4819355 58.0440004,25.4819355 C58.0266018,25.4052354 58.0174289,25.3268138 58.0166451,25.2480682 C58.0188723,24.6981061 58.4334851,24.2426389 58.9681532,24.2028021 C59.5028212,24.1629653 59.9772312,24.5521936 60.0568916,25.0960544 C60.168289,25.4089335 60.3986023,25.6620918 60.6951811,25.7976564 L60.8000429,25.8491073 L60.8387962,25.865478 C61.7057334,26.3714084 62.0924133,27.4436728 61.7551909,28.4066427 C61.4179684,29.3696127 60.4545536,29.9442684 59.4719892,29.7685223 C58.4894247,29.5927762 57.7724079,28.7175506 57.7727274,27.6943205 C57.7802348,27.5048414 57.8140081,27.3174249 57.87303,27.1377163 Z" id="Shape-Copy-2" fill="#35C850" fill-rule="nonzero" filter="url(#filter-8)"></path>
                            <path d="M2.89703283,42.3696841 C2.93534351,42.359881 2.9744833,42.3534137 3.01398449,42.3503593 L3.14519855,42.3365558 L3.18228079,42.3365558 C4.25196062,42.2344105 4.32327261,41.8561966 4.32327261,41.8561966 C4.4305084,41.3207649 4.94094919,40.9521244 5.50182203,41.0050479 C6.06269488,41.0579714 6.48994971,41.5150921 6.48830459,42.0604873 C6.49125803,42.1027696 6.49125803,42.1451966 6.48830459,42.1874788 C6.49003432,43.0476622 6.61091523,43.9037384 6.84771702,44.7328307 C6.84678406,44.7456981 6.84678406,44.7586129 6.84771702,44.7714803 L6.8648319,44.834976 C7.23683265,46.1831345 6.71432525,47.61394 5.54962809,48.4364576 C4.38493093,49.2589753 2.817622,49.3040134 1.60455349,48.5498231 C0.39148499,47.7956328 -0.21781512,46.3973509 0.07088369,45.0302066 C0.3595825,43.6630623 1.48689494,42.6082769 2.90844275,42.3752054 L2.89703283,42.3696841 Z" id="Shape-Copy" fill="#937BF3" fill-rule="nonzero"></path>
                            <path d="M37.0903369,42.978094 C37.1269513,42.968725 37.1643581,42.962544 37.2021103,42.9596249 L37.3275146,42.9464326 L37.362955,42.9464326 C38.3852726,42.8488099 38.4534272,42.4873422 38.4534272,42.4873422 C38.5559149,41.9756178 39.0437549,41.6232996 39.579794,41.6738798 C40.1158331,41.7244601 40.5241704,42.1613408 40.5225981,42.6825876 C40.5254208,42.7229977 40.5254208,42.7635462 40.5225981,42.8039563 C40.5242512,43.6260533 40.6397799,44.4442251 40.8660968,45.2366077 C40.8652052,45.2489053 40.8652052,45.2612483 40.8660968,45.273546 L40.8824539,45.3342304 C41.2379836,46.6226965 40.7386112,47.9901502 39.6254833,48.7762493 C38.5123554,49.5623483 37.0144422,49.6053923 35.8550847,48.8845953 C34.6957272,48.1637982 34.113405,46.827428 34.3893211,45.5208167 C34.6652372,44.2142054 35.7426357,43.2061227 37.1012417,42.9833709 L37.0903369,42.978094 Z" id="Shape-Copy-3" fill="#E3667A" fill-rule="nonzero" transform="translate(37.658595, 45.532995) rotate(64.000000) translate(-37.658595, -45.532995) "></path>
                            <path d="M44.0948314,1.7971846 C44.1193518,1.79091025 44.144403,1.78677086 44.1696854,1.78481591 L44.253668,1.77598113 L44.2774022,1.77598113 C44.9620428,1.71060375 45.0076855,1.46853076 45.0076855,1.46853076 C45.076321,1.12583166 45.4030249,0.889886074 45.7620074,0.92375938 C46.1209899,0.957632686 46.3944511,1.25020938 46.3933982,1.59928551 C46.3952885,1.62634796 46.3952885,1.65350305 46.3933982,1.6805655 C46.3945053,2.23111945 46.4718742,2.77904468 46.6234374,3.30969905 C46.6228403,3.31793472 46.6228403,3.32620077 46.6234374,3.33443644 L46.6343917,3.37507643 C46.872488,4.23795525 46.538061,5.15373166 45.7926053,5.68017797 C45.0471495,6.20662429 44.0440051,6.2354506 43.2675896,5.75273671 C42.4911741,5.27002282 42.1011961,4.37506288 42.2859756,3.50003231 C42.4707551,2.62500175 43.1922831,1.94989419 44.1021342,1.80071851 L44.0948314,1.7971846 Z" id="Shape-Copy-4" fill="#F8CC6A" fill-rule="nonzero" transform="translate(44.475391, 3.508188) rotate(64.000000) translate(-44.475391, -3.508188) "></path>
                            <ellipse id="Oval-7" fill="#15BBDF" filter="url(#filter-9)" cx="12.4318182" cy="17.9" rx="2.11363636" ry="2.1"></ellipse>
                            <ellipse id="Oval-7-Copy-2" fill="#937BF3" cx="75.8863636" cy="88.9" rx="2.11363636" ry="2.1"></ellipse>
                            <ellipse id="Oval-7-Copy-3" fill="#F8CC6A" filter="url(#filter-10)" cx="67.1818182" cy="54.6" rx="1.40909091" ry="1.4"></ellipse>
                            <ellipse id="Oval-7-Copy" fill="#35C850" filter="url(#filter-11)" cx="22.2954545" cy="72.1" rx="2.11363636" ry="2.1"></ellipse>
                        </g>
                        <g id="Collier-2" transform="translate(318.000000, 100.000000)">
                            <polygon id="Fill-1" fill="#C35365" points="11.1017 68.0531 10.7017 68.4081 11.0217 68.4701 10.8667 69.2831 24.3257 71.8541 24.5607 70.6241"></polygon>
                            <g id="Group-15" transform="translate(20.000000, 0.000000)">
                                <g id="Group-4" transform="translate(1.000000, 0.000000)" fill="#C35365">
                                    <path d="M101.798,0.8119 C99.141,0.8119 96.724,1.8139 94.882,3.4499 C72.855,19.2779 72.797,53.9289 55.261,59.8569 C41.573,64.4839 15.485,61.8889 4.691,60.5269 L5.072,66.3339 L2.291,78.9499 L0.102,80.7119 C3.194,80.6919 31.691,80.5179 50.329,80.7139 C70.057,80.9209 84.03,66.2589 89.51,46.2569 C93.808,30.5709 102.77,23.0749 106.438,20.5689 C109.866,18.8609 112.227,15.3309 112.227,11.2399 C112.227,5.4809 107.558,0.8119 101.798,0.8119" id="Fill-2"></path>
                                </g>
                                <g id="Group-7" transform="translate(0.000000, 2.000000)" fill="#E3667A">
                                    <path d="M103.5533,0.096 C100.8963,0.096 98.4793,1.098 96.6373,2.734 C74.6103,18.562 74.5523,53.213 57.0163,59.141 C42.8873,63.917 15.5523,60.999 5.4553,59.684 L6.0723,63.326 L3.2903,76.95 L0.8083,79.909 C1.0343,79.924 2.3373,79.998 2.5673,79.998 C2.5673,79.998 32.3563,79.79 52.0843,79.998 C71.8123,80.205 85.7853,65.543 91.2653,45.541 C95.5633,29.855 104.5253,22.359 108.1933,19.853 C111.6213,18.145 113.9823,14.615 113.9823,10.525 C113.9823,4.765 109.3133,0.096 103.5533,0.096" id="Fill-5"></path>
                                </g>
                                <g id="Group-10" transform="translate(0.000000, 9.000000)" fill="#C35365">
                                    <path d="M108.1935,12.8534 C111.6215,11.1454 113.9825,7.6144 113.9825,3.5244 C113.9825,2.4874 113.8255,1.4874 113.5435,0.5424 C107.0105,2.9444 99.7835,7.9784 96.0405,13.8634 C89.9555,23.4314 90.3695,31.9824 86.8355,42.6704 C81.6795,58.2654 74.6845,63.0074 65.7355,66.7224 C56.9685,70.3614 47.4155,66.4164 39.9245,64.3894 C32.4345,62.3634 24.0795,68.1444 15.4355,64.3894 C6.7925,60.6344 7.6015,55.3234 7.6015,55.3234 L5.4265,66.9924 C4.6165,71.4314 2.5225,72.6524 0.9475,72.9174 C1.3555,72.9414 2.3675,72.9984 2.5675,72.9984 C2.5675,72.9984 32.3565,72.7904 52.0845,72.9984 C71.8125,73.2054 85.7855,58.5424 91.2655,38.5414 C95.5635,22.8544 104.5255,15.3584 108.1935,12.8534" id="Fill-8"></path>
                                </g>
                                <path d="M61.7154,69.9706 C63.3444,73.0846 67.1894,74.2886 70.3034,72.6596 C73.4174,71.0306 74.6214,67.1856 72.9924,64.0716 C71.3634,60.9566 67.5184,59.7536 64.4044,61.3826 C61.2904,63.0116 60.0864,66.8566 61.7154,69.9706" id="Fill-11" fill="#C35365"></path>
                                <path d="M62.1676,70.1034 C63.7346,73.1004 67.4346,74.2584 70.4316,72.6904 C73.4276,71.1234 74.5856,67.4234 73.0186,64.4274 C71.4516,61.4304 67.7516,60.2724 64.7546,61.8394 C61.7586,63.4074 60.6006,67.1064 62.1676,70.1034" id="Fill-13" fill="#FFFFFF"></path>
                            </g>
                            <g id="Group-18" transform="translate(82.000000, 62.000000)">
                                <mask id="mask-13" fill="white">
                                    <use xlink:href="#path-12"></use>
                                </mask>
                                <g id="Clip-17"></g>
                                <path d="M3.172,0.638 C0.617,1.975 -0.371,5.13 0.966,7.686 C2.303,10.241 5.458,11.229 8.014,9.892 C10.57,8.556 11.557,5.4 10.22,2.844 C9.288,1.062 7.471,0.042 5.589,0.042 C4.773,0.042 3.946,0.234 3.172,0.638" id="Fill-16" fill="#FFFFFF" mask="url(#mask-13)"></path>
                            </g>
                            <g id="Group-37" transform="translate(0.000000, 18.000000)">
                                <path d="M104.3507,21.5111 C105.3637,21.9721 105.9297,22.9071 105.6147,23.5991 C105.2997,24.2911 104.2237,24.4781 103.2097,24.0161 C102.1967,23.5551 101.6307,22.6201 101.9457,21.9281 C102.2607,21.2371 103.3377,21.0501 104.3507,21.5111" id="Fill-19" fill="#FFFFFF"></path>
                                <path d="M110.0279,10.368 C111.0409,10.829 111.6069,11.764 111.2919,12.456 C110.9769,13.148 109.9009,13.335 108.8869,12.873 C107.8739,12.412 107.3079,11.477 107.6229,10.785 C107.9379,10.094 109.0149,9.907 110.0279,10.368" id="Fill-21" fill="#FFFFFF"></path>
                                <path d="M117.1075,1.0116 C117.9265,1.7656 118.1725,2.8296 117.6585,3.3896 C117.1435,3.9486 116.0625,3.7916 115.2425,3.0376 C114.4235,2.2836 114.1765,1.2186 114.6915,0.6596 C115.2065,0.0996 116.2885,0.2576 117.1075,1.0116" id="Fill-23" fill="#FFFFFF"></path>
                                <path d="M115.5226,2.3309 C114.5716,1.0629 115.4986,0.3389 115.5086,0.3289 C115.5066,0.3289 115.5046,0.3279 115.5016,0.3279 L115.0856,0.4089 C114.9366,0.4639 114.7996,0.5429 114.6916,0.6599 C114.1776,1.2189 114.4236,2.2839 115.2436,3.0379 C116.0626,3.7909 117.1436,3.9489 117.6586,3.3899 C117.2156,3.3959 116.2736,3.3319 115.5226,2.3309" id="Fill-25" fill="#292758"></path>
                                <path d="M109.0953,12.2083 C107.9723,11.6073 107.8383,10.8503 107.8453,10.4893 C107.7543,10.5753 107.6753,10.6713 107.6233,10.7853 C107.3083,11.4773 107.8743,12.4123 108.8873,12.8733 C109.9003,13.3343 110.9773,13.1473 111.2923,12.4563 C111.2923,12.4563 110.6223,13.0263 109.0953,12.2083" id="Fill-27" fill="#292758"></path>
                                <path d="M103.4527,23.2801 C102.4657,22.7611 102.2107,21.9761 102.1457,21.6521 C102.0647,21.7331 101.9937,21.8221 101.9457,21.9281 C101.6307,22.6201 102.1967,23.5551 103.2097,24.0161 C104.2237,24.4781 105.2997,24.2911 105.6147,23.5991 C105.6147,23.5991 104.7187,23.9451 103.4527,23.2801" id="Fill-29" fill="#292758"></path>
                                <path d="M20.9908,61.1317 C22.0848,61.3167 23.1228,60.6587 23.3268,59.6647 L26.3918,44.6437 C26.4898,44.1647 26.3768,43.6767 26.0738,43.2707 C25.7708,42.8637 25.3168,42.5907 24.7958,42.5007 L8.4348,39.6857 C7.9198,39.5957 7.3828,39.6977 6.9398,39.9767 C6.4968,40.2557 6.1998,40.6727 6.1018,41.1517 L3.0348,56.1727 C2.9368,56.6527 3.0508,57.1397 3.3528,57.5467 C3.6558,57.9527 4.1098,58.2267 4.6328,58.3167 L20.9918,61.1317 L20.9908,61.1317 Z M21.3608,62.9997 C21.1178,62.9997 20.8708,62.9797 20.6238,62.9367 L20.6228,62.9367 L4.2628,60.1217 C3.2168,59.9417 2.3068,59.3947 1.7018,58.5837 C1.0968,57.7717 0.8728,56.7957 1.0698,55.8347 L4.1368,40.8137 C4.3318,39.8527 4.9268,39.0177 5.8098,38.4617 C6.6938,37.9067 7.7578,37.7017 8.8038,37.8807 L25.1638,40.6957 C26.6098,40.9597 27.0728,41.5657 27.3558,42.0007 C27.5898,42.3607 27.6038,43.0947 27.6008,43.3397 C27.5918,44.1487 27.1378,44.7727 27.0048,45.4197 L23.2918,60.0037 C22.9308,61.7657 23.2468,62.9997 21.3608,62.9997 Z" id="Fill-31" fill="#C35365"></path>
                                <path d="M19.9908,62.1317 C21.0848,62.3167 22.1228,61.6587 22.3268,60.6647 L25.3918,45.6437 C25.4898,45.1647 25.3768,44.6767 25.0738,44.2707 C24.7708,43.8637 24.3168,43.5907 23.7958,43.5007 L7.4348,40.6857 C6.9198,40.5957 6.3828,40.6977 5.9398,40.9767 C5.4968,41.2557 5.1998,41.6727 5.1018,42.1517 L2.0348,57.1727 C1.9368,57.6527 2.0508,58.1397 2.3528,58.5467 C2.6558,58.9527 3.1098,59.2267 3.6328,59.3167 L19.9918,62.1317 L19.9908,62.1317 Z M20.3608,63.9997 C20.1178,63.9997 19.8708,63.9797 19.6238,63.9367 L19.6228,63.9367 L3.2628,61.1217 C2.2168,60.9417 1.3068,60.3947 0.7018,59.5837 C0.0968,58.7717 -0.1272,57.7957 0.0698,56.8347 L3.1368,41.8137 C3.3318,40.8527 3.9268,40.0177 4.8098,39.4617 C5.6938,38.9067 6.7578,38.7017 7.8038,38.8807 L24.1638,41.6957 C25.2108,41.8757 26.1198,42.4217 26.7238,43.2337 C27.3298,44.0447 27.5538,45.0217 27.3568,45.9827 L24.2918,61.0037 C23.9308,62.7657 22.2468,63.9997 20.3608,63.9997 Z" id="Fill-33" fill="#E3667A"></path>
                                <polygon id="Fill-35" fill="#E3667A" points="10.7018 50.4085 24.1608 52.9795 23.9258 54.2095 10.4668 51.6385"></polygon>
                            </g>
                        </g>
                        <g id="Arbre" transform="translate(0.000000, 63.000000)" fill-rule="nonzero">
                            <path d="M102.436087,211.167826 C80.0452174,210.716174 66.9046957,210.822696 60.1213913,210.971826 L48.11,211.022957 C39.8950435,210.886609 26.417913,210.99313 28.936087,213.238609 C32.528,216.434261 8.97391304,219.22513 2.58686957,220.422435 C-3.80017391,221.619739 8.17286957,222.203478 31.7269565,222.203478 C55.2810435,222.203478 16.5582609,231.658348 40.1123478,231.360087 C63.6664348,231.061826 119.956783,233.997565 106.782174,224.018609 C93.6075652,214.039652 117.161652,217.030783 122.351391,217.329043 C127.54113,217.627304 138.768522,211.904957 102.436087,211.167826 Z" id="Shape" fill="#E6E5F2"></path>
                            <path d="M93.352247,125.574814 C85.4879652,108.226674 89.4201061,98.3264261 98.8547318,76.9040032 C108.289357,55.4815802 80.010606,48.7343604 70.3875392,31.6846549 C60.7644723,14.6349494 70.3875392,0.024623374 57.1966511,0.024623374 C44.0057631,0.024623374 49.3826203,24.3794919 36.9454973,45.1531437 C24.5083744,65.9267955 50.9027131,86.8950787 42.2595408,103.140308 C33.6163685,119.385537 48.5409161,123.433869 35.9781656,150.228117 C23.4154151,177.022365 42.2595408,189.154385 42.2595408,189.154385 C47.3551357,194.066514 54.0106747,196.889997 60.978039,197.095344 L60.978039,220.60681 L76.3799711,220.60681 L76.3799711,195.239859 C88.4527744,191.684593 99.646185,183.977192 105.14867,176.269791 C116.153639,160.777136 101.216529,142.922954 93.352247,125.574814 Z" id="Shape" fill="#D4D3E3"></path>
                            <path d="M105.14867,176.204913 C116.153639,160.777136 101.216529,142.922954 93.352247,125.600765 C85.4879652,108.278575 89.4201061,98.352377 98.8547318,76.929954 C108.289357,55.5075311 80.010606,48.7603112 70.3875392,31.7106057 C60.7644723,14.6609002 70.3875392,0.0505742195 57.1966511,0.0505742195 C52.573559,0.0505742195 50.2368874,3.03492145 48.6037298,7.83582787 C46.7946937,17.5803704 45.9529894,30.0886779 51.8700449,35.4994292 C62.2343141,44.9714878 73.4025993,46.2041529 72.611146,56.0914251 C71.8196927,65.9786972 55.4629916,65.174221 62.6363221,83.6901493 C69.8096526,102.206078 71.0156767,103.04948 63.0383301,120.345719 C55.0609836,137.641957 43.8926984,150.422748 56.2544449,170.599531 C61.8157435,179.788779 68.6417982,188.093514 76.5181614,195.252834 C88.5407136,191.567814 99.6336223,183.886364 105.14867,176.204913 Z" id="Shape" fill="#9B99BE"></path>
                        </g>
                        <g id="Group" transform="translate(287.000000, 171.000000)">
                            <mask id="mask-15" fill="white">
                                <use xlink:href="#path-14"></use>
                            </mask>
                            <g id="Mask"></g>
                        </g>
                    </g>
                </g>
            </g>
        </g>
    </g>
</svg>