<?xml version="1.0" encoding="UTF-8"?>
<svg width="398px" height="306px" viewBox="0 0 398 306" version="1.1" xmlns="http://www.w3.org/2000/svg" xmlns:xlink="http://www.w3.org/1999/xlink">
    <!-- Generator: sketchtool 52.4 (67378) - http://www.bohemiancoding.com/sketch -->
    <title>553CB019-76BC-4D92-BB95-E34F66D6B828</title>
    <desc>Created with sketchtool.</desc>
    <defs>
        <linearGradient x1="52.5456583%" y1="5.9078097%" x2="49.5704233%" y2="62.8505538%" id="linearGradient-1">
            <stop stop-color="#F3F3F9" offset="0%"></stop>
            <stop stop-color="#F1F1F8" offset="100%"></stop>
        </linearGradient>
        <path d="M374,133.130081 C374,166.391986 357.783198,212.577236 317.241192,236.96748 C317.241192,236.96748 248.131013,238.121123 181.954364,238.121123 C117.833661,238.121123 19.2574526,236.96748 19.2574526,236.96748 C19.2574526,236.96748 0,212.555878 0,177.845528 C0,131.73033 34.4607046,76.2195122 104.395664,94.5121951 C168.508041,111.281882 172.615813,10.5412093 259.468835,1.01626016 C324.336043,-6.09756098 374,53.1387887 374,133.130081 Z" id="path-2"></path>
        <linearGradient x1="-64.831079%" y1="17.9603949%" x2="123.018649%" y2="75.2100222%" id="linearGradient-4">
            <stop stop-color="#98B6F7" offset="0%"></stop>
            <stop stop-color="#192C50" offset="87%"></stop>
            <stop stop-color="#192C50" offset="100%"></stop>
        </linearGradient>
        <linearGradient x1="213.89792%" y1="20.5640774%" x2="-22.9931286%" y2="96.090747%" id="linearGradient-5">
            <stop stop-color="#98B6F7" offset="0%"></stop>
            <stop stop-color="#192C50" offset="87%"></stop>
            <stop stop-color="#192C50" offset="100%"></stop>
        </linearGradient>
        <linearGradient x1="51.4919221%" y1="9.52717961%" x2="51.4919221%" y2="67.4762215%" id="linearGradient-6">
            <stop stop-color="#937BF3" offset="0%"></stop>
            <stop stop-color="#F27D90" stop-opacity="0.0919100996" offset="100%"></stop>
        </linearGradient>
        <filter x="-2.2%" y="-4.2%" width="104.3%" height="108.5%" filterUnits="objectBoundingBox" id="filter-7">
            <feGaussianBlur stdDeviation="1.69400004" in="SourceGraphic"></feGaussianBlur>
        </filter>
        <filter x="-7.9%" y="-6.1%" width="115.8%" height="112.1%" filterUnits="objectBoundingBox" id="filter-8">
            <feGaussianBlur stdDeviation="2.44977679" in="SourceGraphic"></feGaussianBlur>
        </filter>
        <filter x="-10.0%" y="-25.0%" width="120.0%" height="149.9%" filterUnits="objectBoundingBox" id="filter-9">
            <feGaussianBlur stdDeviation="2.44977679" in="SourceGraphic"></feGaussianBlur>
        </filter>
        <filter x="-8.3%" y="-6.1%" width="116.6%" height="112.1%" filterUnits="objectBoundingBox" id="filter-10">
            <feGaussianBlur stdDeviation="2.44977679" in="SourceGraphic"></feGaussianBlur>
        </filter>
        <filter x="-73.1%" y="-53.6%" width="246.2%" height="207.1%" filterUnits="objectBoundingBox" id="filter-11">
            <feGaussianBlur stdDeviation="1" in="SourceGraphic"></feGaussianBlur>
        </filter>
        <filter x="-71.0%" y="-71.4%" width="241.9%" height="242.9%" filterUnits="objectBoundingBox" id="filter-12">
            <feGaussianBlur stdDeviation="1" in="SourceGraphic"></feGaussianBlur>
        </filter>
        <filter x="-106.5%" y="-107.1%" width="312.9%" height="314.3%" filterUnits="objectBoundingBox" id="filter-13">
            <feGaussianBlur stdDeviation="1" in="SourceGraphic"></feGaussianBlur>
        </filter>
        <filter x="-212.9%" y="-214.3%" width="525.8%" height="528.6%" filterUnits="objectBoundingBox" id="filter-14">
            <feGaussianBlur stdDeviation="3" in="SourceGraphic"></feGaussianBlur>
        </filter>
        <linearGradient x1="-42.3060706%" y1="0%" x2="141.468266%" y2="116.576004%" id="linearGradient-15">
            <stop stop-color="#98B6F7" offset="0%"></stop>
            <stop stop-color="#192C50" offset="87%"></stop>
            <stop stop-color="#192C50" offset="100%"></stop>
        </linearGradient>
        <ellipse id="path-16" cx="42.4085225" cy="5.00483092" rx="42.4085225" ry="5.00483092"></ellipse>
        <ellipse id="path-18" cx="42.4733673" cy="5.00483092" rx="42.4085225" ry="5.00483092"></ellipse>
    </defs>
    <g id="Marketing" stroke="none" stroke-width="1" fill="none" fill-rule="evenodd">
        <g id="1a-Home" transform="translate(-321.000000, -1467.000000)">
            <g id="Section-1" transform="translate(0.000000, 708.000000)">
                <g id="2" transform="translate(321.000000, 739.333333)">
                    <g id="illu2-Home">
                        <g id="Group-5">
                            <g id="Group" transform="translate(24.000000, 53.000000)">
                                <mask id="mask-3" fill="white">
                                    <use xlink:href="#path-2"></use>
                                </mask>
                                <use id="Mask" fill="url(#linearGradient-1)" fill-rule="nonzero" opacity="0.5" xlink:href="#path-2"></use>
                                <g mask="url(#mask-3)">
                                    <g transform="translate(-70.964034, -9.146341)">
                                        <path d="M456.237285,144.935249 C456.237285,224.934789 366.191169,289.77153 252.918398,289.77153 C139.645627,289.77153 51.5021741,250.782063 51.5021741,170.790771 C51.5021741,124.675572 95.4569341,94.3829625 142.678547,67.2862111 C200.542054,34.032794 247.911413,0.0989685031 295.904594,0.0989685031 C409.177365,0.0989685031 456.237285,64.9439565 456.237285,144.935249 Z" id="Shape" fill="#F0EFF8" fill-rule="nonzero"></path>
                                        <path d="M0,291.177707 L0,197.846285 C0,197.846285 54.8634204,156.131061 207.531312,188.176238 C360.199204,220.221414 429.373572,288.381847 429.373572,288.381847 L0,291.177707 Z" id="Shape" fill="#E6E5F2" fill-rule="nonzero"></path>
                                        <path d="M348.191873,51.7080836 L344.529513,51.7080836 L344.529513,48.1168054 C344.529513,46.528862 343.232664,45.2415796 341.63292,45.2415796 C340.033175,45.2415796 338.736326,46.528862 338.736326,48.1168054 L338.736326,51.7080836 L237.78837,51.7080836 L237.78837,48.1168054 C237.693701,46.6008479 236.42748,45.4194663 234.897325,45.4194663 C233.36717,45.4194663 232.100949,46.6008479 232.00628,48.1168054 L232.00628,51.7080836 L228.332822,51.7080836 C226.494036,51.7080836 225.003404,53.1877186 225.003404,55.0129408 C225.003404,56.838163 226.494036,58.317798 228.332822,58.3177981 C228.332822,58.3177981 246.200699,58.5050733 253.858361,64.2334925 C261.516023,69.9619118 265.211677,71.9448261 264.656774,74.2031452 C264.101871,76.4614643 256.188954,84.117717 257.198877,100.906392 C257.198877,100.906392 257.198877,101.005537 257.198877,101.071635 C257.249473,102.194503 258.167656,103.086573 259.299694,103.112705 C260.431732,103.138838 261.390699,102.2901 261.493826,101.17078 L261.493826,101.071635 C261.493826,99.5514003 261.171983,80.5374549 271.360002,77.1665005 L288.262348,76.4614643 L305.197988,77.1995491 C315.386007,80.5705035 315.108556,99.5844489 315.064163,101.104683 L315.064163,101.203829 C315.167291,102.323148 316.126258,103.171886 317.258296,103.145754 C318.390334,103.119622 319.308517,102.227551 319.359113,101.104683 C319.359113,101.038586 319.359113,100.994521 319.359113,100.93944 C320.369036,84.1397493 312.456119,76.439432 311.901216,74.2361938 C311.346313,72.0329556 315.064163,69.9839441 322.699629,64.3216221 C330.335094,58.6593 348.225167,58.4059276 348.225167,58.4059276 C350.063954,58.4059276 351.554586,56.9262926 351.554586,55.1010703 C351.554586,53.2758481 350.063954,51.7962131 348.225167,51.7962131 L348.191873,51.7080836 Z" id="Shape" fill="url(#linearGradient-4)" fill-rule="nonzero"></path>
                                        <path d="M285.925956,70.2939008 C280.149103,66.3025161 290.817467,62.4548655 293.041887,59.6354663 C295.266307,56.8160672 289.190652,56.8271236 288.083975,55.6440816 C287.663438,55.1907665 287.563837,53.4880705 287.608104,51.5531887 L237.807654,51.5531887 L237.807654,47.9487804 C237.713252,46.4272804 236.450601,45.2415796 234.924761,45.2415796 C233.39892,45.2415796 232.13627,46.4272804 232.041868,47.9487804 L232.041868,51.5531887 L228.323434,51.5531887 C226.489832,51.5531888 225.003404,53.0382335 225.003404,54.8701289 C225.003404,56.7020244 226.489832,58.1870691 228.323434,58.1870691 C228.323434,58.1870691 246.140929,58.375029 253.776998,64.124392 C261.413067,69.873755 265.098301,71.8639191 264.544962,74.1304949 C263.991624,76.3970707 256.101019,84.0813155 257.108095,100.931372 C257.108095,100.931372 257.108095,101.03088 257.108095,101.097219 C257.158548,102.224192 258.074142,103.119524 259.202988,103.145752 C260.331834,103.17198 261.288097,102.320139 261.390934,101.196727 L261.390934,101.097219 C261.390934,99.5714262 261.069997,80.4879636 271.229289,77.1046846 L288.083975,76.3970707 L293.539891,76.640313 C296.527918,74.6943748 291.702808,74.2852855 285.925956,70.2939008 Z" id="Shape" fill="url(#linearGradient-5)" fill-rule="nonzero"></path>
                                        <polygon id="Rectangle-4-Copy" fill="url(#linearGradient-6)" fill-rule="evenodd" filter="url(#filter-7)" points="265.952661 63.5272938 304.946974 63.5272938 393.749309 178.197523 159.619748 183.545681"></polygon>
                                        <path d="M101.904453,290.50967 C101.904453,290.50967 211.573837,118.762204 458.015987,132.671402 L458.015987,288.369476 L101.904453,290.50967 Z" id="Shape" fill="#E6E5F2" fill-rule="nonzero"></path>
                                        <path d="M134.552457,290.307609 C134.552457,290.307609 154.31363,224.122423 225.884784,182.403075 L247.800603,171.236129 C247.800603,171.236129 188.824889,205.462736 163.227705,290.142662 L134.552457,290.307609 Z" id="Shape" fill="#DAD9E9" fill-rule="nonzero"></path>
                                        <path d="M289.272391,154.465091 C289.272391,154.465091 222.461977,191.483435 196.634964,289.77153 L243.651372,289.412769 C243.651372,289.412769 263.441274,182.403075 329.426768,143.021858 C329.410351,143.030105 301.744708,149.982643 289.272391,154.465091 Z" id="Shape" fill="#DAD9E9" fill-rule="nonzero"></path>
                                        <path d="M402.463081,132.659031 C402.463081,132.659031 389.190467,131.648728 362.029626,137.339417 C362.029626,137.339417 301.186553,176.069091 279.947908,288.703495 L352.245485,288.967411 C352.245485,288.967411 349.167421,199.586481 402.463081,132.659031 Z" id="Shape" fill="#DAD9E9" fill-rule="nonzero"></path>
                                        <path d="M458.015987,132.671402 L442.071614,132.028107 C442.071614,132.028107 401.547869,175.669093 402.463081,288.703495 L458.015987,288.369476 L458.015987,132.671402 Z" id="Shape" fill="#DAD9E9" fill-rule="nonzero"></path>
                                        <g id="Group-11" stroke-width="1" fill="none" fill-rule="evenodd" transform="translate(356.000000, 149.000000)">
                                            <path d="M85.5996437,121.592259 C85.5996437,121.592259 44.8378625,109.782017 20.020455,77.8481802 L27.855155,67.7822587 L12.5961636,67.7822587 C12.5961636,67.7822587 -0.463037753,44.161776 0.842061566,0.413573901 C0.842061566,0.413573901 67.8946171,1.72490657 93.5944031,91.4068651 L85.5996437,121.592259 Z" id="Shape" fill="#9B99BE" fill-rule="nonzero" filter="url(#filter-8)"></path>
                                            <path d="M74.4242178,115.060337 C74.4242178,115.060337 47.1648792,80.8832143 0.74766759,93.3161325 C0.74766759,93.3161325 26.5295353,133.884971 74.4242178,115.060337 Z" id="Shape" fill="#9B99BE" fill-rule="nonzero" filter="url(#filter-9)"></path>
                                            <path d="M52.2457376,61.0029162 C37.8486042,53.9142972 42.3959314,44.1287865 37.5859427,39.448401 C32.775954,34.7680155 24.3010166,34.7680155 19.2160542,24.1330251 C15.8753282,17.1227562 7.21570698,7.13930843 0.83795748,0.590892469 C-0.430205065,44.2236313 12.5961636,67.7822587 12.5961636,67.7822587 L27.8346346,67.7822587 L19.9999346,77.8440565 C44.8173421,109.782017 85.5996437,121.592259 85.5996437,121.592259 L89.0675963,108.520169 C89.0675963,108.520169 66.6428709,68.0915353 52.2457376,61.0029162 Z" id="Shape" fill="#E6E5F2" fill-rule="nonzero" opacity="0.4" filter="url(#filter-10)"></path>
                                        </g>
                                    </g>
                                </g>
                            </g>
                            <g id="Fichier-26cartographie">
                                <path d="M396.782152,277.142494 C396.782152,277.142494 369.490758,242.996277 323.018962,255.417953 C323.018962,255.417953 348.831148,295.950105 396.782152,277.142494 Z" id="Shape" fill="#FBFBFE" fill-rule="nonzero" transform="translate(359.900557, 267.409631) rotate(80.000000) translate(-359.900557, -267.409631) "></path>
                                <g id="Fleur" transform="translate(0.000000, 134.000000)" fill-rule="nonzero">
                                    <polygon id="Shape" fill="#9B99BE" points="59.7135325 172 33 68.0029836 37.7869327 66 65 172"></polygon>
                                    <polygon id="Shape" fill="#9B99BE" points="57 159.01368 71.8140803 53.0492476 77 53 61.885143 161"></polygon>
                                    <path d="M26.7750782,68.9409271 C26.7750782,68.9409271 36.5264143,75.1810489 43.0240284,65.9350944 C50.0360779,55.9613432 36.241345,31.5458875 34.8323818,28.8044114 C33.4234186,26.0629353 24.4355439,12.7471942 21.027819,25.3057657 C17.7773736,37.2507688 17.6069873,60.06703 26.7750782,68.9409271 Z" id="Shape" fill="#9B99BE"></path>
                                    <path d="M50,162.096684 C50,162.096684 51.1794432,173.68911 62.334068,172.967671 C74.3611577,172.183643 84.7467209,145.954914 85.9940225,143.118574 C87.2413241,140.282234 92.0075673,124.835549 80.1969782,130.076683 C68.9583383,135.057572 51.2149881,149.305154 50,162.096684 Z" id="Shape" fill="#9B99BE"></path>
                                    <path d="M64.8983658,54.3949993 C64.8983658,54.3949993 71.1309143,64.8886457 81.131528,57.1594192 C91.9168851,48.8300874 89.8869291,16.8966098 89.7831614,13.3582834 C89.6793937,9.81995699 87.2343669,-8.13729539 78.6313746,4.3698194 C70.4402104,16.2702702 58.2831738,45.3048781 64.8983658,54.3949993 Z" id="Shape" fill="#9B99BE"></path>
                                    <path d="M36,71.9203426 C36,71.9203426 34.3510789,74 28.1148591,74 C21.8786394,74 8.59493075,57.5411824 1,57.1550993 C1,57.1550993 30.2320739,54.4200741 36,71.9203426 Z" id="Shape" fill="#9B99BE"></path>
                                    <path d="M35.1367816,71.5924278 C39.0388981,72.5446308 43.1691744,71.8107007 46.4847701,69.575945 C52.1587644,65.8027518 52.3074713,59.1850516 52.4561782,55.7560567 C52.6577586,51.2100408 53.9961207,38.9033264 57,33 C57,33 47.8198276,37.2635135 43.6461207,45.465825 C39.4724138,53.6681365 39.0461207,67.8939191 34,68.8193581 L35.1367816,71.5924278 Z" id="Shape" fill="#9B99BE"></path>
                                    <path d="M20,53 C20,53 15.5993276,44.9501956 9,41.0154513 C9,41.0154513 14.2075183,40.6934591 19.028423,42.9892633 C19.1756605,46.339743 19.4999347,49.680933 20,53 Z" id="Shape" fill="#9B99BE"></path>
                                    <path d="M40,90.6784337 C40,90.6784337 33.3687669,88.9838364 30.0531504,87.2925749 C26.7375339,85.6013135 19.4137779,91.2421875 11.4007657,104.221869 C11.4007657,104.221869 13.3346032,104.078428 16.6502197,108.028041 C16.6502197,108.028041 13.0569407,107.053981 10.1594512,107.19075 C10.1594512,107.19075 10.989172,118.752707 10.1594512,121.574812 C9.32973039,124.396917 6.98103257,129.614141 8.5000096,133 C8.5000096,133 8.84953765,128.062984 14.8241806,123.549618 C20.7988236,119.036252 32.6631776,107.040638 32.1862515,94.1943894 L40,92.3596877 L40,90.6784337 Z" id="Shape" fill="#9B99BE"></path>
                                    <path d="M45,103.115831 C45,103.115831 49.4949188,99.1814358 50.6251441,96.655412 C51.7553693,94.1293882 70.1117863,99.3235651 73.2328968,105.086259 C76.3540073,110.848953 72.5248821,119.279799 73.2328968,121.237306 C73.9409115,123.194813 76,127 76,127 C76,127 69.4167627,123.627661 67.2959665,121.237306 C65.1751702,118.846951 67.2440021,112.431755 63.9507596,111.494994 C60.657517,110.558234 53.5903614,105.076568 52.3204819,102.828342 C51.0506024,100.580117 45,104.95705 45,104.95705 L45,103.115831 Z" id="Shape" fill="#9B99BE"></path>
                                    <path d="M92.5556785,35.0276911 C89.8724817,35.7514188 79.2924507,41.2235864 73.9094532,50.5436278 C72.9132167,34.8541274 57.0099624,28 57.0099624,28 C57.0099624,28 61.7454062,33.2953292 61.7454062,35.7153961 C61.7454062,36.4358491 61.6158955,38.076517 61.4365729,40.0282895 L57,37.1792255 C58.9725482,38.764222 60.2809387,41.6951556 61.0480407,43.9383841 C60.6761125,47.5570228 60.2942218,50.9431517 60.2942218,50.9431517 C60.2942218,50.9431517 59.6931592,55.0824814 64.1197698,57.9577436 C65.8356155,59.0730866 67.8691084,59.6160277 69.9211866,59.5067174 C71.7609033,60.6266943 74.5536861,61.6779007 77.5291122,60.4465811 C79.6909453,60.7904336 83.6127961,61.5632831 86.8937348,57.522197 C90.3805623,53.2224028 95.3185743,39.3274853 96.4808501,37.3200414 C97.643126,35.3125974 102,32.3587404 102,32.3587404 C102,32.3587404 95.7502767,34.1696971 92.5556785,35.0276911 Z" id="Shape" fill="#9B99BE"></path>
                                    <path d="M60,145.391115 C60,145.391115 59.7640759,132.286202 44.8287726,126 C44.8287726,126 47.7778233,135.831932 46.9783029,141.410286 C46.1787825,146.988641 42.3745071,157.645312 43.0888327,159.859769 C43.8031583,162.074227 47.0798813,166.447943 52.5028578,164.522469 C57.9258344,162.596995 60,145.391115 60,145.391115 Z" id="Shape" fill="#9B99BE"></path>
                                    <path d="M58,171.724371 C58,171.724371 46.1434217,177.407637 36.0728675,170.811279 C26.0023133,164.21492 24,165.813644 24,165.813644 C24,165.813644 34.3753253,163.214093 36.7512289,157.114899 C39.1271325,151.015705 48.3259759,149.316249 52.7500723,152.754154 L58,171.724371 Z" id="Shape" fill="#9B99BE"></path>
                                    <path d="M81.8387266,150.455442 C81.8387266,150.455442 88.0588543,145.289612 92,146.082817 C92,146.082817 87.4550215,146.562739 84.2670437,156.837741 C81.0790659,167.112743 78.9559116,178.014309 70.9177924,176.924486 C62.8796733,175.834662 61,170.228904 61,170.228904 L81.8387266,150.455442 Z" id="Shape" fill="#9B99BE"></path>
                                    <path d="M55,171.240949 C55,171.240949 55.8812831,167.017936 59.6488503,165.206689 C63.4164175,163.395443 70.9024097,161.774684 76.4292669,164.30268 C81.9561242,166.830677 84.9996632,177.575468 84.9996632,179.53523 C84.9996632,181.494992 85.1536421,184.513736 78.8765475,191 C78.8765475,191 80.3442607,182.553974 77.3171023,181.798481 C74.289944,181.042988 56.3792572,180.590983 55,171.240949 Z" id="Shape" fill="#9B99BE"></path>
                                    <path d="M71,70.1932305 C71,70.1932305 68.5970939,65.2854745 67.1599335,62.8348253 C65.7227731,60.3841761 59.8006244,64.0327052 57.253675,64.8108428 C54.7067255,65.5889805 49.5146151,81.3519179 49.06939,82.5691706 C48.6241649,83.7864232 50.5032767,92.9012885 49.5735419,95 C49.5735419,95 50.8142795,93.4340384 51.5901498,90.3731484 C52.36602,87.3122585 59.9937736,79.9667684 59.9937736,79.9667684 L57.1947481,78.4976704 L61.4276603,77.8260827 C61.4276603,77.8260827 65.0287457,75.2236805 64.9043446,72.6212783 C64.7799434,70.0188761 65.9453856,65.2790169 67.1435649,66.8094619 C68.3417442,68.3399069 71,70.1932305 71,70.1932305 Z" id="Shape" fill="#9B99BE"></path>
                                    <path d="M70,96 C70,96 74.5313302,92.0222412 79.6727739,90.4642857 C84.8142177,88.9063302 87.4690363,87.9483533 88.2473433,85.4357357 C89.0256504,82.923118 91.5452547,76.2239093 93.7185782,73.6814585 C95.8919018,71.1390077 97,70.4859923 97,65 C97,65 95.4104067,69.2562019 93.0787834,69.4119974 C90.1791518,69.6453571 87.4625421,70.9293379 85.434225,73.0251283 C83.2477098,75.3819504 79.4979846,81.9750855 76.5298644,84.1794269 C73.5617442,86.3837682 70,96 70,96 Z" id="Shape" fill="#9B99BE"></path>
                                    <path d="M43.7405885,44.6691979 C43.476594,45.1930976 43.2290992,45.7399179 42.9915041,46.3063844 C40.2327616,37.5801804 35.6029581,29.3549555 34.8109746,27.8290976 C33.7021977,25.6909321 28.0065164,17.1710136 23.9212015,19.3550203 C24.2973937,19.9149381 24.6702859,20.563264 24.6702859,20.9365425 C24.6702859,21.6896483 24.2907938,22.4427541 25.3005728,23.0681593 C26.3103517,23.6935646 25.6800649,25.07535 25.8087622,26.3425323 C25.9374595,27.6097147 26.3136517,27.5966172 28.4487072,30.7301921 C30.5837627,33.8637671 26.1717546,35.2422781 26.9307388,40.3830437 C27.689723,45.5238093 31.1051518,47.3934763 31.1051518,51.0280303 C31.1051518,53.6311568 27.2244327,56.2244602 25.6206661,60.4582245 C14.9849877,54.7870105 0,56.2015396 0,56.2015396 C0,56.2015396 10.7742755,56.7745549 16.4534571,60.5957482 C21.8653444,64.2368509 27.0132371,71.427374 33.9859918,71.1817961 L38.8896896,90.1993544 C35.7950372,89.3873245 32.761564,88.3610214 29.8115788,87.1279925 C27.594025,86.1849731 24.9837794,88.0087989 24.9837794,88.0087989 C20.9776629,90.6282973 20.0932813,91.9544183 17.3939375,94.8849821 C14.6945938,97.815546 10.9755713,103.751984 10.9755713,103.751984 C13.5594174,104.079422 16.2818607,107.488044 16.2818607,107.488044 C14.1476043,106.896119 11.9371504,106.619194 9.72159742,106.666176 C10.2924855,115.307246 10.0515905,118.254182 9.95919247,119.410036 C9.86679439,120.56589 9.52690147,121.37466 8.16072994,125.549485 C6.79455841,129.724311 8.04523235,132 8.04523235,132 C7.79443758,126.20436 11.9424511,116.400887 14.1303055,114.645823 C16.31816,112.890759 17.6711318,108.13637 18.2981187,105.549615 C18.9251056,102.96286 20.9017644,102.553564 22.0468406,102.347278 C23.1919167,102.140993 21.7333471,98.316525 23.9146017,93.768421 C26.0958562,89.2203169 29.2340908,89.2203169 30.2768691,89.1155369 C31.3196473,89.010757 39.4077788,92.2130938 39.4077788,92.2130938 L48.6640859,128.106771 L51.1423343,129.930596 L35.4445614,70.0652349 C35.9185889,70.0006164 36.3872971,69.9021293 36.8470322,69.7705413 C38.2723379,69.4745747 39.6205487,68.8893009 40.8069496,68.0514955 C42.0079951,67.1622959 42.9145066,65.9378945 43.4105954,64.5348189 C45.1496591,61.6435475 45.350955,57.7077512 44.7041684,53.4772613 C45.3163478,52.4236634 46.0603331,51.4511014 46.9184223,50.5827156 C47.7632047,49.6429705 46.499331,43.9946771 48.3967915,41.1688932 C49.7794627,39.1093126 54.5313636,34.5415623 56.9997122,32.2233062 C57.059111,32.09888 47.9084017,36.3981318 43.7405885,44.6691979 Z" id="Shape" fill="#D4D3E3"></path>
                                    <path d="M74.1982002,105.084244 C71.04741,99.3235679 52.4258121,94.1279805 51.2800702,96.656349 C50.5491659,98.2708883 48.4354697,100.447287 47,101.822875 L47.0395083,102.068285 C47.0395083,102.068285 50.3318701,100.269688 51.7772169,98.4452585 C53.2225637,96.6208292 68.5188762,102.752849 69.071993,103.418039 C69.6251097,104.08323 69.1312555,105.646104 70.3000439,106.130465 C71.4688323,106.614827 73.2631694,108.067913 73.1874451,109.985985 C73.1117208,111.904058 73.131475,119.392291 73.1874451,120.777566 C73.2335382,121.823787 75.7587796,125.337025 77,127 C77,127 74.9093503,123.205833 74.1949078,121.239324 C73.4804653,119.272815 77.3489903,110.84492 74.1982002,105.084244 Z" id="Shape" fill="#B2AFCD"></path>
                                    <path d="M92.146284,35.0276911 C90.285077,35.5352829 84.5767191,38.3876216 79.4986112,43.2637782 C79.3410487,46.9839353 80.1846646,54.4962947 78.0707011,55.5998976 C75.6547429,56.8672398 73.5965828,57.0473531 70.8228264,55.7210647 C68.0490699,54.3947763 70.3402912,49.3974526 70.166316,47.891051 C70.166316,47.891051 69.7428668,49.698733 69.0797913,50.540353 C68.4167158,51.381973 67.1759111,54.2277622 68.4758017,56.8672398 C68.4758017,56.8672398 63.2893696,55.4983792 64.2511573,52.0238311 C65.212945,48.549283 63.4633448,47.5897707 63.7062537,45.7820887 C63.9491625,43.9744068 66.4832927,42.5891723 65.4558539,39.1539216 C64.6089555,36.314682 60.1315546,31.21584 57.1706927,28.0687705 L57.0164128,28 C57.0164128,28 61.6907668,33.2953292 61.6907668,35.7153961 C61.6907668,36.4358491 61.5627472,38.076517 61.3854894,40.0282895 L57,37.1792255 C58.9498359,38.764222 60.2431614,41.6951556 61.0014309,43.9383841 C60.633785,47.5570228 60.2562916,50.9431517 60.2562916,50.9431517 C60.2562916,50.9431517 59.6621497,55.0824814 64.0377914,57.9577436 C65.7338806,59.0730866 67.7439596,59.6160277 69.7724097,59.5067174 C71.5909435,60.6266943 74.3515697,61.6779007 77.2927363,60.4465811 C78.5465756,60.704944 79.8308427,60.7843317 81.1070617,60.6823657 C81.1070617,60.6823657 77.2270853,59.8178221 78.3726959,57.7710808 C79.5183065,55.7243395 83.9300564,55.6621185 84.0482283,52.2890888 C84.1664001,48.9160591 81.6946385,44.5147465 85.3185759,41.5641642 C88.9425133,38.6135819 92.5401902,36.268835 96,33.9470116 C94.608198,34.3432608 93.2032657,34.7395099 92.146284,35.0276911 Z" id="Shape" fill="#D4D3E3"></path>
                                    <path d="M73.7917738,39.6089016 C73.7917738,39.6089016 76.7028278,38.6836899 75.9766924,34.1199685 C75.250557,29.5562471 74.3225364,27.3941389 75.9766924,23.913112 C77.6308483,20.4320851 79.6236504,18.3355948 79.6236504,14.1721423 C79.6236504,10.0086898 79.4706084,10.6156549 80.8512425,9.07035453 C82.2318766,7.52505417 81.0075407,6.05521435 81.0075407,5.35638425 C81.0297044,3.17315223 82.1586916,1.15305204 84,0.00196775066 C84,0.00196775066 81.5155099,-0.230975614 78.6305056,4.37211651 C75.5957155,8.85381562 73.9871465,11.5900799 70.0243359,20.3959953 C66.4262211,28.398092 65,34.2610469 65,34.2610469 C65,34.2610469 67.7645244,36.4395595 70.2783205,41 L73.7917738,39.6089016 Z" id="Shape" fill="#D4D3E3"></path>
                                    <path d="M50.8712418,86.6240032 C50.8712418,84.7619865 51.9232308,85.1750278 51.8521962,82.8966387 C51.7811616,80.6182497 55.5730576,74.5425457 56.6926986,71.4980317 C57.5721749,69.1097204 60.6909333,65.4656304 62,64 C60.3086994,64.6895125 58.6173987,65.525588 57.5282011,65.8553548 C54.89992,66.6581205 49.5317317,82.9199556 49.071698,84.1757343 C48.6116642,85.4315131 50.5532773,94.8348642 49.5926186,97 C50.8002072,94.6183507 50.8712418,88.489351 50.8712418,86.6240032 Z" id="Shape" fill="#D4D3E3"></path>
                                    <path d="M88.4876088,72.3930517 C90.8702874,71.5334705 96.3112312,71.5824961 97,65 C96.6704456,65.8072873 95.1907461,69.0331679 93.1540997,69.167171 C90.256549,69.3972621 87.5418891,70.6632585 85.5150277,72.7296937 C83.3300817,75.0535044 79.5830477,81.5542912 76.6170577,83.7277569 C75.1142895,84.8291974 73.4566306,87.8099504 72.187846,90.4802082 L72,92 C72,92 75.2395202,87.6105798 77.526628,86.4699189 C79.8137358,85.329258 80.6178487,85.1625711 81.3659373,83.4499455 C82.1140258,81.7373199 83.5475877,80.9986684 84.7570525,80.3711415 C85.9665173,79.7436146 85.946744,73.3049268 88.4876088,72.3930517 Z" id="Shape" fill="#D4D3E3"></path>
                                    <path d="M84.5609552,148.967283 C82.4629242,153.446785 78.9271052,160.95683 77,164.882611 L78.4009217,166 C78.4009217,166 82.4997905,153.957402 84.8592375,150.698075 C87.2186845,147.438749 90.0540427,146.387674 93,146.089262 C90.379137,145.558751 86.7896942,147.505063 84.5609552,148.967283 Z" id="Shape" fill="#B2AFCD"></path>
                                    <g id="Group" opacity="0.4" transform="translate(23.000000, 126.000000)">
                                        <path d="M42.838467,24.7503803 C46.0143657,23.929727 47.4642324,19.8035738 47.8258772,16.377101 C48.187522,12.9506283 53.2604118,14.3859542 55.3546638,14.3859542 C57.4489158,14.3859542 54.7201416,8.61195531 58.8001522,5.55820957 C61.0390621,3.87766856 62.8078338,3.58014087 63.9486587,3.65534018 C62.7683816,2.67447967 60.7464586,2.56985454 57.4620665,3.98229368 C48.5557421,7.8370755 35.62201,17.2762232 29.7633647,27.2646527 C29.5825423,23.2888981 29.2669251,17.8451223 28.7770608,13.99361 C27.9387024,7.23548105 24.1743091,4.8977635 22.4811541,2.55023733 C21.8786021,1.69353084 21.1996941,0.892529234 20.4526557,0.156937682 C20.7649852,1.22934518 23.3458138,10.2924963 22.5764968,15.5662563 C22.1918383,18.1818844 21.1660822,21.9026153 20.2488195,25.3748615 C17.0729209,26.1333936 14.1534613,28.0983842 12.9600335,31.1717471 C10.9052337,36.4455071 2.90959657,39.1232563 0.726577223,39.7673547 C1.04143528,39.7428377 1.35809397,39.7549074 1.67014131,39.8033196 C2.94101577,39.7226231 4.20580374,39.5653971 5.45754837,39.3325066 C6.53590733,39.0219007 10.2739992,40.3427929 12.4340048,38.6785996 C14.5940104,37.0144062 16.1096307,36.4618548 17.6844293,36.945746 C19.2033374,37.4230981 23.1551284,41.2648018 27.6197975,39.1101782 C28.2749948,40.8744868 29.3185299,42.4708071 30.674052,43.7823438 C30.8778881,44.364321 31.00282,44.7632043 31.00282,44.7632043 C32.3869331,54.2448559 50.3573906,54.6895127 53.3984944,55.4545839 C56.4395981,56.2196551 54.9634299,64.7727588 54.9634299,64.7727588 C59.7470039,58.3121575 58.6357682,57.0468474 59.3196056,54.7549034 C60.003443,52.4629593 58.1261778,51.9529118 56.3311047,50.5960548 C54.5360316,49.2391978 56.9294624,48.8076191 54.5393192,45.4955801 C52.1491761,42.1835411 43.824771,38.5118533 43.824771,38.5118533 C41.7535327,37.3282816 38.9885941,36.0531629 38.4066747,33.5127342 C37.5222889,29.6939173 39.6658561,25.5743031 42.838467,24.7503803 Z" id="Shape" fill="#D4D3E3"></path>
                                        <path d="M0.739727942,39.7673547 C0.542865811,39.7706427 0.35021207,39.8291489 0.180822386,39.9370863 C0.180822386,39.9370863 0.38794621,39.8981894 0.739727942,39.7673547 Z" id="Shape" fill="#D1D3D4"></path>
                                    </g>
                                </g>
                                <g id="Colors-dots" transform="translate(152.000000, 60.500000) rotate(-220.000000) translate(-152.000000, -60.500000) translate(113.000000, 15.000000)">
                                    <path d="M57.87303,27.1377163 C57.8768326,27.0908371 57.8883962,27.0449659 57.9072241,27.0020732 C58.0983377,26.5384305 58.1460812,26.0257671 58.0440004,25.5333864 C58.0440004,25.5333864 58.0440004,25.5193543 58.0440004,25.514677 C58.0440004,25.5099996 58.0440004,25.4819355 58.0440004,25.4819355 C58.0266018,25.4052354 58.0174289,25.3268138 58.0166451,25.2480682 C58.0188723,24.6981061 58.4334851,24.2426389 58.9681532,24.2028021 C59.5028212,24.1629653 59.9772312,24.5521936 60.0568916,25.0960544 C60.168289,25.4089335 60.3986023,25.6620918 60.6951811,25.7976564 L60.8000429,25.8491073 L60.8387962,25.865478 C61.7057334,26.3714084 62.0924133,27.4436728 61.7551909,28.4066427 C61.4179684,29.3696127 60.4545536,29.9442684 59.4719892,29.7685223 C58.4894247,29.5927762 57.7724079,28.7175506 57.7727274,27.6943205 C57.7802348,27.5048414 57.8140081,27.3174249 57.87303,27.1377163 Z" id="Shape-Copy-2" fill="#35C850" fill-rule="nonzero" filter="url(#filter-11)"></path>
                                    <path d="M2.89703283,42.3696841 C2.93534351,42.359881 2.9744833,42.3534137 3.01398449,42.3503593 L3.14519855,42.3365558 L3.18228079,42.3365558 C4.25196062,42.2344105 4.32327261,41.8561966 4.32327261,41.8561966 C4.4305084,41.3207649 4.94094919,40.9521244 5.50182203,41.0050479 C6.06269488,41.0579714 6.48994971,41.5150921 6.48830459,42.0604873 C6.49125803,42.1027696 6.49125803,42.1451966 6.48830459,42.1874788 C6.49003432,43.0476622 6.61091523,43.9037384 6.84771702,44.7328307 C6.84678406,44.7456981 6.84678406,44.7586129 6.84771702,44.7714803 L6.8648319,44.834976 C7.23683265,46.1831345 6.71432525,47.61394 5.54962809,48.4364576 C4.38493093,49.2589753 2.817622,49.3040134 1.60455349,48.5498231 C0.39148499,47.7956328 -0.21781512,46.3973509 0.07088369,45.0302066 C0.3595825,43.6630623 1.48689494,42.6082769 2.90844275,42.3752054 L2.89703283,42.3696841 Z" id="Shape-Copy" fill="#937BF3" fill-rule="nonzero"></path>
                                    <path d="M37.0903369,42.978094 C37.1269513,42.968725 37.1643581,42.962544 37.2021103,42.9596249 L37.3275146,42.9464326 L37.362955,42.9464326 C38.3852726,42.8488099 38.4534272,42.4873422 38.4534272,42.4873422 C38.5559149,41.9756178 39.0437549,41.6232996 39.579794,41.6738798 C40.1158331,41.7244601 40.5241704,42.1613408 40.5225981,42.6825876 C40.5254208,42.7229977 40.5254208,42.7635462 40.5225981,42.8039563 C40.5242512,43.6260533 40.6397799,44.4442251 40.8660968,45.2366077 C40.8652052,45.2489053 40.8652052,45.2612483 40.8660968,45.273546 L40.8824539,45.3342304 C41.2379836,46.6226965 40.7386112,47.9901502 39.6254833,48.7762493 C38.5123554,49.5623483 37.0144422,49.6053923 35.8550847,48.8845953 C34.6957272,48.1637982 34.113405,46.827428 34.3893211,45.5208167 C34.6652372,44.2142054 35.7426357,43.2061227 37.1012417,42.9833709 L37.0903369,42.978094 Z" id="Shape-Copy-3" fill="#E3667A" fill-rule="nonzero" transform="translate(37.658595, 45.532995) rotate(64.000000) translate(-37.658595, -45.532995) "></path>
                                    <path d="M44.0948314,1.7971846 C44.1193518,1.79091025 44.144403,1.78677086 44.1696854,1.78481591 L44.253668,1.77598113 L44.2774022,1.77598113 C44.9620428,1.71060375 45.0076855,1.46853076 45.0076855,1.46853076 C45.076321,1.12583166 45.4030249,0.889886074 45.7620074,0.92375938 C46.1209899,0.957632686 46.3944511,1.25020938 46.3933982,1.59928551 C46.3952885,1.62634796 46.3952885,1.65350305 46.3933982,1.6805655 C46.3945053,2.23111945 46.4718742,2.77904468 46.6234374,3.30969905 C46.6228403,3.31793472 46.6228403,3.32620077 46.6234374,3.33443644 L46.6343917,3.37507643 C46.872488,4.23795525 46.538061,5.15373166 45.7926053,5.68017797 C45.0471495,6.20662429 44.0440051,6.2354506 43.2675896,5.75273671 C42.4911741,5.27002282 42.1011961,4.37506288 42.2859756,3.50003231 C42.4707551,2.62500175 43.1922831,1.94989419 44.1021342,1.80071851 L44.0948314,1.7971846 Z" id="Shape-Copy-4" fill="#F8CC6A" fill-rule="nonzero" transform="translate(44.475391, 3.508188) rotate(64.000000) translate(-44.475391, -3.508188) "></path>
                                    <ellipse id="Oval-7" fill="#15BBDF" filter="url(#filter-12)" cx="12.4318182" cy="17.9" rx="2.11363636" ry="2.1"></ellipse>
                                    <ellipse id="Oval-7-Copy-2" fill="#937BF3" cx="75.8863636" cy="88.9" rx="2.11363636" ry="2.1"></ellipse>
                                    <ellipse id="Oval-7-Copy-3" fill="#F8CC6A" filter="url(#filter-13)" cx="67.1818182" cy="54.6" rx="1.40909091" ry="1.4"></ellipse>
                                    <ellipse id="Oval-7-Copy" fill="#35C850" filter="url(#filter-14)" cx="22.2954545" cy="72.1" rx="2.11363636" ry="2.1"></ellipse>
                                </g>
                                <g id="Drone" transform="translate(141.000000, 83.000000)">
                                    <path d="M69.4014782,12.4068473 L49.8436192,12.4068473 L49.8436192,8.80243893 C49.7492173,7.28093893 48.4865669,6.0952381 46.9607265,6.0952381 C45.4348861,6.0952381 44.1722356,7.28093893 44.0778337,8.80243893 L44.0778337,12.4068473 L40.3594001,12.4068473 C38.5257981,12.4068473 37.0393701,13.891892 37.0393701,15.7237875 C37.0393701,17.5556829 38.5257981,19.0407276 40.3594001,19.0407276 C40.3594001,19.0407276 52.4035181,19.1677832 60.9308857,22.4082753 C62.2686372,20.8519447 65.092168,17.5181354 69.4014782,12.4068473 Z" id="Shape" fill="#324770" fill-rule="nonzero"></path>
                                    <path d="M115.520932,21.3333333 L83.5656825,21.3333333 C81.7355688,21.3333334 80.2519685,23.0389153 80.2519685,25.1428571 C80.2519685,27.246799 81.7355688,28.9523809 83.5656825,28.952381 L115.520932,28.952381 C117.351045,28.952381 118.834646,27.246799 118.834646,25.1428571 C118.834646,23.0389152 117.351045,21.3333333 115.520932,21.3333333 Z" id="Shape" fill="#FFFFFF" fill-rule="nonzero"></path>
                                    <g id="Shape-+-Shape-Mask" transform="translate(4.629921, 0.000000)">
                                        <mask id="mask-17" fill="white">
                                            <use xlink:href="#path-16"></use>
                                        </mask>
                                        <use id="Mask" fill="url(#linearGradient-15)" fill-rule="nonzero" xlink:href="#path-16"></use>
                                        <path d="M41.461094,5.71980676 C41.461094,5.71980676 30.9276446,3.44021834 33.1993435,2.90233793 C38.7712217,1.62167027 33.4592891,-0.0944243811 26.5085688,0.341002621 C26.5085688,0.341002621 51.0451766,-0.657918148 63.2626216,0.763622946 C63.2626216,0.763622946 46.3096452,0.904496388 56.481431,2.88953125 C60.6518632,3.70915855 41.461094,5.71980676 41.461094,5.71980676 Z" id="Shape" fill="#FFFFFF" fill-rule="nonzero" opacity="0.400000006" mask="url(#mask-17)"></path>
                                        <path d="M41.461094,5.71980676 C41.461094,5.71980676 30.9276446,7.99747222 33.1993435,8.54769477 C38.7712217,9.8272821 33.4592891,11.5291333 26.5085688,11.1068694 C26.5085688,11.1068694 51.0451766,12.0921517 63.2626216,10.6718097 C63.2626216,10.6718097 46.3096452,10.5310551 56.481431,8.56049064 C60.6518632,7.74155475 41.461094,5.71980676 41.461094,5.71980676 Z" id="Shape" fill="#FFFFFF" fill-rule="nonzero" opacity="0.400000006" mask="url(#mask-17)"></path>
                                    </g>
                                    <g id="Shape-+-Shape-Mask" transform="translate(111.118110, 0.000000)">
                                        <mask id="mask-19" fill="white">
                                            <use xlink:href="#path-18"></use>
                                        </mask>
                                        <use id="Mask" fill="url(#linearGradient-15)" fill-rule="nonzero" xlink:href="#path-18"></use>
                                        <path d="M40.4557774,5.71980676 C40.4557774,5.71980676 29.919088,3.44985905 32.2027911,2.89840282 C37.7650777,1.55182367 32.4628167,-0.0897204445 25.5099583,0.333490147 C25.5099583,0.333490147 50.0541135,-0.654001233 62.2640111,0.769525301 C62.2640111,0.769525301 45.30582,0.897770935 55.4807347,2.88557826 C59.6637552,3.70635031 40.4557774,5.71980676 40.4557774,5.71980676 Z" id="Shape" fill="#FFFFFF" fill-rule="nonzero" opacity="0.400000006" mask="url(#mask-19)"></path>
                                        <path d="M40.4557774,5.71980676 C40.4557774,5.71980676 29.919088,7.98975448 32.2027911,8.54121071 C37.7650777,9.82366704 32.4628167,11.529334 25.5099583,11.1061234 C25.5099583,11.1061234 50.0541135,12.0936148 62.2640111,10.6700882 C62.2640111,10.6700882 45.30582,10.5418426 55.4807347,8.55403527 C59.6637552,7.73326321 40.4557774,5.71980676 40.4557774,5.71980676 Z" id="Shape" fill="#FFFFFF" fill-rule="nonzero" opacity="0.400000006" mask="url(#mask-19)"></path>
                                    </g>
                                </g>
                            </g>
                        </g>
                        <path d="M358.270492,271.915663 C354.254098,269.104418 351.098361,269.104418 348.803279,271.915663 C345.360656,276.13253 347.081967,282.036145 335.032787,282.036145 C327,282.036145 324.991803,285.690763 329.008197,293 L380.647541,293 L397,223 C394.704918,228.62249 392.409836,231.433735 390.114754,231.433735 C386.672131,231.433735 383,233.939759 383,239 C383,244.060241 383.02459,250 377,250 C370.97541,250 366.016393,251.674699 366.016393,261.795181 C366.016393,268.542169 363.434426,271.915663 358.270492,271.915663 Z" id="Path-4" fill="#FBFBFE"></path>
                    </g>
                </g>
            </g>
        </g>
    </g>
</svg>