<?xml version="1.0" encoding="UTF-8"?>
<svg width="498px" height="532px" viewBox="0 0 498 532" version="1.1" xmlns="http://www.w3.org/2000/svg" xmlns:xlink="http://www.w3.org/1999/xlink">
    <!-- Generator: sketchtool 52.4 (67378) - http://www.bohemiancoding.com/sketch -->
    <title>987BD716-4871-495C-9658-0B520F3F2D83</title>
    <desc>Created with sketchtool.</desc>
    <g id="Marketing" stroke="none" stroke-width="1" fill="none" fill-rule="evenodd">
        <g id="1a-Home" transform="translate(-942.000000, -4333.000000)">
            <g id="Section-2" transform="translate(-3.000000, 4271.000000)">
                <g id="Bridge" transform="translate(524.000000, 0.000000)">
                    <g id="courbes_fond_bridge" transform="translate(0.000000, 3.000000)">
                        <g id="Calque_37">
                            <g id="Calque_38" transform="translate(136.332346, 124.012045)"></g>
                            <g id="Calque_36" transform="translate(432.855198, 0.000000)" fill-rule="nonzero">
                                <polygon id="Rectangle-path" fill="#CA5366" points="108.663696 232.263659 120.517794 232.263659 120.517794 490.147388 108.663696 490.147388"></polygon>
                                <polygon id="Shape" fill="#E3667A" points="108.684146 232.263659 100.626904 236.951587 100.626904 490.147388 108.684146 490.147388"></polygon>
                                <polygon id="Rectangle-path" fill="#CA5366" points="169.917819 232.263659 181.771917 232.263659 181.771917 490.147388 169.917819 490.147388"></polygon>
                                <polygon id="Shape" fill="#E3667A" points="169.938269 232.263659 161.881027 236.951587 161.881027 490.147388 169.938269 490.147388"></polygon>
                                <path d="M308.792763,80.1172323 C308.438299,81.8752053 273.005522,256.057618 240.292576,259.321452 C223.251033,261.004472 211.662783,244.276474 204.921149,229.94695 C200.23849,219.692066 196.653478,208.97109 194.225876,197.962745 L193.544215,198.099022 C193.544215,198.173974 194.300859,201.7785 195.834598,207.202323 L195.834598,337.912382 L196.51626,337.912382 L196.51626,209.519032 C198.601051,216.591758 201.198231,223.503372 204.287204,230.199063 C206.784213,235.657635 209.857789,240.833766 213.455554,245.639244 L213.455554,337.912382 L214.137216,337.912382 L214.137216,246.504602 C220.510753,254.490433 227.600035,259.03527 235.159663,259.92107 L235.159663,331.466481 L235.841325,331.466481 L235.841325,259.996023 C236.522987,260.057347 237.204648,260.091417 237.940843,260.091417 C238.677038,260.091417 239.542748,260.050533 240.353926,259.975581 C254.334808,258.612811 270.210709,227.902796 287.545367,168.765403 C300.43559,124.809266 309.358542,80.6895956 309.453975,80.2466955 L308.792763,80.1172323 Z" id="Shape" fill="#E3667A"></path>
                                <path d="M635.881327,0.395203221 C635.724545,0.838103383 619.773661,44.930518 596.747127,88.8525863 C583.229775,114.63619 569.957821,135.31622 557.299363,150.313501 C541.518894,169.017516 526.672302,178.877155 513.175399,179.61305 C482.500622,181.296071 461.682672,164.534003 449.59681,150.17041 C441.596725,140.58253 435.155778,129.796025 430.510282,118.206646 L429.869519,118.431503 C434.547222,130.094771 441.034409,140.948348 449.09238,150.592869 C453.103518,155.385171 457.576281,159.771674 462.446134,163.689086 L462.446134,302.330464 L463.127795,302.330464 L463.127795,164.213752 C474.538813,173.153522 489.712603,180.396643 508.928647,180.396643 C510.346503,180.396643 511.784809,180.358031 513.243566,180.280807 C515.48654,180.147981 517.710673,179.791899 519.882951,179.217847 L519.882951,285.125496 L520.564613,285.125496 L520.564613,179.054315 C532.227845,175.783667 544.736337,166.305604 557.858326,150.756401 C570.550867,135.711423 583.850087,114.99051 597.394706,89.1592095 C620.441689,45.1962581 636.406207,1.06977424 636.569806,0.626874075 L635.881327,0.395203221 Z" id="Shape" fill="#E3667A"></path>
                                <polygon id="Rectangle-path" fill="#E3667A" points="412.439429 59.5462233 413.139882 59.5462233 413.139882 306.650444 412.439429 306.650444"></polygon>
                                <path d="M89.6657838,227.1669 L88.9841221,227.023809 C87.6207986,233.347061 86.04616,239.59536 84.3079226,245.59836 C71.0155189,291.326099 48.8069798,319.869311 32.5016312,335.725137 C14.8670423,352.95736 0.163598815,359.396447 0,359.464585 L0.272664692,360.084645 C0.368097334,360.043762 7.1369983,357.06611 16.9665604,349.863872 L16.9665604,355.539808 L17.6482222,355.539808 L17.6482222,349.359648 C20.2180869,347.444956 22.9924501,345.271338 25.9031457,342.729773 L25.9031457,356.364284 L26.5848074,356.364284 L26.5848074,342.116527 C28.6479703,340.2995 30.7702104,338.339383 32.951528,336.236175 C33.7490722,335.46621 34.5602497,334.648548 35.3782437,333.817259 L35.3782437,356.364284 L36.0599055,356.364284 L36.0599055,333.122246 C38.7320194,330.396707 41.5131993,327.316847 44.3829952,323.916737 L44.3829952,354.361013 L45.0646569,354.361013 L45.0646569,323.092261 C47.9821691,319.576315 50.9678475,315.712863 53.9262594,311.508718 L53.9262594,353.379818 L54.6079211,353.379818 L54.6079211,310.513897 C57.9616968,305.696506 61.3086559,300.415773 64.5738156,294.637629 L64.5738156,352.085187 L65.2554773,352.085187 L65.2554773,293.438392 C68.4592874,287.68069 71.5676649,281.432391 74.5124436,274.68668 L74.5124436,350.163682 L75.1941053,350.163682 L75.1941053,273.119495 C78.9238057,264.352817 82.128727,255.372216 84.7919025,246.225235 L84.7919025,350.163682 L85.4735642,350.163682 L85.4735642,243.82676 C87.0482028,238.40975 88.4456093,232.822394 89.6657838,227.1669 Z" id="Shape" fill="#E3667A"></path>
                            </g>
                        </g>
                    </g>
                    <g id="front_bridge" transform="translate(421.000000, 0.000000)" fill-rule="nonzero">
                        <polygon id="Shape" fill="#E3667A" points="389.42998 106.195774 374.556982 115.057176 374.556982 593.482239 389.42998 593.482239"></polygon>
                        <path d="M374.52973,383.870436 C374.52973,383.870436 374.52973,339.07431 336.280987,341.901746 L374.556982,339.07431 L374.52973,383.870436 Z" id="Shape" fill="#A24050"></path>
                        <path d="M298.216198,375.592521 C298.216198,375.592521 313.981711,350.091091 332.363455,346.534653 L303.182947,346.534653 C300.395423,348.391519 297.790244,350.508512 295.402387,352.857209 L298.216198,375.592521 Z" id="Shape" fill="#CA5366"></path>
                        <path d="M439.697031,338.672337 L544.5302,330.987161 L544.489321,308.64701 L411.286404,326.361067 L411.286404,106.195774 L389.402727,106.195774 L389.402727,123.392036 L298.216198,123.392036 L298.216198,106.195774 L276.332521,106.195774 L276.332521,593.482239 L298.216198,593.482239 L298.216198,349.035061 L389.402727,342.358224 L389.402727,593.482239 L411.286404,593.482239 L411.286404,367.641634 C417.125231,357.612752 426.057205,347.29772 439.697031,338.672337 Z M298.216198,147.006237 L389.402727,147.006237 L389.402727,216.016116 L298.216198,216.016116 L298.216198,147.006237 Z M298.216198,341.383951 L298.216198,239.63713 L389.402727,239.63713 L389.402727,329.263447 L298.216198,341.383951 Z" id="Shape" fill="#CA5366"></path>
                        <polygon id="Rectangle-path" fill="#CA5366" points="126.11048 302.045117 187.339809 302.045117 187.339809 313.852218 126.11048 313.852218"></polygon>
                        <polyline id="Shape" fill="#A24050" points="181.412412 313.852218 173.379767 315.81439 132.037877 315.81439 132.037877 313.852218 181.412412 313.852218"></polyline>
                        <polyline id="Shape" fill="#A24050" points="181.412412 263.012873 173.379767 264.975045 132.037877 264.975045 132.037877 263.012873 181.412412 263.012873"></polyline>
                        <polygon id="Rectangle-path" fill="#CA5366" points="126.11048 251.205772 187.339809 251.205772 187.339809 263.012873 126.11048 263.012873"></polygon>
                        <polygon id="Shape" fill="#A24050" points="389.402727 239.63713 374.556982 243.125437 298.216198 243.125437 298.216198 239.63713"></polygon>
                        <polygon id="Shape" fill="#A24050" points="389.402727 146.978984 374.556982 150.467291 298.216198 150.467291 298.216198 146.978984"></polygon>
                        <path d="M261.500402,346.234877 L126.11048,359.479541 L135.287726,359.159326 L120.210335,360.058655 L120.210335,362.259286 L187.360248,362.259286 L247.601678,357.728575 C246.319796,356.297187 244.864152,355.03151 243.268547,353.960931 L261.520841,352.857209 L261.500402,346.234877 Z" id="Shape" fill="#CA5366"></path>
                        <path d="M507.916601,86.2061414 C530.100054,43.2836178 545.334146,1.12416133 545.490847,0.694936096 L543.569553,0.013626198 C543.412851,0.456477632 527.483824,44.4895363 504.496425,88.3658938 C474.191756,146.168225 445.508605,177.426724 421.526493,178.755278 C391.194573,180.438113 370.544067,163.827778 358.566637,149.595214 C350.595786,140.064539 344.178445,129.336015 339.551275,117.805294 L337.629981,118.486604 C340.150351,124.869877 343.24961,131.0091 346.888984,136.827467 L346.888984,314.376826 L303.666678,322.825069 L303.666678,80.2378667 L301.622748,80.2378667 L301.622748,323.240668 L276.373399,328.173352 L276.373399,106.195774 L261.500402,114.855223 L261.500402,330.387609 L228.593129,334.673048 L228.593129,173.454687 C228.708952,173.052714 228.824775,172.650741 228.94741,172.248768 C241.830982,128.283841 250.74933,84.1553986 250.844714,83.7125472 L249.482094,83.4468363 C249.127813,85.2046158 213.767824,259.122593 181.351094,262.331563 C164.529551,263.993959 153.029038,247.390437 146.338574,233.164686 C141.66949,222.932083 138.09325,212.235335 135.669259,201.252131 L134.306639,201.524655 C134.306639,201.599599 135.05608,205.196915 136.589028,210.606516 L136.589028,346.24169 L0.102196499,362.259286 L34.6854918,364.568926 L112.157251,360.11316 L112.157251,360.842161 L234.370638,348.891986 C248.33068,355.085093 256.608596,366.878567 261.507215,378.692481 L261.507215,582.40414 L276.380212,582.40414 L276.380212,378.726546 C282.66189,365.175292 294.169216,350.234166 315.174003,339.128815 L544.482508,308.633384 L544.5302,275.739742 L507.916601,282.900309 L507.916601,86.2061414 Z M227.216883,178.026276 L227.216883,334.857002 L202.008413,338.134102 L202.008413,243.343456 C210.011535,229.035948 218.4189,207.263555 227.230509,178.026276 L227.216883,178.026276 Z M200.645793,245.714415 L200.645793,338.311243 L183.749305,340.511874 L183.749305,263.210453 C189.138468,261.513991 194.779714,255.661539 200.652606,245.714415 L200.645793,245.714415 Z M165.333496,259.681268 L165.333496,342.869206 L151.591474,344.483911 L151.591474,245.441891 C155.842848,251.839391 160.448504,256.60856 165.340309,259.681268 L165.333496,259.681268 Z M137.972087,215.178105 C139.932002,221.516675 142.319802,227.714937 145.119029,233.730174 C146.648141,237.015978 148.363281,240.211961 150.256106,243.302578 L150.256106,344.640612 L137.992526,346.084989 L137.972087,215.178105 Z M166.702929,342.698879 L166.702929,260.485213 C170.456845,262.641169 174.705727,263.786724 179.03464,263.810006 C179.845399,263.810006 180.662971,263.769127 181.480543,263.68737 C181.787133,263.68737 182.086909,263.612426 182.393499,263.557921 L182.393499,340.689014 L168.515214,342.501299 L166.702929,342.698879 Z M392.754772,305.410788 L348.932914,313.974853 L348.932914,140.050063 C351.394498,143.808005 354.074377,147.418333 356.958745,150.862451 C368.609146,164.713481 381.05668,172.521292 392.754772,176.690909 L392.754772,305.410788 Z M439.485825,296.274422 L394.798702,305.008815 L394.798702,177.379032 C402.104987,179.732891 409.735293,180.926061 417.411381,180.91503 C418.869384,180.91503 420.279696,180.876423 421.642316,180.799208 C427.378946,180.478992 433.340409,178.578137 439.485825,175.11027 L439.485825,296.274422 Z M505.872671,283.295469 L441.529755,295.872449 L441.529755,173.917978 C449.632802,168.921705 458.035625,161.288763 466.738225,151.019152 C479.32202,136.098465 492.491742,115.591037 505.899923,90.1236733 L505.872671,283.295469 Z" id="Shape" fill="#E3667A"></path>
                    </g>
                </g>
            </g>
        </g>
    </g>
</svg>