<?xml version="1.0" encoding="UTF-8"?>
<svg width="477px" height="308px" viewBox="0 0 477 308" version="1.1" xmlns="http://www.w3.org/2000/svg" xmlns:xlink="http://www.w3.org/1999/xlink">
    <!-- Generator: sketchtool 52.4 (67378) - http://www.bohemiancoding.com/sketch -->
    <title>5E365C88-810F-405C-BB45-2361F5165921</title>
    <desc>Created with sketchtool.</desc>
    <defs>
        <linearGradient x1="50%" y1="6.19177969%" x2="50%" y2="52.4228346%" id="linearGradient-1">
            <stop stop-color="#FFFFFF" stop-opacity="0" offset="0%"></stop>
            <stop stop-color="#EBEAF5" offset="100%"></stop>
        </linearGradient>
        <path d="M377,286 C406.333333,224 413.666667,164 399,106 C377,19 303,-19 241,11 C179,41 194,163 109,115 C24,67 -38,202 28,279 C28,286.333333 144.333333,288.666667 377,286 Z" id="path-2"></path>
        <filter x="-7.0%" y="-42.9%" width="114.0%" height="185.7%" filterUnits="objectBoundingBox" id="filter-4">
            <feGaussianBlur stdDeviation="2" in="SourceGraphic"></feGaussianBlur>
        </filter>
        <filter x="-11.5%" y="-4.1%" width="123.1%" height="108.1%" filterUnits="objectBoundingBox" id="filter-5">
            <feGaussianBlur stdDeviation="2" in="SourceGraphic"></feGaussianBlur>
        </filter>
        <filter x="-14.3%" y="-4.6%" width="128.6%" height="109.2%" filterUnits="objectBoundingBox" id="filter-6">
            <feGaussianBlur stdDeviation="2" in="SourceGraphic"></feGaussianBlur>
        </filter>
        <linearGradient x1="-42.3060706%" y1="0%" x2="50%" y2="110.846441%" id="linearGradient-7">
            <stop stop-color="#98B6F7" offset="0%"></stop>
            <stop stop-color="#192C50" offset="87%"></stop>
            <stop stop-color="#192C50" offset="100%"></stop>
        </linearGradient>
        <linearGradient x1="-1163.36%" y1="-48.5%" x2="-1138.88%" y2="-55.62%" id="linearGradient-8">
            <stop stop-color="#FFFFFF" offset="0%"></stop>
            <stop stop-color="#D3CDF4" offset="24%"></stop>
            <stop stop-color="#9587E6" offset="60%"></stop>
            <stop stop-color="#6F5CDD" offset="87%"></stop>
            <stop stop-color="#604BD9" offset="100%"></stop>
        </linearGradient>
        <linearGradient x1="7.00042788%" y1="12.4243127%" x2="59.5608068%" y2="50%" id="linearGradient-9">
            <stop stop-color="#F8CC6A" stop-opacity="0.9" offset="0%"></stop>
            <stop stop-color="#F37BF0" stop-opacity="0" offset="100%"></stop>
        </linearGradient>
        <filter x="-1.3%" y="-1.3%" width="102.5%" height="102.5%" filterUnits="objectBoundingBox" id="filter-10">
            <feGaussianBlur stdDeviation="1" in="SourceGraphic"></feGaussianBlur>
        </filter>
        <filter x="-73.1%" y="-53.6%" width="246.2%" height="207.1%" filterUnits="objectBoundingBox" id="filter-11">
            <feGaussianBlur stdDeviation="1" in="SourceGraphic"></feGaussianBlur>
        </filter>
        <filter x="-71.0%" y="-71.4%" width="241.9%" height="242.9%" filterUnits="objectBoundingBox" id="filter-12">
            <feGaussianBlur stdDeviation="1" in="SourceGraphic"></feGaussianBlur>
        </filter>
        <filter x="-106.5%" y="-107.1%" width="312.9%" height="314.3%" filterUnits="objectBoundingBox" id="filter-13">
            <feGaussianBlur stdDeviation="1" in="SourceGraphic"></feGaussianBlur>
        </filter>
        <filter x="-212.9%" y="-214.3%" width="525.8%" height="528.6%" filterUnits="objectBoundingBox" id="filter-14">
            <feGaussianBlur stdDeviation="3" in="SourceGraphic"></feGaussianBlur>
        </filter>
    </defs>
    <g id="Marketing" stroke="none" stroke-width="1" fill="none" fill-rule="evenodd">
        <g id="1a-Home" transform="translate(-604.000000, -1887.000000)">
            <g id="Section-1" transform="translate(0.000000, 708.000000)">
                <g id="3" transform="translate(322.000000, 1163.666667)">
                    <g id="illu3-Home" transform="translate(282.000000, 0.000000)">
                        <g id="Group-13" transform="translate(52.000000, 21.000000)">
                            <mask id="mask-3" fill="white">
                                <use xlink:href="#path-2"></use>
                            </mask>
                            <use id="Mask" fill="url(#linearGradient-1)" xlink:href="#path-2"></use>
                            <g mask="url(#mask-3)" fill-rule="nonzero" id="Shape">
                                <g transform="translate(-53.000000, 109.000000)">
                                    <path d="M94,178 C94,178 161.782555,60.5829658 257.949384,21.3271665 C351.100385,-16.7004763 386.505239,2.29450838 415.795395,30.4253196 C432.18052,46.1577781 464.214741,89.0000958 460.738422,178 L94,178 Z" fill="#DAD9E9"></path>
                                    <path d="M357.399298,144.72671 C357.399298,144.72671 243.704487,136.959691 131.692088,112.394762 C34.0216821,90.965143 0,178 0,178 L460,178 C460,178 440.365578,149.590941 357.399298,144.72671 Z" fill="#EBEAF5"></path>
                                </g>
                            </g>
                        </g>
                        <path d="M351,310.981186 C351,310.981186 359.380276,310.405477 372.259397,291.595216 C378.128602,283.016021 399.692942,297.668383 408.811104,285.653747 C417.929265,273.639112 423.403174,251.758402 444.380217,255.40456 C465.35726,259.050717 464.999611,281.228689 464.999611,281.228689 L459.879586,311 L351,310.981186 Z" id="Shape" fill="#FBFBFE" fill-rule="nonzero"></path>
                        <g id="Arbre-Copy-3" transform="translate(387.000000, 139.000000)" fill-rule="nonzero">
                            <path d="M68.6274482,142.219518 C53.496178,141.914051 44.6160948,141.986095 40.032083,142.086957 L31.915042,142.121538 C26.3635503,142.029321 17.2559942,142.101366 18.9577222,143.620059 C21.3850601,145.781388 5.46771255,147.668948 1.15148534,148.478726 C-3.16474186,149.288504 4.92638452,149.683307 20.8437321,149.683307 C36.7610796,149.683307 10.5930524,156.077958 26.5103999,155.876234 C42.4277475,155.67451 80.4675591,157.66005 71.5644407,150.910941 C62.6613223,144.161832 78.5786698,146.184836 82.0857844,146.38656 C85.5928989,146.588284 93.1801296,142.718065 68.6274482,142.219518 Z" id="Shape" fill="#E6E5F2" filter="url(#filter-4)"></path>
                            <path d="M61.4499619,84.2381176 C56.1661099,72.5983529 58.8080359,65.9557647 65.1469702,51.5823529 C71.4859044,37.2089412 52.485983,32.6818824 46.0204388,21.2423529 C39.5548947,9.80282353 46.0204388,0 37.1577478,0 C28.2950568,0 31.9076585,16.3409412 23.5514069,30.2790588 C15.1951554,44.2171765 32.9289781,58.2858824 27.1218053,69.1856471 C21.3146325,80.0854118 31.3421344,82.8016471 22.9014762,100.779294 C14.4608181,118.756941 27.1218053,126.896941 27.1218053,126.896941 C30.5454325,130.192742 35.0171546,132.087163 39.6983859,132.224941 L39.6983859,148 L50.0466328,148 L50.0466328,130.98 C58.1581052,128.594588 65.6787316,123.423294 69.3757399,118.252 C76.7697564,107.857176 66.7338139,95.8778824 61.4499619,84.2381176 Z" id="Shape" fill="#D4D3E3" filter="url(#filter-5)"></path>
                            <path d="M70.3450818,118.216964 C77.8254793,107.863401 67.6722914,95.881481 62.3267105,84.2565807 C56.9811297,72.6316804 59.6539201,65.9702207 66.0669093,51.5936586 C72.4798985,37.2170965 53.2580094,32.6890455 46.7169312,21.2470088 C40.1758531,9.80497208 46.7169312,0 37.7507013,0 C34.6082513,0 33.0199477,2.00279181 31.909843,5.22467429 C30.6801886,11.7642249 30.1080578,20.158535 34.1300523,23.7896836 C41.1749472,30.1463706 48.7663552,30.9736107 48.2283814,37.6089471 C47.6904076,44.2442834 36.5722826,43.7044004 41.4482038,56.1304174 C46.324125,68.5564345 47.1438946,69.1224408 41.7214603,80.7299256 C36.299026,92.3374103 28.7076181,100.914584 37.1102564,114.455198 C40.8904326,120.622091 45.5303004,126.195389 50.8840933,131 C59.0561714,128.526988 66.5963438,123.371976 70.3450818,118.216964 Z" id="Shape" fill="#9B99BE" filter="url(#filter-6)"></path>
                        </g>
                        <g id="Arbre" transform="translate(0.000000, 91.000000)" fill-rule="nonzero">
                            <path d="M102.436087,211.167826 C80.0452174,210.716174 66.9046957,210.822696 60.1213913,210.971826 L48.11,211.022957 C39.8950435,210.886609 26.417913,210.99313 28.936087,213.238609 C32.528,216.434261 8.97391304,219.22513 2.58686957,220.422435 C-3.80017391,221.619739 8.17286957,222.203478 31.7269565,222.203478 C55.2810435,222.203478 16.5582609,231.658348 40.1123478,231.360087 C63.6664348,231.061826 119.956783,233.997565 106.782174,224.018609 C93.6075652,214.039652 117.161652,217.030783 122.351391,217.329043 C127.54113,217.627304 138.768522,211.904957 102.436087,211.167826 Z" id="Shape" fill="#E6E5F2"></path>
                            <path d="M93.352247,125.574814 C85.4879652,108.226674 89.4201061,98.3264261 98.8547318,76.9040032 C108.289357,55.4815802 80.010606,48.7343604 70.3875392,31.6846549 C60.7644723,14.6349494 70.3875392,0.024623374 57.1966511,0.024623374 C44.0057631,0.024623374 49.3826203,24.3794919 36.9454973,45.1531437 C24.5083744,65.9267955 50.9027131,86.8950787 42.2595408,103.140308 C33.6163685,119.385537 48.5409161,123.433869 35.9781656,150.228117 C23.4154151,177.022365 42.2595408,189.154385 42.2595408,189.154385 C47.3551357,194.066514 54.0106747,196.889997 60.978039,197.095344 L60.978039,220.60681 L76.3799711,220.60681 L76.3799711,195.239859 C88.4527744,191.684593 99.646185,183.977192 105.14867,176.269791 C116.153639,160.777136 101.216529,142.922954 93.352247,125.574814 Z" id="Shape" fill="#D4D3E3"></path>
                            <path d="M105.14867,176.204913 C116.153639,160.777136 101.216529,142.922954 93.352247,125.600765 C85.4879652,108.278575 89.4201061,98.352377 98.8547318,76.929954 C108.289357,55.5075311 80.010606,48.7603112 70.3875392,31.7106057 C60.7644723,14.6609002 70.3875392,0.0505742195 57.1966511,0.0505742195 C52.573559,0.0505742195 50.2368874,3.03492145 48.6037298,7.83582787 C46.7946937,17.5803704 45.9529894,30.0886779 51.8700449,35.4994292 C62.2343141,44.9714878 73.4025993,46.2041529 72.611146,56.0914251 C71.8196927,65.9786972 55.4629916,65.174221 62.6363221,83.6901493 C69.8096526,102.206078 71.0156767,103.04948 63.0383301,120.345719 C55.0609836,137.641957 43.8926984,150.422748 56.2544449,170.599531 C61.8157435,179.788779 68.6417982,188.093514 76.5181614,195.252834 C88.5407136,191.567814 99.6336223,183.886364 105.14867,176.204913 Z" id="Shape" fill="#9B99BE"></path>
                        </g>
                        <g id="Fichier-29securiteman" transform="translate(248.000000, 111.000000)" fill-rule="nonzero">
                            <path d="M96.5308738,16.1152104 C96.5308738,16.1152104 98.5128155,24.115534 95.1943042,30.6494498 C91.8757929,37.1833657 103.488673,41.4985761 115.101553,57.7092557 C126.714434,73.9199353 98.7495793,86.8464725 98.7495793,86.8464725 C98.7495793,86.8464725 107.372362,95.0530097 100.964466,113.871909 C94.5565696,132.690809 103.106796,162.500129 103.106796,162.500129 L81.3398058,173.406537 L78.1014887,161.469061 L80.8395469,160.648026 C80.8395469,160.648026 73.824466,140.912621 73.7404531,123.789256 C73.6564401,106.66589 65.0909385,103.958382 65.0909385,103.958382 C65.0909385,103.958382 52.068932,124.33534 51.7252427,132.217282 C51.3815534,140.099223 64.418835,159.063236 64.418835,159.063236 L51.4617476,167.464531 L43.7363754,163.370809 L44.8438188,156.252621 L37.2521036,114.662395 L53.6728155,94.7627832 L58.9427184,19.4031715 L61.7609709,5.96873786 C61.7609709,5.96873786 86.3042071,-11.8381877 96.5308738,16.1152104 Z" id="Shape" fill="#000000" opacity="0.05"></path>
                            <path d="M14.6144337,59.1603883 C14.8091909,58.9961812 14.7900971,58.7365049 14.6449838,58.4310032 C14.9645827,57.4423119 15.2046565,56.4296601 15.3629126,55.4027184 C15.3629126,55.4027184 10.471068,54.0508738 9.34834951,53.8752104 C8.22563107,53.6995469 4.57106796,54.0432362 4.12045307,54.1577994 C3.66983819,54.2723625 0.0267313916,55.9602589 0.408608414,56.5177994 C0.653009709,56.8767638 1.17236246,56.823301 1.85592233,56.5788997 C1.91763579,56.8086567 2.14490223,56.9529792 2.37909385,56.9111327 C2.92135922,56.8576699 5.18970874,56.0710032 5.85035599,56.0175405 L5.68614887,56.0786408 C5.68614887,56.0786408 4.00588997,57.0027832 4.20064725,57.121165 C4.39540453,57.2395469 4.69708738,57.5412298 5.60977346,57.2891909 C6.52245955,57.0371521 6.67139159,56.7545631 7.4007767,56.7316505 C7.93264105,56.8481689 8.44641652,57.0356969 8.92828479,57.2891909 C9.43442713,57.5356548 9.87730113,57.8949184 10.2228479,58.3393528 C10.8911327,59.2940453 12.9647249,61.8297087 16.3023301,61.5509385 C18.1391586,61.4058252 16.4894498,60.2105502 14.6144337,59.1603883 Z" id="Shape" fill="url(#linearGradient-7)"></path>
                            <path d="M72.128932,163.596117 C72.128932,163.596117 70.7809061,168.060259 69.8376699,170.038382 C68.8944337,172.016505 74.2445307,174.239029 75.7605825,174.338317 C77.2766343,174.437605 79.1363754,174.91877 81.3436246,173.406537 C83.5508738,171.894304 84.7155987,168.675081 84.7155987,167.960971 C84.7155987,167.246861 78.1053074,161.469061 78.1053074,161.469061 L72.128932,163.596117 Z" id="Shape" fill="#292758"></path>
                            <path d="M42.4570874,162.752168 C42.4570874,162.752168 32.4595469,167.537087 28.1252427,171.184013 C24.6883495,174.055728 29.3434304,175.189903 38.5390291,173.799871 C40.5629773,173.494369 46.8066667,172.111974 50.1480906,169.373916 C50.1480906,169.373916 54.2914563,165.937023 49.1361165,161.625631 L42.4570874,162.752168 Z" id="Shape" fill="#292758"></path>
                            <path d="M78.1167638,161.469061 L77.696699,158.921942 L71.2429773,161.469061 L72.128932,163.596117 L72.128932,167.796764 C74.5948194,166.359053 77.482382,165.819321 80.3011003,166.269256 L78.1167638,161.469061 Z" id="Shape" fill="url(#linearGradient-7)"></path>
                            <path d="M75.7720388,119.260194 C76.7840129,109.655987 84.9943689,92.0820065 78.1664078,82.0539159 L48.3418123,81.187055 C48.3418123,81.187055 45.9321683,83.9251133 41.7964401,89.9244013 C38.5695793,94.6062136 32.8414239,101.961165 31.0847896,114.341618 C31.0847896,114.341618 30.3210356,129.784725 38.9361812,151.272945 L41.4794822,158.788285 C41.4794822,158.788285 45.8481553,162.293916 48.612945,157.547184 C48.612945,157.547184 44.1831715,128.604725 44.4848544,122.536699 C44.7865372,116.468673 45.5655663,116.609968 51.1066019,108.556181 C52.0918447,107.120324 54.8910032,103.729256 56.4299676,102.610356 C57.8009061,104.179871 58.2209709,105.692104 58.4424595,110.163883 C58.4959223,113.677152 58.6448544,117.25534 58.9427184,120.654045 C60.2983819,135.929126 71.2429773,161.469061 71.2429773,161.469061 C71.2429773,161.469061 76.0546278,163.714498 77.696699,158.921942 C77.696699,158.921942 74.7600647,128.86822 75.7720388,119.260194 Z" id="Shape" fill="#0B1D4C"></path>
                            <path d="M96.0497087,62.0015534 C86.7319094,49.2392233 79.2165696,42.9077023 73.9352104,39.7801294 C72.1747573,36.58 69.5016181,34.3345631 65.8585113,33.738835 C61.2208316,32.9340921 56.4653294,33.1201996 51.9047249,34.2849191 C49.7280259,32.8872492 47.1961812,32.1807767 46.2262136,32.3373463 C46.2262136,32.3373463 38.1036893,31.627055 40.4980583,50.4688673 C40.9457313,52.9013372 41.2137692,55.3634569 41.3,57.8352751 L45.3440777,59.2520388 C40.635534,58.0758576 22.6682201,56.4719741 22.6682201,56.4719741 C25.0587702,60.8100971 21.3354693,63.2273786 21.3354693,63.2273786 C27.0636246,64.9420065 39.5930097,68.6309385 45.9970874,70.0324272 C46.3597292,74.2549352 47.2910166,78.4091192 48.7656958,82.3823301 C48.7656958,82.3823301 57.10589,91.0509385 78.0556634,84.196246 C78.1359152,83.4812951 78.1665387,82.7616434 78.1473139,82.0424595 C85.9032362,76.8756634 92.7197411,70.1775405 94.9231715,67.8060841 C97.6841424,64.8694498 96.0497087,62.0015534 96.0497087,62.0015534 Z M77.1697087,69.1197411 C76.6763163,67.1628019 76.5468728,65.1318336 76.7878317,63.1280906 C78.6743042,64.4073786 78.5521036,65.4842718 78.5521036,65.4842718 L82.7069256,63.0173463 C81.0724919,64.2088026 80.4347573,66.0647249 77.1697087,69.1197411 Z" id="Shape" fill="#0B1D4C"></path>
                            <path d="M49.4759871,35.5145631 C49.4759871,35.5145631 44.6452427,42.6403883 50.0984466,45.9054369 C54.8260841,48.7389644 59.698835,43.8738511 59.698835,43.8738511 C59.698835,43.8738511 60.596246,37.5690615 65.2169579,36.713657 L65.8585113,33.738835 L68.0619417,32.9750809 L71.082589,30.1415534 L66.5000647,18.5133981 L49.8082201,16.1533981 L49.4759871,20.7970227 L48.2959871,27.8121036 L49.4759871,35.5145631 Z" id="Shape" fill="url(#linearGradient-7)"></path>
                            <path d="M55.6700324,28.9080906 C53.9897735,25.0396764 50.3657605,25.9638188 49.4759871,26.6550162 C48.9867359,26.9884778 48.4443935,27.2364058 47.8721036,27.3882201 C45.3020712,28.6636893 43.9502265,31.4055663 43.7287379,32.2495146 C43.0489968,34.8233657 51.4617476,36.7403883 51.4617476,36.7403883 C56.2733981,38.1266019 58.8434304,37.3552104 58.8434304,37.3552104 C62.4979935,37.2062783 62.440712,32.4824595 62.440712,32.4824595 C62.1810356,31.909644 62.0893851,31.7187055 61.925178,31.3368285 C61.791521,31.0236893 61.741877,30.8212945 61.8640777,30.7220065 C57.487767,34.1168932 55.975534,29.6718447 55.975534,29.6718447 L55.6700324,28.9080906 Z" id="Shape" fill="#FFFFFF"></path>
                            <path d="M61.8869903,30.7194498 C61.9151062,30.69379 61.9451992,30.6703843 61.9769903,30.6494498 L61.8869903,30.7194498 Z" id="Shape" fill="url(#linearGradient-8)"></path>
                            <path d="M49.7471197,19.9339806 C49.7471197,19.9339806 48.8038835,19.1358576 48.8038835,18.2422654 C48.8038835,17.3486731 49.3232362,14.2707443 49.7471197,13.361877 C49.9949059,12.8307947 50.498329,12.4644065 51.0798706,12.3919094 C51.8761638,10.7331639 53.1968047,9.38299644 54.8375405,8.55022654 C57.6901618,7.02271845 60.2181877,5.06750809 66.4389644,6.43080906 C72.6597411,7.79411003 75.3825243,13.5566343 75.98589,17.318123 C76.5892557,21.0796117 74.523301,25.9370874 74.523301,25.9370874 C74.7253841,26.3677188 74.7253841,26.8659382 74.523301,27.2965696 C74.1681553,27.9457605 72.8735922,30.3744984 72.4191586,30.6494498 C71.7318566,31.1799264 70.7731919,31.1799264 70.08589,30.6494498 L70.9947573,29.5038188 C70.9947573,29.5038188 62.6278317,16.3443366 50.1710032,17.6427184 L49.7471197,19.9339806 Z" id="Shape" fill="#FFFFFF"></path>
                            <path d="M64.2775405,21.8777346 C64.2775405,21.8777346 66.6375405,25.776699 61.8869903,30.7029126 C61.8869903,30.7029126 61.3676375,31.5583172 62.440712,32.4824595 C62.440712,32.4824595 63.9147573,32.6046602 66.2594822,30.3210356 C68.6042071,28.037411 69.6963754,28.6751456 70.0782524,29.3739806 C70.4601294,30.0728155 69.4748867,32.1349515 66.8590291,33.139288 C64.2431715,34.1436246 65.2055016,36.713657 65.2055016,36.713657 C65.2055016,36.713657 68.3216181,32.5511974 69.8109385,31.7988997 C71.3002589,31.0466019 71.2582524,28.9119094 71.2582524,28.9119094 L64.2775405,21.8777346 Z" id="Shape" fill="#FFFFFF"></path>
                            <path d="M50.1710032,17.6427184 C50.1710032,17.6427184 48.5862136,20.4533333 48.8038835,24.8220065 C49.3833283,22.4541391 49.8396471,20.0578282 50.1710032,17.6427184 Z" id="Shape" fill="url(#linearGradient-7)"></path>
                            <path d="M48.612945,157.547184 L49.376699,163.550291 C49.376699,163.550291 47.6353398,166.07068 43.1482848,167.223948 C40.9028479,167.800583 39.9825243,167.258317 40.3873139,166.051586 C40.7921036,164.844854 42.6442071,163.550291 42.6442071,163.550291 L41.4718447,158.788285 C41.4718447,158.788285 44.8858252,161.839482 48.612945,157.547184 Z" id="Shape" fill="url(#linearGradient-7)"></path>
                            <path d="M68.8333333,79.2662136 L65.8623301,82.0921036 C65.8623301,82.0921036 59.6950162,84.1466019 58.9427184,84.1466019 C58.1904207,84.1466019 56.4414239,87.3467314 56.4414239,87.3467314 L57.1249838,91.9292557 L58.0414887,90.2528155 C58.0414887,90.2528155 58.1140453,87.8889968 58.1140453,87.5109385 C58.1140453,87.1328803 60.0959871,86.0636246 60.0959871,86.0636246 C60.0959871,86.0636246 57.8581877,89.68 57.5832362,90.2642718 C57.1874156,91.1976368 56.9140137,92.1782897 56.7698382,93.1818123 C56.8794809,94.085819 57.0608071,94.9796803 57.3121036,95.8549515 C57.388479,96.0878964 57.4686731,96.4354045 57.6939806,96.477411 C57.919288,96.5194175 57.5755987,97.4091909 57.9269256,97.6421359 C58.2782524,97.8750809 58.9350809,96.9203883 58.9350809,96.9203883 C58.9350809,96.9203883 59.3856958,97.2335275 60.1418123,96.6072492 C60.8979288,95.9809709 62.9027832,93.0252427 62.9027832,93.0252427 C62.9027832,93.0252427 64.1591586,91.142589 64.3462783,90.4513916 C64.5333981,89.7601942 64.5754045,91.1960518 63.9644013,92.8992233 C63.3533981,94.6023948 62.3376052,95.2554045 62.0779288,95.6220065 C61.8182524,95.9886084 62.8645955,95.7518447 63.4641424,95.2821359 C64.2301412,94.5499406 64.8746715,93.7004497 65.3735275,92.7655663 C65.7935922,91.9788997 66.6031715,88.7711327 67.1836246,87.6713269 C67.7640777,86.571521 73.7442718,83.1575405 73.7442718,83.1575405 C73.7442718,83.1575405 73.4960518,79.0943689 68.8333333,79.2662136 Z" id="Shape" fill="url(#linearGradient-7)"></path>
                            <path d="M22.6873139,56.4834304 L16.7414887,55.8456958 C16.7414887,55.8456958 13.0143689,53.0198058 11.4715858,52.2484142 C9.92880259,51.4770227 6.84705502,52.2484142 6.84705502,52.2484142 C6.84705502,52.2484142 1.37857605,53.6117152 1.83682848,54.1959871 C2.3981877,54.9139159 5.40737864,53.848479 7.07618123,53.7186408 C8.74498382,53.5888026 11.4563107,54.4327508 12.2200647,55.3339806 C12.9838188,56.2352104 14.2860194,58.9312621 10.9445955,60.7299029 C7.60317152,62.5285437 7.08763754,66.4236893 7.98886731,66.0761812 C8.89009709,65.7286731 9.27197411,63.1433657 11.0706149,63.021165 C12.8692557,62.8989644 14.6717152,62.9027832 15.954822,61.7456958 C17.2379288,60.5886084 21.339288,63.2273786 21.339288,63.2273786 C21.339288,63.2273786 25.4215534,60.7184466 22.6873139,56.4834304 Z" id="Shape" fill="url(#linearGradient-7)"></path>
                        </g>
                        <path d="M164,92.0172406 L276.565615,288.081852 C276.565615,288.081852 312.003093,305.897685 353.5705,288.081852 C395.137908,270.26602 430.356729,174.127612 372.925395,123.318381 L164,60 L164,77 L164,92.0172406 Z" id="Shape" fill="url(#linearGradient-9)" fill-rule="nonzero" filter="url(#filter-10)"></path>
                        <g id="Colors-dots" transform="translate(282.000000, 56.500000) rotate(-200.000000) translate(-282.000000, -56.500000) translate(243.000000, 11.000000)">
                            <path d="M57.87303,27.1377163 C57.8768326,27.0908371 57.8883962,27.0449659 57.9072241,27.0020732 C58.0983377,26.5384305 58.1460812,26.0257671 58.0440004,25.5333864 C58.0440004,25.5333864 58.0440004,25.5193543 58.0440004,25.514677 C58.0440004,25.5099996 58.0440004,25.4819355 58.0440004,25.4819355 C58.0266018,25.4052354 58.0174289,25.3268138 58.0166451,25.2480682 C58.0188723,24.6981061 58.4334851,24.2426389 58.9681532,24.2028021 C59.5028212,24.1629653 59.9772312,24.5521936 60.0568916,25.0960544 C60.168289,25.4089335 60.3986023,25.6620918 60.6951811,25.7976564 L60.8000429,25.8491073 L60.8387962,25.865478 C61.7057334,26.3714084 62.0924133,27.4436728 61.7551909,28.4066427 C61.4179684,29.3696127 60.4545536,29.9442684 59.4719892,29.7685223 C58.4894247,29.5927762 57.7724079,28.7175506 57.7727274,27.6943205 C57.7802348,27.5048414 57.8140081,27.3174249 57.87303,27.1377163 Z" id="Shape-Copy-2" fill="#35C850" fill-rule="nonzero" filter="url(#filter-11)"></path>
                            <path d="M2.89703283,42.3696841 C2.93534351,42.359881 2.9744833,42.3534137 3.01398449,42.3503593 L3.14519855,42.3365558 L3.18228079,42.3365558 C4.25196062,42.2344105 4.32327261,41.8561966 4.32327261,41.8561966 C4.4305084,41.3207649 4.94094919,40.9521244 5.50182203,41.0050479 C6.06269488,41.0579714 6.48994971,41.5150921 6.48830459,42.0604873 C6.49125803,42.1027696 6.49125803,42.1451966 6.48830459,42.1874788 C6.49003432,43.0476622 6.61091523,43.9037384 6.84771702,44.7328307 C6.84678406,44.7456981 6.84678406,44.7586129 6.84771702,44.7714803 L6.8648319,44.834976 C7.23683265,46.1831345 6.71432525,47.61394 5.54962809,48.4364576 C4.38493093,49.2589753 2.817622,49.3040134 1.60455349,48.5498231 C0.39148499,47.7956328 -0.21781512,46.3973509 0.07088369,45.0302066 C0.3595825,43.6630623 1.48689494,42.6082769 2.90844275,42.3752054 L2.89703283,42.3696841 Z" id="Shape-Copy" fill="#937BF3" fill-rule="nonzero"></path>
                            <path d="M37.0903369,42.978094 C37.1269513,42.968725 37.1643581,42.962544 37.2021103,42.9596249 L37.3275146,42.9464326 L37.362955,42.9464326 C38.3852726,42.8488099 38.4534272,42.4873422 38.4534272,42.4873422 C38.5559149,41.9756178 39.0437549,41.6232996 39.579794,41.6738798 C40.1158331,41.7244601 40.5241704,42.1613408 40.5225981,42.6825876 C40.5254208,42.7229977 40.5254208,42.7635462 40.5225981,42.8039563 C40.5242512,43.6260533 40.6397799,44.4442251 40.8660968,45.2366077 C40.8652052,45.2489053 40.8652052,45.2612483 40.8660968,45.273546 L40.8824539,45.3342304 C41.2379836,46.6226965 40.7386112,47.9901502 39.6254833,48.7762493 C38.5123554,49.5623483 37.0144422,49.6053923 35.8550847,48.8845953 C34.6957272,48.1637982 34.113405,46.827428 34.3893211,45.5208167 C34.6652372,44.2142054 35.7426357,43.2061227 37.1012417,42.9833709 L37.0903369,42.978094 Z" id="Shape-Copy-3" fill="#E3667A" fill-rule="nonzero" transform="translate(37.658595, 45.532995) rotate(64.000000) translate(-37.658595, -45.532995) "></path>
                            <path d="M44.0948314,1.7971846 C44.1193518,1.79091025 44.144403,1.78677086 44.1696854,1.78481591 L44.253668,1.77598113 L44.2774022,1.77598113 C44.9620428,1.71060375 45.0076855,1.46853076 45.0076855,1.46853076 C45.076321,1.12583166 45.4030249,0.889886074 45.7620074,0.92375938 C46.1209899,0.957632686 46.3944511,1.25020938 46.3933982,1.59928551 C46.3952885,1.62634796 46.3952885,1.65350305 46.3933982,1.6805655 C46.3945053,2.23111945 46.4718742,2.77904468 46.6234374,3.30969905 C46.6228403,3.31793472 46.6228403,3.32620077 46.6234374,3.33443644 L46.6343917,3.37507643 C46.872488,4.23795525 46.538061,5.15373166 45.7926053,5.68017797 C45.0471495,6.20662429 44.0440051,6.2354506 43.2675896,5.75273671 C42.4911741,5.27002282 42.1011961,4.37506288 42.2859756,3.50003231 C42.4707551,2.62500175 43.1922831,1.94989419 44.1021342,1.80071851 L44.0948314,1.7971846 Z" id="Shape-Copy-4" fill="#F8CC6A" fill-rule="nonzero" transform="translate(44.475391, 3.508188) rotate(64.000000) translate(-44.475391, -3.508188) "></path>
                            <ellipse id="Oval-7" fill="#15BBDF" filter="url(#filter-12)" cx="12.4318182" cy="17.9" rx="2.11363636" ry="2.1"></ellipse>
                            <ellipse id="Oval-7-Copy-2" fill="#937BF3" cx="75.8863636" cy="88.9" rx="2.11363636" ry="2.1"></ellipse>
                            <ellipse id="Oval-7-Copy-3" fill="#F8CC6A" filter="url(#filter-13)" cx="67.1818182" cy="54.6" rx="1.40909091" ry="1.4"></ellipse>
                            <ellipse id="Oval-7-Copy" fill="#35C850" filter="url(#filter-14)" cx="22.2954545" cy="72.1" rx="2.11363636" ry="2.1"></ellipse>
                        </g>
                        <g id="Group-11" transform="translate(101.000000, 38.000000)" fill-rule="nonzero">
                            <path d="M125.582497,53.1870113 C125.582497,53.1870113 116.973722,45.179131 108.030669,36.8637551 L113.674343,26.3655929 C114.151307,25.3719687 113.922335,24.1841572 113.109976,23.4378876 C112.324203,22.8228963 111.295317,23.1347229 110.813434,24.1394975 L105.326046,34.3301639 C100.602724,29.9342751 96.0226653,25.668314 92.8014294,22.6366665 C82.8815857,13.368487 67.8390219,14.0094639 67.8390219,14.0094639 C67.8390219,14.0094639 52.7964581,13.5547168 42.946075,22.9484931 L30.7600788,34.559703 L25.311762,24.6505466 C24.8211965,23.6544339 23.7879699,23.3512691 23.0108793,23.9792532 C22.2139545,24.734344 22.001194,25.9183977 22.4855834,26.9026276 L28.0728214,37.097625 L10.3950956,53.8886212 C10.3950956,53.8886212 8.2722056,60.4846199 13.8681262,61 C13.8681262,61 40.9100108,52.052309 44.7780986,51.471965 C48.6461865,50.8916211 67.9822844,50.779017 67.9822844,50.779017 C67.9822844,50.779017 87.3270649,50.6620821 91.1951528,51.186124 C95.0632406,51.7101659 122.178927,60.3243757 122.178927,60.3243757 C127.757483,59.7613555 125.582497,53.1870113 125.582497,53.1870113 Z" id="Shape" fill="#E3667A"></path>
                            <ellipse id="Oval" fill="#B2BFD8" style="mix-blend-mode: multiply;" transform="translate(24.000000, 22.500000) rotate(-43.070000) translate(-24.000000, -22.500000) " cx="24" cy="22.5" rx="28" ry="4.5"></ellipse>
                            <ellipse id="Oval" fill="#B2BFD8" style="mix-blend-mode: multiply;" transform="translate(112.500000, 23.000000) rotate(-47.520000) translate(-112.500000, -23.000000) " cx="112.5" cy="23" rx="4.5" ry="28"></ellipse>
                            <path d="M65.7646739,50.5275156 L67.3787758,50.5275156 C67.3787758,50.5275156 86.9234439,50.4114734 90.8315003,50.9315145 C94.7395567,51.4515556 122.135427,60 122.135427,60 C127.776011,59.4197888 125.578552,52.8956367 125.578552,52.8956367 C125.578552,52.8956367 116.880824,44.9359993 107.845362,36.6841073 L113.547352,26.2660936 C114.029244,25.2800552 113.797906,24.1013121 112.977153,23.36074 C112.183261,22.7504438 111.143744,23.0598898 110.656882,24.0569934 L105.112793,34.1698589 C100.340666,29.8075306 95.7132812,25.5741381 92.4587606,22.5656358 C83.9013891,14.7134448 71.5763178,14.030085 68.1551237,14 C68.1551237,14 74.8132938,17.6789685 74.8352246,23.3736336 C74.8571553,29.0682986 72.5588146,29.8204242 72.9404093,34.8532187 C73.3220041,39.8860133 62.0101326,43.2211529 65.7646739,50.5275156 Z" id="Shape" fill="#C35365"></path>
                        </g>
                    </g>
                </g>
            </g>
        </g>
    </g>
</svg>