<?xml version="1.0" encoding="UTF-8"?>
<svg width="24px" height="24px" viewBox="0 0 24 24" version="1.1" xmlns="http://www.w3.org/2000/svg" xmlns:xlink="http://www.w3.org/1999/xlink">
    <!-- Generator: sketchtool 52.4 (67378) - http://www.bohemiancoding.com/sketch -->
    <title>4EEF536E-249A-4284-8A75-CB1EB178B0AA</title>
    <desc>Created with sketchtool.</desc>
    <g id="Marketing" stroke="none" stroke-width="1" fill="none" fill-rule="evenodd">
        <g id="1a-Home" transform="translate(-1236.000000, -26.000000)" fill="#FFFFFF">
            <g id="Header" transform="translate(121.000000, 0.000000)">
                <g id="Button" transform="translate(1088.000000, 0.000000)">
                    <g id="picto-personne" transform="translate(27.000000, 26.000000)">
                        <circle id="Oval-3" opacity="0.300000012" cx="12" cy="12" r="12"></circle>
                        <path d="M8.22857143,16.1894531 C8.22857143,15.1316066 9.01082469,13.9347992 9.98361268,13.5129134 L10.248872,13.3978738 C11.2181545,12.9775083 12.7845448,12.975988 13.7553162,13.3978738 L14.0200256,13.5129134 C14.9872988,13.9332789 15.7714286,15.1368676 15.7714286,16.1894531 L15.7714286,16.4571429 L8.22857143,16.4571429 L8.22857143,16.1894531 Z M11.9613187,11.7271137 C10.8967241,11.7271137 10.0336996,10.1409202 10.0336996,9.21655977 C10.0336996,8.29219933 10.8967241,7.54285714 11.9613187,7.54285714 C13.0259133,7.54285714 13.8889377,8.29219933 13.8889377,9.21655977 C13.8889377,10.1409202 13.0259133,11.7271137 11.9613187,11.7271137 Z" id="Combined-Shape"></path>
                    </g>
                </g>
            </g>
        </g>
    </g>
</svg>