<?xml version="1.0" encoding="UTF-8"?>
<svg width="1418px" height="503px" viewBox="0 0 1418 503" version="1.1" xmlns="http://www.w3.org/2000/svg" xmlns:xlink="http://www.w3.org/1999/xlink">
    <!-- Generator: sketchtool 52.4 (67378) - http://www.bohemiancoding.com/sketch -->
    <title>2648AF0F-F409-4AD5-A756-39D4AD33C656</title>
    <desc>Created with sketchtool.</desc>
    <g id="DesignDashboardAgents-" stroke="none" stroke-width="1" fill="none" fill-rule="evenodd">
        <g id="404" transform="translate(-23.000000, -387.000000)">
            <g id="Illustrationhome" transform="translate(23.000000, 349.000000)">
                <g id="right" transform="translate(628.000000, 0.000000)">
                    <g id="Bridge">
                        <g id="courbes_fond_bridge" transform="translate(0.000000, 2.844526)">
                            <g id="Calque_37">
                                <g id="Calque_38" transform="translate(113.801230, 103.540753)"></g>
                                <g id="Calque_36" transform="translate(361.318905, 0.000000)" fill-rule="nonzero">
                                    <polygon id="Rectangle-path" fill="#CA5366" points="90.7052702 193.922727 100.600287 193.922727 100.600287 414.259725 90.7052702 414.259725"></polygon>
                                    <polygon id="Shape" fill="#A24050" points="90.7223404 193.922727 83.9966877 197.836795 83.9966877 409.236291 90.7223404 409.236291"></polygon>
                                    <polygon id="Rectangle-path" fill="#CA5366" points="141.836163 193.922727 151.73118 193.922727 151.73118 414.259725 141.836163 414.259725"></polygon>
                                    <polygon id="Shape" fill="#A24050" points="141.853233 193.922727 135.12758 197.836795 135.12758 409.236291 141.853233 409.236291"></polygon>
                                    <path d="M257.759786,66.8918775 C257.463902,68.359653 227.886963,213.788898 200.580358,216.513954 C186.355204,217.91915 176.682099,203.952527 171.054629,191.98845 C167.145854,183.426391 164.153323,174.47518 162.126922,165.284038 L161.557916,165.397819 C161.557916,165.460398 162.189513,168.469907 163.469777,172.998393 L163.469777,282.131484 L164.038783,282.131484 L164.038783,174.932671 C165.779029,180.837866 167.946983,186.608545 170.525453,192.198944 C172.609791,196.756443 175.17541,201.078124 178.178586,205.090337 L178.178586,282.131484 L178.747592,282.131484 L178.747592,205.812847 C184.067799,212.480416 189.985463,216.275014 196.295741,217.014591 L196.295741,276.74964 L196.864747,276.74964 L196.864747,217.07717 C197.433754,217.128372 198.00276,217.156817 198.617286,217.156817 C199.231813,217.156817 199.954451,217.122683 200.631568,217.060103 C212.301884,215.922293 225.554037,190.281734 240.023864,140.906449 C250.78377,104.206372 258.232061,67.3697579 258.311721,66.9999695 L257.759786,66.8918775 Z" id="Shape" fill="#E3667A"></path>
                                    <path d="M530.791696,0.329965036 C530.660825,0.699753439 517.346081,37.5136112 498.125053,74.1852426 C486.841661,95.7126167 475.763111,112.978891 465.196667,125.500495 C452.024175,141.116943 439.631221,149.349002 428.364899,149.96342 C402.759622,151.368616 385.382175,137.373547 375.293696,125.381025 C368.615754,117.375864 363.239277,108.369942 359.361524,98.6936801 L358.826658,98.8814188 C362.731295,108.619373 368.146369,117.681294 374.872631,125.733746 C378.220864,129.734958 381.954431,133.397359 386.019462,136.668105 L386.019462,252.423253 L386.588468,252.423253 L386.588468,137.106162 C396.113631,144.570198 408.779708,150.617661 424.819991,150.617661 C426.003524,150.617661 427.204127,150.585423 428.4218,150.520947 C430.294087,150.410047 432.150646,150.112745 433.96392,149.633455 L433.96392,238.058395 L434.532926,238.058395 L434.532926,149.496918 C444.268621,146.766172 454.709884,138.852701 465.663252,125.870283 C476.258147,113.308856 487.359457,96.0084474 498.665609,74.4412499 C517.903707,37.7354842 531.229831,0.893181218 531.366392,0.523392816 L530.791696,0.329965036 Z" id="Shape" fill="#E3667A"></path>
                                    <polygon id="Rectangle-path" fill="#E3667A" points="344.27717 49.7166285 344.861862 49.7166285 344.861862 256.030112 344.27717 256.030112"></polygon>
                                    <path d="M74.8470688,189.667316 L74.2780627,189.547846 C73.1400504,194.827287 71.8256462,200.044148 70.3746805,205.056203 C59.2790606,243.235433 40.7408403,267.066873 27.1302132,280.305298 C12.4100241,294.692912 0.136561476,300.069066 0,300.125957 L0.22760246,300.64366 C0.30726332,300.609526 5.95749438,298.12341 14.1625631,292.110082 L14.1625631,296.849062 L14.7315692,296.849062 L14.7315692,291.689092 C16.8767224,290.090468 19.1925774,288.27566 21.6222337,286.153644 L21.6222337,297.537438 L22.1912398,297.537438 L22.1912398,285.641629 C23.9134318,284.124549 25.6849376,282.487998 27.5057572,280.731977 C28.1714944,280.089114 28.8486118,279.406428 29.5314191,278.712363 L29.5314191,297.537438 L30.1004253,297.537438 L30.1004253,278.13208 C32.3309294,275.856459 34.6524745,273.285008 37.0479904,270.44617 L37.0479904,295.864856 L37.6169965,295.864856 L37.6169965,269.757795 C40.0523428,266.822244 42.5445898,263.596551 45.0140765,260.086406 L45.0140765,295.045633 L45.5830826,295.045633 L45.5830826,259.255804 C48.3825929,255.233644 51.176413,250.824629 53.9019525,246.000312 L53.9019525,293.964713 L54.4709587,293.964713 L54.4709587,244.999039 C57.1452876,240.19179 59.7399556,234.974929 62.1980622,229.342767 L62.1980622,292.3604 L62.7670683,292.3604 L62.7670683,228.034285 C65.8803757,220.714767 68.555632,213.216639 70.7786749,205.579596 L70.7786749,292.3604 L71.347681,292.3604 L71.347681,203.577049 C72.6620852,199.054253 73.8285478,194.38923 74.8470688,189.667316 Z" id="Shape" fill="#E3667A"></path>
                                </g>
                            </g>
                        </g>
                        <g id="front_bridge" transform="translate(351.645800, 0.000000)" fill-rule="nonzero">
                            <polygon id="Shape" fill="#A24050" points="325.238225 88.6752589 312.816821 95.9060445 312.816821 486.294505 325.238225 486.294505"></polygon>
                            <path d="M312.79406,320.538276 C312.79406,320.538276 312.79406,283.132757 280.850055,285.493714 L312.816821,283.132757 L312.79406,320.538276 Z" id="Shape" fill="#A24050"></path>
                            <path d="M249.059682,313.626078 C249.059682,313.626078 262.226484,292.331955 277.57827,289.362269 L253.207736,289.362269 C250.879694,290.912784 248.70394,292.680508 246.709686,294.64171 L249.059682,313.626078 Z" id="Shape" fill="#CA5366"></path>
                            <path d="M367.219498,282.797103 L454.772475,276.379852 L454.738334,257.725449 L343.491942,272.516985 L343.491942,88.6752589 L325.215464,88.6752589 L325.215464,103.034427 L249.059682,103.034427 L249.059682,88.6752589 L230.783204,88.6752589 L230.783204,495.567661 L249.059682,495.567661 L249.059682,291.450152 L325.215464,285.87488 L325.215464,495.567661 L343.491942,495.567661 L343.491942,306.986954 C348.368325,298.612669 355.827995,289.999443 367.219498,282.797103 Z M249.059682,122.752682 L325.215464,122.752682 L325.215464,180.377094 L249.059682,180.377094 L249.059682,122.752682 Z M249.059682,285.061346 L249.059682,200.101038 L325.215464,200.101038 L325.215464,274.940522 L249.059682,285.061346 Z" id="Shape" fill="#CA5366"></path>
                            <polygon id="Rectangle-path" fill="#CA5366" points="105.323038 252.212758 156.459621 252.212758 156.459621 262.071885 105.323038 262.071885"></polygon>
                            <polyline id="Shape" fill="#A24050" points="151.509267 262.071885 144.800685 263.710332 110.273392 263.710332 110.273392 262.071885 151.509267 262.071885"></polyline>
                            <polyline id="Shape" fill="#A24050" points="151.509267 219.620177 144.800685 221.258624 110.273392 221.258624 110.273392 219.620177 151.509267 219.620177"></polyline>
                            <polygon id="Rectangle-path" fill="#CA5366" points="105.323038 209.761049 156.459621 209.761049 156.459621 219.620177 105.323038 219.620177"></polygon>
                            <polygon id="Shape" fill="#A24050" points="325.215464 200.101038 312.816821 203.013833 249.059682 203.013833 249.059682 200.101038"></polygon>
                            <polygon id="Shape" fill="#A24050" points="325.215464 122.729926 312.816821 125.642721 249.059682 125.642721 249.059682 122.729926"></polygon>
                            <path d="M218.39594,289.111951 L105.323038,300.171469 L112.987551,299.904083 L100.395445,300.655038 L100.395445,302.492602 L156.476691,302.492602 L206.788215,298.709382 C205.717632,297.514149 204.501929,296.457287 203.169336,295.563337 L218.41301,294.64171 L218.39594,289.111951 Z" id="Shape" fill="#CA5366"></path>
                            <path d="M424.194084,71.9835793 C442.720924,36.1425496 455.443902,0.938693637 455.574773,0.580283339 L453.970176,0.0113781047 C453.839304,0.381166507 440.535941,37.1495118 421.337673,73.7870089 C396.02828,122.052929 372.073121,148.154301 352.044104,149.263666 C326.711951,150.668862 309.465374,136.798953 299.462246,124.914522 C292.805272,116.956248 287.445734,107.99775 283.581285,98.3694041 L281.976687,98.9383094 C284.081612,104.268449 286.670004,109.394804 289.709481,114.253238 L289.709481,262.509942 L253.611731,269.564367 L253.611731,66.9999695 L251.904712,66.9999695 L251.904712,269.9114 L230.817344,274.030273 L230.817344,88.6752589 L218.39594,95.9060445 L218.39594,275.879215 L190.912943,279.457629 L190.912943,144.837584 C191.009674,144.50193 191.106405,144.166276 191.208826,143.830621 C201.968733,107.119167 209.417023,70.2711746 209.496684,69.9013862 L208.358672,69.6795131 C208.062788,71.1472886 178.531369,216.371728 151.458057,219.051272 C137.409295,220.4394 127.804471,206.57518 122.216831,194.696438 C118.317376,186.152042 115.330626,177.220078 113.306194,168.048917 L112.168182,168.276479 C112.168182,168.339059 112.794089,171.342879 114.074353,175.859986 L114.074353,289.11764 L0.0853509224,302.492602 L28.968103,304.421191 L93.6697923,300.700551 L93.6697923,301.309279 L195.738115,291.330682 C207.397051,296.50203 214.310476,306.34978 218.40163,316.214597 L218.40163,486.317262 L230.823034,486.317262 L230.823034,316.243042 C236.069271,304.927517 245.679785,292.451425 263.222245,283.17827 L454.732644,257.714071 L454.772475,230.247327 L424.194084,236.226521 L424.194084,71.9835793 Z M189.763551,148.654938 L189.763551,279.611234 L168.710323,282.347668 L168.710323,203.195883 C175.394249,191.248873 182.415785,173.068558 189.774931,148.654938 L189.763551,148.654938 Z M167.572311,205.175673 L167.572311,282.495583 L153.460958,284.333147 L153.460958,219.785159 C157.961797,218.368585 162.673168,213.481689 167.578001,205.175673 L167.572311,205.175673 Z M138.080722,216.83823 L138.080722,286.301559 L126.603868,287.649865 L126.603868,204.948111 C130.154467,210.290131 134.000948,214.272468 138.086412,216.83823 L138.080722,216.83823 Z M115.229435,179.67734 C116.866288,184.970153 118.860494,190.145806 121.19831,195.16863 C122.475371,197.912332 123.907795,200.581032 125.488616,203.161748 L125.488616,287.780713 L115.246505,288.986792 L115.229435,179.67734 Z M139.224425,286.159333 L139.224425,217.509538 C142.359563,219.309798 145.90808,220.266355 149.523436,220.285796 C150.200553,220.285796 150.883361,220.251662 151.566168,220.183393 C151.822221,220.183393 152.072583,220.120813 152.328636,220.075301 L152.328636,284.481063 L140.737981,285.99435 L139.224425,286.159333 Z M328.014975,255.02315 L291.416499,262.174288 L291.416499,116.94416 C293.472328,120.082105 295.710468,123.09679 298.119392,125.972686 C307.849397,137.53853 318.245139,144.058184 328.014975,147.539884 L328.014975,255.02315 Z M367.043107,247.39413 L329.721993,254.687495 L329.721993,148.114478 C335.823945,150.07999 342.196509,151.076307 348.607307,151.067096 C349.82498,151.067096 351.002823,151.034858 352.140835,150.970382 C356.931867,150.702997 361.910671,149.115751 367.043107,146.220023 L367.043107,247.39413 Z M422.487066,236.556486 L368.750125,247.058476 L368.750125,145.224439 C375.517505,141.052468 382.535247,134.678833 389.803352,126.103534 C400.312896,113.64451 411.311785,96.5204621 422.509826,75.2547844 L422.487066,236.556486 Z" id="Shape" fill="#E3667A"></path>
                        </g>
                    </g>
                    <g id="Fichier-16ville" transform="translate(235.000000, 335.000000)" fill-rule="nonzero">
                        <g id="Fichier-19ville">
                            <g id="troisièmeplan" transform="translate(25.666363, 51.418774)">
                                <polygon id="Shape" fill="#E9E9F4" points="32.7633741 0.392544612 22.7033453 13.3578949 22.7033453 39.2942846 42.0040339 33.5483417 42.0040339 12.3054202"></polygon>
                                <polygon id="Shape" fill="#D4D3E3" points="10.2079703 0.392544612 0.38123412 10.9514258 0.38123412 32.5982699 22.7033453 39.2942846 22.7033453 13.3578949 32.7633741 0.392544612"></polygon>
                                <polyline id="Shape" fill="#D4D3E3" points="283.074869 28.9857217 576.53979 24.4003455 576.46013 55.4455042 139.224425 55.4455042 139.224425 30.5900345"></polyline>
                                <path d="M65.4982978,55.4455042 C64.0416421,55.1724297 62.5375692,54.9012515 60.9860791,54.6319697 L60.9860791,28.8605626 L7.39707994,27.3074513 L7.39707994,55.4398151 L65.4982978,55.4455042 Z" id="Shape" fill="#D4D3E3"></path>
                                <path d="M470.425834,27.5236353 C470.425834,27.5236353 468.366031,27.2562498 468.149809,25.7714071 C467.933587,24.2865645 469.082979,23.3820051 469.287821,22.6424283 C469.492664,21.9028515 468.718815,21.0779389 469.287821,20.0880438 C470.161205,18.8092352 470.563443,17.2669253 470.425834,15.7245407 C470.260822,13.5001212 471.745928,13.579768 471.745928,14.8996281 C471.681927,15.9764598 472.00256,17.0410138 472.650648,17.9034477 C473.310695,18.8535195 472.320624,20.3326731 472.320624,20.7479739 C472.320624,21.1632747 475.700521,23.3023584 474.545438,25.3617954 C473.73237,26.8455088 472.109004,27.6974007 470.425834,27.5236353 Z" id="Shape" fill="#9B99BE"></path>
                                <polygon id="Shape" fill="#E9E9F4" points="262.027332 0.392544612 273.726098 15.6335158 273.726098 46.1211474 251.284496 39.3682422 251.284496 14.3933024"></polygon>
                                <polygon id="Shape" fill="#D4D3E3" points="288.258515 0.392544612 299.684159 12.8060568 299.684159 38.253188 273.726098 46.1211474 273.726098 15.6335158 262.027332 0.392544612"></polygon>
                                <path d="M150.012781,35.5736443 C150.012781,35.5736443 145.688334,32.6153371 147.805037,27.5634586 C149.92174,22.5115801 146.473563,18.802318 148.465084,15.8041874 C150.456606,12.8060568 150.462296,5.74594287 153.017134,5.92230349 C155.571971,6.09866412 155.560591,11.9185647 156.010106,13.6878599 C156.459621,15.4571552 159.737096,16.6859905 159.424143,20.7422849 C159.111189,24.7985792 157.580563,28.7069581 160.636126,31.8643822 C163.691689,35.0218062 156.106837,40.1590205 150.012781,35.5736443 Z" id="Shape" fill="#D4D3E3"></path>
                                <path d="M152.965923,26.6076978 C150.570407,23.4332066 151.958782,19.6841211 153.318707,17.5052141 C154.678632,15.326307 153.204906,13.6480366 152.413987,11.8161617 C151.987232,10.8547119 152.015683,8.32877263 152.135174,6.16693274 C150.428156,7.49248194 150.194863,13.1644671 148.465084,15.7700531 C146.473563,18.7681837 149.92174,22.4774458 147.805037,27.5293243 C145.688334,32.5812028 150.012781,35.53951 150.012781,35.53951 C151.064179,36.3436986 152.280613,36.9051794 153.57476,37.1836461 C158.183709,33.8555505 155.338679,29.7309876 152.965923,26.6076978 Z" id="Shape" fill="#9B99BE"></path>
                                <path d="M249.093822,33.6791899 C249.093822,33.6791899 244.541773,32.5072451 245.924458,27.8080879 C247.307143,23.1089306 245.452183,24.3206988 245.657025,21.9369858 C245.770826,20.6171257 248.860529,19.7068773 248.388254,17.0102665 C247.915979,14.3136557 247.09092,12.1176815 248.502055,11.412239 C249.913191,10.7067965 250.630138,12.3054202 250.476507,16.3674036 C250.430986,17.5734827 252.029894,20.1790687 252.029894,21.2372324 L252.029894,34.1343141 L249.093822,33.6791899 Z" id="Shape" fill="#9B99BE"></path>
                                <path d="M466.448481,27.5236353 C466.448481,27.5236353 470.03891,27.4382995 468.935038,24.4003455 C467.831166,21.3623916 468.525353,19.5703401 469.14557,17.7725995 C469.765787,15.974859 468.178259,14.7289565 467.797025,12.8686364 C467.415791,11.0083163 466.090007,6.3148481 464.54231,9.07403849 C462.994613,11.8332289 463.973304,15.8440108 461.202244,18.7454275 C458.431184,21.6468442 459.540746,24.4344798 461.202244,26.2094642 C462.863742,27.9844485 466.448481,27.5236353 466.448481,27.5236353 Z" id="Shape" fill="#9B99BE"></path>
                            </g>
                            <g id="plan2" transform="translate(31.582039, 0.005161)">
                                <polygon id="Shape" fill="#E9E9F4" points="115.936991 42.0494326 97.0346069 66.4156438 97.0346069 115.170822 133.308749 104.373001 133.308749 64.4358536"></polygon>
                                <polygon id="Shape" fill="#D4D3E3" points="45.0900355 42.0494326 26.620096 61.8985363 26.620096 102.848335 97.0346069 115.170822 97.0346069 66.4156438 115.936991 42.0494326"></polygon>
                                <polygon id="Rectangle-path" fill="#FFFFFF" points="75.2530515 73.3733549 86.4567826 73.3733549 86.4567826 84.5750989 75.2530515 84.5750989"></polygon>
                                <polygon id="Rectangle-path" fill="#FFFFFF" points="55.1102338 73.3733549 66.3139649 73.3733549 66.3139649 84.5750989 55.1102338 84.5750989"></polygon>
                                <polygon id="Rectangle-path" fill="#FFFFFF" points="34.3130591 73.3733549 45.5167902 73.3733549 45.5167902 84.5750989 34.3130591 84.5750989"></polygon>
                                <path d="M108.130227,111.865483 L108.130227,81.8841772 C108.130227,81.8841772 108.130227,68.9472721 118.514589,68.1052924 C118.514589,68.1052924 126.509125,67.3884718 126.480675,80.2059067 L126.480675,106.375548 L108.130227,111.865483 Z" id="Shape" fill="#FFFFFF"></path>
                                <path d="M431.081047,101.369181 C389.105463,132.482609 277.159193,107.166326 277.159193,107.166326 L277.159193,97.4949368 L275.509076,97.4949368 C276.013051,96.5625362 275.772898,95.4028031 274.940069,94.7471245 C272.874577,93.0404088 272.345401,93.1314337 272.345401,90.5941163 C272.345401,88.056799 270.114897,88.2274705 269.295528,88.932913 C268.47616,89.6383555 269.762114,92.2780758 268.117686,92.517016 C266.473258,92.7559562 265.272655,92.1813619 264.134643,93.7287842 C262.99663,95.2762064 262.655227,95.1794925 261.517214,94.7641917 C260.379202,94.3488909 259.167219,95.7995992 260.22557,97.4551134 L133.308749,97.4551134 L133.308749,103.878054 C119.652601,105.584769 109.712064,106.551908 97.0346069,112.155625 C92.1582242,109.578484 73.7394952,106.159364 55.0704034,102.848335 L55.0704034,97.3071981 L1.48140428,95.8394226 L1.48140428,143.985873 L60.4190612,144.202057 C91.564447,149.515884 117.862828,167.896708 117.862828,167.896708 L67.1617841,215.941007 L570.066489,215.941007 L570.572904,103.90081 L431.081047,101.369181 Z" id="Shape" fill="#D4D3E3"></path>
                                <path d="M201.89106,96.0669847 C201.89106,96.0669847 198.346152,94.7186793 199.905229,90.3153527 C201.464305,85.9120262 201.91951,87.6130529 200.701837,83.3576417 C199.484164,79.1022306 203.876892,79.6711358 203.876892,76.5307789 C203.876892,73.390422 205.441658,68.2987202 206.573981,71.8486888 C207.706303,75.3986575 205.720471,76.6730052 208.133058,78.6755516 C210.545644,80.6780981 206.289478,83.932236 206.995045,85.559305 C207.700613,87.186374 211.251211,91.5840114 207.985116,95.4184327 C204.719021,99.252854 201.89106,96.0669847 201.89106,96.0669847 Z" id="Shape" fill="#D4D3E3"></path>
                                <polygon id="Shape" fill="#E9E9F4" points="316.153185 0.980163754 290.246335 42.5330021 290.246335 110.824386 351.607958 127.66967 351.607958 44.2226506"></polygon>
                                <polygon id="Shape" fill="#D4D3E3" points="388.627498 0.894827969 316.153185 0.980163754 351.607958 44.2226506 351.607958 127.66967 421.066539 108.986823 421.066539 40.354095"></polygon>
                                <polygon id="Rectangle-path" fill="#E9E9F4" points="298.422953 47.3402513 312.278253 47.3402513 312.278253 64.2822492 298.422953 64.2822492"></polygon>
                                <polygon id="Rectangle-path" fill="#E9E9F4" points="326.81067 47.3402513 340.66597 47.3402513 340.66597 64.2822492 326.81067 64.2822492"></polygon>
                                <path d="M337.075541,47.3402513 C337.075541,47.3402513 337.183652,50.5090535 335.749757,51.220185 C334.315861,51.9313166 332.227609,52.4376422 331.897585,55.3845713 C331.567561,58.3315005 328.227495,56.3972227 326.81067,59.8504774 L326.81067,64.2822492 L340.66597,64.2822492 L340.66597,47.3402513 L337.075541,47.3402513 Z" id="Shape" fill="#FFFFFF"></path>
                                <polygon id="Rectangle-path" fill="#E9E9F4" points="367.744972 47.3402513 381.600272 47.3402513 381.600272 64.2822492 367.744972 64.2822492"></polygon>
                                <polygon id="Rectangle-path" fill="#E9E9F4" points="396.092859 47.3402513 409.948158 47.3402513 409.948158 64.2822492 396.092859 64.2822492"></polygon>
                                <path d="M310.019299,47.3402513 C310.019299,47.3402513 310.855738,50.9129762 308.232619,52.5628014 C305.609501,54.2126266 306.48008,56.1810387 304.915313,57.2790258 C303.350546,58.3770129 298.422953,57.9389558 298.422953,60.3568031 L298.422953,64.2822492 L312.278253,64.2822492 L312.278253,47.3402513 L310.019299,47.3402513 Z" id="Shape" fill="#FFFFFF"></path>
                                <path d="M370.976927,47.3402513 C370.976927,47.3402513 370.220149,52.2100801 371.733705,52.6652043 C373.247262,53.1203285 375.398105,54.9408253 375.84193,58.8833385 C376.285755,62.8258518 381.600272,62.3707276 381.600272,62.3707276 L381.600272,64.2822492 L367.744972,64.2822492 L367.744972,47.3402513 L370.976927,47.3402513 Z" id="Shape" fill="#FFFFFF"></path>
                                <path d="M398.146971,47.3402513 C398.146971,47.3402513 398.146971,49.6158723 399.609317,50.6683469 C401.071663,51.7208216 402.141394,53.1999752 400.940791,54.9294472 C399.740188,56.6589191 400.275054,60.1235519 404.138606,59.7253183 C406.359856,59.4598517 408.559626,60.3667456 409.948158,62.1204093 L409.948158,64.2822492 L396.092859,64.2822492 L396.092859,47.3402513 L398.146971,47.3402513 Z" id="Shape" fill="#FFFFFF"></path>
                                <path d="M292.710131,106.311015 C292.710131,106.311015 314.981032,104.456384 349.292103,116.016538 C349.292103,116.016538 394.539472,105.645396 417.248507,103.250305 L425.095102,108.757308 L346.441382,129.078603 L277.876141,109.781337 L292.710131,106.311015 Z" id="Shape" fill="#9B99BE"></path>
                                <path d="M348.422069,133.028758 C348.422069,133.028758 353.952808,129.188647 354.481984,122.219558 C355.01116,115.250469 361.588871,116.44517 364.30303,119.136092 C367.01719,121.827014 364.30303,110.602513 371.273355,108.662547 C378.243681,106.72258 374.374439,96.3059249 383.279385,95.128291 C392.184331,93.9506572 392.95249,105.93749 396.059263,105.93749 C399.166037,105.93749 405.618567,101.312291 406.87038,110.016541 C406.84193,110.010852 384.440158,116.354145 348.422069,133.028758 Z" id="Shape" fill="#9B99BE" transform="translate(377.646224, 114.037815) rotate(7.000000) translate(-377.646224, -114.037815) "></path>
                                <path d="M290.246335,80.7292995 C290.246335,80.7292995 289.882171,78.9656933 286.485204,86.8905432 C283.088238,94.8153932 275.173362,90.0081439 272.897337,93.6832717 C270.621313,97.3583995 273.18184,99.6283314 275.446485,100.510135 C277.711129,101.391938 269.221558,103.923566 269.756423,108.577211 C269.446068,110.584105 268.169995,112.310751 266.342387,113.196721 L301.768709,105.288939 L290.246335,80.7292995 Z" id="Shape" fill="#9B99BE"></path>
                                <path d="M434.381282,75.7286225 C436.00295,70.8986171 437.010091,66.8821461 434.381282,64.6349705 C431.752474,62.3877948 429.635771,58.1210055 430.48928,49.6044942 C431.34279,41.0879828 424.799219,39.3641999 424.799219,45.9122992 C424.799219,52.4603984 420.537363,54.150047 417.971145,61.8132005 C415.404927,69.476354 422.836148,71.7519749 420.816176,74.0275959 C418.796204,76.3032168 419.3709,79.7166482 420.24717,84.2678901 C421.123439,88.819132 412.85009,91.0947529 416.833133,99.3211226 C419.820415,105.505123 423.450674,106.085406 425.072342,105.988692 L425.072342,115.96729 L429.943035,115.96729 L429.943035,105.52219 C443.308989,103.519643 438.865051,92.3520335 440.185145,87.6528762 C441.56214,82.5441072 432.788065,80.558628 434.381282,75.7286225 Z" id="Shape" fill="#9B99BE"></path>
                                <path d="M428.088074,87.5732295 C425.772219,84.5352756 425.493406,80.6382747 428.657081,75.7286225 C431.820755,70.8189704 428.224636,68.7936677 426.77936,65.7614028 C425.334085,62.7291379 426.921612,61.1418923 428.799332,55.5211086 C430.147877,51.4818814 428.520519,45.2125457 427.496308,41.9925421 C426.119313,41.7251567 424.793529,42.9881263 424.793529,45.9293663 C424.793529,52.4603984 420.531673,54.1671141 417.965455,61.8302676 C415.399237,69.4934212 422.830458,71.7690421 420.810486,74.044663 C418.790514,76.320284 419.36521,79.7337154 420.24148,84.2849573 C421.117749,88.8361991 412.8444,91.1118201 416.827443,99.3381898 C419.814725,105.52219 423.444984,106.102473 425.066652,106.005759 C434.654405,101.539853 430.40962,90.6054944 428.088074,87.5732295 Z" id="Shape" fill="#D4D3E3"></path>
                                <path d="M440.361537,92.8754263 C440.361537,92.8754263 436.560576,90.781855 438.654519,85.8437576 C440.748461,80.9056602 436.378494,80.1547053 436.839389,76.5307789 C437.300284,72.9068526 442.45548,71.5926815 441.311777,63.610941 C440.168075,55.6292006 446.062979,46.9533958 447.001839,54.8099771 C447.940699,62.6665583 447.570845,65.5110845 450.415876,68.173561 C453.260907,70.8360375 458.774576,75.9618737 455.354849,79.5516657 C451.935122,83.1414577 457.716225,85.8096233 456.441651,90.3608652 C455.167077,94.912107 446.062979,96.863452 440.361537,92.8754263 Z" id="Shape" fill="#D4D3E3"></path>
                                <path d="M448.538155,95.020199 C452.350497,94.7926369 455.724703,93.0460979 456.464411,90.4120666 C457.738985,85.8608248 451.957882,83.1812811 455.377609,79.6028672 C458.797336,76.0244533 453.289357,70.8587937 450.438636,68.2247625 C447.587915,65.5907312 447.963459,62.7120708 447.024599,54.8611785 C446.683195,52.0166524 445.704505,51.3567223 444.640463,52.0166524 C444.031627,53.5128731 443.536591,55.2138998 443.883685,56.215173 C444.612013,58.2746099 448.00898,60.1975096 446.728716,64.69755 C445.448452,69.1975904 443.508141,69.4251525 444.845306,73.4473125 C446.18247,77.4694725 450.142753,76.7355848 447.007529,84.5125194 C443.872305,92.2894539 445.072908,95.0315771 446.705956,95.0714005 L448.538155,95.0714005 L448.538155,95.020199 Z" id="Shape" fill="#9B99BE"></path>
                                <polygon id="Shape" fill="#FFFFFF" points="301.80854 105.260493 301.80854 80.558628 317.422069 80.558628 317.422069 106.813605"></polygon>
                                <path d="M438.529337,105.243426 C438.529337,105.243426 434.625955,102.524059 436.822319,97.0568798 C439.018683,91.5897005 439.428367,86.9531228 441.106935,90.5542929 C442.785503,94.1554631 444.390101,93.4386425 446.745786,91.3393822 C449.101472,89.2401219 451.827011,90.8728799 452.191175,93.2395257 C452.555339,95.6061714 454.188387,96.9886111 455.645042,95.8394226 C457.101698,94.690234 459.463074,94.804015 460.373483,95.8394226 C461.283893,96.8748301 461.670817,100.771831 463.389216,99.8217592 C465.107615,98.8716875 468.925646,100.259816 470.21729,95.8394226 C471.508934,91.4190289 475.856141,93.1029884 476.220305,97.2616857 C476.584469,101.420383 484.231911,102.33632 484.231911,102.33632 L438.529337,105.243426 Z" id="Shape" fill="#9B99BE"></path>
                                <path d="M147.101458,97.4551134 C144.893714,97.4551134 146.100007,96.0556066 144.49541,96.2433453 C142.890812,96.431084 143.698801,94.9007289 142.549409,93.8311871 C141.400016,92.7616453 139.954741,93.1200556 138.9476,94.4000923 C137.940459,95.6801291 136.836587,94.6276544 137.10402,94.1270178 C137.371453,93.6263812 137.10402,92.3122101 136.039978,92.6649314 C134.975937,93.0176526 135.146639,92.4885707 134.901966,91.2824916 C134.657293,90.0764125 133.331509,90.5486039 133.331509,90.5486039 L133.331509,97.4949368 C132.778248,97.3884109 132.239606,97.2165345 131.726912,96.9829221 C129.900402,96.0385394 129.519168,97.7907675 130.128005,98.6896378 C130.736841,99.5885081 129.74677,101.130241 128.7567,101.130241 C127.562802,101.132026 126.580877,102.071201 126.526196,103.263636 C126.344114,104.748479 125.09799,101.511408 122.048117,103.263636 C118.998244,105.015864 119.601391,105.061376 118.537349,105.874911 L138.663097,103.491198 L138.97036,98.0809092 L147.101458,97.4551134 Z" id="Shape" fill="#9B99BE"></path>
                                <path d="M160.643804,98.3482947 C160.643804,98.3482947 164.513046,97.6997427 164.962561,96.977233 C165.412076,96.2547234 165.668129,95.1624253 167.164615,95.5037685 C168.661101,95.8451116 168.131925,93.1485008 169.076475,93.3988191 C170.021026,93.6491374 170.009646,97.4380463 170.857465,95.8280445 C171.705284,94.2180427 171.31267,92.3577225 173.469203,91.8457078 C175.625736,91.3336931 175.432274,93.8710105 176.416655,94.1213288 C177.401035,94.3716471 178.965802,91.5783224 180.820762,94.1213288 C182.675722,96.6643352 182.044126,97.4437353 186.852228,97.4437353 C191.660329,97.4437353 179.836382,100.339463 179.836382,100.339463 L160.643804,98.3482947 Z" id="Shape" fill="#9B99BE"></path>
                                <path d="M179.062533,98.1890012 C179.062533,98.1890012 179.312896,95.344475 178.152124,95.6175495 C176.991351,95.890624 176.189052,95.668751 175.637116,94.9633085 C175.08518,94.257866 173.571624,95.4184327 174.499104,96.977233 C175.426584,98.5360334 173.639905,97.8135237 173.491963,98.7408393 C173.344022,99.6681548 173.457823,101.710525 171.784945,100.953881 C170.112067,100.197237 170.794874,103.934944 170.140517,105.214981 C169.48616,106.495018 179.062533,98.1890012 179.062533,98.1890012 Z" id="Shape" fill="#9B99BE"></path>
                                <path d="M148.649155,120.996412 L145.553761,120.723338 L145.553761,114.374355 C145.604763,113.904793 145.779519,113.457183 146.060177,113.077251 C146.060177,113.077251 146.589352,112.104423 146.816955,111.76308 C147.044557,111.421737 147.385961,111.76308 147.385961,111.76308 C147.385961,111.76308 147.772885,112.377498 148.137049,113.077251 C148.370637,113.506254 148.543012,113.965837 148.649155,114.442624 L148.649155,120.996412 Z M150.09443,121.104504 L150.09443,113.708736 C150.125995,113.418487 150.221193,113.13877 150.373243,112.889512 C150.606536,112.553858 151.221062,111.279511 151.221062,111.279511 C151.221062,111.279511 151.528326,111.091772 151.721788,111.279511 C151.91525,111.467249 152.290794,112.417321 152.455806,112.627816 C152.620818,112.838311 152.455806,119.141781 152.455806,119.141781 L150.09443,121.104504 Z M153.508467,118.259978 L153.508467,110.86421 C153.540031,110.573961 153.63523,110.294244 153.78728,110.044986 C154.020573,109.709332 154.635099,108.434984 154.635099,108.434984 C154.635099,108.434984 154.942363,108.247246 155.135825,108.434984 C155.329287,108.622723 155.704831,109.572795 155.869843,109.78329 C156.034854,109.993785 155.869843,116.297255 155.869843,116.297255 L153.508467,118.259978 Z M156.922504,115.415452 L156.922504,108.019684 C156.954068,107.729435 157.049267,107.449718 157.201317,107.20046 C157.43461,106.864806 158.049136,105.590458 158.049136,105.590458 C158.049136,105.590458 158.3564,105.40272 158.549862,105.590458 C158.743324,105.778197 159.118868,106.728269 159.28388,106.938764 C159.448891,107.149259 159.28388,113.452729 159.28388,113.452729 L156.922504,115.415452 Z M160.336541,112.570926 L160.336541,105.175157 C160.368105,104.884909 160.463304,104.605191 160.615354,104.355934 C160.848647,104.02028 161.463173,102.745932 161.463173,102.745932 C161.463173,102.745932 161.770436,102.558193 161.963899,102.745932 C162.157361,102.933671 162.532905,103.883743 162.697916,104.094238 C162.862928,104.304732 162.697916,110.608202 162.697916,110.608202 L160.336541,112.570926 Z M163.750578,109.726399 L163.750578,102.330631 C163.782142,102.040382 163.877341,101.760665 164.029391,101.511408 C164.262683,101.175754 164.87721,99.9014059 164.87721,99.9014059 C164.87721,99.9014059 165.184473,99.7136672 165.377935,99.9014059 C165.571398,100.089145 165.946942,101.039216 166.111953,101.249711 C166.276965,101.460206 166.111953,107.763676 166.111953,107.763676 L163.750578,109.726399 Z M167.164615,106.881873 L167.164615,99.4861051 C167.196179,99.1958563 167.291377,98.916139 167.443428,98.6668816 C167.67672,98.3312275 168.291247,97.0568798 168.291247,97.0568798 C168.291247,97.0568798 168.59851,96.869141 168.791972,97.0568798 C168.985434,97.2446185 169.360979,98.1946902 169.52599,98.4051852 C169.691002,98.6156801 169.52599,104.91915 169.52599,104.91915 L167.164615,106.881873 Z M170.578652,104.037347 L170.578652,96.641579 C170.610216,96.3513301 170.705414,96.0716128 170.857465,95.8223554 C171.090757,95.4867013 171.705284,94.2123536 171.705284,94.2123536 C171.705284,94.2123536 172.012547,94.0246149 172.206009,94.2123536 C172.399471,94.4000923 172.775015,95.3501641 172.940027,95.560659 C173.105039,95.7711539 172.940027,102.074624 172.940027,102.074624 L170.578652,104.037347 Z M173.992689,101.192821 L173.992689,93.7970528 C174.024253,93.5068039 174.119451,93.2270867 174.271502,92.9778292 C174.504794,92.6421752 175.119321,91.3678274 175.119321,91.3678274 C175.119321,91.3678274 175.426584,91.1800887 175.620046,91.3678274 C175.813508,91.5555662 176.189052,92.5056379 176.354064,92.7161328 C176.519076,92.9266278 176.354064,99.2300978 176.354064,99.2300978 L173.992689,101.192821 Z M144.097105,120.660758 L141.001712,120.387683 L141.001712,114.04439 C141.052,113.572914 141.226777,113.123287 141.508128,112.741597 C141.508128,112.741597 142.037303,111.768769 142.264906,111.427426 C142.492508,111.086083 142.833912,111.427426 142.833912,111.427426 C142.833912,111.427426 143.220836,112.047533 143.585,112.741597 C143.818204,113.172783 143.990543,113.634188 144.097105,114.112659 L144.097105,120.660758 Z M139.715758,120.376305 L136.626055,120.103231 L136.626055,113.759937 C136.676343,113.288462 136.85112,112.838835 137.13247,112.457144 C137.13247,112.457144 137.667336,111.495695 137.889248,111.148662 C138.111161,110.80163 138.458255,111.148662 138.458255,111.148662 C138.458255,111.148662 138.839489,111.76308 139.203653,112.457144 C139.436856,112.88833 139.609196,113.349735 139.715758,113.828206 L139.715758,120.376305 Z M135.391311,120.006517 L132.295918,119.733442 L132.295918,113.38446 C132.347788,112.914148 132.524607,112.466285 132.808023,112.087356 C132.808023,112.087356 133.337199,111.114528 133.559112,110.773185 C133.781024,110.431842 134.128118,110.773185 134.128118,110.773185 C134.128118,110.773185 134.509352,111.387603 134.873516,112.087356 C135.110117,112.515573 135.284469,112.97532 135.391311,113.452729 L135.391311,120.006517 Z M131.027034,119.75051 L127.937331,119.471746 L127.937331,113.128453 C127.987619,112.656977 128.162396,112.20735 128.443746,111.82566 C128.443746,111.82566 128.978612,110.86421 129.200525,110.517178 C129.422437,110.170145 129.769531,110.517178 129.769531,110.517178 C129.769531,110.517178 130.150765,111.131595 130.514929,111.82566 C130.748132,112.256845 130.920472,112.718251 131.027034,113.196721 L131.027034,119.75051 Z M126.503435,119.426234 L123.413732,119.136092 L123.413732,112.78711 C123.463384,112.317218 123.638274,111.869265 123.920147,111.490006 C123.920147,111.490006 124.455013,110.522867 124.676926,110.175834 C124.898838,109.828802 125.245932,110.175834 125.245932,110.175834 C125.245932,110.175834 125.627166,110.790252 125.99133,111.490006 C126.228066,111.917563 126.400614,112.377611 126.503435,112.855378 L126.503435,119.426234 Z M121.615673,119.062134 L118.520279,118.783371 L118.520279,112.440077 C118.571433,111.967851 118.748273,111.517971 119.032385,111.137284 C119.032385,111.137284 119.55587,110.175834 119.783473,109.828802 C120.011075,109.48177 120.352479,109.828802 120.352479,109.828802 C120.352479,109.828802 120.739403,110.44322 121.097877,111.137284 C121.334141,111.567668 121.508459,112.029242 121.615673,112.508346 L121.615673,119.062134 Z M116.648249,118.692346 L113.558545,118.419271 L113.558545,112.075978 C113.608833,111.604502 113.78361,111.154875 114.064961,110.773185 C114.064961,110.773185 114.599827,109.811735 114.821739,109.464703 C115.043652,109.117671 115.390745,109.464703 115.390745,109.464703 C115.390745,109.464703 115.771979,110.079121 116.136143,110.773185 C116.372503,111.20293 116.545015,111.664796 116.648249,112.144247 L116.648249,118.692346 Z M111.760486,118.464784 L108.665093,118.191709 L108.665093,111.848416 C108.716246,111.37619 108.893086,110.92631 109.177198,110.545623 C109.177198,110.545623 109.700684,109.572795 109.928286,109.231452 C110.155889,108.890109 110.497292,109.231452 110.497292,109.231452 C110.497292,109.231452 110.884217,109.845869 111.24269,110.545623 C111.478955,110.976007 111.653273,111.437581 111.760486,111.916685 L111.760486,118.464784 Z M106.997905,118.072239 L103.908201,117.799165 L103.908201,111.455871 C103.958489,110.984395 104.133266,110.534769 104.414617,110.153078 C104.414617,110.153078 104.938102,109.18025 105.165705,108.838907 C105.393307,108.497564 105.734711,108.838907 105.734711,108.838907 C105.734711,108.838907 106.121635,109.459014 106.480109,110.153078 C106.716373,110.583462 106.890691,111.045036 106.997905,111.52414 L106.997905,118.072239 Z M102.303604,117.782097 L99.2082104,117.509023 L99.2082104,111.16573 C99.259364,110.693503 99.4362041,110.243623 99.7203159,109.862937 C99.7203159,109.862937 100.243802,108.901487 100.471404,108.554455 C100.699006,108.207422 101.04041,108.554455 101.04041,108.554455 C101.04041,108.554455 101.421644,109.168872 101.785808,109.862937 C102.022072,110.29332 102.196391,110.754894 102.303604,111.233998 L102.303604,117.782097 Z M97.6434435,117.435065 L94.5537401,117.161991 L94.5537401,110.813008 C94.6047417,110.343446 94.7794979,109.895836 95.0601556,109.515904 C95.0601556,109.515904 95.5950213,108.543076 95.8169337,108.201733 C96.0388461,107.86039 96.3859399,108.201733 96.3859399,108.201733 C96.3859399,108.201733 96.767174,108.816151 97.1313379,109.515904 C97.3654904,109.946658 97.5378809,110.4082 97.6434435,110.886966 L97.6434435,117.435065 Z M92.6532595,117.190436 L89.5578661,116.917362 L89.5578661,110.568379 C89.6097364,110.098067 89.7865555,109.650204 90.0699716,109.271275 C90.0699716,109.271275 90.5934573,108.298447 90.8210597,107.957104 C91.0486622,107.615761 91.3900659,107.957104 91.3900659,107.957104 C91.3900659,107.957104 91.7713,108.571522 92.135464,109.271275 C92.3729264,109.701106 92.5473108,110.162856 92.6532595,110.642337 L92.6532595,117.190436 Z M87.9987892,116.877538 L84.9090859,116.604464 L84.9090859,110.255481 C84.9587381,109.78559 85.133628,109.337637 85.4155013,108.958377 C85.4155013,108.958377 85.9503671,107.991238 86.1722795,107.644206 C86.3941919,107.297174 86.7412857,107.644206 86.7412857,107.644206 C86.7412857,107.644206 87.1225198,108.258624 87.4866837,108.958377 C87.720272,109.38738 87.8926464,109.846964 87.9987892,110.32375 L87.9987892,116.877538 Z M83.1736171,116.558951 L80.0839137,116.26881 L80.0839137,109.942583 C80.1342017,109.471107 80.3089785,109.021481 80.5903292,108.63979 C80.5903292,108.63979 81.125195,107.666962 81.3471074,107.325619 C81.5690198,106.984276 81.9161135,107.325619 81.9161135,107.325619 C81.9161135,107.325619 82.2973476,107.945726 82.6615116,108.63979 C82.8947153,109.070976 83.067055,109.532381 83.1736171,110.010852 L83.1736171,116.558951 Z M78.348445,116.26881 L75.2587416,115.972979 L75.2587416,109.623996 C75.3097432,109.154434 75.4844994,108.706824 75.765157,108.326892 C75.765157,108.326892 76.3000228,107.354065 76.5219352,107.012721 C76.7438476,106.671378 77.0909414,107.012721 77.0909414,107.012721 C77.0909414,107.012721 77.4721755,107.627139 77.8363394,108.326892 C78.0695431,108.758078 78.2418828,109.219483 78.348445,109.697954 L78.348445,116.26881 Z M73.3127405,115.96729 L70.2230372,115.699904 L70.2230372,109.373678 C70.2740388,108.904116 70.448795,108.456506 70.7294526,108.076574 C70.7294526,108.076574 71.2643184,107.103746 71.4862308,106.762403 C71.7081432,106.42106 72.055237,106.762403 72.055237,106.762403 C72.055237,106.762403 72.4364711,107.376821 72.800635,108.076574 C73.0373709,108.504132 73.2099194,108.96418 73.3127405,109.441947 L73.3127405,115.96729 Z M68.453428,115.654392 L65.3637246,115.375628 L65.3637246,109.032335 C65.4140127,108.560859 65.5887894,108.111232 65.8701401,107.729542 C65.8701401,107.729542 66.4050059,106.768092 66.6269183,106.42106 C66.8488307,106.074028 67.1959244,106.42106 67.1959244,106.42106 C67.1959244,106.42106 67.5771586,107.035478 67.9413225,107.729542 C68.1745262,108.160727 68.3468659,108.622133 68.453428,109.100604 L68.453428,115.654392 Z M63.1559808,115.313049 L60.0605873,115.039974 L60.0605873,108.690992 C60.1124576,108.220679 60.2892768,107.772817 60.5726929,107.393888 C60.5726929,107.393888 61.0961785,106.42106 61.323781,106.079717 C61.5513834,105.738374 61.8927871,106.079717 61.8927871,106.079717 C61.8927871,106.079717 62.2740213,106.694134 62.6381852,107.393888 C62.8744494,107.824272 63.0487676,108.285846 63.1559808,108.76495 L63.1559808,115.313049 Z M58.2056273,115.011529 L55.1159239,114.738454 L55.1159239,108.395161 C55.1662119,107.923685 55.3409887,107.474058 55.6223394,107.092368 C55.6223394,107.092368 56.1572051,106.130918 56.3791175,105.783886 C56.6010299,105.436854 56.9481237,105.783886 56.9481237,105.783886 C56.9481237,105.783886 57.3293578,106.398304 57.6935218,107.092368 C57.9267255,107.523554 58.0990652,107.984959 58.2056273,108.46343 L58.2056273,115.011529 Z M52.8797297,114.687253 L49.7843363,114.414178 L49.7843363,108.070885 C49.8354899,107.598659 50.01233,107.148779 50.2964418,106.768092 C50.2964418,106.768092 50.8199275,105.795264 51.0475299,105.453921 C51.2751324,105.112578 51.6165361,105.453921 51.6165361,105.453921 C51.6165361,105.453921 51.9977702,106.068339 52.3619341,106.768092 C52.5981983,107.198476 52.7725165,107.66005 52.8797297,108.139154 L52.8797297,114.687253 Z M47.3319198,114.334532 L44.2365263,114.061457 L44.2365263,107.712475 C44.287528,107.242913 44.4622841,106.795302 44.7429418,106.415371 C44.7429418,106.415371 45.2721175,105.442543 45.49972,105.1012 C45.7273224,104.759857 46.0687261,105.1012 46.0687261,105.1012 C46.0687261,105.1012 46.4556503,105.715617 46.8198142,106.415371 C47.0530179,106.846556 47.2253576,107.307962 47.3319198,107.786433 L47.3319198,114.334532 Z M41.4597763,114.033012 L38.3643829,113.759937 L38.3643829,107.416644 C38.4146709,106.945168 38.5894477,106.495541 38.8707983,106.113851 C38.8707983,106.113851 39.3999741,105.152401 39.6275765,104.805369 C39.855179,104.458337 40.1965827,104.805369 40.1965827,104.805369 C40.1965827,104.805369 40.5835068,105.419787 40.9476708,106.113851 C41.1808745,106.545037 41.3532142,107.006442 41.4597763,107.484913 L41.4597763,114.033012 Z M35.3714105,113.680291 L32.2760171,113.424283 L32.2760171,107.063923 C32.3271707,106.591697 32.5040108,106.141817 32.7881226,105.76113 C32.7881226,105.76113 33.3116083,104.788302 33.5392107,104.446959 C33.7668132,104.105616 34.1082169,104.446959 34.1082169,104.446959 C34.1082169,104.446959 34.4951411,105.067065 34.8536149,105.76113 C35.0898791,106.191514 35.2641973,106.653088 35.3714105,107.132191 L35.3714105,113.680291 Z M29.6642788,113.356015 L26.5745755,113.08294 L26.5745755,106.756714 C26.6264457,106.286402 26.8032649,105.838539 27.086681,105.45961 C27.086681,105.45961 27.6101666,104.464026 27.832079,104.122683 C28.0539914,103.78134 28.4010852,104.122683 28.4010852,104.122683 C28.4010852,104.122683 28.7823193,104.7371 29.1464833,105.436854 C29.3827474,105.867238 29.5570656,106.328812 29.6642788,106.807915 L29.6642788,113.356015 Z M24.3668316,113.156898 L21.2714381,112.872445 L21.2714381,106.529152 C21.3225918,106.056926 21.4994318,105.607046 21.7835437,105.226359 C21.7835437,105.226359 22.3070293,104.253531 22.5346318,103.912188 C22.7622343,103.570845 23.1036379,103.912188 23.1036379,103.912188 C23.1036379,103.912188 23.4848721,104.532295 23.849036,105.226359 C24.0853002,105.656743 24.2596184,106.118317 24.3668316,106.597421 L24.3668316,113.156898 Z M19.1205949,112.895202 L16.0252015,112.622127 L16.0252015,106.278834 C16.0763551,105.806607 16.2531951,105.356727 16.537307,104.976041 C16.537307,104.976041 17.0607926,104.003213 17.2883951,103.66187 C17.5159976,103.320526 17.8574013,103.66187 17.8574013,103.66187 C17.8574013,103.66187 18.2386354,104.276287 18.6027993,104.976041 C18.8390635,105.406424 19.0133817,105.867998 19.1205949,106.347102 L19.1205949,112.895202 Z M13.7548669,112.895202 L10.6594735,112.622127 L10.6594735,106.278834 C10.7106271,105.806607 10.8874671,105.356727 11.171579,104.976041 C11.171579,104.976041 11.7007547,104.003213 11.9226671,103.66187 C12.1445795,103.320526 12.4916733,103.66187 12.4916733,103.66187 C12.4916733,103.66187 12.8729074,104.276287 13.2370713,104.976041 C13.4733355,105.406424 13.6476537,105.867998 13.7548669,106.347102 L13.7548669,112.895202 Z M8.56553084,112.587993 L5.47013739,112.309229 L5.47013739,105.960247 C5.52113904,105.490685 5.69589521,105.043074 5.97655286,104.663143 C5.97655286,104.663143 6.51141864,103.690315 6.73333104,103.348972 C6.95524344,103.007629 7.30233719,103.348972 7.30233719,103.348972 C7.30233719,103.348972 7.68357131,103.963389 8.04773524,104.663143 C8.28433687,105.09136 8.45868851,105.551107 8.56553084,106.028515 L8.56553084,112.587993 Z M3.47861587,112.229582 L0.400292601,111.967886 L0.400292601,105.618904 C0.450791414,105.148252 0.627748971,104.700039 0.912398135,104.3218 C0.912398135,104.3218 1.42450367,103.343283 1.64641607,102.99625 C1.86832847,102.649218 2.21542222,102.99625 2.21542222,102.99625 C2.21542222,102.99625 2.59665634,103.610668 2.96082027,104.310422 C3.19742189,104.738638 3.37177354,105.198385 3.47861587,105.675794 L3.47861587,112.229582 Z" id="Shape" fill="#9B99BE"></path>
                                <path d="M67.0138425,103.821163 C65.0735315,101.073351 61.3522313,104.958973 61.8358865,101.391938 C62.3195417,97.8249018 60.2199091,98.1605559 58.7632533,97.512004 C57.3065976,96.863452 58.2795981,93.3021052 55.0419531,93.3077943 C54.5126726,93.3029041 53.9838094,93.339043 53.460116,93.4158863 L52.3733143,93.489844 C50.0688394,93.6434484 51.6905069,90.2186389 47.3319198,90.127614 C42.9733327,90.0365892 44.4299884,94.3773361 39.9348398,93.3077943 C36.6061539,92.517016 35.234849,94.144085 33.6757722,94.7641917 L31.8720227,94.8893508 C29.2545944,94.1554631 27.2403127,93.3760629 21.6811226,95.5891043 L15.8317394,95.9873379 L59.3436396,103.383106 L69.0508845,105.135334 C68.2223744,104.989925 67.4877684,104.516003 67.0138425,103.821163 Z" id="Shape" fill="#9B99BE"></path>
                                <path d="M197.492643,97.5347602 C197.492643,97.5347602 199.478474,97.7793894 200.04748,94.7528136 C200.616486,91.7262377 202.175563,94.9803757 203.461517,94.1327069 C204.747471,93.2850381 204.315026,91.4190289 207.154367,91.2881807 C209.993708,91.1573325 208.861385,94.4057814 210.983778,94.4171595 C213.106171,94.4285376 214.397815,92.0562028 216.946963,94.7528136 C219.49611,97.4494244 224.457844,96.1352533 224.531815,91.8058845 C224.605786,87.4765156 229.573209,90.1674374 227.871881,92.7218219 C226.170552,95.2762064 229.146455,96.647268 230.716912,94.7528136 C232.287369,92.8583591 232.702743,97.625785 237.812418,97.5404492 C242.922093,97.4551134 197.492643,97.5347602 197.492643,97.5347602 Z" id="Shape" fill="#9B99BE"></path>
                                <path d="M226.86474,97.5404492 C226.86474,97.5404492 230.278777,95.8963131 229.709771,93.5296673 C229.140765,91.1630215 230.847783,90.0024549 231.985795,91.2881807 C233.123808,92.5739065 235.399832,94.8552165 237.106851,91.8058845 C238.813869,88.7565524 240.259145,91.1630215 239.747039,92.295143 C239.234934,93.4272644 240.651759,96.0783628 243.633351,94.7528136 C246.614943,93.4272644 247.047388,95.8337335 247.326201,97.5404492 L226.86474,97.5404492 Z" id="Shape" fill="#9B99BE"></path>
                                <path d="M204.047593,86.1794117 C202.77871,83.3348855 204.67919,83.6477834 205.669261,82.1288064 C206.659332,80.6098294 204.366237,80.9227273 205.379068,77.1224404 C205.896486,75.2505307 205.729024,73.2554695 204.906793,71.4959676 C204.245022,73.098622 203.899178,74.8140159 203.888272,76.5478461 C203.888272,79.6711358 199.489854,79.1022306 200.713217,83.3747089 C201.936581,87.6471872 201.475686,85.9290934 199.916609,90.3324199 C198.357532,94.7357464 201.90244,96.0840518 201.90244,96.0840518 C208.36066,95.8280445 205.305097,89.0296269 204.047593,86.1794117 Z" id="Shape" fill="#9B99BE"></path>
                            </g>
                            <g id="tracteur" transform="translate(394.115054, 97.960659)">
                                <ellipse id="Oval" fill="#9B99BE" transform="translate(25.288998, 62.727993) rotate(-87.140000) translate(-25.288998, -62.727993) " cx="25.2889976" cy="62.7279935" rx="14.1910134" ry="11.6113558"></ellipse>
                                <ellipse id="Oval" fill="#9B99BE" transform="translate(62.045304, 37.782935) rotate(-87.140000) translate(-62.045304, -37.782935) " cx="62.0453044" cy="37.7829355" rx="32.3309294" ry="24.7303105"></ellipse>
                                <path d="M80.4347092,23.0065277 L51.2105534,21.5444412 L24.6550364,29.8504577 C21.9657565,30.6078672 19.5253124,32.0644145 17.58229,34.0717345 C11.6247956,40.107819 11.6475559,54.3020046 12.0515502,60.8102805 C12.0515502,60.8102805 10.4469529,60.8557929 10.0998591,61.8798224 C9.75276539,62.9038518 9.83242626,67.2161535 9.83242626,67.2161535 C9.83242626,67.2161535 9.79259583,68.251561 11.1240702,68.3198296 L37.9584002,69.662446 L43.5915611,69.9412095 C43.6655313,69.9324504 43.7370616,69.9092554 43.8020934,69.8729409 L78.6764802,57.925931 L80.4347092,23.0065277 Z M12.1539713,62.1187626 L12.1539713,62.0675611 C12.1539713,62.0675611 12.1539713,62.1016954 12.1539713,62.1187626 Z" id="Shape" fill="#9B99BE"></path>
                                <path d="M61.4128337,46.081324 C54.6416605,45.7456699 48.763827,53.3405548 48.2801717,63.040389 C48.1076485,66.113254 48.538723,69.190155 49.5490555,72.0973604 C50.8065591,77.5816068 55.8081231,80.6878294 55.8081231,80.6878294 C56.0521692,80.8706147 56.351169,80.9649133 56.6559423,80.9552149 C57.2590888,80.9836601 59.683055,81.2282894 59.683055,81.2282894 C66.4542281,81.5639435 72.3320617,73.9690586 72.8157169,64.2635353 C73.2993721,54.558012 68.1783168,46.4283562 61.4128337,46.081324 Z" id="Shape" fill="#D4D3E3"></path>
                                <path d="M60.8836579,46.081324 C60.707266,46.081324 60.5251841,46.0415006 60.3146518,46.0358116 C53.207765,45.6774013 47.0568085,53.2893533 46.5674632,63.0290109 C46.1350186,71.7617063 50.3968746,79.2371211 56.3998895,80.9495258 C53.2703557,79.1972977 55.6829417,76.0569408 55.8308833,73.7585637 C55.9788249,71.4601865 52.2916651,69.4974635 51.9502614,64.6560799 C51.6088577,59.8146964 53.9645432,60.6054746 55.0741052,57.3001352 C56.1836672,53.9947958 54.0043736,53.357622 54.9034033,49.8588548 C55.802433,46.3600876 60.6389853,46.081324 60.8836579,46.081324 Z" id="Shape" fill="#9B99BE"></path>
                                <ellipse id="Oval" fill="#E9E9F4" transform="translate(61.370386, 63.709235) rotate(-87.140000) translate(-61.370386, -63.709235) " cx="61.3703856" cy="63.7092352" rx="5.18364602" ry="3.62392634"></ellipse>
                                <polygon id="Shape" fill="#7367E5" points="40.6668695 24.9521836 66.2721462 26.2265313 62.5622261 11.1448535 46.5276328 10.3426972"></polygon>
                                <path d="M100.042661,9.00008081 C87.6041867,8.37428505 76.80445,22.3295305 75.9168004,40.1533315 C75.5974847,45.7970519 76.3881468,51.4486069 78.2440356,56.7881205 C80.5542005,66.8691213 89.6867492,72.5752408 89.6867492,72.5752408 C90.1356433,72.9109031 90.6855989,73.0834863 91.2458261,73.0644993 C92.3838384,73.1213898 96.8163963,73.5651359 96.8163963,73.5651359 C109.249181,74.1852426 120.048917,60.2356862 120.942257,42.4061962 C121.835597,24.5767061 112.475445,9.62018752 100.042661,9.00008081 Z" id="Shape" fill="#D4D3E3"></path>
                                <ellipse id="Oval" fill="#9B99BE" transform="translate(101.632895, 41.445537) rotate(-87.140000) translate(-101.632895, -41.445537) " cx="101.632895" cy="41.4455373" rx="13.138352" ry="7.26491985"></ellipse>
                                <ellipse id="Oval" fill="#E9E9F4" transform="translate(101.632895, 41.445537) rotate(-87.140000) translate(-101.632895, -41.445537) " cx="101.632895" cy="41.4455373" rx="9.8551865" ry="5.45011215"></ellipse>
                                <path d="M63.3645248,11.1846769 C63.3645248,11.1846769 65.9022922,0.204805884 67.916574,0.312897879 C69.4756508,0.398233664 87.0807011,1.26296962 87.0807011,1.26296962 C87.8246767,1.53180895 88.452187,2.05061966 88.8560002,2.73074513 C89.5331176,3.69219497 89.8859014,7.17389501 90.0679833,10.0696227 C90.2159249,12.3452436 88.0423214,13.2839372 88.0423214,13.2839372 L86.7563675,16.4015379 L82.7050438,21.9711202 L76.0875023,23.6778359 L66.6363101,22.8813685 L63.3645248,11.1846769 Z" id="Shape" fill="#E9E9F4"></path>
                                <polygon id="Shape" fill="#9B99BE" points="39.2443541 25.9591459 45.7025739 9.06266039 63.4271154 9.95015255 67.7174218 27.3814089"></polygon>
                                <path d="M99.0525904,8.98301365 C98.7225669,8.94887934 98.3925433,8.91474503 98.0568297,8.89767787 C85.0038286,8.2491259 73.6976764,22.2271275 72.7986467,40.1248862 C72.0020381,56.1623248 79.8372528,69.8956971 90.870282,73.0474321 C85.1119398,69.8217394 89.5444977,64.0530404 89.8688312,59.8374526 C90.1931647,55.6218648 83.3650909,52.0036275 82.7391841,43.1343949 C82.1132774,34.2651623 86.4434142,35.6874254 88.4804562,29.6172065 C90.5174982,23.5469877 86.5116949,22.3750429 88.1675028,15.9634809 C89.7777902,9.67138899 98.6201458,9.01145892 99.0525904,8.98301365 Z" id="Shape" fill="#9B99BE"></path>
                                <polygon id="Shape" fill="#9B99BE" points="98.0568297 8.89767787 95.9799572 8.79527493 92.5659203 8.62460336 87.1432917 8.35152884 89.7436498 12.5045371 94.5802021 9.62587657"></polygon>
                                <path d="M89.9371119,8.49375515 C89.9371119,8.49375515 89.6867492,5.56958225 89.4477666,4.56830903 C89.2087841,3.56703582 88.8787605,1.53035508 86.6482564,1.24021341 C86.6482564,1.24021341 84.303951,2.50318303 84.0080678,6.7927285 C83.7121847,11.082274 84.1787697,11.5999777 83.0692077,13.9381782 C81.9596457,16.2763788 82.3067395,15.9065904 82.3067395,15.9065904 C82.3067395,15.9065904 86.2271918,7.94191708 99.0525904,8.98301365 L89.9371119,8.49375515 Z" id="Shape" fill="#9B99BE"></path>
                                <path d="M60.9519387,10.4678563 C60.9519387,10.4678563 61.3900734,14.1486732 59.5692537,15.5254239 C57.7484341,16.9021745 56.3998895,16.0033042 53.8109115,18.7738727 C51.2219335,21.5444412 50.0042604,22.9780824 46.7154048,22.8130999 C44.7044901,22.7227147 42.6912489,22.9297542 40.7408403,23.4275176 L39.9613018,25.5210888 L67.0687548,26.8750833 L63.0515714,10.3768315 L60.8722778,10.32563 L60.9519387,10.4678563 Z" id="Shape" fill="#E9E9F4"></path>
                                <path d="M39.9613018,25.5210888 C39.9613018,25.5210888 48.2517214,28.1380529 45.9358664,27.8706674 C43.6200114,27.603282 36.6781364,27.0798892 37.0821307,28.3542369 C37.4861251,29.6285846 26.8855405,30.6298578 26.8855405,30.6298578 C26.8855405,30.6298578 24.0006794,31.9781632 25.7475282,34.1855155 L24.4672644,60.7192557 C24.4672644,60.7192557 20.7516543,61.0947331 20.7232039,61.6693274 C20.6947536,62.2439217 22.9707782,63.1314139 22.1741696,63.5580928 C21.377561,63.9847717 16.1768448,65.8052685 20.3647301,68.7692648 L43.6313915,69.9070752 L47.0454284,68.7692648 C47.0454284,68.7692648 45.9074161,61.2198923 48.4508736,55.0529596 C50.9943311,48.8860268 54.5733798,45.8708291 60.8836579,46.081324 C67.1939361,46.2918189 71.802886,60.3039549 71.802886,60.3039549 L76.0476718,58.8475575 C76.0476718,58.8475575 70.6705637,45.8480729 74.7218875,29.3270648 C74.7218875,29.3270648 76.0362917,24.9009821 77.8912517,21.9824983 L69.1114869,26.3858248 C69.1114869,26.3858248 68.935095,26.95473 65.2137947,26.8011256 L39.972682,25.538156" id="Shape" fill="#E9E9F4"></path>
                                <path d="M26.8855405,30.6412359 C26.8855405,30.6412359 33.6453336,31.3409894 36.2513818,33.2923343 C38.8574299,35.2436793 42.3056072,39.3568641 42.5445898,46.3430204 C42.755122,52.5042641 41.1960452,61.5555464 41.1960452,61.5555464 L36.0749899,61.3052281 L24.4672644,34.4870353 C24.4672644,34.4870353 23.596685,30.2600694 26.8741604,30.6412359" id="Shape" fill="#9B99BE"></path>
                                <path d="M14.532417,60.2243081 L37.7876984,61.3621186 C37.7876984,61.3621186 44.4621405,35.101453 27.482997,34.2537842 C11.380123,33.4800731 14.532417,60.2243081 14.532417,60.2243081 Z" id="Shape" fill="#D4D3E3"></path>
                                <path d="M40.5416881,22.2669509 C40.0298016,22.3135831 39.5138102,22.2828976 39.0110616,22.175926 C38.4079151,22.0052545 38.4420554,21.1518966 38.4420554,21.1518966 L38.493266,20.1278672 C39.266911,19.909837 39.8159552,19.2236536 39.8588807,18.4211515 L40.1263136,13.1360219 C40.161626,12.3226751 39.6670454,11.5797858 38.9029504,11.298458 L38.9712311,9.96153066 L37.8332189,9.44951595 L37.7421779,11.2472565 C36.9595556,11.4570727 36.3998168,12.1451541 36.3538029,12.9539722 L36.09206,18.2334128 C36.0560223,19.0418565 36.5421699,19.7824124 37.2983531,20.0709767 L37.2130021,21.7776924 C37.3040431,23.9281542 40.71239,23.4332066 40.71239,23.4332066 L40.5416881,22.2669509 Z" id="Shape" fill="#E9E9F4"></path>
                                <path d="M40.2116646,22.284018 C39.8083685,22.3047362 39.4041681,22.2683455 39.0110616,22.175926 C38.4079151,22.0052545 38.4420554,21.1518966 38.4420554,21.1518966 L38.493266,20.1278672 C39.266911,19.909837 39.8159552,19.2236536 39.8588807,18.4211515 L40.1263136,13.1360219 C40.161626,12.3226751 39.6670454,11.5797858 38.9029504,11.298458 L38.9712311,9.96153066 L38.402225,9.6941452 C38.4282103,10.26466 38.397715,10.8363459 38.311184,11.4008609 C38.1973828,11.5032638 37.6226866,11.9697661 37.7421779,12.4362684 C37.8616692,12.9027707 38.2599735,13.699238 37.9868505,14.1941856 C37.7137276,14.6891332 36.4391538,15.1385683 37.0423003,16.5892766 C37.6454468,18.039985 38.3680846,18.6145793 38.0608213,19.234686 C37.753558,19.8547927 37.7706282,21.5785755 37.7990785,21.9256077 C37.8275288,22.2726399 38.3680846,22.9041247 39.9328515,23.0292839 L40.2116646,22.284018 Z" id="Shape" fill="#9B99BE"></path>
                                <path d="M10.7485262,74.1953475 C10.7485262,74.1953475 18.2650974,74.7642527 22.305041,75.6062325 C26.3449847,76.4482122 30.3223377,75.6745011 31.3522388,75.225066 C32.3821399,74.7756308 32.9568362,76.5506152 35.722206,76.4823465 C38.4875759,76.4140779 47.472183,79.031042 49.6685468,79.144823 C51.8649105,79.2586041 53.1736246,78.7693456 56.7356031,79.4975443 C60.2975816,80.225743 62.2492727,81.6593842 65.1398239,79.9185341 C68.0303752,78.1776841 67.9848547,76.8692021 71.0062773,77.1081423 C74.0277,77.3470825 77.5384679,68.3697579 79.6210304,69.5985932 C81.7035929,70.8274285 85.9882092,71.4020228 87.075011,71.1744607 C88.1618127,70.9468986 93.2601078,70.3097247 96.9586478,71.6694082 C100.657188,73.0290918 103.883453,72.3520945 107.809595,68.7793697 C111.735737,65.2066448 118.353279,66.424102 118.353279,66.424102 L98.4892743,82.5696325 L51.8762906,92.3832478 L0.142251537,86.4495662 L10.7485262,74.1953475 Z" id="Shape" fill="#9B99BE"></path>
                            </g>
                            <g id="plan1" transform="translate(0.787879, 104.284278)" fill="#FFFFFF">
                                <path d="M601.418275,101.603645 C601.418275,101.603645 578.510087,101.910854 568.347637,101.677602 C469.966474,99.4418049 347.294438,103.589124 337.28562,77.3057022 C334.531631,70.0806057 348.722644,63.3561459 345.752432,54.2650402 C341.365394,40.8331876 305.352995,34.5126505 281.76769,32.4190792 L276.953898,32.0037784 L348.216228,2.53448722 C348.216228,2.53448722 337.780656,0.935863509 331.003792,0.935863509 L220.827132,27.3501336 C151.27182,21.5985016 0.691391561,13.1900823 0.691391561,13.1900823 C2.68691871,13.5977276 3.71553757,13.8904803 4.7199551,14.2539351 C5.61664497,14.6477503 6.41810728,15.2298231 7.06995049,15.9606508 C9.14682294,18.3841871 7.29755295,21.8488199 8.57212673,23.2369487 C9.8467005,24.6250775 12.3787779,25.5125696 12.9591641,28.3058943 C13.5395504,31.099219 14.4556503,32.9310939 17.8639971,32.4702807 C21.272344,32.0094674 25.3919485,34.9450184 25.4716094,37.8691913 C25.4716094,37.8691913 109.115513,48.1094856 116.102909,59.4875903 C124.825773,73.6533306 73.182775,86.4024969 74.8670332,112.202349 L601.401205,114.409702 L601.418275,101.603645 Z" id="Shape"></path>
                            </g>
                        </g>
                    </g>
                </g>
                <g id="left" transform="translate(0.787879, 191.284278)" fill-rule="nonzero">
                    <g id="House" transform="translate(40.000000, 123.000000)">
                        <polygon id="Shape" fill="#E9E9F4" points="155.954338 0.651552743 114.610351 54.2936273 114.610351 188.953496 197.292634 164.336967 197.292634 54.481366"></polygon>
                        <polygon id="Shape" fill="#D4D3E3" points="39.4560187 2.59720865 0.376676338 51.7904443 0.376676338 154.546108 114.610351 188.953496 114.610351 54.2936273 155.954338 0.651552743"></polygon>
                        <polygon id="Rectangle-path" fill="#FFFFFF" points="64.4809091 68.6471064 91.8557949 68.6471064 91.8557949 100.818697 64.4809091 100.818697"></polygon>
                        <polygon id="Rectangle-path" fill="#FFFFFF" points="132.12436 68.6471064 155.24877 68.6471064 155.24877 100.818697 132.12436 100.818697"></polygon>
                        <path d="M136.960912,68.6471064 C136.960912,68.6471064 135.435976,75.4170787 140.374949,78.4664107 C145.313923,81.5157428 148.568638,83.0176526 148.568638,88.9399561 C148.568638,94.8622596 155.24877,97.513358 155.24877,97.513358 L155.24877,100.818697 L132.12436,100.818697 L132.12436,68.6471064 L136.960912,68.6471064 Z" id="Shape" fill="#E9E9F4"></path>
                        <polygon id="Rectangle-path" fill="#FFFFFF" points="166.748384 68.6471064 186.839991 68.6471064 186.839991 100.818697 166.748384 100.818697"></polygon>
                        <path d="M169.536514,68.6471064 C169.536514,68.6471064 168.739906,73.1073234 172.296194,75.5706831 C175.852483,78.0340428 181.303562,80.4917134 179.124268,88.9740904 C176.944974,97.4564675 186.839991,97.735231 186.839991,97.735231 L186.839991,100.830076 L166.748384,100.830076 L166.748384,68.6471064 L169.536514,68.6471064 Z" id="Shape" fill="#E9E9F4"></path>
                        <path d="M87.4972078,68.6471064 C87.4972078,68.6471064 87.0078625,74.5750989 82.1144097,77.9999084 C77.2209568,81.424718 79.9123559,85.0884677 76.2479563,88.0240187 C72.5835567,90.9595697 64.4809091,91.3691815 64.4809091,96.096784 L64.4809091,100.818697 L91.8501049,100.818697 L91.8501049,68.6471064 L87.4972078,68.6471064 Z" id="Shape" fill="#E9E9F4"></path>
                        <polygon id="Rectangle-path" fill="#FFFFFF" points="17.2078782 68.6471064 44.5827641 68.6471064 44.5827641 100.818697 17.2078782 100.818697"></polygon>
                        <path d="M39.8486329,68.6471064 C39.8486329,68.6471064 40.0364049,76.7426279 37.6636493,78.5631246 C35.2908936,80.3836214 31.1655991,78.8874006 28.4969602,84.7357464 C28.4969602,84.7357464 30.8014351,89.7534906 29.3163291,100.818697 L44.5827641,100.818697 L44.5827641,68.6471064 L39.8486329,68.6471064 Z" id="Shape" fill="#E9E9F4"></path>
                    </g>
                    <path d="M237.275564,276.93169 C206.771145,272.801438 160.06712,289.231421 160.06712,289.231421 L165.62631,359.303479 L632.780358,359.701713 C368.084388,292.013368 278.51713,282.51265 237.275564,276.93169 Z" id="Shape" fill="#D4D3E3"></path>
                    <path d="M165.011783,243.667801 C161.449805,236.061538 163.230794,231.720791 167.50403,222.328166 C171.777266,212.93554 158.968938,209.977233 154.610351,202.501818 C150.251764,195.026403 154.610351,188.620531 148.635786,188.620531 C142.661222,188.620531 145.096568,199.298882 139.463407,208.407055 C133.830246,217.515227 145.785065,226.708736 141.870303,233.83143 C137.955541,240.954123 144.715334,242.729107 139.025272,254.477 C133.335211,266.224894 141.870303,271.544158 141.870303,271.544158 C144.178257,273.697872 147.192758,274.935823 150.348495,275.025858 L150.348495,285.33442 L157.32451,285.33442 L157.32451,274.212323 C162.792659,272.653523 167.862504,269.274226 170.354751,265.894929 C175.339245,259.1022 168.573762,251.274064 165.011783,243.667801 Z" id="Shape" fill="#9B99BE"></path>
                    <path d="M170.354751,265.866483 C175.339245,259.1022 168.573762,251.274064 165.011783,243.679179 C161.449805,236.084294 163.230794,231.732169 167.50403,222.339544 C171.777266,212.946918 158.968938,209.988611 154.610351,202.513196 C150.251764,195.037782 154.610351,188.631909 148.635786,188.631909 C146.541844,188.631909 145.483492,189.940391 144.743784,192.04534 C143.924415,196.317818 143.543181,201.802065 146.2232,204.1744 C150.917501,208.327408 155.975966,208.867868 155.617492,213.202926 C155.259018,217.537984 147.850558,217.185262 151.099583,225.30354 C154.348608,233.421818 154.894854,233.791606 151.281665,241.375113 C147.668476,248.95862 142.610011,254.562336 148.209032,263.408813 C150.727917,267.437823 153.81965,271.07902 157.387101,274.218012 C162.83249,272.602321 167.856814,269.234402 170.354751,265.866483 Z" id="Shape" fill="#D4D3E3"></path>
                    <path d="M235.568546,252.269648 C235.568546,252.269648 242.316959,248.469361 246.567435,252.269648 C250.817911,256.069935 249.679898,261.628139 254.49938,261.508669 C259.318862,261.389199 264.980474,265.690123 264.69597,269.740728 C264.411467,273.791333 269.24802,271.515712 269.24802,274.047341 C269.24802,276.578969 269.930827,280.259786 275.029122,281.01643 C280.127417,281.773074 283.12608,283.906468 283.12608,286.961489 C283.12608,286.961489 279.143037,283.923535 271.797167,284.173854 C264.451298,284.424172 263.580718,284.173854 260.747068,283.667528 C257.913417,283.161202 255.933276,280.885581 252.246116,281.391907 C248.558956,281.898233 241.304128,284.594844 235.585616,280.208584 L235.568546,252.269648 Z" id="Shape" fill="#D4D3E3"></path>
                    <path d="M319.912327,359.661889 L300.73113,359.661889 L300.73113,345.217385 C300.73113,341.388653 303.877734,337.167376 303.877734,337.167376 C303.877734,337.167376 307.126759,331.165426 308.549274,329.037721 C309.97179,326.910015 312.099873,329.037721 312.099873,329.037721 C312.099873,329.037721 314.444178,332.849386 316.720203,337.167376 C319.314871,342.156675 319.912327,345.644064 319.912327,345.644064 L319.912327,359.661889 Z M287.348105,359.576554 L268.166908,359.576554 L268.166908,342.42975 C268.166908,338.601018 271.319202,334.379741 271.319202,334.379741 C271.319202,334.379741 274.562537,328.389169 275.985052,326.255774 C277.407568,324.122379 279.541341,326.255774 279.541341,326.255774 C279.541341,326.255774 281.908406,330.06175 284.155981,334.379741 C286.750649,339.36904 287.348105,342.856429 287.348105,342.856429 L287.348105,359.576554 Z M256.473832,359.388815 L237.292634,359.388815 L237.292634,339.539711 C237.292634,335.710979 240.444928,331.489702 240.444928,331.489702 C240.444928,331.489702 243.688263,325.487752 245.110779,323.360046 C246.533294,321.232341 248.667067,323.360046 248.667067,323.360046 C248.667067,323.360046 251.039823,327.171711 253.281707,331.489702 C255.904825,336.479001 256.473832,339.96639 256.473832,339.96639 L256.473832,359.388815 Z M228.740472,359.388815 L209.559275,359.388815 L209.559275,339.539711 C209.559275,335.710979 212.705879,331.489702 212.705879,331.489702 C212.705879,331.489702 215.954904,325.487752 217.377419,323.360046 C218.799935,321.232341 220.928017,323.360046 220.928017,323.360046 C220.928017,323.360046 223.272323,327.171711 225.548347,331.489702 C228.171466,336.479001 228.740472,339.96639 228.740472,339.96639 L228.740472,359.388815 Z M352.214806,359.576554 L333.033609,359.576554 L333.033609,345.13205 C333.033609,341.303317 336.180213,337.082041 336.180213,337.082041 C336.180213,337.082041 339.429238,331.08009 340.851753,328.952385 C342.274269,326.824679 344.408042,328.952385 344.408042,328.952385 C344.408042,328.952385 346.775107,332.76405 349.022682,337.082041 C351.6458,342.071339 352.214806,345.558729 352.214806,345.558729 L352.214806,359.576554 Z" id="Shape" fill="#FFFFFF"></path>
                    <path d="M203.243306,322.449798 C203.243306,311.81127 193.262939,303.10702 180.539961,302.179704 C169.074487,301.093095 165.64338,291.740293 165.64338,291.740293 C163.435636,286.085375 158.075598,281.579646 151.253215,279.605545 L151.224764,279.605545 C150.8606,279.503142 150.496436,279.406428 150.126582,279.315403 C132.976737,274.838119 117.693232,280.072047 110.768427,282.808481 C103.695681,285.607495 104.350038,278.041055 98.1023502,270.474616 C91.8546626,262.908176 84.9412379,268.198995 78.5228486,266.196448 C75.5753967,265.2862 73.3392026,263.101604 71.7858158,261.002344 C70.9090944,259.681527 70.1147682,258.307852 69.4073701,256.889159 C69.310639,256.667286 69.2025278,256.445413 69.0944167,256.22354 L69.0944167,256.195094 C67.1149452,252.362977 64.0359277,249.209228 60.2520611,247.138123 C78.7959715,217.788302 67.3248076,194.429053 49.4409443,174.705108 C29.793162,153.035508 27.8813013,138.955104 45.2302988,108.165952 C62.5792963,77.376801 20.3192096,83.7030272 24.6550364,44.7500858 C28.9908633,5.79714434 -1.42108547e-13,0.352721245 -1.42108547e-13,0.352721245 L-1.42108547e-13,359.388815 L228.740472,359.388815 C202.384107,356.862876 203.243306,322.449798 203.243306,322.449798 Z" id="Shape" fill="#FFFFFF"></path>
                    <path d="M235.568546,252.269648 C235.568546,252.269648 237.366605,251.763323 237.702319,255.586366 C238.038032,259.409409 241.053765,260.052272 242.789234,260.279834 C244.524702,260.507396 246.362592,262.350649 245.509083,263.818424 C244.655574,265.2862 245.600124,270.423414 249.531957,269.808997 C253.463789,269.194579 256.883516,275.315999 255.904825,279.480386 C255.904825,279.480386 255.819475,281.926678 260.143921,282.535407 L235.568546,276.778086 L235.568546,252.269648 Z" id="Shape" fill="#9B99BE"></path>
                </g>
            </g>
        </g>
    </g>
</svg>