<?xml version="1.0" encoding="UTF-8"?>
<svg width="73px" height="50px" viewBox="0 0 73 50" version="1.1" xmlns="http://www.w3.org/2000/svg" xmlns:xlink="http://www.w3.org/1999/xlink">
    <!-- Generator: sketchtool 51.1 (57501) - http://www.bohemiancoding.com/sketch -->
    <title>C0C37A0E-5F2B-4B4A-81F2-F469C3E82CA3</title>
    <desc>Created with sketchtool.</desc>
    <defs>
        <filter x="-73.2%" y="-53.5%" width="246.3%" height="206.9%" filterUnits="objectBoundingBox" id="filter-1">
            <feGaussianBlur stdDeviation="0.539999954" in="SourceGraphic"></feGaussianBlur>
        </filter>
        <filter x="-71.0%" y="-71.3%" width="242.1%" height="242.6%" filterUnits="objectBoundingBox" id="filter-2">
            <feGaussianBlur stdDeviation="0.539999954" in="SourceGraphic"></feGaussianBlur>
        </filter>
        <filter x="-106.5%" y="-106.9%" width="313.1%" height="313.9%" filterUnits="objectBoundingBox" id="filter-3">
            <feGaussianBlur stdDeviation="0.539999954" in="SourceGraphic"></feGaussianBlur>
        </filter>
        <filter x="-213.1%" y="-213.9%" width="526.2%" height="527.8%" filterUnits="objectBoundingBox" id="filter-4">
            <feGaussianBlur stdDeviation="1.61999986" in="SourceGraphic"></feGaussianBlur>
        </filter>
        <linearGradient x1="213.89792%" y1="20.5640774%" x2="-22.9931286%" y2="96.090747%" id="linearGradient-5">
            <stop stop-color="#98B6F7" offset="0%"></stop>
            <stop stop-color="#192C50" offset="87%"></stop>
            <stop stop-color="#192C50" offset="100%"></stop>
        </linearGradient>
        <path d="M1.71146816,0.34514754 C0.332905377,1.06844262 -0.20017487,2.7752459 0.521210039,4.158 C1.24259495,5.54021311 2.94489068,6.07470492 4.32399301,5.35140984 C5.70309535,4.62865574 6.23563605,2.92131147 5.51425114,1.53855738 C5.01138596,0.57452459 4.0310147,0.0227213109 3.01557237,0.0227213109 C2.57529557,0.0227213109 2.12908366,0.126590163 1.71146816,0.34514754" id="path-6"></path>
        <linearGradient x1="-64.831079%" y1="17.9603949%" x2="123.018649%" y2="75.2100222%" id="linearGradient-8">
            <stop stop-color="#98B6F7" offset="0%"></stop>
            <stop stop-color="#192C50" offset="87%"></stop>
            <stop stop-color="#192C50" offset="100%"></stop>
        </linearGradient>
    </defs>
    <g id="DesignDashboardAgents-" stroke="none" stroke-width="1" fill="none" fill-rule="evenodd">
        <g id="2a-Dashboard-Produits" transform="translate(-552.000000, -70.000000)">
            <g id="Dropdown" transform="translate(324.000000, 52.000000)">
                <g id="Drone-Copy" transform="translate(228.000000, 18.000000)">
                    <g id="Collier">
                        <g id="Colors-dots" transform="translate(11.087557, 0.000000)">
                            <path d="M31.2256773,14.6810596 C31.2277289,14.6556988 31.2339682,14.6308832 31.2441268,14.607679 C31.3472431,14.3568559 31.3730033,14.0795134 31.3179252,13.8131434 C31.3179252,13.8131434 31.3179252,13.8055523 31.3179252,13.803022 C31.3179252,13.8004916 31.3179252,13.7853094 31.3179252,13.7853094 C31.3085377,13.7438159 31.3035884,13.7013911 31.3031655,13.658791 C31.3043672,13.3612705 31.5280736,13.1148702 31.8165563,13.0933192 C32.1050391,13.0717681 32.3610093,13.2823342 32.4039905,13.576554 C32.4640955,13.7458165 32.5883622,13.882771 32.7483827,13.9561092 L32.8049614,13.9839433 L32.8258709,13.9927996 C33.2936312,14.2664997 33.5022662,14.8465771 33.3203162,15.367528 C33.1383662,15.888479 32.618551,16.1993583 32.0884035,16.1042825 C31.558256,16.0092068 31.1713861,15.5357241 31.1715585,14.9821734 C31.1756092,14.8796683 31.1938317,14.7782791 31.2256773,14.6810596 Z" id="Shape-Copy-2" fill="#35C850" fill-rule="nonzero" filter="url(#filter-1)"></path>
                            <path d="M1.56310828,22.9213045 C1.58377899,22.9160012 1.60489706,22.9125025 1.62621012,22.9108501 L1.69700731,22.9033827 L1.71701521,22.9033827 C2.29416621,22.8481237 2.33264295,22.6435162 2.33264295,22.6435162 C2.39050254,22.3538564 2.66591337,22.154428 2.96853507,22.1830587 C3.27115677,22.2116895 3.50168421,22.4589843 3.50079657,22.7540341 C3.50239011,22.7769081 3.50239011,22.7998604 3.50079657,22.8227344 C3.50172986,23.2880795 3.56695174,23.7512027 3.69471931,24.1997281 C3.69421593,24.2066891 3.69421593,24.2136758 3.69471931,24.2206369 L3.70395373,24.254987 C3.90466856,24.9843187 3.62274713,25.758361 2.99432906,26.2033295 C2.36591099,26.6482981 1.52026177,26.672663 0.865744709,26.2646584 C0.211227647,25.8566538 -0.117523216,25.1002062 0.0382456427,24.3606036 C0.194014502,23.6210009 0.802261458,23.0503793 1.56926455,22.9242915 L1.56310828,22.9213045 Z" id="Shape-Copy" fill="#937BF3" fill-rule="nonzero"></path>
                            <path d="M20.0122733,23.2504443 C20.0320287,23.2453758 20.0522118,23.242032 20.0725811,23.2404528 L20.1402436,23.233316 L20.1593657,23.233316 C20.7109622,23.1805037 20.7477353,22.9849556 20.7477353,22.9849556 C20.803033,22.7081211 21.0662495,22.5175227 21.355472,22.5448858 C21.6446945,22.5722489 21.8650149,22.8085942 21.8641666,23.0905802 C21.8656896,23.1124414 21.8656896,23.1343774 21.8641666,23.1562386 C21.8650586,23.6009797 21.9273926,24.0435972 22.049503,24.4722632 C22.0490219,24.478916 22.0490219,24.4855934 22.049503,24.4922462 L22.0583286,24.5250754 C22.2501564,25.2221145 21.9807176,25.9618845 21.3801239,26.3871512 C20.7795303,26.812418 19.9713239,26.835704 19.3457868,26.4457647 C18.7202498,26.0558253 18.406055,25.3328709 18.5549269,24.6260156 C18.7037988,23.9191603 19.2851144,23.3738041 20.018157,23.253299 L20.0122733,23.2504443 Z" id="Shape-Copy-3" fill="#E3667A" fill-rule="nonzero" transform="translate(20.318880, 24.632604) rotate(64.000000) translate(-20.318880, -24.632604) "></path>
                            <path d="M23.7915826,0.972247408 C23.8048127,0.968853086 23.8183292,0.966613746 23.8319704,0.965556148 L23.8772837,0.960776676 L23.8900896,0.960776676 C24.2594908,0.925408587 24.2841175,0.794451067 24.2841175,0.794451067 C24.3211501,0.609056471 24.4974248,0.481413778 24.6911156,0.499738681 C24.8848063,0.518063584 25.0323537,0.676342778 25.0317856,0.865187246 C25.0328055,0.879827584 25.0328055,0.894518046 25.0317856,0.909158384 C25.0323829,1.20699905 25.0741277,1.50341761 25.1559044,1.79049293 C25.1555822,1.79494829 25.1555822,1.79942009 25.1559044,1.80387545 L25.1618148,1.82586102 C25.2902809,2.29266432 25.1098391,2.78808434 24.7076248,3.07288317 C24.3054105,3.35768199 23.764159,3.37327655 23.3452402,3.11213625 C22.9263214,2.85099595 22.7159069,2.36683729 22.8156056,1.8934601 C22.9153043,1.42008292 23.3046082,1.05486079 23.7955229,0.974159196 L23.7915826,0.972247408 Z" id="Shape-Copy-4" fill="#F8CC6A" fill-rule="nonzero" transform="translate(23.996915, 1.897872) rotate(64.000000) translate(-23.996915, -1.897872) "></path>
                            <ellipse id="Oval-7" fill="#15BBDF" filter="url(#filter-2)" cx="6.70764849" cy="9.68360656" rx="1.14042287" ry="1.13606557"></ellipse>
                            <ellipse id="Oval-7-Copy-2" fill="#937BF3" cx="40.9448598" cy="48.0934426" rx="1.14042287" ry="1.13606557"></ellipse>
                            <ellipse id="Oval-7-Copy-3" fill="#F8CC6A" filter="url(#filter-3)" cx="36.2482796" cy="29.5377049" rx="1" ry="1"></ellipse>
                            <ellipse id="Oval-7-Copy" fill="#35C850" filter="url(#filter-4)" cx="12.0296219" cy="39.004918" rx="1.14042287" ry="1.13606557"></ellipse>
                        </g>
                        <g id="Collier-2" transform="translate(0.000000, 2.868852)">
                            <polygon id="Fill-1" fill="#0F1C34" points="5.9899767 35.8156115 5.77415474 36.0076607 5.94681231 36.0412016 5.86318129 36.4810213 13.1250508 37.8718902 13.2518462 37.2064803"></polygon>
                            <g id="Group-15" transform="translate(10.791098, 0.000000)">
                                <g id="Group-7" transform="translate(0.000000, 0.081967)" fill="url(#linearGradient-5)">
                                    <path d="M55.872691,0.0519344262 C54.4390936,0.0519344262 53.1349894,0.594 52.1411293,1.47904918 C40.2563534,10.0417377 40.2250592,28.7873607 30.7634244,31.9943115 C23.1400531,34.5780492 8.39131976,32.999459 2.94343388,32.2880656 L3.27633925,34.2583279 L1.77529751,41.6286885 L0.43612223,43.229459 C0.558061639,43.2375738 1.26110168,43.2776066 1.38519931,43.2776066 C1.38519931,43.2776066 17.4580004,43.165082 28.1023396,43.2776066 C38.7466788,43.3895902 46.2858795,35.4576885 49.2426403,24.6369344 C51.5616473,16.1510656 56.3971384,12.0958525 58.3762258,10.7401475 C60.22582,9.81614754 61.4997091,7.90647541 61.4997091,5.69385246 C61.4997091,2.57778689 58.9805273,0.0519344262 55.872691,0.0519344262" id="Fill-5"></path>
                                </g>
                                <g id="Group-10" transform="translate(0.000000, 3.868852)" fill="#24385E">
                                    <path d="M58.3763337,6.95347869 C60.2259279,6.02947869 61.499817,4.11926557 61.499817,1.90664262 C61.499817,1.34564262 61.4151069,0.804659016 61.2629524,0.293429508 C57.7380402,1.59287213 53.8386769,4.31618361 51.8191229,7.49987213 C48.5359313,12.6760033 48.7593071,17.3019541 46.85252,23.0839869 C44.0705749,31.5206262 40.2963884,34.0859705 35.4679115,36.0957246 C30.7376337,38.0643639 25.5832656,35.9301836 21.5414598,34.8336098 C17.5001936,33.737577 12.9922124,36.8650033 8.32829975,34.8336098 C3.6649267,32.8022164 4.10142662,29.9290525 4.10142662,29.9290525 L2.9278947,36.2417902 C2.49085522,38.6432164 1.36102725,39.3037574 0.511228273,39.447118 C0.731366675,39.4601016 1.27739624,39.4909377 1.38530722,39.4909377 C1.38530722,39.4909377 17.4581083,39.3784131 28.1024475,39.4909377 C38.7467867,39.6029213 46.2859874,31.6704787 49.2427483,20.8502656 C51.5617552,12.3638557 56.3972463,8.30864262 58.3763337,6.95347869" id="Fill-8"></path>
                                </g>
                                <path d="M33.5428336,36.9247902 C34.3883161,38.546118 36.3846692,39.172577 38.0017153,38.3243148 C39.6182218,37.4765934 40.2430264,35.4749541 39.3975438,33.8541672 C38.5520613,32.2328393 36.5557082,31.6063803 34.9386621,32.4541016 C33.3221556,33.3023639 32.697351,35.3034623 33.5428336,36.9247902" id="Fill-13" fill="#FFFFFF"></path>
                            </g>
                            <g id="Group-18" transform="translate(44.243502, 32.540984)">
                                <mask id="mask-7" fill="white">
                                    <use xlink:href="#path-6"></use>
                                </mask>
                                <g id="Clip-17"></g>
                                <path d="M1.71146816,0.34514754 C0.332905377,1.06844262 -0.20017487,2.7752459 0.521210039,4.158 C1.24259495,5.54021311 2.94489068,6.07470492 4.32399301,5.35140984 C5.70309535,4.62865574 6.23563605,2.92131147 5.51425114,1.53855738 C5.01138596,0.57452459 4.0310147,0.0227213109 3.01557237,0.0227213109 C2.57529557,0.0227213109 2.12908366,0.126590163 1.71146816,0.34514754" id="Fill-16" fill="#FFFFFF" mask="url(#mask-7)"></path>
                            </g>
                            <g id="Group-37" transform="translate(0.000000, 8.737705)">
                                <path d="M56.3029321,11.6371525 C56.8495012,11.8865459 57.1548893,12.3923656 56.9849295,12.7667262 C56.8149697,13.1410869 56.2344086,13.2422508 55.6873,12.9923164 C55.1407308,12.742923 54.8353428,12.2371033 55.0053026,11.8627426 C55.1752624,11.488923 55.756363,11.387759 56.3029321,11.6371525" id="Fill-19" fill="#122240"></path>
                                <path d="M59.3660932,5.60891803 C59.9126623,5.85831148 60.2180504,6.36413115 60.0480906,6.7384918 C59.8781308,7.11285246 59.2975697,7.21401639 58.7504611,6.96408197 C58.203892,6.71468852 57.8985039,6.20886885 58.0684637,5.8345082 C58.2384235,5.46068852 58.8195241,5.35952459 59.3660932,5.60891803" id="Fill-21" fill="#122240"></path>
                                <path d="M63.1859261,0.547259016 C63.6278216,0.955160656 63.7605521,1.53076721 63.4832209,1.83371803 C63.2053501,2.13612787 62.6220913,2.05119344 62.1796562,1.6432918 C61.7377608,1.23539016 61.6044907,0.659242623 61.8823615,0.356832787 C62.1602323,0.0538819672 62.7440307,0.139357377 63.1859261,0.547259016" id="Fill-23" fill="#122240"></path>
                                <path d="M62.3307856,1.26097869 C61.8176688,0.575011475 62.3178362,0.183339344 62.3232318,0.177929508 C62.3221527,0.177929508 62.3210736,0.177388525 62.3194549,0.177388525 L62.0950001,0.221208197 C62.0146064,0.250962295 61.9406874,0.2937 61.8824154,0.356995082 C61.6050842,0.659404918 61.7378147,1.23555246 62.1802497,1.6434541 C62.6221452,2.05081475 63.2054041,2.13629016 63.4832748,1.83388033 C63.244252,1.83712623 62.7359913,1.80250328 62.3307856,1.26097869" id="Fill-25" fill="#292758"></path>
                                <path d="M58.8629043,6.60449016 C58.2569842,6.27935902 58.1846838,5.86983443 58.1884607,5.67453934 C58.1393612,5.72106393 58.0967363,5.77299836 58.0686795,5.83467049 C57.8987197,6.20903115 58.2041078,6.71485082 58.7506769,6.96424426 C59.297246,7.2136377 59.8783466,7.11247377 60.0483064,6.7386541 C60.0483064,6.7386541 59.6868047,7.04701475 58.8629043,6.60449016" id="Fill-27" fill="#292758"></path>
                                <path d="M55.8184118,12.5941525 C55.2858711,12.313382 55.1482846,11.8887098 55.1132135,11.7134311 C55.0695096,11.7572508 55.0312012,11.8053984 55.0053026,11.8627426 C54.8353428,12.2371033 55.1407308,12.742923 55.6873,12.9923164 C56.2344086,13.2422508 56.8149697,13.1410869 56.9849295,12.7667262 C56.9849295,12.7667262 56.5014883,12.9539066 55.8184118,12.5941525" id="Fill-29" fill="#292758"></path>
                                <path d="M11.3256891,33.0712475 C11.9159622,33.1713295 12.4760202,32.8153623 12.5860894,32.2776246 L14.2398252,24.1515098 C14.2927015,23.8923787 14.2317318,23.6283787 14.0682467,23.4087393 C13.9047616,23.188559 13.6598036,23.0408705 13.3786955,22.992182 L4.55103772,21.4693131 C4.27316694,21.4206246 3.98342596,21.4758049 3.74440314,21.6267393 C3.50538031,21.7776738 3.3451325,22.0032639 3.29225612,22.2623951 L1.63744123,30.3885098 C1.58456485,30.648182 1.64607411,30.911641 1.80901969,31.1318213 C1.97250482,31.3514607 2.21746275,31.4996902 2.49964997,31.5483787 L11.3262287,33.0712475 L11.3256891,33.0712475 Z M11.5253244,34.0818049 C11.3942126,34.0818049 11.2609425,34.0709852 11.1276725,34.047723 L11.1271329,34.047723 L2.30001465,32.5248541 C1.73564022,32.427477 1.24464526,32.131559 0.918214539,31.6928213 C0.591783821,31.2535426 0.470923522,30.7255426 0.577215838,30.2056574 L2.23203073,22.0795426 C2.33724394,21.5596574 2.65827911,21.1079361 3.13470609,20.8071492 C3.61167263,20.5069033 4.18575905,20.3960016 4.75013348,20.4928377 L13.5772517,22.0157066 C14.3574481,22.1585262 14.6072621,22.4863623 14.7599561,22.7216902 C14.8862119,22.9164443 14.8937657,23.3135262 14.892147,23.4460672 C14.887291,23.883723 14.6423331,24.2212967 14.5705723,24.5713131 L12.567205,32.461018 C12.3724256,33.4142311 12.542925,34.0818049 11.5253244,34.0818049 Z" id="Fill-31" fill="#15223C"></path>
                                <path d="M10.7861342,33.6122311 C11.3764073,33.7123131 11.9364653,33.3563459 12.0465345,32.8186082 L13.7002703,24.6924934 C13.7531466,24.4333623 13.6921769,24.1693623 13.5286918,23.949723 C13.3652067,23.7295426 13.1202487,23.5818541 12.8391406,23.5331656 L4.01148281,22.0102967 C3.73361204,21.9616082 3.44387105,22.0167885 3.20484823,22.167723 C2.96582541,22.3186574 2.8055776,22.5442475 2.75270122,22.8033787 L1.09788632,30.9294934 C1.04500994,31.1891656 1.1065192,31.4526246 1.26946478,31.6728049 C1.43294992,31.8924443 1.67790785,32.0406738 1.96009506,32.0893623 L10.7866738,33.6122311 L10.7861342,33.6122311 Z M10.9857695,34.6227885 C10.8546577,34.6227885 10.7213876,34.6119689 10.5881176,34.5887066 L10.587578,34.5887066 L1.76045975,33.0658377 C1.19608532,32.9684607 0.705090351,32.6725426 0.378659633,32.2338049 C0.0522289149,31.7945262 -0.068631384,31.2665262 0.0376609324,30.746641 L1.69247583,22.6205262 C1.79768904,22.100641 2.1187242,21.6489197 2.59515119,21.3481328 C3.07211772,21.0478869 3.64620414,20.9369852 4.21057857,21.0338213 L13.0376968,22.5566902 C13.6026108,22.6540672 14.0930662,22.9494443 14.4189574,23.388723 C14.7459277,23.8274607 14.866788,24.3560016 14.7604956,24.8758869 L13.1067599,33.0020016 C12.9119805,33.9552148 12.0033701,34.6227885 10.9857695,34.6227885 Z" id="Fill-33" fill="url(#linearGradient-8)"></path>
                                <polygon id="Fill-35" fill="#3E5480" points="5.77420869 27.2701721 13.0360782 28.661041 12.9092828 29.3264508 5.64741329 27.935582"></polygon>
                            </g>
                        </g>
                    </g>
                </g>
            </g>
        </g>
    </g>
</svg>