<?xml version="1.0" encoding="UTF-8"?>
<svg width="113px" height="37px" viewBox="0 0 113 37" version="1.1" xmlns="http://www.w3.org/2000/svg" xmlns:xlink="http://www.w3.org/1999/xlink">
    <!-- Generator: sketchtool 52.2 (67145) - http://www.bohemiancoding.com/sketch -->
    <title>BF7175D2-142B-4D8E-BCCB-4D6D05E71FF4</title>
    <desc>Created with sketchtool.</desc>
    <defs>
        <linearGradient x1="-42.3060706%" y1="0%" x2="73.0976185%" y2="76.777805%" id="linearGradient-1">
            <stop stop-color="#98B6F7" offset="0%"></stop>
            <stop stop-color="#192C50" offset="87%"></stop>
            <stop stop-color="#192C50" offset="100%"></stop>
        </linearGradient>
        <linearGradient x1="213.89792%" y1="20.5640774%" x2="-22.9931286%" y2="96.090747%" id="linearGradient-2">
            <stop stop-color="#98B6F7" offset="0%"></stop>
            <stop stop-color="#192C50" offset="87%"></stop>
            <stop stop-color="#192C50" offset="100%"></stop>
        </linearGradient>
        <linearGradient x1="51.4919221%" y1="9.52717961%" x2="51.4919221%" y2="83.4185847%" id="linearGradient-3">
            <stop stop-color="#937BF3" offset="0%"></stop>
            <stop stop-color="#F27D90" stop-opacity="0.8" offset="37.4576727%"></stop>
            <stop stop-color="#F27D90" stop-opacity="0.3" offset="100%"></stop>
        </linearGradient>
        <filter x="-3.0%" y="-23.3%" width="106.0%" height="146.7%" filterUnits="objectBoundingBox" id="filter-4">
            <feGaussianBlur stdDeviation="1.10000002" in="SourceGraphic"></feGaussianBlur>
        </filter>
        <ellipse id="path-5" cx="23.7580082" cy="2.75337903" rx="23.7580082" ry="2.75337903"></ellipse>
        <ellipse id="path-7" cx="24.6589234" cy="2.75337903" rx="23.7580082" ry="2.75337903"></ellipse>
    </defs>
    <g id="DesignDashboardAgents-" stroke="none" stroke-width="1" fill="none" fill-rule="evenodd">
        <g id="1a-Dashboard-Overview" transform="translate(-556.000000, -730.000000)">
            <g id="tables" transform="translate(55.000000, 345.000000)">
                <g id="Drone" transform="translate(448.000000, 275.000000)">
                    <g transform="translate(54.000000, 110.000000)">
                        <path d="M89.792627,6.83651628 L87.7299744,6.83651628 L87.7299744,4.78732727 C87.7299744,3.88124429 86.9995848,3.1467189 86.0986037,3.1467189 C85.1976225,3.1467189 84.4672329,3.88124429 84.4672329,4.78732727 L84.4672329,6.83651628 L27.6130255,6.83651628 L27.6130255,4.78732727 C27.5597077,3.92231954 26.8465682,3.24822136 25.98478,3.24822136 C25.1229919,3.24822136 24.4098523,3.92231954 24.3565346,4.78732727 L24.3565346,6.83651628 L22.2876314,6.83651628 C21.2520209,6.8365163 20.4124927,7.68079835 20.4124927,8.72227303 C20.4124927,9.76374771 21.2520209,10.6080298 22.2876314,10.6080298 C22.2876314,10.6080298 32.3508762,10.7148893 36.6636953,13.9835344 C40.9765145,17.2521794 43.0579185,18.3836335 42.7453954,19.6722339 C42.4328723,20.9608344 37.9762925,25.3295042 38.5450845,34.9091485 C38.5450845,34.9091485 38.5450845,34.9657212 38.5450845,35.0034363 C38.5735803,35.6441467 39.0907038,36.1531634 39.7282711,36.1680745 C40.3658384,36.1829856 40.905932,35.6986945 40.9640136,35.060009 L40.9640136,35.0034363 C40.9640136,34.1359882 40.7827501,23.286601 46.5206748,21.3631291 L56.0401292,20.9608344 L65.5783351,21.3819867 C71.3162597,23.3054586 71.1599982,34.1548458 71.1349963,35.0222939 L71.1349963,35.0788666 C71.1930779,35.7175521 71.7331715,36.2018432 72.3707388,36.1869321 C73.0083061,36.172021 73.5254296,35.6630042 73.5539253,35.0222939 C73.5539253,34.9845788 73.5539253,34.9594353 73.5539253,34.928006 C74.1227174,25.3420759 69.6661376,20.9482626 69.3536145,19.6910915 C69.0410913,18.4339203 71.1349963,17.2647511 75.4353145,14.0338212 C79.7356328,10.8028913 89.8113784,10.6583166 89.8113784,10.6583166 C90.846989,10.6583166 91.6865172,9.81403457 91.6865172,8.77255988 C91.6865172,7.73108518 90.846989,6.88680312 89.8113784,6.88680312 L89.792627,6.83651628 Z" id="Shape" fill="url(#linearGradient-1)" fill-rule="nonzero"></path>
                        <path d="M54.4531604,17.4416129 C51.225326,15.1641225 57.1863076,12.968647 58.4292094,11.3598934 C59.6721111,9.75113977 56.2773197,9.7574486 55.6589606,9.08240297 C55.4239842,8.82374063 55.3683319,7.85217963 55.3930662,6.74813304 L27.5669073,6.74813304 L27.5669073,4.69145196 C27.51416,3.82328166 26.80865,3.1467189 25.9560819,3.1467189 C25.1035138,3.1467189 24.3980038,3.82328166 24.3452565,4.69145196 L24.3452565,6.74813304 L22.2675699,6.74813304 C21.2430391,6.74813306 20.4124927,7.5955019 20.4124927,8.64078434 C20.4124927,9.68606677 21.2430391,10.5334356 22.2675699,10.5334356 C22.2675699,10.5334356 32.2231512,10.6406859 36.4898289,13.9212815 C40.7565066,17.201877 42.8156424,18.3374678 42.5064629,19.6307795 C42.1972833,20.9240913 37.788383,25.3087334 38.3510898,34.923402 C38.3510898,34.923402 38.3510898,34.9801816 38.3510898,35.0180346 C38.3792806,35.6610875 38.8908716,36.1719653 39.5216178,36.1869309 C40.152364,36.2018965 40.6866793,35.7158348 40.7441395,35.0748141 L40.7441395,35.0180346 C40.7441395,34.147415 40.5648153,23.2583612 46.2413517,21.3278569 L55.6589606,20.9240913 L58.7074709,21.0628857 C60.3770405,19.9525303 57.6809949,19.7191033 54.4531604,17.4416129 Z" id="Shape" fill="url(#linearGradient-2)" fill-rule="nonzero"></path>
                        <polygon id="Rectangle-4-Copy" fill="url(#linearGradient-3)" filter="url(#filter-4)" points="43.960396 14.1470588 65.9405941 14.1470588 110.480694 28.2941176 0 28.2941176"></polygon>
                        <path d="M64.5082083,11.8001959 L46.7988679,11.8001959 C45.7846337,11.8001959 44.9624345,12.6807172 44.9624345,13.7668952 C44.9624345,14.8530732 45.7846337,15.7335945 46.7988679,15.7335945 L64.5082083,15.7335945 C65.5224425,15.7335945 66.3446418,14.8530732 66.3446418,13.7668952 C66.3446418,12.6807171 65.5224425,11.8001959 64.5082083,11.8001959 Z" id="Shape" fill="#FFFFFF" fill-rule="nonzero"></path>
                        <g id="Shape-+-Shape-Mask" transform="translate(2.198020, 0.000000)">
                            <mask id="mask-6" fill="white">
                                <use xlink:href="#path-5"></use>
                            </mask>
                            <use id="Mask" fill="url(#linearGradient-1)" fill-rule="nonzero" xlink:href="#path-5"></use>
                            <path d="M23.2272419,3.1467189 C23.2272419,3.1467189 17.3262163,1.8926164 18.5988624,1.59670457 C21.7203276,0.892152603 18.7444885,-0.0519470319 14.8505715,0.187600637 C14.8505715,0.187600637 28.5964153,-0.361949897 35.4408452,0.420102786 C35.4408452,0.420102786 25.9434865,0.497603502 31.6419017,1.58965905 C33.9782519,2.04057231 23.2272419,3.1467189 23.2272419,3.1467189 Z" id="Shape" fill="#FFFFFF" fill-rule="nonzero" opacity="0.400000006" mask="url(#mask-6)"></path>
                            <path d="M23.2272419,3.1467189 C23.2272419,3.1467189 17.3262163,4.39976349 18.5988624,4.70246527 C21.7203276,5.4064229 18.7444885,6.34268656 14.8505715,6.11038054 C14.8505715,6.11038054 28.5964153,6.65242792 35.4408452,5.87103494 C35.4408452,5.87103494 25.9434865,5.7935996 31.6419017,4.70950485 C33.9782519,4.25897196 23.2272419,3.1467189 23.2272419,3.1467189 Z" id="Shape" fill="#FFFFFF" fill-rule="nonzero" opacity="0.400000006" mask="url(#mask-6)"></path>
                        </g>
                        <g id="Shape-+-Shape-Mask" transform="translate(61.484058, 0.000000)">
                            <mask id="mask-8" fill="white">
                                <use xlink:href="#path-7"></use>
                            </mask>
                            <use id="Mask" fill="url(#linearGradient-1)" fill-rule="nonzero" xlink:href="#path-7"></use>
                            <path d="M23.5286337,3.1467189 C23.5286337,3.1467189 17.625793,1.89792017 18.9051641,1.59453969 C22.0212559,0.853726893 19.050835,-0.0493591881 15.1557202,0.183467692 C15.1557202,0.183467692 28.9057922,-0.359795029 35.7459939,0.423349933 C35.7459939,0.423349933 26.2457138,0.493903533 31.9458819,1.58748433 C34.2892843,2.03902738 23.5286337,3.1467189 23.5286337,3.1467189 Z" id="Shape" fill="#FFFFFF" fill-rule="nonzero" opacity="0.400000006" mask="url(#mask-8)"></path>
                            <path d="M23.5286337,3.1467189 C23.5286337,3.1467189 17.625793,4.39551762 18.9051641,4.6988981 C22.0212559,5.4044341 19.050835,6.34279698 15.1557202,6.1099701 C15.1557202,6.1099701 28.9057922,6.65323282 35.7459939,5.87008786 C35.7459939,5.87008786 26.2457138,5.79953426 31.9458819,4.70595346 C34.2892843,4.25441042 23.5286337,3.1467189 23.5286337,3.1467189 Z" id="Shape" fill="#FFFFFF" fill-rule="nonzero" opacity="0.400000006" mask="url(#mask-8)"></path>
                        </g>
                    </g>
                </g>
            </g>
        </g>
    </g>
</svg>