<?xml version="1.0" encoding="UTF-8"?>
<svg width="13px" height="11px" viewBox="0 0 13 11" version="1.1" xmlns="http://www.w3.org/2000/svg" xmlns:xlink="http://www.w3.org/1999/xlink">
    <!-- Generator: sketchtool 52.2 (67145) - http://www.bohemiancoding.com/sketch -->
    <title>EE70F6E2-5417-44AD-B5E9-BF084D0E880F</title>
    <desc>Created with sketchtool.</desc>
    <g id="DesignDashboardAgents-" stroke="none" stroke-width="1" fill="none" fill-rule="evenodd">
        <g id="1a-Dashboard-Overview" transform="translate(-1170.000000, -26.000000)" fill="#FFFFFF">
            <g id="Header">
                <g id="Menu">
                    <g transform="translate(301.000000, 17.000000)">
                        <g id="Profil" transform="translate(833.000000, 3.000000)">
                            <path d="M46.9825769,15.7778468 L43.6818182,12.3642416 L42.9178358,13.154343 C42.6870715,13.3929968 42.3129285,13.3929968 42.0821642,13.154343 L41.3181818,12.3642416 L38.0155912,15.7797413 C40.001799,15.7785831 44.9950605,15.7780275 46.9825769,15.7778468 Z M47.8180264,14.9133755 C47.8182991,13.2735291 47.8182488,9.72846016 47.8182076,8.08643715 L44.5174898,11.5 L47.8180264,14.9133755 Z M37.1817924,14.9135629 L40.4825102,11.5 L37.1819736,8.08662453 C37.1817009,9.72647094 37.1817512,13.2715398 37.1817924,14.9135629 Z M38.0147538,7.22215348 L42.5,11.8781684 L46.9870729,7.22025714 C45.0017811,7.22141693 40.0013531,7.2219729 38.0147538,7.22215348 Z M37.182353,6 L47.817647,6 C48.4706426,6 49,6.54549171 49,7.21922123 L49,15.7807788 C49,16.4541361 48.470223,17 47.817647,17 L37.182353,17 C36.5293574,17 36,16.4545083 36,15.7807788 L36,7.21922123 C36,6.54586394 36.529777,6 37.182353,6 Z" id="mail-notif"></path>
                        </g>
                    </g>
                </g>
            </g>
        </g>
    </g>
</svg>