<?xml version="1.0" encoding="UTF-8"?>
<svg width="12px" height="14px" viewBox="0 0 12 14" version="1.1" xmlns="http://www.w3.org/2000/svg" xmlns:xlink="http://www.w3.org/1999/xlink">
    <!-- Generator: sketchtool 52.2 (67145) - http://www.bohemiancoding.com/sketch -->
    <title>2A572480-BBE2-4159-91F4-D99AAF1EA6F7</title>
    <desc>Created with sketchtool.</desc>
    <g id="DesignDashboardAgents-" stroke="none" stroke-width="1" fill="none" fill-rule="evenodd">
        <g id="1a-Dashboard-Overview" transform="translate(-1134.000000, -24.000000)" fill="#FFFFFF">
            <g id="Header">
                <g id="Menu">
                    <g transform="translate(301.000000, 17.000000)">
                        <g id="Profil" transform="translate(833.000000, 3.000000)">
                            <path d="M4,16.0909091 L2.00141923,16.0909091 C0.896626522,16.0909091 0,15.2352847 0,14.1818182 C0,13.4826054 0.396611785,12.8594005 1.00281432,12.5265561 C1.00281429,12.3334296 1,10.0445558 1,10.0445558 C1,7.84560948 2.55804142,5.99427515 4.67824379,5.44119141 C4.67060751,5.38607146 4.66666667,5.32983867 4.66666667,5.27272727 C4.66666667,4.56981941 5.26362033,4 6,4 C6.73637967,4 7.33333333,4.56981941 7.33333333,5.27272727 C7.33333333,5.32980641 7.32939694,5.38600795 7.32176914,5.44109803 C9.44242557,5.99406508 11,7.84565874 11,10.0478714 L11,12.5321129 C11.606914,12.8665232 12,13.4871324 12,14.1818182 C12,15.2366504 11.1046877,16.0909091 9.99858077,16.0909091 L7.99999894,16.0909091 C7.99887192,17.1454551 7.10162935,18 6,18 C4.8954305,18 4,17.1461447 4,16.0922773 L4,16.0909091 Z M5.33333333,16.0909091 L5.33333333,16.0922773 C5.33333333,16.4429153 5.63147347,16.7272727 6,16.7272727 C6.36594817,16.7272727 6.66553536,16.4418858 6.66666347,16.0909091 L5.33333333,16.0909091 Z M9.66666667,13.1168372 L9.66666667,10.0478714 C9.66666667,8.11137451 8.02623338,6.54545455 6,6.54545455 C3.97459154,6.54545455 2.33333333,8.11190111 2.33333333,10.0445558 L2.33333333,13.1168137 C2.33333333,13.2966247 2.19016135,13.4778182 2.01354976,13.5212178 L1.83287159,13.5656166 C1.54100297,13.6373388 1.33333333,13.8896949 1.33333333,14.1818182 C1.33333333,14.5322948 1.63292027,14.8181818 2.00141923,14.8181818 L9.99858077,14.8181818 C10.3684329,14.8181818 10.6666667,14.5336233 10.6666667,14.1818182 C10.6666667,13.8909655 10.458151,13.6376236 10.1664728,13.5656467 L9.9860313,13.5211194 C9.80324088,13.4760125 9.66666667,13.296591 9.66666667,13.1168372 Z" id="notif-picto"></path>
                        </g>
                    </g>
                </g>
            </g>
        </g>
    </g>
</svg>