<?xml version="1.0" encoding="UTF-8"?>
<svg width="10px" height="10px" viewBox="0 0 10 10" version="1.1" xmlns="http://www.w3.org/2000/svg" xmlns:xlink="http://www.w3.org/1999/xlink">
    <!-- Generator: sketchtool 51.1 (57501) - http://www.bohemiancoding.com/sketch -->
    <title>28ABEC75-659D-40E9-A287-E047D8B2AA7E-1185-00008E0D670B00B6</title>
    <desc>Created with sketchtool.</desc>
    <defs></defs>
    <g id="DesignDashboardAgents-" stroke="none" stroke-width="1" fill="none" fill-rule="evenodd">
        <g id="2a-Dashboard-Produits" transform="translate(-449.000000, -28.000000)" fill="#FFFFFF" fill-rule="nonzero">
            <g id="Header">
                <g id="Menu">
                    <g transform="translate(301.000000, 17.000000)">
                        <g id="Links" transform="translate(0.000000, 7.000000)">
                            <g id="2" transform="translate(148.000000, 0.000000)">
                                <g id="product-picto">
                                    <path d="M4.49850998,4.5357819 C4.88297939,4.26591335 5.45768434,4.26578761 5.84233289,4.5357819 L9.80170068,7.31495971 C10.0758584,7.50739779 10.0761662,7.91350735 9.8023005,8.10636078 L5.8429327,10.8945069 C5.45820138,11.1654307 4.88282084,11.165557 4.49791017,10.8945069 L0.538542374,8.10636078 C0.264676641,7.91350735 0.264984437,7.50739779 0.539142188,7.31495971 L4.49850998,4.5357819 Z M8.68594982,10.6115236 C8.68594982,10.6115236 8.6650252,10.6013045 8.53300803,10.5086384 C8.31435221,10.3551585 8.26151669,10.0534828 8.4149966,9.83482703 C8.56847651,9.6161712 8.87015213,9.56333569 9.08880795,9.7168156 C9.22082512,9.8094817 9.22082512,9.8094817 9.37924573,9.92068103 C9.69608694,10.1430797 9.69608694,10.1430797 9.80170068,10.2172126 C10.0758584,10.4096507 10.0761662,10.8157602 9.8023005,11.0086136 L5.8429327,13.7967598 C5.45820138,14.0676836 4.88282084,14.0678099 4.49791017,13.7967598 L0.538542374,11.0086136 C0.264676641,10.8157602 0.264984437,10.4096507 0.539142188,10.2172126 C0.647927467,10.1408535 0.647927467,10.1408535 0.974283303,9.9117763 C1.13746122,9.7972377 1.13746122,9.7972377 1.27344282,9.70178887 C1.49209864,9.54830896 1.79377426,9.60114447 1.94725416,9.8198003 C2.10073407,10.0384561 2.04789856,10.3401317 1.82924274,10.4936116 C1.74154339,10.55517 1.65557475,10.6155135 1.65557475,10.6155135 L5.05490971,13.0057804 C5.10567755,13.0415306 5.2352057,13.0415021 5.28593316,13.0057804 L8.68594982,10.6115236 Z M5.28653298,5.32760468 C5.23550301,5.29178549 5.10529928,5.29181398 5.0543099,5.32760468 L1.65651622,7.71259978 L5.05490971,10.1035275 C5.10567755,10.1392777 5.2352057,10.1392493 5.28593316,10.1035275 L8.68085475,7.71285863 L5.28653298,5.32760468 Z"></path>
                                </g>
                            </g>
                        </g>
                    </g>
                </g>
            </g>
        </g>
    </g>
</svg>