<?xml version="1.0" encoding="UTF-8"?>
<svg width="14px" height="9px" viewBox="0 0 14 9" version="1.1" xmlns="http://www.w3.org/2000/svg" xmlns:xlink="http://www.w3.org/1999/xlink">
    <!-- Generator: sketchtool 52.2 (67145) - http://www.bohemiancoding.com/sketch -->
    <title>35CC15EE-646C-4D12-A59B-E8BAF8D18C1C</title>
    <desc>Created with sketchtool.</desc>
    <g id="DesignDashboardAgents-" stroke="none" stroke-width="1" fill="none" fill-rule="evenodd">
        <g id="1a-Dashboard-Overview" transform="translate(-302.000000, -29.000000)" fill="#FFFFFF">
            <g id="Header">
                <g id="Menu">
                    <g transform="translate(301.000000, 17.000000)">
                        <g id="Links" transform="translate(0.000000, 7.000000)">
                            <g id="1" transform="translate(0.000000, 1.000000)">
                                <g transform="translate(1.000000, -1.000000)" id="Pulse-machine">
                                    <path d="M14,10.0906841 C14,10.4225598 13.7430313,10.6922716 13.4256558,10.6922716 L10.1751935,10.6922716 L8.28052873,13.7272803 C8.17313883,13.8997354 7.99095952,14 7.79919184,14 C7.76467365,14 7.73111431,13.9969921 7.69755496,13.9909762 C7.47031025,13.9478624 7.28908979,13.7673862 7.23827135,13.5317644 L5.90644476,7.41361983 L4.55640025,10.351372 C4.45955756,10.5599223 4.25820149,10.6922716 4.03766865,10.6922716 L0.574344223,10.6922716 C0.256968701,10.6922716 -1.95e-14,10.4225598 -1.95e-14,10.0906841 C-1.95e-14,9.75880833 0.256968701,9.49009926 0.574344223,9.49009926 L3.67618656,9.49009926 L5.58235737,5.34014835 C5.6878296,5.10853717 5.92562153,4.98120116 6.16533114,5.00225672 C6.40791727,5.03133345 6.60735566,5.21782556 6.66200945,5.46748436 L8.05807821,11.8814095 L9.38223409,9.76181626 C9.48770632,9.59136648 9.66892679,9.49009926 9.86357099,9.49009926 L13.4256558,9.49009926 C13.7430313,9.49009926 14,9.75880833 14,10.0906841 Z"></path>
                                </g>
                            </g>
                        </g>
                    </g>
                </g>
            </g>
        </g>
    </g>
</svg>